<svg xmlns="http://www.w3.org/2000/svg" xmlns:xlink="http://www.w3.org/1999/xlink" viewBox="0 0 271.02 242.78"><defs><style>.cls-1{fill:#6ee8fc;opacity:0.2;}.cls-15,.cls-2{fill:#0f054c;}.cls-2{opacity:0.5;}.cls-3{fill:#dd821f;}.cls-4{fill:#ffd85a;}.cls-5{fill:#f9bf30;}.cls-6{fill:#f2b42a;}.cls-7{fill:url(#Áåçûìÿííûé_ãðàäèåíò_424);}.cls-8{fill:url(#Áåçûìÿííûé_ãðàäèåíò_3);}.cls-10,.cls-9{fill:#24126a;}.cls-9{opacity:0.6;}.cls-11,.cls-13{fill:#453c9e;}.cls-12{opacity:0.96;fill:url(#Áåçûìÿííûé_ãðàäèåíò_480);}.cls-13{opacity:0.8;}.cls-14{opacity:0.32;}.cls-15{opacity:0.3;}</style><linearGradient id="Áåçûìÿííûé_ãðàäèåíò_424" x1="653.04" y1="888.36" x2="709.54" y2="786.61" gradientTransform="matrix(0.5, -0.86, -0.86, -0.5, 580.23, 1206.94)" gradientUnits="userSpaceOnUse"><stop offset="0" stop-color="#5761d7"/><stop offset="0.04" stop-color="#5c66d9"/><stop offset="0.09" stop-color="#6a73df"/><stop offset="0.14" stop-color="#8289e8"/><stop offset="0.19" stop-color="#a3a7f5"/><stop offset="0.22" stop-color="#bcbeff"/></linearGradient><linearGradient id="Áåçûìÿííûé_ãðàäèåíò_3" x1="722.45" y1="888.72" x2="684.84" y2="815.2" gradientTransform="matrix(0.5, -0.86, -0.86, -0.5, 580.23, 1206.94)" gradientUnits="userSpaceOnUse"><stop offset="0" stop-color="#c0bff6"/><stop offset="0.29" stop-color="#c5c4f7"/><stop offset="0.64" stop-color="#d3d2f9"/><stop offset="1" stop-color="#e9e9fd"/></linearGradient><linearGradient id="Áåçûìÿííûé_ãðàäèåíò_480" x1="777.21" y1="1043.64" x2="659.36" y2="834.82" gradientTransform="matrix(0.5, -0.86, -0.86, -0.5, 580.23, 1206.94)" gradientUnits="userSpaceOnUse"><stop offset="0" stop-color="#c0bff6"/><stop offset="0.12" stop-color="#d0cff9"/><stop offset="0.26" stop-color="#e9e9fd"/><stop offset="0.51" stop-color="#c0bff6"/><stop offset="0.62" stop-color="#d0cff9"/><stop offset="0.75" stop-color="#e9e9fd"/><stop offset="1" stop-color="#c0bff6"/></linearGradient></defs><g id="Layer_2" data-name="Layer 2"><g id="Ñëîé_1" data-name="Ñëîé 1"><circle class="cls-1" cx="135.51" cy="121.39" r="121.39"/><polygon class="cls-2" points="147.01 218.99 0 126.57 59.88 88.99 153.09 153.93 195.38 206.64 147.01 218.99"/><ellipse class="cls-2" cx="98.65" cy="70.1" rx="28.83" ry="8.84" transform="translate(-17.62 36.52) rotate(-19.29)"/><polygon class="cls-3" points="87.81 43.8 88 39.05 89.11 36.28 89.81 38.58 87.81 43.8"/><path class="cls-4" d="M137.59,44.7l.19-4.65s-3.94,3.93-3.94,4S137.59,44.7,137.59,44.7Z"/><path class="cls-4" d="M112.36,58.5C98.62,58.17,87.71,51.19,88,39.05s11.67-21.7,25.41-21.37,24.65,10.43,24.36,22.57S126.1,58.83,112.36,58.5Z"/><ellipse class="cls-4" cx="112.7" cy="44.39" rx="21.97" ry="24.89" transform="translate(65.62 156) rotate(-88.63)"/><path class="cls-3" d="M95.33,28.56A20.73,20.73,0,0,0,87.81,43.8C87.52,55.93,98.43,66,112.17,66.36a26.61,26.61,0,0,0,17.6-5.89Z"/><ellipse class="cls-5" cx="112.7" cy="44.39" rx="20.99" ry="23.78" transform="translate(65.62 156) rotate(-88.63)"/><ellipse class="cls-6" cx="112.7" cy="44.39" rx="16.85" ry="19.09" transform="translate(65.62 156) rotate(-88.63)"/><path class="cls-4" d="M131.78,44.85c0-.39,0-.77,0-1.15-.88,8.76-9.31,15.49-19.41,15.25s-18.2-7.37-18.66-16.16c0,.38-.07.76-.08,1.15-.22,9.3,8.14,17.05,18.69,17.3S131.56,54.15,131.78,44.85Z"/><path class="cls-4" d="M116.36,45.81l-3.91-3.62C108.68,43,101.65,44.64,96,46a16,16,0,0,0,9.24,9.5Z"/><path class="cls-4" d="M110.2,56.75c.62.07,1.25.12,1.9.14a18.31,18.31,0,0,0,12-3.94L117.67,47Z"/><path class="cls-4" d="M108.25,38.3l-7.38-6.83c-2.48,2.16-4.69,4.55-5.29,7.74Z"/><path class="cls-3" d="M112.1,29.56c10.54.25,18.91,8,18.69,17.3a15.13,15.13,0,0,1-1.14,5.37,15.05,15.05,0,0,0,2.13-7.38c.23-9.31-8.14-17-18.68-17.31-8.4-.2-15.65,4.43-18.35,11C98,33.06,104.58,29.38,112.1,29.56Z"/><path class="cls-3" d="M88,39.05a16.36,16.36,0,0,0,.22,4.81c.54-1.78,1.73-7.11,1.73-7.11l1.9-4.23,1.58-1.3,2.67-1.95.22-6.1A20.83,20.83,0,0,0,88,39.05Z"/><path class="cls-3" d="M136.16,38.43l.11-1.25a.31.31,0,0,1,.31-.32h.09a.31.31,0,0,1,.3.33l-.1,1.25a.33.33,0,0,1-.32.32h-.09A.31.31,0,0,1,136.16,38.43Z"/><path class="cls-3" d="M134,33.64l.13-2.25a.36.36,0,0,1,.35-.36h.22a.36.36,0,0,1,.34.38l-.13,2.24a.36.36,0,0,1-.36.36h-.22A.35.35,0,0,1,134,33.64Z"/><path class="cls-3" d="M131,29.46l.12-2.18a.4.4,0,0,1,.41-.4h.38a.42.42,0,0,1,.38.43l-.13,2.18a.4.4,0,0,1-.4.41h-.38A.4.4,0,0,1,131,29.46Z"/><path class="cls-3" d="M126.41,26.09l.14-2.64A.4.4,0,0,1,127,23h.38a.4.4,0,0,1,.38.43l-.14,2.64a.4.4,0,0,1-.4.41h-.38A.4.4,0,0,1,126.41,26.09Z"/><path class="cls-3" d="M121.84,23.87l.15-3a.42.42,0,0,1,.4-.41h.38a.42.42,0,0,1,.39.43l-.15,3a.42.42,0,0,1-.4.41h-.38A.41.41,0,0,1,121.84,23.87Z"/><path class="cls-3" d="M117.26,22.52l.14-2.92a.41.41,0,0,1,.4-.41h.39a.41.41,0,0,1,.38.43l-.15,2.92a.4.4,0,0,1-.4.41h-.38A.4.4,0,0,1,117.26,22.52Z"/><path class="cls-3" d="M112.65,22.06l.15-3a.4.4,0,0,1,.4-.41h.38a.4.4,0,0,1,.38.43l-.14,3a.42.42,0,0,1-.41.41H113A.41.41,0,0,1,112.65,22.06Z"/><path class="cls-3" d="M108,22.16l.14-2.78a.41.41,0,0,1,.4-.41H109a.4.4,0,0,1,.39.42l-.15,2.79a.4.4,0,0,1-.4.41h-.38A.41.41,0,0,1,108,22.16Z"/><path class="cls-3" d="M103.39,23.17l.14-2.69a.4.4,0,0,1,.4-.41h.38a.39.39,0,0,1,.38.42l-.14,2.7a.4.4,0,0,1-.4.41h-.38A.4.4,0,0,1,103.39,23.17Z"/><path class="cls-3" d="M98.71,25.44l.15-2.92a.4.4,0,0,1,.4-.41h.38a.4.4,0,0,1,.38.43l-.14,2.92a.4.4,0,0,1-.4.4H99.1A.4.4,0,0,1,98.71,25.44Z"/><path class="cls-7" d="M271,162l0,9.83h0a.4.4,0,0,1-.23.36l-107,61.38a1.52,1.52,0,0,1-1.36-.06L145,223.33a.58.58,0,0,1-.32-.39h0s0,0,0,0l0-9.93,8.46,4.83,98.7-56.63a1.49,1.49,0,0,1,1.36.06l6,3.47Z"/><path class="cls-8" d="M251.9,151.28l-107,61.38c-.34.2-.3.55.1.78l17.43,10.13a1.52,1.52,0,0,0,1.36.06l107-61.38c.35-.2.3-.55-.1-.78l-17.43-10.13A1.52,1.52,0,0,0,251.9,151.28Z"/><path class="cls-9" d="M248,166.07,164,213.42a57.14,57.14,0,0,0-2.87-10L245,155.24A56.94,56.94,0,0,1,248,166.07Z"/><path class="cls-10" d="M255.6,157,154.74,214.83c-.24.14-.21.38.07.54l4.38,2.54a1,1,0,0,0,.93,0L261,160.08c.24-.14.21-.38-.07-.54L256.53,157A1,1,0,0,0,255.6,157Z"/><path class="cls-11" d="M261,160.08l-2.05,1.18-2.37-1.38a1.05,1.05,0,0,0-.93,0l-98.81,56.7-2-1.17c-.28-.16-.31-.4-.07-.54L255.6,157a1,1,0,0,1,.93,0l4.38,2.54C261.19,159.7,261.22,159.94,261,160.08Z"/><path class="cls-12" d="M1.35,57.28,85.26,9.13h0c0,15,10.46,33.34,23.46,40.9L224.36,117.2c15.28,8.88,27.63,30.4,27.58,48.07h0L168,213.42h0c.05-17.68-12.3-39.2-27.58-48.07L24.81,98.17c-13-7.55-23.5-25.86-23.46-40.89Z"/><path class="cls-13" d="M251.94,165.27,168,213.42c0-.78,0-1.57-.07-2.35h0l83.91-48.14C251.91,163.71,251.94,164.49,251.94,165.27Z"/><g class="cls-14"><polygon class="cls-11" points="130.43 129.16 111.43 140.07 113.26 141.13 132.26 130.23 130.43 129.16"/><polygon class="cls-11" points="140.18 123.57 133.34 127.5 135.16 128.56 142.01 124.63 140.18 123.57"/><polygon class="cls-11" points="147.73 119.24 143.08 121.91 144.91 122.97 149.56 120.3 147.73 119.24"/><polygon class="cls-11" points="117.61 131.7 107.25 137.64 109.08 138.71 119.44 132.76 117.61 131.7"/><polygon class="cls-11" points="133.2 122.75 120.51 130.03 122.34 131.1 135.03 123.81 133.2 122.75"/><polygon class="cls-11" points="140.75 118.42 136.1 121.09 137.93 122.15 142.58 119.48 140.75 118.42"/><polygon class="cls-11" points="147.94 114.29 143.29 116.96 145.12 118.03 149.77 115.36 147.94 114.29"/><polygon class="cls-11" points="110.57 130.92 103.07 135.22 104.9 136.28 112.39 131.98 110.57 130.92"/><polygon class="cls-11" points="116.03 127.78 113.47 129.25 115.3 130.31 117.86 128.84 116.03 127.78"/><polygon class="cls-11" points="123.58 123.45 118.94 126.12 120.76 127.18 125.41 124.51 123.58 123.45"/><polygon class="cls-11" points="126.55 116.92 98.9 132.79 100.73 133.85 128.38 117.98 126.55 116.92"/><polygon class="cls-11" points="136.3 111.33 129.46 115.26 131.28 116.32 138.13 112.39 136.3 111.33"/><polygon class="cls-11" points="102.21 126.06 94.72 130.36 96.55 131.43 104.04 127.13 102.21 126.06"/><polygon class="cls-11" points="119.8 115.97 105.12 124.4 106.95 125.46 121.63 117.04 119.8 115.97"/><polygon class="cls-11" points="127.35 111.64 122.7 114.31 124.53 115.37 129.18 112.7 127.35 111.64"/><polygon class="cls-11" points="105.88 119.14 90.54 127.94 92.37 129 107.7 120.2 105.88 119.14"/><polygon class="cls-11" points="119.86 111.11 108.78 117.47 110.61 118.54 121.69 112.18 119.86 111.11"/><polygon class="cls-11" points="130.26 105.15 122.77 109.45 124.6 110.51 132.09 106.21 130.26 105.15"/><polygon class="cls-11" points="91.55 122.54 86.37 125.51 88.2 126.57 93.37 123.6 91.55 122.54"/><polygon class="cls-11" points="101.29 116.95 94.45 120.88 96.28 121.94 103.12 118.01 101.29 116.95"/><polygon class="cls-11" points="115.22 108.95 104.19 115.28 106.02 116.34 117.05 110.02 115.22 108.95"/><polygon class="cls-11" points="98.05 113.98 82.19 123.08 84.02 124.15 99.88 115.05 98.05 113.98"/><polygon class="cls-11" points="115.82 103.79 100.95 112.32 102.78 113.38 117.64 104.85 115.82 103.79"/><polygon class="cls-11" points="123.37 99.46 118.72 102.13 120.55 103.19 125.2 100.52 123.37 99.46"/><polygon class="cls-11" points="130.62 95.3 125.97 97.97 127.8 99.03 132.45 96.36 130.62 95.3"/><polygon class="cls-11" points="87.52 115.21 78.01 120.66 79.84 121.72 89.34 116.27 87.52 115.21"/><polygon class="cls-11" points="168.98 107.04 182.16 99.48 183.99 100.54 170.81 108.11 168.98 107.04"/><polygon class="cls-11" points="167.63 103 177.99 97.06 179.81 98.12 169.46 104.06 167.63 103"/><polygon class="cls-11" points="166.32 98.93 173.81 94.63 175.64 95.69 168.14 99.99 166.32 98.93"/><polygon class="cls-11" points="158.73 98.46 169.63 92.2 171.46 93.27 160.56 99.52 158.73 98.46"/><polygon class="cls-11" points="157.96 94.08 165.46 89.78 167.28 90.84 159.79 95.14 157.96 94.08"/><polygon class="cls-11" points="151.78 92.8 161.28 87.35 163.11 88.41 153.6 93.87 151.78 92.8"/><polygon class="cls-11" points="151.92 87.9 157.1 84.92 158.93 85.99 153.75 88.96 151.92 87.9"/><polygon class="cls-11" points="142.89 88.25 152.93 82.5 154.75 83.56 144.72 89.32 142.89 88.25"/><polygon class="cls-11" points="139.25 85.53 148.75 80.07 150.58 81.13 141.07 86.59 139.25 85.53"/><polygon class="cls-11" points="94.46 111.22 90.42 113.54 92.25 114.6 96.29 112.28 94.46 111.22"/><polygon class="cls-11" points="106.46 104.34 97.36 109.56 99.19 110.62 108.29 105.4 106.46 104.34"/><polygon class="cls-11" points="95.1 85.72 79.75 94.53 81.58 95.59 96.93 86.78 95.1 85.72"/><polygon class="cls-11" points="105.61 79.69 99.57 83.16 101.4 84.22 107.44 80.75 105.61 79.69"/></g><ellipse class="cls-15" cx="148.79" cy="124.62" rx="37.12" ry="11.39" transform="translate(-32.81 56.14) rotate(-19.29)"/><polygon class="cls-3" points="134.84 90.76 135.08 84.66 136.5 81.08 137.4 84.04 134.84 90.76"/><path class="cls-4" d="M198.92,91.93l.24-6s-5.07,5-5.07,5.17S198.92,91.93,198.92,91.93Z"/><path class="cls-4" d="M166.44,109.7c-17.7-.43-31.74-9.42-31.36-25s15-27.94,32.71-27.52,31.74,13.43,31.36,29.05S184.13,110.12,166.44,109.7Z"/><ellipse class="cls-4" cx="166.87" cy="91.53" rx="28.29" ry="32.05" transform="translate(71.37 256.16) rotate(-88.63)"/><path class="cls-3" d="M144.51,71.15a26.59,26.59,0,0,0-9.67,19.61c-.38,15.62,13.66,28.63,31.36,29.05a34.22,34.22,0,0,0,22.65-7.58Z"/><ellipse class="cls-5" cx="166.87" cy="91.53" rx="27.03" ry="30.62" transform="translate(71.38 256.16) rotate(-88.63)"/><ellipse class="cls-6" cx="166.87" cy="91.53" rx="21.7" ry="24.58" transform="translate(71.38 256.16) rotate(-88.63)"/><path class="cls-4" d="M191.44,92.12c0-.5,0-1,0-1.48-1.13,11.27-12,19.94-25,19.63s-23.43-9.49-24-20.8c-.05.48-.09,1-.1,1.47-.28,12,10.48,22,24,22.28S191.16,104.1,191.44,92.12Z"/><path class="cls-4" d="M171.59,93.36l-5-4.67c-4.86,1.1-13.9,3.16-21.13,4.86a20.63,20.63,0,0,0,11.9,12.23Z"/><path class="cls-4" d="M163.66,107.43a24.35,24.35,0,0,0,2.44.18,23.52,23.52,0,0,0,15.4-5.07l-8.23-7.62Z"/><path class="cls-4" d="M161.14,83.68l-9.49-8.79c-3.2,2.79-6.05,5.86-6.82,10Z"/><path class="cls-3" d="M166.11,72.43c13.57.33,24.33,10.3,24,22.28a19.32,19.32,0,0,1-1.46,6.91,19.51,19.51,0,0,0,2.74-9.5c.29-12-10.48-22-24.05-22.28-10.82-.26-20.15,5.7-23.63,14.19C147.94,76.94,156.42,72.2,166.11,72.43Z"/><path class="cls-3" d="M135.08,84.66a21.17,21.17,0,0,0,.27,6.18c.71-2.29,2.24-9.15,2.24-9.15L140,76.24l2-1.67,3.44-2.51.28-7.85A26.78,26.78,0,0,0,135.08,84.66Z"/><path class="cls-3" d="M197.08,83.86l.14-1.61a.39.39,0,0,1,.4-.41h.12a.4.4,0,0,1,.38.43L198,83.88a.42.42,0,0,1-.4.41h-.13A.4.4,0,0,1,197.08,83.86Z"/><path class="cls-3" d="M194.27,77.69l.16-2.9a.46.46,0,0,1,.46-.46h.28a.48.48,0,0,1,.44.49l-.17,2.89a.45.45,0,0,1-.46.47h-.28A.45.45,0,0,1,194.27,77.69Z"/><path class="cls-3" d="M190.37,72.31l.16-2.81a.52.52,0,0,1,.52-.52h.49a.51.51,0,0,1,.49.55l-.16,2.8a.52.52,0,0,1-.52.53h-.49A.52.52,0,0,1,190.37,72.31Z"/><path class="cls-3" d="M184.52,68l.18-3.4a.52.52,0,0,1,.52-.52h.49a.52.52,0,0,1,.49.55L186,68a.52.52,0,0,1-.51.53l-.49,0A.53.53,0,0,1,184.52,68Z"/><path class="cls-3" d="M178.65,65.11l.19-3.92a.51.51,0,0,1,.51-.52h.49a.53.53,0,0,1,.5.55l-.19,3.92a.52.52,0,0,1-.52.52h-.49A.52.52,0,0,1,178.65,65.11Z"/><path class="cls-3" d="M172.74,63.37l.19-3.76a.52.52,0,0,1,.52-.53h.49a.52.52,0,0,1,.49.55l-.19,3.77a.52.52,0,0,1-.52.52h-.49A.53.53,0,0,1,172.74,63.37Z"/><path class="cls-3" d="M166.81,62.78,167,59a.52.52,0,0,1,.52-.53H168a.52.52,0,0,1,.49.55l-.19,3.82a.52.52,0,0,1-.52.53h-.49A.52.52,0,0,1,166.81,62.78Z"/><path class="cls-3" d="M160.86,62.9l.18-3.58a.52.52,0,0,1,.52-.52h.49a.51.51,0,0,1,.49.55l-.18,3.58a.53.53,0,0,1-.52.53l-.49,0A.52.52,0,0,1,160.86,62.9Z"/><path class="cls-3" d="M154.89,64.21l.17-3.47a.52.52,0,0,1,.52-.53h.49a.52.52,0,0,1,.49.55l-.17,3.47a.53.53,0,0,1-.52.53h-.49A.52.52,0,0,1,154.89,64.21Z"/><path class="cls-3" d="M148.87,67.13l.19-3.76a.5.5,0,0,1,.51-.52h.49a.53.53,0,0,1,.5.55l-.19,3.75a.53.53,0,0,1-.52.53h-.49A.52.52,0,0,1,148.87,67.13Z"/><path class="cls-2" d="M69.23,191.1c1.82,5.21-10.47,14.25-27.46,20.2s-32.24,6.54-34.06,1.33,10.47-14.26,27.46-20.2S67.4,185.89,69.23,191.1Z"/><polygon class="cls-3" points="26.21 172.14 26.43 166.78 27.67 163.64 28.47 166.24 26.21 172.14"/><path class="cls-4" d="M82.47,173.16l.21-5.26s-4.44,4.44-4.45,4.55S82.47,173.16,82.47,173.16Z"/><path class="cls-4" d="M54,188.76c-15.53-.37-27.86-8.27-27.53-22s13.18-24.53,28.72-24.16S83,154.41,82.68,168.12,69.49,189.13,54,188.76Z"/><ellipse class="cls-4" cx="54.34" cy="172.81" rx="24.84" ry="28.13" transform="matrix(0.02, -1, 1, 0.02, -119.72, 223)"/><path class="cls-3" d="M34.71,154.92a23.35,23.35,0,0,0-8.49,17.22c-.33,13.71,12,25.13,27.53,25.5A30.05,30.05,0,0,0,73.64,191Z"/><ellipse class="cls-5" cx="54.34" cy="172.81" rx="23.73" ry="26.88" transform="matrix(0.02, -1, 1, 0.02, -119.72, 223)"/><ellipse class="cls-6" cx="54.34" cy="172.81" rx="19.05" ry="21.58" transform="translate(-119.72 223) rotate(-88.63)"/><path class="cls-4" d="M75.91,173.33c0-.44,0-.87,0-1.3-1,9.9-10.52,17.51-21.94,17.23S33.37,180.93,32.86,171q-.07.65-.09,1.29c-.25,10.52,9.2,19.28,21.12,19.56S75.66,183.85,75.91,173.33Z"/><path class="cls-4" d="M58.48,174.42l-4.42-4.1c-4.27,1-12.21,2.77-18.55,4.26A18.07,18.07,0,0,0,46,185.32Z"/><path class="cls-4" d="M51.52,186.77a18.73,18.73,0,0,0,2.14.16,20.66,20.66,0,0,0,13.52-4.45L60,175.79Z"/><path class="cls-4" d="M49.31,165.92,41,158.2c-2.8,2.45-5.3,5.15-6,8.76Z"/><path class="cls-3" d="M53.67,156c11.91.29,21.37,9.05,21.11,19.56a16.94,16.94,0,0,1-1.28,6.07,17.07,17.07,0,0,0,2.41-8.34c.25-10.52-9.2-19.28-21.11-19.56-9.5-.23-17.69,5-20.75,12.46C37.72,160,45.17,155.84,53.67,156Z"/><path class="cls-3" d="M26.43,166.78a18.43,18.43,0,0,0,.24,5.42c.62-2,2-8,2-8l2.14-4.79,1.79-1.47,3-2.2.25-6.9A23.55,23.55,0,0,0,26.43,166.78Z"/><path class="cls-3" d="M80.86,166.07l.12-1.41a.36.36,0,0,1,.35-.36h.11a.37.37,0,0,1,.34.38l-.12,1.41a.35.35,0,0,1-.36.36h-.1A.37.37,0,0,1,80.86,166.07Z"/><path class="cls-3" d="M78.39,160.66l.15-2.54a.4.4,0,0,1,.4-.41h.25a.4.4,0,0,1,.38.42l-.15,2.54a.4.4,0,0,1-.4.41h-.25A.42.42,0,0,1,78.39,160.66Z"/><path class="cls-3" d="M75,155.94l.14-2.47a.46.46,0,0,1,.45-.46H76a.47.47,0,0,1,.44.48L76.28,156a.45.45,0,0,1-.45.46H75.4A.45.45,0,0,1,75,155.94Z"/><path class="cls-3" d="M69.84,152.12l.15-3a.46.46,0,0,1,.46-.46h.43a.45.45,0,0,1,.43.48l-.16,3a.46.46,0,0,1-.45.47h-.43A.46.46,0,0,1,69.84,152.12Z"/><path class="cls-3" d="M64.68,149.62l.16-3.44a.46.46,0,0,1,.46-.46h.43a.45.45,0,0,1,.43.48L66,149.65a.45.45,0,0,1-.45.46h-.43A.45.45,0,0,1,64.68,149.62Z"/><path class="cls-3" d="M59.49,148.09l.17-3.3a.46.46,0,0,1,.45-.47h.43a.46.46,0,0,1,.43.49l-.16,3.3a.46.46,0,0,1-.45.46h-.43A.46.46,0,0,1,59.49,148.09Z"/><path class="cls-3" d="M54.29,147.57l.16-3.36a.47.47,0,0,1,.46-.46h.43a.47.47,0,0,1,.43.49l-.17,3.35a.45.45,0,0,1-.45.46h-.43A.45.45,0,0,1,54.29,147.57Z"/><path class="cls-3" d="M49.06,147.68l.16-3.14a.47.47,0,0,1,.46-.47h.43a.47.47,0,0,1,.43.49l-.16,3.14a.46.46,0,0,1-.45.46H49.5A.46.46,0,0,1,49.06,147.68Z"/><path class="cls-3" d="M43.82,148.82l.15-3a.46.46,0,0,1,.46-.46h.43a.45.45,0,0,1,.43.48l-.16,3a.46.46,0,0,1-.45.47h-.43A.46.46,0,0,1,43.82,148.82Z"/><path class="cls-3" d="M38.54,151.39l.16-3.3a.46.46,0,0,1,.45-.46h.43a.47.47,0,0,1,.44.48l-.17,3.3a.45.45,0,0,1-.45.46H39A.45.45,0,0,1,38.54,151.39Z"/></g></g></svg>