<svg xmlns="http://www.w3.org/2000/svg" xmlns:xlink="http://www.w3.org/1999/xlink" viewBox="0 0 311.5 281.18"><defs><style>.cls-1{fill:none;}.cls-2{fill:#002d38;}.cls-3{fill:#ffd15f;}.cls-4{fill:#ff6e6e;}.cls-5{fill:#5ba2b2;}.cls-6{fill:#d7f7ff;}.cls-7{fill:#b2e0ea;}.cls-8{fill:#f5fdff;}.cls-9{fill:#efa3a3;}.cls-10{fill:#367b91;}.cls-11{clip-path:url(#clip-path);}.cls-12{fill:#fdffff;}.cls-13{clip-path:url(#clip-path-2);}.cls-14{fill:#ffe9b8;}.cls-15{fill:#fff;}.cls-16{clip-path:url(#clip-path-3);}</style><clipPath id="clip-path"><path class="cls-1" d="M102.7,29.32c-6.61,3.17-13,6.08-15.06,10.3-1.85,4,3.43,13.48,6.6,16.12,4.76,3.7,11.63-1.32,16.12-3.7,7.13-3.7,8.71-6.6,5.28-14-1.06-2.38-3.17-8.19-5.28-9.77-2.65-1.85-4.49.26-7.66,1.05"/></clipPath><clipPath id="clip-path-2"><polygon class="cls-1" points="132.64 83.11 137.92 150.82 170.96 91.08 132.64 83.11"/></clipPath><clipPath id="clip-path-3"><path class="cls-1" d="M80,125.74c12.94-5,30.64-8.19,42.53-15.06,0,12.42,1.58,25.63.53,38a87.27,87.27,0,0,0-20.08,7.4c-4.75-5-8.45-10.83-12.42-16.11-2.9-4-9-9.78-10.56-14.27"/></clipPath></defs><g id="Layer_2" data-name="Layer 2"><g id="OBJECTS"><path class="cls-2" d="M78.84,213.45a55,55,0,0,1-14.26-9.25c-1.85-1.85-6.08-6.07-1.85-7.4,4.22-1.58,8.72,8.19,12.15,6.61,4.49-2.11-2.64-21.4,7.66-21.13,8.45.26-2.64,20.07,9,9.51,7.93-7.4,10-.27,7.13,6.86-1.85,4.49-4,9-4.22,14"/><path class="cls-3" d="M68.22,219.4c-8.88-6.28-17.69-12.65-26.68-18.76-2.12-1.44-4.1,2-2,3.42,9,6.11,17.8,12.48,26.68,18.76C68.31,224.3,70.29,220.86,68.22,219.4Z"/><path class="cls-3" d="M72.36,214.3C66.08,205.23,60.06,196,53,187.48c-1.62-2-4.41.85-2.8,2.8,6.81,8.25,12.62,17.24,18.71,26C70.39,218.38,73.82,216.4,72.36,214.3Z"/><path class="cls-3" d="M79.76,218.52c-3.52-6.79-5-14.06-7.13-21.34-2.06-7.11-5.06-13.9-7.2-21-.74-2.44-4.56-1.4-3.82,1.05,2.32,7.68,5.48,15.06,7.71,22.77,2,7,3.61,13.95,7,20.5C77.52,222.79,80.94,220.79,79.76,218.52Z"/><path class="cls-4" d="M88.05,198.63a13,13,0,0,0-17.94-6.22,2.62,2.62,0,0,0-.87.71c-4.34,2.71-6.23,7.59-4.6,12.91,1.75,5.67,7.5,10,13.55,8.83C85.44,213.42,91.18,205.88,88.05,198.63ZM76.37,209.78c-6.72.44-10-10.35-3.17-12.81a2.81,2.81,0,0,0,.93-.54,7.83,7.83,0,0,1,9.11,4.29C85.45,205,80.36,209.52,76.37,209.78Z"/><path class="cls-5" d="M37.63,233.26c-3.17.26-10.3-.53-12.68-2.91-7.13-7.13,11.89-3.7,9.51-10.83-1.05-2.38-5-4.49-2.9-7.66,2.9-4.49,7.92,1.59,10.83,2.91,10.83,4.49,4.75-14.53,12.15-11.63,4.75,1.59,0,10.57,6.6,6.08,2.12-1.59,6.87-7.66,9.78-3.17,2.11,4-4.23,12.68-4,17.17"/><path class="cls-2" d="M34.81,215.74c2.1,2.52,5.5,2.94,8.28,4.37a25.4,25.4,0,0,1,4.29,3.07,21.8,21.8,0,0,1,4,4c.46.65,1.55,0,1.08-.63a22.2,22.2,0,0,0-3.74-3.95,37.44,37.44,0,0,0-4.35-3.27c-2.77-1.69-6.48-1.92-8.65-4.53-.52-.62-1.4.27-.89.89Z"/><path class="cls-2" d="M53.12,206.84c0,6.23-1.36,13.54,3.09,18.67.53.61,1.41-.28.88-.88-4.15-4.8-2.74-12-2.72-17.79a.63.63,0,0,0-1.25,0Z"/><path class="cls-2" d="M65.82,208.26c-.79,2.34-1.95,4.54-2.78,6.87a13.7,13.7,0,0,0-.65,7.2c.15.79,1.35.46,1.2-.33-.92-4.87,1.94-9,3.44-13.41.26-.76-1-1.09-1.21-.33Z"/><path class="cls-2" d="M30.67,227.79a12,12,0,0,1,6.4-.6,10.1,10.1,0,0,1,5.67,3.6c.51.63,1.39-.26.88-.88A11.1,11.1,0,0,0,37.4,226a13.22,13.22,0,0,0-7.07.59c-.75.26-.43,1.47.34,1.21Z"/><path class="cls-6" d="M100.77,200.77c-26.95,9.51-48.61,22.71-70.27,31.7,8.45,17.43,26.94,41.21,56,27.47,25-11.82,21.66-42.8,14.27-59.17"/><path class="cls-7" d="M48.54,234.4c3.6-.54,7.1-.11,10.7.14,2.41.17,5.9.73,8.08-.63,3.28-2,4.12-7,7.29-9.44a15.14,15.14,0,0,1,10.7-3.54c4.51.32,10.17,2.46,13.8-1.4s3-8,3-12.95a5.41,5.41,0,0,1,.29-1.81c-.51-1.41-1-2.75-1.61-4-26.95,9.51-48.61,22.71-70.27,31.7A83.43,83.43,0,0,0,38,245C39.15,239.69,42.31,235.33,48.54,234.4Z"/><path class="cls-4" d="M83.05,233c-3.69-1.6-6.66,1.93-7.07,5.32a11.05,11.05,0,0,0,0,2.3c-.56-.47-1.11-.93-1.66-1.35A6.85,6.85,0,0,0,70,237.85a3.6,3.6,0,0,0-2.18.18c-3.57,1.52-2.05,5.76,0,7.79,2.51,2.47,6.09,3.88,9.35,5.34l1.29.68a3.88,3.88,0,0,0,3.59.3c2.78-1.41,3.68-6.28,4.21-9C86.86,240,86.56,234.54,83.05,233Z"/><path class="cls-8" d="M38.43,230.88c-3.41,0-3.41,5.28,0,5.28S41.83,230.88,38.43,230.88Z"/><path class="cls-8" d="M53.75,223.75c-3.41,0-3.41,5.28,0,5.28S57.15,223.75,53.75,223.75Z"/><path class="cls-8" d="M72.24,214.77c-3.41,0-3.41,5.28,0,5.28S75.64,214.77,72.24,214.77Z"/><path class="cls-8" d="M90.73,206.84c-3.41,0-3.41,5.29,0,5.29S94.14,206.84,90.73,206.84Z"/><path class="cls-2" d="M7.57,159.36c1.08,2.5,3.8,9.68,6.06,11,6.69,4.67,1.77-9.64,1-12.64-2.16.31-5.08.28-6.76,1.17"/><path class="cls-2" d="M57.32,114.62c2.71.2,10.34,1.08,12.53-.33,7.22-3.8-7.75-6-10.76-6.72-.72,2.06-2.08,4.64-2.07,6.54"/><path class="cls-3" d="M10.7,115.6C.46,127.57-1,147.33,7.15,160.91A10.29,10.29,0,0,1,8.43,164a65,65,0,0,1,7.89-1.85c.08-16.46.74-30.73,16.34-40.56a37.77,37.77,0,0,1,17.08-5.67,87.86,87.86,0,0,1,9.18-.24c.44,0,1.84.28,2.17,0s.14-1.93.13-2.39c0-.92-.09-1.83-.12-2.75,0-.68.3-2.28-.06-2.81s-1.93-.88-2.5-1.11c-.92-.38-1.86-.74-2.81-1.06A47.5,47.5,0,0,0,45,103.17a44.17,44.17,0,0,0-19.73,2.5A35.28,35.28,0,0,0,10.7,115.6Z"/><path class="cls-2" d="M11.33,156.86c-1.24-9.16-2.59-18.85.88-27.71,3.75-9.53,12.27-16.74,22-19.56a42.3,42.3,0,0,1,16.83-1.2c.8.09.79-1.16,0-1.25-10.31-1.24-21.1.94-29.37,7.46A33.88,33.88,0,0,0,8.78,140.26c-.21,5.67.59,11.33,1.35,16.93.11.8,1.31.46,1.2-.33Z"/><path class="cls-2" d="M15.12,141c.08-14.84,13.56-24.48,27-26.87.79-.14.46-1.35-.33-1.21-10.72,1.91-21.69,8.19-26.07,18.59A24.9,24.9,0,0,0,13.87,141a.63.63,0,0,0,1.25,0Z"/><path class="cls-2" d="M52.86,148A16.85,16.85,0,0,0,49,138.91a35,35,0,0,0-7.58-6.25c-.68-.45-1.3.63-.64,1.08a34.8,34.8,0,0,1,7.08,5.76A15.43,15.43,0,0,1,51.61,148c.09.79,1.34.8,1.25,0Z"/><path class="cls-2" d="M51.78,143.07a32.28,32.28,0,0,1-2.15-7.62,5.4,5.4,0,0,1,.5-3.5,2.68,2.68,0,0,1,1.79-1.12,1.13,1.13,0,0,1,1,.69,5.75,5.75,0,0,1,.67,2.14,16.51,16.51,0,0,1-.21,5.78,10.54,10.54,0,0,1-.9,2.73,3.54,3.54,0,0,1-.59.86,1.05,1.05,0,0,1-.63.39c-.79.19-.46,1.39.33,1.21,1.69-.4,2.42-2.6,2.81-4.07a18.05,18.05,0,0,0,.47-6.71c-.19-1.51-.65-3.73-2.38-4.2a3,3,0,0,0-2.4.6,4.32,4.32,0,0,0-1.75,3.34c-.32,3.32,1.1,6.75,2.22,9.81.27.75,1.48.43,1.2-.33Z"/><path class="cls-2" d="M52.86,143a51.8,51.8,0,0,0-.29-9.15c-.14-.79-1.34-.45-1.2.33.51,2.91.24,5.89.24,8.82a.63.63,0,0,0,1.25,0Z"/><path class="cls-3" d="M53.65,143.57a17.85,17.85,0,0,0-10.51,1.61,2.64,2.64,0,0,0-1.75.26c-8.5,4.37-10.17,15.09-5.87,23a13.84,13.84,0,0,0,4.7,5c.13.11.24.23.38.33a10.22,10.22,0,0,0,5.43,2,22.37,22.37,0,0,0,14.31-1.59C75.83,166.63,69.19,145.9,53.65,143.57Z"/><path class="cls-2" d="M39.29,159.35a1.32,1.32,0,0,0,0,2.64A1.32,1.32,0,0,0,39.29,159.35Z"/><path class="cls-2" d="M47.74,150.37a1.32,1.32,0,0,0,0,2.64A1.32,1.32,0,0,0,47.74,150.37Z"/><path class="cls-2" d="M50.39,161.2a1.32,1.32,0,0,0,0,2.64A1.32,1.32,0,0,0,50.39,161.2Z"/><path class="cls-2" d="M57.52,151.16a1.32,1.32,0,0,0,0,2.64A1.32,1.32,0,0,0,57.52,151.16Z"/><path class="cls-2" d="M64.65,158.29a1.32,1.32,0,0,0,0,2.64A1.32,1.32,0,0,0,64.65,158.29Z"/><path class="cls-2" d="M59.1,168.33a1.32,1.32,0,0,0,0,2.64A1.32,1.32,0,0,0,59.1,168.33Z"/><path class="cls-2" d="M44.31,169.39a1.32,1.32,0,0,0,0,2.64A1.32,1.32,0,0,0,44.31,169.39Z"/><path class="cls-2" d="M286.18,178.49c-4.17-5.59-10.93-8.16-15.59-13.23a5.73,5.73,0,0,1-1.71-2.84c-.12-1.1,1.09-1.68,2-1.84,1.63-.29,3.25.74,4.45,1.72a24.39,24.39,0,0,1,4,4.31,42.18,42.18,0,0,1,6.05,12.18c.25.76,1.46.43,1.2-.33a43.53,43.53,0,0,0-5.71-11.85,28.52,28.52,0,0,0-4.15-4.76,9.13,9.13,0,0,0-4.74-2.53,4.38,4.38,0,0,0-3.84,1.4,2.87,2.87,0,0,0-.1,3.12c1.33,2.77,4.3,4.85,6.7,6.63,3.62,2.7,7.6,5,10.35,8.65.47.63,1.56,0,1.08-.63Z"/><path class="cls-2" d="M286.08,177.3c-4.21-4.58-8-9.75-13.16-13.3-.66-.46-1.29.62-.63,1.08,5.09,3.48,8.78,8.61,12.91,13.11.54.59,1.42-.3.88-.89Z"/><path class="cls-2" d="M286.77,178.46a32.08,32.08,0,0,1-1.73-8.1,40.83,40.83,0,0,1-.41-5.29c.06-2.9.45-6.36,2-8.87a2.43,2.43,0,0,1,2.89-1.33,3.58,3.58,0,0,1,2.3,2.94c.57,3.39-1.06,7.18-2.28,10.25-1.32,3.29-3.22,6.57-4,10.05-.17.78,1,1.11,1.21.33.79-3.52,2.73-6.84,4.05-10.18s3.05-7.51,2.16-11.15c-.64-2.63-3.84-4.84-6.27-2.86s-3,6.13-3.23,9.06a29.12,29.12,0,0,0,.15,5.52,37.88,37.88,0,0,0,1.93,10c.29.74,1.5.42,1.21-.33Z"/><path class="cls-2" d="M287,178.1c-.32-6,1-11.8,2.09-17.62.14-.79-1.06-1.13-1.21-.34-1.08,5.93-2.45,11.89-2.13,18,0,.8,1.29.8,1.25,0Z"/><path class="cls-2" d="M286.59,177.4c-1.91-4.67-3.17-9.57-5.32-14.15-1.83-3.94-4.79-7.11-7.52-10.43-.51-.62-1.39.27-.88.89,2.66,3.24,5.53,6.33,7.32,10.17,2.1,4.48,3.32,9.29,5.2,13.85.3.74,1.51.42,1.2-.33Z"/><path class="cls-4" d="M284.32,176.78a15,15,0,0,0-14.8-2.65c-9.24,3.7-9,13.74-5.54,21.4a25.7,25.7,0,0,0,39.09,10.3c9-6.87,12.15-26.41,2.64-34.87-7.13-6.07-18.75-3.43-20.6,5.55"/><path class="cls-8" d="M270,181.22c-4.33,9.74,3.4,23.05,14.54,22.33.8-.05.81-1.3,0-1.25-10.1.65-17.44-11.5-13.46-20.45.32-.73-.75-1.37-1.08-.63Z"/><path class="cls-2" d="M218.89,266.9c-2.11-2.82-7.39-9.87-11.62-9.16-6.34.7.35,5.28-.35,8.8-.71,3.88-6.34,4.93-9.51,4.23-9.16-1.76-10.22-12-8.81-19.72,2.12-8.46,10.57-17.26,19.37-19,8.46-2.12,24.31,8.45,11.63,13.38-3.53,1.41-9.86.35-6.34,6,2.11,3.52,9.15,5.28,12.68,7-1.41,2.12-4.93,7.05-7.05,8.46"/><path class="cls-5" d="M213.26,251.4c-2.08-3.33-.72-4.32,1.46-4.87-.05-5.17-10.09-10.28-10.62,2.93-10.21.35-7.38,9.21-7,10,1.05,2.63,6.34,3.17,7.49-.33.16-.71.91-1.23,2.72-1.43,4.23-.71,9.51,6.34,11.62,9.16,2.12-1.41,5.64-6.34,7.05-8.46C222.41,256.68,215.37,254.92,213.26,251.4Z"/><path class="cls-2" d="M199.91,256.16a11.17,11.17,0,0,0,2.26.95.63.63,0,0,0,.77-.44.64.64,0,0,0-.44-.77,6.51,6.51,0,0,1-.94-.32l.15.06c-.4-.17-.78-.36-1.17-.55a.62.62,0,1,0-.63,1.07Z"/><path class="cls-2" d="M202.88,253.41l.39.14.19.08.09,0c.23.1.45.21.67.33.45.23.89.49,1.33.76a.63.63,0,0,0,.63-1.08,15.83,15.83,0,0,0-3-1.48.63.63,0,0,0-.33,1.21Z"/><path class="cls-2" d="M206.07,249.47c.87.52,1.66,1.16,2.47,1.76a.67.67,0,0,0,.48.07.64.64,0,0,0,.37-.29.63.63,0,0,0,.07-.48.78.78,0,0,0-.29-.38c-.81-.6-1.6-1.23-2.47-1.76a.63.63,0,0,0-.63,1.08Z"/><path class="cls-2" d="M208.19,245.42c.33.25.69.48,1,.72l.25.18.14.09c.06.05,0,0,0,0l.06,0a6,6,0,0,1,.53.48.64.64,0,0,0,.89,0,.63.63,0,0,0,0-.88,19.32,19.32,0,0,0-2.24-1.69.64.64,0,0,0-.86.23.66.66,0,0,0-.06.48.7.7,0,0,0,.29.37Z"/><path class="cls-2" d="M210.3,255.28c4,2.36,7.43,5.47,11.45,7.75a.63.63,0,0,0,.63-1.08c-4-2.28-7.48-5.39-11.45-7.75a.63.63,0,0,0-.63,1.08Z"/><path class="cls-5" d="M30.32,68c-6.35-.85-12.42-3.25-19-1.41C10,67,6.61,68.23,7.17,70.21c.57,2.25,3.67.84,1.27,3.52C7.17,75.29-2,81.36.4,84c1,1.27,3.39-.42,4.52,1.83.84,1.56.14,4.1.14,5.79,0,2.82,2.54,12.71,6.49,7.34,2.4-3.25,2.82-8.61,3.81-12.42.56-2.12,1-4.66,2.26-6.49,2-2.68,2.26-1.13,2.82,1.27C21,83.47,22,86.44,24.68,84.6c2-1.41,2.54-4.94,3.1-7,.71-3,1-6.64,2.68-9.18"/><path class="cls-5" d="M27.08,60.33c-3.11,0-23-2.55-17.79-8.19,1.41-1.41,5.36-1.55,3.81-4.24C12,46.07,8.73,45.79,7.31,44c-1.55-2.26-.7-3.39,1.7-4.09,2.68-1,3.25-1.13,3-4.24-.42-4.37-1.41-8.61,2.68-11.57,6.64-4.94,5.65,3.39,6.92,7.48,2,6.63,9-1.13,10.31,4.24.84,3.81-4.95,8.18-3.39,11.57.84,1.83,2.4.28,3.81,1.13C34,49.74,32.72,52,32,53.41c-1.27,2.12-3.81,4.94-4.38,6.92"/><path class="cls-5" d="M55,69.36c-2.82-.56-22.44-11.43-15.38-15.1,1.69-1,4.09.28,5.79-.71,2.4-1.27.56-3.11-.29-4.94-1.83-3.67-3.1-11.29,3.25-8.19,4.52,2.26,5.22.14,6.92-4,1.55-3.25,4.65-6.92,8.47-6.92,7.34.15-1.42,13.27-2.12,16.24,2,1,10.73-1.7,7.48,4.23-1,1.84-10.59,7.34-6.92,9.18,1.56.7,4.66-1.13,4.94,1.55.29,2.12-3.24,3.67-4.65,4.66-2.26,1.27-5.23,3-7.06,4"/><path class="cls-2" d="M59.7,83.32c-3.3-2.88-6.46-5.92-10-8.55s-7.4-4.54-11.22-6.63a36.34,36.34,0,0,1-10.15-7.67A36.2,36.2,0,0,1,22,50a60.6,60.6,0,0,1-2.19-7.83c-.61-2.45-2-5-1.88-7.53,0-.81-1.22-.81-1.25,0-.09,2.21.91,4.17,1.5,6.25.67,2.37,1.11,4.79,1.82,7.14a36.63,36.63,0,0,0,5.7,11.14,32.57,32.57,0,0,0,9,8.18c3.85,2.41,8.06,4.22,11.87,6.7C51,77,54.82,80.72,58.82,84.2c.6.53,1.49-.36.88-.88Z"/><path class="cls-2" d="M60.08,82.88a20.6,20.6,0,0,1-3.2-8.56c-.59-3.12-1.08-6.33-1.39-9.49-.81-8.12.52-16.15,2.68-24A.63.63,0,0,0,57,40.54c-2.23,8.06-3.59,16.39-2.67,24.76.34,3.18.81,6.4,1.42,9.54A21.06,21.06,0,0,0,59,83.51c.47.64,1.56,0,1.08-.63Z"/><path class="cls-2" d="M36.11,67.46a40.07,40.07,0,0,0-13.23,2.22c-4.41,1.43-9.18,3.53-12.21,7.19a9.83,9.83,0,0,0-2.43,6.18.63.63,0,0,0,1.25,0c.08-5.72,6.08-9.16,10.73-11.07a39.9,39.9,0,0,1,15.89-3.27c.8,0,.8-1.22,0-1.25Z"/><path class="cls-2" d="M7.07,79.07a19.29,19.29,0,0,1,5.35-2.9l-.79-.6c.14,2.12-.14,4.23-.14,6.35a.63.63,0,0,0,1.25,0c0-2.12.28-4.23.14-6.35a.63.63,0,0,0-.79-.6,20.44,20.44,0,0,0-5.66,3,.65.65,0,0,0-.22.86.63.63,0,0,0,.86.22Z"/><path class="cls-2" d="M13.38,70.27a53.35,53.35,0,0,1,8.17.82l-.44-.77c-.6,1.9-1.66,3.61-2.26,5.51-.24.77,1,1.1,1.21.33.59-1.9,1.66-3.61,2.26-5.5a.64.64,0,0,0-.44-.77,55,55,0,0,0-8.5-.87.63.63,0,0,0,0,1.25Z"/><path class="cls-2" d="M15.34,51.45a16.2,16.2,0,0,0,4.08,2.48c1.49.69,3,1.29,4.53,1.92.38.16.79-.24.79-.61a42.57,42.57,0,0,1,.4-7.31c.13-.79-1.07-1.12-1.21-.33a45.37,45.37,0,0,0-.44,7.64l.79-.6c-1.42-.58-2.84-1.14-4.23-1.79a15.05,15.05,0,0,1-3.82-2.28c-.6-.54-1.49.34-.89.88Z"/><path class="cls-2" d="M13.77,42.66A32,32,0,0,0,20,45.83a.63.63,0,0,0,.71-.29c.94-2.16,2.39-4.08,3-6.36a.63.63,0,0,0-1.21-.33c-.6,2.17-2,4-2.9,6.06l.71-.29a29.83,29.83,0,0,1-5.92-3c-.69-.43-1.32.66-.64,1.08Z"/><path class="cls-2" d="M47.52,58.37a53.17,53.17,0,0,1,7.06,6.77.62.62,0,0,0,1-.12c1.23-1.94,1.94-4.26,3.72-5.8.61-.53-.28-1.41-.89-.89-1.86,1.62-2.62,4-3.91,6.06l1-.13a54.5,54.5,0,0,0-7.06-6.78c-.63-.49-1.52.39-.89.89Z"/><path class="cls-2" d="M49,47c1.63,2.61,3.2,5.71,5.87,7.42a.62.62,0,0,0,.76-.1c1.46-1.59,3.52-2.72,4.61-4.64A.63.63,0,0,0,59.14,49c-1,1.8-3,2.89-4.42,4.39l.76-.1a11.55,11.55,0,0,1-3-3.18c-.86-1.23-1.62-2.52-2.41-3.79-.43-.68-1.51-.06-1.08.63Z"/><path class="cls-2" d="M26.93,40a.53.53,0,0,0,0,1.05A.53.53,0,0,0,26.93,40Z"/><path class="cls-2" d="M27.64,36.51a.53.53,0,0,0,0,1.06A.53.53,0,0,0,27.64,36.51Z"/><path class="cls-2" d="M29.48,39.19a.53.53,0,0,0,0,1.06A.53.53,0,0,0,29.48,39.19Z"/><path class="cls-2" d="M15.36,29.45a.53.53,0,0,0,0,1.06A.53.53,0,0,0,15.36,29.45Z"/><path class="cls-2" d="M17.05,26.48a.53.53,0,0,0,0,1.06A.53.53,0,0,0,17.05,26.48Z"/><path class="cls-2" d="M15.78,55.28a.53.53,0,0,0,0,1.06A.53.53,0,0,0,15.78,55.28Z"/><path class="cls-2" d="M18.75,56.41a.53.53,0,0,0,0,1.06A.53.53,0,0,0,18.75,56.41Z"/><path class="cls-2" d="M45.43,59.23a.53.53,0,0,0,0,1.06A.53.53,0,0,0,45.43,59.23Z"/><path class="cls-2" d="M47.54,61.63a.53.53,0,0,0,0,1.06A.53.53,0,0,0,47.54,61.63Z"/><path class="cls-2" d="M61.94,51.89a.53.53,0,0,0,0,1.06A.53.53,0,0,0,61.94,51.89Z"/><path class="cls-2" d="M63.78,49.77a.53.53,0,0,0,0,1.06A.53.53,0,0,0,63.78,49.77Z"/><path class="cls-2" d="M60,35.24a.53.53,0,0,0,0,1A.53.53,0,0,0,60,35.24Z"/><path class="cls-2" d="M61.52,38.06a.53.53,0,0,0,0,1.06A.53.53,0,0,0,61.52,38.06Z"/><path class="cls-2" d="M63.21,34.11a.53.53,0,0,0,0,1.06A.53.53,0,0,0,63.21,34.11Z"/><path class="cls-2" d="M8.73,88.45a.53.53,0,0,0,0,1.06A.53.53,0,0,0,8.73,88.45Z"/><path class="cls-2" d="M11.13,87.89a.53.53,0,0,0,0,1A.53.53,0,0,0,11.13,87.89Z"/><path class="cls-2" d="M10.56,90.71a.53.53,0,0,0,0,1.06A.53.53,0,0,0,10.56,90.71Z"/><path class="cls-2" d="M24.11,78a.53.53,0,0,0,0,1.06A.53.53,0,0,0,24.11,78Z"/><path class="cls-2" d="M25.1,75.61a.53.53,0,0,0,0,1A.53.53,0,0,0,25.1,75.61Z"/><path class="cls-2" d="M12,70.81a.53.53,0,0,0,0,1A.53.53,0,0,0,12,70.81Z"/><path class="cls-2" d="M22.14,67.28a.53.53,0,0,0,0,1.06A.53.53,0,0,0,22.14,67.28Z"/><path class="cls-3" d="M151.74,144c.54,1.08,1.24,1.44,2,1.38l.14,0c2.56.44,3.18-1.67,4-3.56.13-.19.24-.37.33-.52a1.61,1.61,0,0,0,.18-.52,3.57,3.57,0,0,1,1.12-1.28,4.67,4.67,0,0,1,3.11,2.1c.47.93-.8,4-.81,5.21a3.49,3.49,0,0,0,4.48,3,3.94,3.94,0,0,0,2.1-1.58,1.87,1.87,0,0,0,.31-.27c6.36-7.13-4.24-16.6-11.76-14.55C153.05,134.5,149.87,140.27,151.74,144Z"/><path class="cls-3" d="M246.54,226.16c-.6-1.38-1.43-1.88-2.34-1.85l-.17,0c-3.12-.73-4,1.83-5.17,4.1-.17.23-.32.44-.44.63a2.05,2.05,0,0,0-.26.62,4.4,4.4,0,0,1-1.47,1.5,5.76,5.76,0,0,1-3.69-2.81c-.51-1.18,1.27-4.83,1.37-6.37.18-2.65-2.9-4.79-5.32-4.07a5,5,0,0,0-2.69,1.8,2.33,2.33,0,0,0-.41.31c-8.35,8.35,4.06,20.78,13.47,18.79C244.25,237.75,248.59,230.85,246.54,226.16Z"/><path class="cls-3" d="M258,95.19a2,2,0,0,0,2.4-.25l.12-.07c2.22-1.34,1.31-3.34.68-5.31q0-.33-.09-.6a1.7,1.7,0,0,0-.2-.51,3.49,3.49,0,0,1,0-1.7,4.65,4.65,0,0,1,3.73-.45c1,.39,2,3.52,2.8,4.47a3.49,3.49,0,0,0,5.38-.65,4,4,0,0,0,.55-2.56,2.52,2.52,0,0,0,.06-.41c.13-9.55-14.08-9.76-18.42-3.3C252.81,87.17,254.19,93.62,258,95.19Z"/><path class="cls-3" d="M185,71.17a2,2,0,0,0,2.36-.51l.12-.08c2.06-1.57.94-3.45.11-5.34-.06-.22-.11-.42-.17-.6a1.55,1.55,0,0,0-.25-.48,3.53,3.53,0,0,1-.18-1.69,4.65,4.65,0,0,1,3.66-.85c1,.29,2.36,3.28,3.27,4.14a3.49,3.49,0,0,0,5.28-1.22,4,4,0,0,0,.26-2.61,1.91,1.91,0,0,0,0-.42c-.9-9.51-15.06-8.18-18.67-1.28C179,63.77,181.05,70,185,71.17Z"/><path class="cls-3" d="M102.87,183.9a2,2,0,0,0,2.36-.51l.11-.08c2.07-1.58.94-3.46.11-5.35,0-.22-.11-.42-.16-.59a1.45,1.45,0,0,0-.25-.48,3.6,3.6,0,0,1-.19-1.7,4.66,4.66,0,0,1,3.66-.85c1,.29,2.36,3.28,3.27,4.14a3.49,3.49,0,0,0,5.28-1.22,3.94,3.94,0,0,0,.27-2.61,1.39,1.39,0,0,0,0-.41c-.9-9.51-15-8.19-18.66-1.29C96.82,176.49,98.89,182.75,102.87,183.9Z"/><path class="cls-9" d="M232.24,253.76s28.53-32.4,35.93-29.93S272.39,270,272.39,270,250.2,277.72,232.24,253.76Z"/><path class="cls-10" d="M237.38,248.13c-3.11,3.33-5.14,5.63-5.14,5.63,18,24,40.15,16.21,40.15,16.21s.26-3.58.46-8.75C260,262.51,244.9,257.88,237.38,248.13Z"/><path class="cls-2" d="M240,251a27.25,27.25,0,0,1-2.61-2.88c-3.11,3.33-5.14,5.63-5.14,5.63.88,1.18,1.77,2.25,2.67,3.28A42,42,0,0,1,240,251Z"/><path class="cls-2" d="M266.64,261.39c0,.15,0,.31-.07.47a65.83,65.83,0,0,1-2.64,9.3,28.72,28.72,0,0,0,8.46-1.19s.26-3.58.46-8.75A42.68,42.68,0,0,1,266.64,261.39Z"/><path class="cls-2" d="M256.23,259.75a42.76,42.76,0,0,1-7.19-2.61,24.6,24.6,0,0,0-6.33,7.08,36.9,36.9,0,0,0,10.58,5.33A65.86,65.86,0,0,0,256.23,259.75Z"/><path class="cls-2" d="M248.91,245.85c0-.53-.09-1.8-.69-2a.49.49,0,0,0-.5.12c-1.86.55-4.17,4.36-1.65,5.43,1.34.56,2.28-.3,2.65-1.56A6.42,6.42,0,0,0,248.91,245.85Z"/><path class="cls-2" d="M257.49,250.07c0-.52-.09-1.79-.68-2a.5.5,0,0,0-.5.12c-1.86.56-4.17,4.37-1.65,5.43,1.33.57,2.28-.29,2.64-1.55A5.91,5.91,0,0,0,257.49,250.07Z"/><path class="cls-2" d="M268.06,253.38c0-.53-.09-1.8-.69-2a.49.49,0,0,0-.5.12c-1.85.55-4.17,4.36-1.65,5.42,1.34.57,2.28-.29,2.65-1.55A6.13,6.13,0,0,0,268.06,253.38Z"/><path class="cls-2" d="M265.68,243.73c0-.52-.09-1.79-.68-2a.5.5,0,0,0-.5.12c-1.86.56-4.18,4.37-1.65,5.43,1.33.57,2.28-.29,2.64-1.55A5.91,5.91,0,0,0,265.68,243.73Z"/><path class="cls-2" d="M257.1,238.72c0-.53-.09-1.8-.69-2a.48.48,0,0,0-.5.11c-1.86.56-4.17,4.37-1.65,5.43,1.34.57,2.28-.29,2.65-1.55A6.42,6.42,0,0,0,257.1,238.72Z"/><path class="cls-5" d="M178,247c-3.4,0-3.4,5.29,0,5.29S181.39,247,178,247Z"/><path class="cls-5" d="M175.87,235.38c-3.41,0-3.41,5.28,0,5.28S179.28,235.38,175.87,235.38Z"/><path class="cls-5" d="M167.42,243.83c-3.41,0-3.41,5.29,0,5.29S170.82,243.83,167.42,243.83Z"/><path class="cls-5" d="M250.94,213.71c-3.4,0-3.4,5.28,0,5.28S254.35,213.71,250.94,213.71Z"/><path class="cls-5" d="M261.51,210.54c-3.41,0-3.41,5.28,0,5.28S264.92,210.54,261.51,210.54Z"/><path class="cls-5" d="M113,70.42c-3.41,0-3.41,5.28,0,5.28S116.4,70.42,113,70.42Z"/><path class="cls-5" d="M118.28,63c-3.41,0-3.41,5.28,0,5.28S121.69,63,118.28,63Z"/><path class="cls-5" d="M171.83,108.68c-3.4,0-3.4,5.29,0,5.29S175.24,108.68,171.83,108.68Z"/><path class="cls-5" d="M72.4,127.56c-3.4,0-3.4,5.28,0,5.28S75.81,127.56,72.4,127.56Z"/><path class="cls-5" d="M287.14,245.19c-3.41,0-3.41,5.28,0,5.28S290.54,245.19,287.14,245.19Z"/><path class="cls-5" d="M289.25,231.45c-3.41,0-3.41,5.28,0,5.28S292.66,231.45,289.25,231.45Z"/><path class="cls-4" d="M90,42.79c-4,0-7.93,0-11.63,1.32-1.85.53-6.6,2.65-5.81,5.29.53,2.38,6.08,2.38,7.93,2.38-1.06,1.32-5.29,5.54-4.23,7.39,1.32,2.12,5.55-.53,7.4-1.05-.27,1.58-2.12,6.34-.53,7.66,2.38,2.11,5.55-2.38,6.6-4.23,2.12-3.43,2.64-7.66,4.76-11.09"/><path class="cls-4" d="M115.54,41.81c4,.28,7.91.55,11.69-.51,1.88-.4,6.77-2.18,6.17-4.87-.37-2.41-5.9-2.79-7.75-2.92,1.15-1.25,5.66-5.17,4.73-7.09-1.17-2.2-5.57.15-7.45.55.37-1.57,2.55-6.18,1.06-7.61-2.23-2.27-5.7,2-6.88,3.76-2.35,3.28-3.17,7.46-5.52,10.74"/><g class="cls-11"><path class="cls-5" d="M102.7,29.32c-6.61,3.17-13,6.08-15.06,10.3-1.85,4,3.43,13.48,6.6,16.12,4.76,3.7,11.63-1.32,16.12-3.7,7.13-3.7,8.71-6.6,5.28-14-1.06-2.38-3.17-8.19-5.28-9.77-2.65-1.85-4.49.26-7.66,1.05"/><path class="cls-12" d="M99.48,59.35C98.1,55.24,97.31,51,96,46.86c-1.63-5.1-3.74-10.42-2.86-15.87.27-1.66-2.28-2.38-2.55-.7-.72,4.42.19,8.54,1.43,12.79,1.64,5.63,3,11.41,4.91,17C97.47,61.66,100,61,99.48,59.35Z"/><path class="cls-12" d="M108.46,56.71c-2.08-9.85-6.54-19.12-7.35-29.24-.13-1.68-2.78-1.7-2.64,0,.83,10.37,5.31,19.85,7.44,29.94C106.27,59.08,108.81,58.37,108.46,56.71Z"/><path class="cls-12" d="M114.54,52c-2.18-9.19-5.16-18.17-6.87-27.47-.31-1.67-2.85-1-2.55.7,1.71,9.3,4.69,18.28,6.87,27.47C112.38,54.31,114.93,53.61,114.54,52Z"/></g><path class="cls-2" d="M160.91,44.91a11.65,11.65,0,0,0-1.61-7.25,18.17,18.17,0,0,0-5.3-5.18c-.67-.46-1.29.62-.64,1.08a16.6,16.6,0,0,1,4.86,4.73,10.5,10.5,0,0,1,1.44,6.62c-.07.8,1.18.79,1.25,0Z"/><path class="cls-2" d="M160.38,39.36a21.12,21.12,0,0,1-.08-3.28,12.13,12.13,0,0,1,.6-3.73.49.49,0,0,1,0-.11v0a1.19,1.19,0,0,1,.08-.16,1.49,1.49,0,0,1,.18-.3c.06-.1-.07.06,0,0l.11-.11c.05,0,.08-.06,0,0l.14-.08s.08,0,0,0,0,0,0,0,.17,0,0,0h.08c.07,0-.11,0,0,0l.13,0c.09,0-.07-.05.06,0l.29.18c1.28,1,1,2.56.36,3.84a13.56,13.56,0,0,1-2.62,3.54.63.63,0,0,0,.89.89,15.3,15.3,0,0,0,2.69-3.56c.86-1.63,1.35-3.76,0-5.25a2.73,2.73,0,0,0-1.77-1,1.72,1.72,0,0,0-1.45.81,8,8,0,0,0-1,4,21.21,21.21,0,0,0,0,4.29.64.64,0,0,0,.62.62.63.63,0,0,0,.63-.62Z"/><g class="cls-13"><polygon class="cls-3" points="132.64 83.11 137.92 150.82 170.96 91.08 132.64 83.11"/><path class="cls-14" d="M131.31,81.28a168.69,168.69,0,0,1,18.55,18.2c5.48,6.38,9.75,13.71,15.53,19.83.55.59,1.44-.29.88-.88-5.78-6.12-10.05-13.46-15.53-19.83A168.69,168.69,0,0,0,132.2,80.39c-.61-.52-1.5.36-.89.89Z"/><path class="cls-14" d="M144.69,78c7.23,10.64,17.41,18.78,25.09,29.06.48.63,1.56,0,1.08-.63C163.18,96.13,153,88,145.77,77.35c-.45-.66-1.54,0-1.08.63Z"/><path class="cls-14" d="M130.26,97.65c9,9.06,16.38,19.54,24.56,29.33.52.61,1.4-.28.89-.89-8.18-9.78-15.55-20.26-24.57-29.32a.62.62,0,0,0-.88.88Z"/><path class="cls-14" d="M127.25,110.21c7.27,10.68,17.58,18.67,26.25,28.12.55.6,1.43-.29.89-.88-8.6-9.37-18.85-17.28-26.06-27.87-.45-.67-1.53,0-1.08.63Z"/><path class="cls-14" d="M132.37,131.47c4.27,4.8,8.69,9.48,12.68,14.52.5.64,1.38-.25.88-.88-4-5-8.41-9.73-12.68-14.53-.53-.6-1.41.29-.88.89Z"/><path class="cls-14" d="M119,122.75c5.79-7.23,11.74-14.32,17.68-21.43,2.85-3.41,5.64-6.86,8.71-10.08,2.81-2.94,5.72-5.78,8.51-8.75a73.58,73.58,0,0,0,8.52-10.59c.43-.68-.65-1.3-1.08-.63-4.43,6.89-10.45,12.47-16.1,18.32C139.09,96,133.62,103,128,109.81q-5,6-9.86,12c-.49.63.38,1.52.89.89Z"/><path class="cls-14" d="M129.92,130.55c10.78-15.07,23.29-28.8,35.82-42.41.55-.59-.33-1.47-.88-.88-12.61,13.68-25.18,27.5-36,42.66-.47.65.61,1.28,1.08.63Z"/><path class="cls-14" d="M131.24,142.17c5.14-7.15,11.48-13.34,17.78-19.46,6.65-6.46,12.89-13.27,19.19-20.07q5.61-6.08,11.27-12.12c.55-.59-.33-1.47-.88-.88-6.72,7.15-13.34,14.37-20,21.55-6.12,6.58-12.74,12.64-18.94,19.13a104.45,104.45,0,0,0-9.47,11.22c-.47.65.61,1.28,1.08.63Z"/></g><path class="cls-9" d="M133.87,86.38c-3.13-.5-6.68-.93-6.76-5.49-.12-4.3,6.18-3.56,8.6-5.32,3.33-2.41.71-4.43.5-8.21-.6-16.41,25-24.64,34.87-12.38,4.69,5.83,4,11.61,1.66,18.19-.86,2-3,5.67-2.33,7.92,1.15,2.86,5.75,2.52,7.42,5.46,4.1,7.87-8.73,6.1-12.68,5.74-6.3-.73-25.47-3.8-31.28-5.91"/><path class="cls-4" d="M165.87,42c-2.29-2-4.2-.78-5.61,1.38-1.28-2.27-3.45-3.48-6.7-1.56-6,3.51.3,11.43,5.14,12C164.86,54.58,171.57,47,165.87,42Z"/><path class="cls-15" d="M142.58,65.51a1.32,1.32,0,0,0,0,2.64A1.32,1.32,0,0,0,142.58,65.51Z"/><path class="cls-15" d="M150.25,57.59a1.32,1.32,0,0,0,0,2.64A1.32,1.32,0,0,0,150.25,57.59Z"/><path class="cls-15" d="M155,71.06a1.32,1.32,0,0,0,0,2.64A1.32,1.32,0,0,0,155,71.06Z"/><path class="cls-15" d="M166.09,58.91a1.32,1.32,0,0,0,0,2.64A1.32,1.32,0,0,0,166.09,58.91Z"/><path class="cls-15" d="M167.94,71.32a1.33,1.33,0,0,0,0,2.65A1.33,1.33,0,0,0,167.94,71.32Z"/><path class="cls-15" d="M140.74,82.42a1.32,1.32,0,0,0,0,2.64A1.32,1.32,0,0,0,140.74,82.42Z"/><path class="cls-15" d="M155.53,82.15a1.33,1.33,0,0,0,0,2.65A1.33,1.33,0,0,0,155.53,82.15Z"/><path class="cls-15" d="M168.47,85.59a1.32,1.32,0,0,0,0,2.64A1.32,1.32,0,0,0,168.47,85.59Z"/><path class="cls-4" d="M235.61,91.29a7.48,7.48,0,0,0-2.33-2.53c-3.05-2.14-7.45-3-10.67-.77a9.85,9.85,0,0,0-4,7.91,6.59,6.59,0,0,0,.36,4.23,7.48,7.48,0,0,0,5.62,4.52,10.31,10.31,0,0,0,11.27-2.8C238.81,98.5,238.06,94.23,235.61,91.29Z"/><path class="cls-4" d="M198.89,111.89a7.44,7.44,0,0,0-2.32-2.53c-3.06-2.14-7.46-3-10.68-.76a9.87,9.87,0,0,0-3.95,7.91,6.57,6.57,0,0,0,.37,4.22,7.47,7.47,0,0,0,5.61,4.53,10.35,10.35,0,0,0,11.28-2.8C202.09,119.1,201.34,114.83,198.89,111.89Z"/><path class="cls-5" d="M188.28,162.2a17.94,17.94,0,0,1-9-5.55c-6.34-7.4.27-10.3,2.64-16.91,2.12-5.55-3.69-10.57,0-16.38,1.85-3.17,4.76-2.9,7.14-4.75,2.9-2.38,2.11-5,2.9-8.19,1.59-6.6,6.34-9.51,12.68-9.51,6.87.26,10-3.7,16.12-5.81,7.39-2.64,8.71,3.7,15.58,3.17,2.64,0,6.87-1.59,9.25-.53,3.43,1.32,2.9,4.23,5,6.6,3.43,3.44,7.13,2.91,6.6,9"/><path class="cls-3" d="M261.19,116.23c-19,12.94-32.49,23-48.87,32.76-6.6,4.22-13.2,8.45-20.07,12.15-4,2.38-4.49,2.38-5.81-2.64-1.06-4-.53-8.19-.27-12.15,1.59-19,10.83-37,30.38-42,14.53-3.69,29.06.27,40.68,9.25,1.32.79,2.64,1.85,4,2.64"/><path class="cls-2" d="M193.35,154.28a465.13,465.13,0,0,0,41.72-29q5.7-4.45,11.24-9.1c.62-.51-.27-1.39-.88-.88a450.63,450.63,0,0,1-40.83,30.35q-5.88,3.88-11.88,7.59c-.68.42-.05,1.51.63,1.08Z"/><path class="cls-2" d="M200.09,141.24c6.39-5,13.52-9,20.21-13.64.66-.45,0-1.54-.63-1.08-6.78,4.68-14,8.73-20.47,13.84-.63.49.26,1.37.89.88Z"/><path class="cls-2" d="M197.18,133.58c8.59-6.77,17.09-13.66,26-20,.65-.46,0-1.54-.64-1.08-9,6.38-17.6,13.34-26.27,20.18-.64.49.25,1.37.88.88Z"/><path class="cls-2" d="M222.94,123.9c3.25-2.17,6.38-4.52,9.51-6.87.64-.47,0-1.56-.63-1.07-3.13,2.34-6.26,4.69-9.51,6.86-.67.45,0,1.53.63,1.08Z"/><path class="cls-2" d="M199.17,38.73a6.59,6.59,0,0,1-1.2-1.11s-.12-.16-.05-.06l-.1-.15-.18-.28a1.59,1.59,0,0,1-.15-.29.61.61,0,0,1-.07-.14c.06.14,0-.06,0-.08a3.56,3.56,0,0,1-.15-.56s0-.18,0,0c0,0,0-.09,0-.13s0-.21,0-.31a2.11,2.11,0,0,1,0-.25c0,.19,0,0,0-.09a1.55,1.55,0,0,1,.06-.23l0-.12c.06-.17,0,0,0,0l.24-.42h0l.08-.1a1.8,1.8,0,0,1,.19-.2l.19-.16c-.15.12.06,0,.1-.07l.21-.12.12-.06c.15-.08-.06,0,0,0a4,4,0,0,1,.49-.15c.05,0,.33,0,.14,0l.27,0a5.25,5.25,0,0,1,.56,0c-.17,0,0,0,0,0l.15,0,.34.1.15.05s.23.09.1,0l.35.17a4.79,4.79,0,0,1,.71.46l.07.06.2.17c.12.11.24.22.35.34a7.26,7.26,0,0,1,.63.74.64.64,0,0,0,.85.23.64.64,0,0,0,.23-.86,7.11,7.11,0,0,0-3-2.47,4.09,4.09,0,0,0-2.78-.16,3.54,3.54,0,0,0-2,1.58,3.47,3.47,0,0,0-.31,2.64,5.89,5.89,0,0,0,2.44,3.14.62.62,0,0,0,.85-.22.64.64,0,0,0-.22-.86Z"/><path class="cls-2" d="M204.21,35.74c.64-2.38,1.85-5.51,4.46-6.3a3.15,3.15,0,0,1,3,.41,3.56,3.56,0,0,1,.7,2.45,19.1,19.1,0,0,1-.39,3.46c-.14.79,1.06,1.12,1.2.33.38-2.15,1.06-5.1-.48-7a3.87,3.87,0,0,0-3.6-1.05,6,6,0,0,0-3.94,2.53,14.09,14.09,0,0,0-2.17,4.8.63.63,0,0,0,1.21.33Z"/><path class="cls-2" d="M213.26,36.82a5.7,5.7,0,0,1,5.64,0l.18.11.09.07s-.08-.06,0,0,.21.19.31.3.13.15.06.06l.12.18s0,.1.08.16,0-.1,0,0a.56.56,0,0,1,0,.12,1.94,1.94,0,0,1,0,.2s0,.12,0,0a.41.41,0,0,1,0,.11,1.93,1.93,0,0,1,0,.24c0,.08,0,0,0,0l0,.15a2.27,2.27,0,0,1-.46.9.64.64,0,0,0,0,.88.62.62,0,0,0,.88,0A3.26,3.26,0,0,0,221.1,38a2.76,2.76,0,0,0-1-1.86,6.62,6.62,0,0,0-4.72-1.27,5.68,5.68,0,0,0-2.73.9.63.63,0,0,0,.64,1.08Z"/><path class="cls-2" d="M218.83,35.58a5.3,5.3,0,0,1-.27-3.51,3.65,3.65,0,0,1,2.68-2.2,3.51,3.51,0,0,1,3,.27,4.7,4.7,0,0,1,1.42,2.25c.42,1.16.68,2.36,1.07,3.53.25.76,1.46.43,1.2-.34-.71-2.17-1-5-3-6.47a4.56,4.56,0,0,0-3.81-.51,5.15,5.15,0,0,0-3.6,2.57,6.16,6.16,0,0,0,0,4.75c.28.74,1.48.42,1.21-.34Z"/><path class="cls-2" d="M227.92,36.24c1.11-1.54,2-3.75,4-4.32a3.37,3.37,0,0,1,2.69.29,2,2,0,0,1,.73,1.69,5.92,5.92,0,0,1-.77,2.77c-.37.71.7,1.34,1.08.63.89-1.69,1.59-4.25.05-5.8a4,4,0,0,0-3.22-.94,5.13,5.13,0,0,0-3.29,1.7,37.46,37.46,0,0,0-2.37,3.35.63.63,0,0,0,.23.86.64.64,0,0,0,.85-.23Z"/><path class="cls-2" d="M235.65,37.76l.12,0c.13,0-.06,0,0,0l.29,0h.55l.29,0H237c.08,0-.13,0,0,0h.08a3.9,3.9,0,0,1,.57.13l.25.07.11,0,.08,0c.08,0,0,0,0,0a1.33,1.33,0,0,0,.24.11l.21.13s.08.07.09.06-.11-.09-.05,0l0,0,.18.18c.07.07-.08-.12,0,0s0,.06,0,.09l.05.08c.06.11,0-.13,0,0l0,.12c0,.12,0-.15,0,0v.12s0,0,0,.06,0-.15,0-.07a1.72,1.72,0,0,0-.08.28l0-.06a.3.3,0,0,0,0,.08l-.1.17a.63.63,0,0,0,1.08.63,2.07,2.07,0,0,0,.33-1.45,1.82,1.82,0,0,0-.61-1.05,4.63,4.63,0,0,0-2.6-1,5.17,5.17,0,0,0-1.52.08.62.62,0,0,0-.44.77.63.63,0,0,0,.77.43Z"/><path class="cls-2" d="M211.61,28.7c.36-2.64,3.11-5.5,5.93-4.14A5.88,5.88,0,0,1,219.76,27a8,8,0,0,0,1.37,2.15c.62.5,1.51-.38.88-.89a2.09,2.09,0,0,1-.43-.59l-.65-1.15A9,9,0,0,0,219,24.06a5,5,0,0,0-6.59.46,6.6,6.6,0,0,0-2,3.84c-.11.79,1.1,1.13,1.21.34Z"/><path class="cls-2" d="M230.82,31.26c-2.23-2.88,2.88-7.67,5.63-5.3,1.2,1,1.58,2.84,1.75,4.33a.64.64,0,0,0,.94.54c1.55-.72,2.9-2,4.61-2.34,1.94-.37,2.62,1.59,2.36,3.16A8.58,8.58,0,0,1,243.78,36c-1,1.07-2.51,2.63-4.07,2.69-.8,0-.81,1.28,0,1.25a6.83,6.83,0,0,0,3.94-2.06,12.1,12.1,0,0,0,3.11-4.09,6.11,6.11,0,0,0,.43-4.38,3.18,3.18,0,0,0-3.5-2.13c-1.95.29-3.45,1.71-5.18,2.51l.94.54c-.32-2.74-1.56-6.43-5-6.21a6.27,6.27,0,0,0-5.23,4.31,4,4,0,0,0,.68,3.75c.49.64,1.37-.25.89-.88Z"/><path class="cls-2" d="M246.54,34.88c1-.5,2.23-.82,3.12.08a8.51,8.51,0,0,1,1.6,3.07.62.62,0,0,0,.91.37c.77-.53,1.41-1.2,2.12-1.8a2.61,2.61,0,0,1,2.49-.86c1.68.61,1.21,3,1.7,4.4.27.75,1.48.43,1.2-.33s-.27-1.9-.51-2.81a3.26,3.26,0,0,0-1.9-2.41c-2.42-.94-4,1.55-5.73,2.73l.92.38a8.69,8.69,0,0,0-2.2-3.88c-1.31-1.07-2.94-.7-4.35,0-.72.35-.09,1.43.63,1.08Z"/><path class="cls-2" d="M256.71,34.87c.17-1.76,1.11-4.23,3.1-4.6,2.16-.4,2.65,2.57,2.7,4.07a.63.63,0,0,0,.79.6c.92-.17,1.83-.43,2.75-.62a3.62,3.62,0,0,1,2.16,0c.75.36.71,1.43.67,2.13a10.45,10.45,0,0,1-1.71,4.31.63.63,0,0,0,1.08.63,11.75,11.75,0,0,0,1.88-4.94,3.3,3.3,0,0,0-1.08-3.08,3.77,3.77,0,0,0-2.76-.32c-1.12.18-2.21.52-3.33.73l.8.6c-.08-2.34-1.08-5.78-4.09-5.3-2.69.42-4,3.44-4.21,5.83-.08.8,1.17.79,1.25,0Z"/><path class="cls-2" d="M246,28.72a2.51,2.51,0,0,1,2.88,0,9.58,9.58,0,0,1,1.9,2.56.64.64,0,0,0,1.08,0,6.23,6.23,0,0,1,3.29-1.83c.62-.16,2.49-.61,2.59.46.08.79,1.33.8,1.25,0-.18-1.91-2.13-2.09-3.66-1.78a7.55,7.55,0,0,0-4.55,2.52h1.08a9.28,9.28,0,0,0-2.56-3.16,3.83,3.83,0,0,0-3.93.12c-.72.36-.08,1.44.63,1.08Z"/><path class="cls-2" d="M219.82,25.5a5,5,0,0,1,5.43-2.35,8.73,8.73,0,0,1,5.11,3.23c.48.64,1.57,0,1.08-.63a10,10,0,0,0-6.11-3.86,6.27,6.27,0,0,0-6.59,3c-.43.68.66,1.31,1.08.63Z"/><path class="cls-2" d="M200.34,32.92a5.45,5.45,0,0,1,3.35-4,5.35,5.35,0,0,1,4.88.17c.69.43,1.31-.65.64-1.08-3.73-2.35-9.33.36-10.08,4.6-.14.79,1.06,1.12,1.21.33Z"/><path class="cls-6" d="M193.57,38c2.38,20.08,23.51,42,42.79,38.83,8.46-1.32,14-.26,21.4-8.72A49.46,49.46,0,0,0,268.59,47a70.17,70.17,0,0,1,2.11-7.13c-6.34-.27-9.77-.27-14.26-.27-11.89,0-51-1.58-62.87-1.58"/><path class="cls-2" d="M288.14,113.46c-.66,4-.53,8.58-.8,12.68,0,2.51-1,9.37,1.33,11.09,5,3.57,5.15-18.62,4.88-21.26a2.31,2.31,0,0,0-.13-.93"/><path class="cls-4" d="M275.46,116.76c0-12.15.26-26.95,4-38.83,2.64-7.4,6.08-18,15.59-17.44,10,.53,15.32,11.36,16.11,20.08.53,9.51-.53,19.28-1.06,28.53-.26,3.17-.79,6.6-1.05,10.3-2.38.79-29.59-1.85-33.55-2.64"/><path class="cls-2" d="M284.4,112.27c0-5.76.6-11.56,1.18-17.28.38-3.63.81-7.26,1.41-10.86a43.59,43.59,0,0,1,1.88-8.07,12.64,12.64,0,0,1,1.1-1.94l.11-.05c0,.08-.21-.21-.32-.18s0,0,0,0a1.13,1.13,0,0,0,.09.35,26,26,0,0,1,.17,5.44c-.13,6.26-.59,12.53-1.1,18.78-.26,3.19-.54,6.38-.88,9.56-.11,1-.22,2-.36,3,0,.29-.09.58-.13.87-.13.74-.16-.12.62,0-.78-.14-1.12,1.06-.33,1.21,1.21.22,1.15-2.51,1.23-3.19.32-2.67.57-5.35.81-8,.6-6.89,1.13-13.79,1.35-20.7a42.38,42.38,0,0,0-.09-6.76c-.16-1.25-1-2.31-2.17-1.13-1.47,1.43-1.91,4.15-2.34,6a106.54,106.54,0,0,0-1.74,10.68,185.31,185.31,0,0,0-1.74,22.2.63.63,0,0,0,1.25,0Z"/><path class="cls-2" d="M284,112.89c1.33,0,2.64.26,4,.27a.63.63,0,0,0,.62-.63.62.62,0,0,0-.62-.62c-1.33,0-2.64-.26-4-.27a.63.63,0,0,0-.62.63.62.62,0,0,0,.62.62Z"/><path class="cls-2" d="M296.16,113.59a172.11,172.11,0,0,1,1.18-17.28c.37-3.63.81-7.26,1.4-10.86a43.59,43.59,0,0,1,1.88-8.07,12.64,12.64,0,0,1,1.1-1.94s.11-.06.11,0-.21-.21-.32-.18,0,0,0,0a2.7,2.7,0,0,0,.09.36,25.25,25.25,0,0,1,.17,5.43c-.12,6.26-.59,12.53-1.09,18.78-.26,3.19-.54,6.38-.89,9.56-.1,1-.21,2-.35,3,0,.29-.09.58-.14.87-.12.74-.15-.12.63,0-.79-.14-1.13,1.06-.34,1.21,1.22.22,1.16-2.51,1.24-3.19.32-2.67.57-5.35.8-8,.61-6.89,1.14-13.79,1.35-20.7a42.38,42.38,0,0,0-.09-6.76c-.16-1.25-.95-2.31-2.16-1.13-1.48,1.44-1.91,4.15-2.34,6-.8,3.52-1.3,7.1-1.75,10.68a183.26,183.26,0,0,0-1.73,22.2.63.63,0,0,0,1.25,0Z"/><path class="cls-2" d="M295.8,114.21c1.32,0,2.63.27,4,.27a.63.63,0,1,0,0-1.25c-1.33,0-2.64-.26-4-.27a.63.63,0,1,0,0,1.25Z"/><path class="cls-2" d="M125.37,174.69c16.74-2,33.48-7.5,50.22-10.1h0c4,15.3,14.72,29.15,15.87,45.31,0,1.44.87,7.51,0,8.66-1.73,1.73-9.52,1.15-12.12,1.44-8.08,1.44-16.45,3.46-24.25,5.49-3.75.86-7.5,2-11.25,3.17-6.06,2.31-6.93.29-9.81-5.48-4.62-9.82-11-37.52-8.66-48.49"/><path class="cls-5" d="M151.06,182.77c-4.91,0-9.53,6.93-10.68,11-2.6,11,5.48,17.32,15.29,17.32,17.9.28,21.36-23.67,4-28.58-1.15-.57-4.33-.86-8.65.29"/><path class="cls-3" d="M152.28,186.59c-3.54,0-6.88,5-7.71,7.92-1.88,7.92,4,12.51,11.05,12.51,12.92.2,15.42-17.09,2.91-20.64-.83-.41-3.12-.62-6.25.21"/><path class="cls-2" d="M161,196.17a7.64,7.64,0,0,1-5-.66,5.6,5.6,0,0,0-3.71-.87,6.92,6.92,0,0,0-4.31,2.41,2.51,2.51,0,0,0-.55,2A3.24,3.24,0,0,0,149,201a8,8,0,0,0,5.55.75,12.34,12.34,0,0,0,5.46-2.1c2.6-1.95,3.95-6.8,1.48-9.38a4.76,4.76,0,0,0-6-.81,11.52,11.52,0,0,0-3.9,4.93c-.35.73.73,1.36,1.08.63,1.27-2.64,3.85-6.51,7.2-4.42,2.63,1.65,1.7,6.06-.35,7.82a10,10,0,0,1-4.35,1.93,8.38,8.38,0,0,1-4.86,0,2.88,2.88,0,0,1-1.68-1.39,1.41,1.41,0,0,1,.44-1.35,6,6,0,0,1,3.68-1.78c1.2-.12,2.08.56,3.11,1a8.93,8.93,0,0,0,5.38.51c.79-.13.46-1.34-.33-1.2Z"/><path class="cls-2" d="M126.55,176.26c-.66-2.24-2.08-4.08-3.24-6.07l-.22.86c3.83-2,8.23-2.49,12.41-3.35,4.73-1,9.39-2.28,14.14-3.23s9.61-2,14.38-3.13c2-.45,4-1,6-1.4a20.47,20.47,0,0,1,3.41-.39,9.25,9.25,0,0,0,2.72-.27l-.77-.44c.49,2.54-.95,5.06-1.59,7.46a.63.63,0,0,0,1.21.33c.71-2.67,2.13-5.28,1.58-8.12a.63.63,0,0,0-.77-.44,13.83,13.83,0,0,1-3.15.27,22.79,22.79,0,0,0-3,.4c-2.16.4-4.27,1-6.42,1.48-4.82,1.06-9.65,2.17-14.49,3.14s-9.35,2.26-14.06,3.22c-4.16.84-8.48,1.41-12.3,3.39a.63.63,0,0,0-.23.85c1.11,1.89,2.49,3.64,3.11,5.77a.63.63,0,0,0,1.21-.33Z"/><path class="cls-2" d="M127.51,170.67c.31,2.2,1.43,4.18,1.87,6.35a.63.63,0,0,0,1.21-.33c-.45-2.17-1.57-4.15-1.88-6.35a.63.63,0,0,0-.76-.44.65.65,0,0,0-.44.77Z"/><path class="cls-2" d="M133,170.53q.87,2.59,1.73,5.19a.65.65,0,0,0,.77.44.63.63,0,0,0,.44-.77q-.87-2.59-1.73-5.2a.63.63,0,0,0-1.21.34Z"/><path class="cls-2" d="M139.9,168.2a18.86,18.86,0,0,0,2,6.37.62.62,0,0,0,.85.23.64.64,0,0,0,.23-.86,17,17,0,0,1-1.79-5.74.65.65,0,0,0-.63-.63.63.63,0,0,0-.62.63Z"/><path class="cls-2" d="M146.56,166.78c.58,1.92,1,3.89,1.73,5.77a.64.64,0,0,0,.77.43.62.62,0,0,0,.43-.76c-.71-1.89-1.14-3.86-1.73-5.78-.23-.76-1.44-.44-1.2.34Z"/><path class="cls-2" d="M154.33,164.88a8.55,8.55,0,0,0,.47,3.08c.32,1,.73,2,1.14,3a.65.65,0,0,0,.77.44.63.63,0,0,0,.43-.77c-.4-1-.79-1.92-1.1-2.91a7.69,7.69,0,0,1-.46-2.84.64.64,0,0,0-.63-.63.63.63,0,0,0-.62.63Z"/><path class="cls-2" d="M161,164c.42,1.53,1,3,1.58,4.48a.64.64,0,0,0,.77.43.62.62,0,0,0,.44-.77c-.54-1.48-1.17-2.94-1.59-4.47a.62.62,0,0,0-1.2.33Z"/><path class="cls-2" d="M168.2,162c.29,1.92,1.27,3.67,1.42,5.61a.64.64,0,0,0,.63.62.62.62,0,0,0,.62-.62c-.16-2.06-1.16-3.91-1.46-5.94a.62.62,0,0,0-.77-.43.63.63,0,0,0-.44.76Z"/><path class="cls-2" d="M138,226.35c0,3.13-1,9.2,3.5,9.63,1.91.18,3.83-.52,5.63-1,2.57-.73,5.17-1.24,7.72-2,6.12-1.91,12-4.14,18.41-5,5.91-.78,11.84-1.5,17.73-2.37,1.74-.25,3.38-1,3.38-3,0-2.69-2.49-5.23-4.08-7.18-.5-.62-1.38.27-.88.89,1.34,1.63,3.71,4,3.71,6.29,0,1.89-2.55,1.83-3.9,2-5.58.55-11.12,1.54-16.68,2.27a80.24,80.24,0,0,0-15.07,4c-4.25,1.4-8.57,2.53-12.91,3.61-1.77.44-4.34.95-5-1.31-.62-2.09-.32-4.55-.31-6.71a.63.63,0,0,0-1.25,0Z"/><path class="cls-2" d="M141.63,226.06c.16,2,1.14,3.89,1.3,5.92a.63.63,0,0,0,1.25,0c-.16-2-1.14-3.89-1.3-5.92a.64.64,0,0,0-.63-.62.62.62,0,0,0-.62.62Z"/><path class="cls-2" d="M148.14,223.92c.42,2.18,1.28,4.26,1.57,6.47a.65.65,0,0,0,.62.63.63.63,0,0,0,.63-.63c-.3-2.32-1.17-4.51-1.61-6.8a.64.64,0,0,0-.77-.44.65.65,0,0,0-.44.77Z"/><path class="cls-2" d="M155.5,222.76a25.14,25.14,0,0,1,1.28,5.47.63.63,0,0,0,1.25,0,26.35,26.35,0,0,0-1.32-5.8c-.24-.76-1.45-.44-1.21.33Z"/><path class="cls-2" d="M162.72,220.17a48.19,48.19,0,0,1,1.59,6.06.61.61,0,0,0,.76.43.63.63,0,0,0,.44-.76,45.53,45.53,0,0,0-1.59-6.07.62.62,0,0,0-1.2.34Z"/><path class="cls-2" d="M171.23,218.44c.56,2.19,1.69,4.31,1.71,6.61a.63.63,0,0,0,1.25,0c0-2.43-1.16-4.63-1.75-7a.63.63,0,0,0-1.21.34Z"/><path class="cls-2" d="M179.89,217.14c.42,2,1.16,3.82,1.59,5.77a.62.62,0,1,0,1.2-.33c-.42-2-1.16-3.82-1.58-5.78a.63.63,0,0,0-.77-.43.64.64,0,0,0-.44.77Z"/><path class="cls-2" d="M186.53,217.14A28.69,28.69,0,0,1,188,222a.63.63,0,0,0,.77.44.65.65,0,0,0,.44-.77,28.21,28.21,0,0,0-1.45-4.91.62.62,0,0,0-1.2.34Z"/><path class="cls-4" d="M83.41,126.27c-13.47-6.34-2.11-24,6.87-28.53,11.09-5.81,30.64-4,30.38,11.89a24.46,24.46,0,0,1-.26,4.22c-11.36,2.91-25.36,13.74-37,13"/><g class="cls-16"><path class="cls-3" d="M80,125.74c12.94-5,30.64-8.19,42.53-15.06,0,12.42,1.58,25.63.53,38a87.27,87.27,0,0,0-20.08,7.4c-4.75-5-8.45-10.83-12.42-16.11-2.9-4-9-9.78-10.56-14.27"/><path class="cls-2" d="M82.08,120.51c3.36,7.07,8.58,13,13.41,19.13,2.36,3,4.5,6.08,6.78,9.1s4.73,6.2,5.9,9.92c.24.77,1.45.44,1.2-.33-1.12-3.57-3.3-6.61-5.52-9.57s-4.36-6-6.67-9c-5-6.36-10.52-12.52-14-19.89-.35-.73-1.42-.09-1.08.63Z"/><path class="cls-2" d="M94,116.55c3.93,6.85,7.16,14.06,10.43,21.25,1.58,3.45,3.16,6.87,5,10.19a94.78,94.78,0,0,1,5.37,10.41c.3.73,1.51.41,1.21-.33a89.61,89.61,0,0,0-5-9.91c-1.93-3.44-3.61-7-5.25-10.56-3.34-7.33-6.62-14.69-10.63-21.68a.63.63,0,0,0-1.08.63Z"/><path class="cls-2" d="M105.26,112.43c3.47,14,8.42,27.66,12.68,41.48.24.76,1.45.44,1.21-.33-4.26-13.82-9.22-27.43-12.68-41.48-.19-.78-1.4-.45-1.21.33Z"/><path class="cls-2" d="M117.41,108.93c-1.29,6.86.53,14,1.33,20.79.45,3.84.74,7.67,1.34,11.5.67,4.23,1.48,8.44,2.09,12.69.11.79,1.32.45,1.21-.33-.6-4.09-1.36-8.15-2-12.23-.62-3.87-.91-7.74-1.37-11.63-.78-6.67-2.64-13.73-1.37-20.46.15-.78-1.06-1.12-1.21-.33Z"/></g><path class="cls-2" d="M82.09,116.76a1.32,1.32,0,0,0,0,2.64A1.32,1.32,0,0,0,82.09,116.76Z"/><path class="cls-2" d="M88.17,107.78a1.32,1.32,0,0,0,0,2.64A1.32,1.32,0,0,0,88.17,107.78Z"/><path class="cls-2" d="M95.3,113.59a1.32,1.32,0,0,0,0,2.64A1.32,1.32,0,0,0,95.3,113.59Z"/><path class="cls-2" d="M95.83,101.44a1.32,1.32,0,0,0,0,2.64A1.32,1.32,0,0,0,95.83,101.44Z"/><path class="cls-2" d="M103.75,109.89a1.32,1.32,0,0,0,0,2.64A1.32,1.32,0,0,0,103.75,109.89Z"/><path class="cls-2" d="M107.71,100.38a1.32,1.32,0,0,0,0,2.64A1.32,1.32,0,0,0,107.71,100.38Z"/><path class="cls-2" d="M115.64,107a1.32,1.32,0,0,0,0,2.64A1.32,1.32,0,0,0,115.64,107Z"/><path class="cls-5" d="M99,95.55c-.91-.85-1.82-1.71-2.71-2.58.54-1.13,1.1-2.26,1.69-3.36a1.88,1.88,0,0,0-2.55-2.55c-1.1.54-2.19,1.12-3.26,1.71-.6-.65-1.18-1.3-1.75-2a1.88,1.88,0,0,0-3.18,1.32c.1,1.07.2,2.13.31,3.19-1.15.61-2.3,1.2-3.49,1.72-1.73.77-.82,3.53.94,3.48,1,0,2.1,0,3.15,0,.19,1.39.39,2.79.64,4.17.42,2.29,2.35,2,4.6-3.66.94.27,2.44,1,3.35,1.42C98.56,99.25,100.68,97.12,99,95.55Z"/><path class="cls-3" d="M210.51,184a2.57,2.57,0,0,0-.7-1.17l-.05-.09a2.62,2.62,0,0,0-3-1.21l-.3.13a2.82,2.82,0,0,0-2.6,2.07,3.82,3.82,0,0,0-.45,1.75,2.64,2.64,0,0,0,1.31,2.28l.25.13a2.68,2.68,0,0,0,1.44.84,2.86,2.86,0,0,0,2-.26,2.7,2.7,0,0,0,.85-.83,2.38,2.38,0,0,0,1.07-1.46,2.32,2.32,0,0,0,.07-.7A2.47,2.47,0,0,0,210.51,184Z"/><path class="cls-3" d="M233,188.61a2.65,2.65,0,0,0-2.65-2.64,5.18,5.18,0,0,0-1.42.35,2.66,2.66,0,0,0-2.62,2.64,1.21,1.21,0,0,0,0,.19,2.34,2.34,0,0,0,.11.94c.29,1.54,1.19,2.93,3,2.92a3.73,3.73,0,0,0,3.21-1.66A5.4,5.4,0,0,0,233,188.61Z"/><path class="cls-3" d="M224.78,168.83a2.57,2.57,0,0,0-1.47.42,3.63,3.63,0,0,0-1,.36,2.71,2.71,0,0,0-1.59,3.33,6.49,6.49,0,0,0,.4.79,2.68,2.68,0,0,0,3.27,1.93l1.4-.35a2.66,2.66,0,0,0,1.94-2.55v-1A3,3,0,0,0,224.78,168.83Z"/><path class="cls-4" d="M221.75,183.33a2.25,2.25,0,0,0-.12-.67,3.25,3.25,0,0,0-1.55-2.32,2.65,2.65,0,0,0-3.61.95l-.7,1.41a2.72,2.72,0,0,0-.27,2,2.64,2.64,0,0,0,1.85,1.85,3.52,3.52,0,0,0,3.41-.73,2.69,2.69,0,0,0,.76-1.47A2.55,2.55,0,0,0,221.75,183.33Z"/><path class="cls-4" d="M237.38,180.3h0C237.3,180.29,237.27,180.29,237.38,180.3Z"/><path class="cls-4" d="M242.17,177.34a2.64,2.64,0,0,0-2.64-2.64,4,4,0,0,0-1.45.38l-.31,0a2.65,2.65,0,0,0-2.64,2.64,2.62,2.62,0,0,0,2.21,2.58h0l0,0h0a2.12,2.12,0,0,0,.47.38,2.62,2.62,0,0,0,2,.26,2.9,2.9,0,0,0,1.58-1.21,2,2,0,0,0,.3-.63,2.67,2.67,0,0,0,.32-.71A3.73,3.73,0,0,0,242.17,177.34Z"/><path class="cls-4" d="M210.65,169.16a3,3,0,0,0-2,.26A2.66,2.66,0,0,0,207.4,171a2.93,2.93,0,0,0,.42,2.28,2.63,2.63,0,0,0,5.12-.87C212.93,171,212.21,169.37,210.65,169.16Z"/><path class="cls-4" d="M214.69,204.56s0-.06,0-.1a2.65,2.65,0,0,0-2.64-2.64,2.61,2.61,0,0,0-2.52,2,4.29,4.29,0,0,0-.71,1.26,2.28,2.28,0,0,0-.11,1,2.54,2.54,0,0,0,.09.54,2.86,2.86,0,0,0,1.21,1.58l.07,0,0,0a3.88,3.88,0,0,0,1.6.56,2.79,2.79,0,0,0,2-.27,2.63,2.63,0,0,0,1.3-2.28A4.43,4.43,0,0,0,214.69,204.56Z"/><path class="cls-4" d="M237.94,205.59a2.68,2.68,0,0,0-3.61-.94,3.06,3.06,0,0,0,0,5.61,2.68,2.68,0,0,0,3.61-.94,6.14,6.14,0,0,0,0-3.73Z"/><path class="cls-5" d="M224.65,198a2.62,2.62,0,0,0-2.36-1.38l-.16,0a2.8,2.8,0,0,0-2.78.63,2.56,2.56,0,0,0-.49,2.95l.06.21a3.2,3.2,0,0,0,1.38,1.75,3.46,3.46,0,0,0,2.39.29,2.8,2.8,0,0,0,2.18-2.08A3.24,3.24,0,0,0,224.65,198Z"/><path class="cls-5" d="M200.73,189.67a3.89,3.89,0,0,0-3.57,1.3,2.67,2.67,0,0,0,0,3.74,2.62,2.62,0,0,0,2,.75,2.54,2.54,0,0,0,1.32.37,2.66,2.66,0,0,0,2.64-2.64C203.05,191.71,202.39,190,200.73,189.67Z"/><path class="cls-5" d="M245.89,192.92a4.89,4.89,0,0,0-1.43-.52,2.67,2.67,0,0,0-3.34,2.55v1.41a2.66,2.66,0,0,0,2.64,2.64h.35a2.63,2.63,0,0,0,2.57-2.12,2.51,2.51,0,0,0,.47-.92A2.78,2.78,0,0,0,245.89,192.92Z"/><path class="cls-5" d="M237.24,162.19a2.65,2.65,0,0,0-2.64-2.64h-.77a2.66,2.66,0,0,0-2.62,2.4,5.14,5.14,0,0,0-.19,1,2.9,2.9,0,0,0,4.21,2.56,1.94,1.94,0,0,0,.24-.15,2.65,2.65,0,0,0,1-.61,2.85,2.85,0,0,0,.74-2.34A2,2,0,0,0,237.24,162.19Z"/><path class="cls-5" d="M219.92,162.44a2.55,2.55,0,0,0-2.33-.72,2.59,2.59,0,0,0-2.79,1.89,3.75,3.75,0,0,0,.79,3l.21.16a3,3,0,0,0,2.25,1.21,2.64,2.64,0,0,0,1.87-.78,2.32,2.32,0,0,0,.44-.63,3.44,3.44,0,0,0,.63-1.72A3.23,3.23,0,0,0,219.92,162.44Z"/><path class="cls-5" d="M155,11.62c-3.41,0-3.41,5.29,0,5.29S158.41,11.62,155,11.62Z"/><path class="cls-5" d="M163.45,0c-3.4,0-3.4,5.28,0,5.28S166.86,0,163.45,0Z"/><path class="cls-5" d="M165.57,11.62c-3.41,0-3.41,5.29,0,5.29S169,11.62,165.57,11.62Z"/><path class="cls-5" d="M189.87,80.31c-3.41,0-3.41,5.28,0,5.28S193.28,80.31,189.87,80.31Z"/><path class="cls-5" d="M198.32,72.91c-3.41,0-3.41,5.28,0,5.28S201.73,72.91,198.32,72.91Z"/><path class="cls-5" d="M40.57,91.52c-3.41,0-3.41,5.28,0,5.28S44,91.52,40.57,91.52Z"/><path class="cls-5" d="M77.21,82.15c-3.41,0-3.41,5.29,0,5.29S80.62,82.15,77.21,82.15Z"/><path class="cls-5" d="M281.8,44.38c-3.41,0-3.41,5.28,0,5.28S285.21,44.38,281.8,44.38Z"/><path class="cls-5" d="M289.19,34.87c-3.4,0-3.4,5.28,0,5.28S292.6,34.87,289.19,34.87Z"/><path class="cls-5" d="M121.19,227.18c-3.41,0-3.41,5.28,0,5.28S124.59,227.18,121.19,227.18Z"/><path class="cls-5" d="M127.53,237.75c-3.41,0-3.41,5.28,0,5.28S130.93,237.75,127.53,237.75Z"/><path class="cls-5" d="M84.53,167.38c-3.4,0-3.4,5.29,0,5.29S87.94,167.38,84.53,167.38Z"/><path class="cls-5" d="M260.66,137.36c-3.4,0-3.4,5.29,0,5.29S264.07,137.36,260.66,137.36Z"/><path class="cls-5" d="M269.12,126.8c-3.41,0-3.41,5.28,0,5.28S272.53,126.8,269.12,126.8Z"/><path class="cls-5" d="M272.29,141.59c-3.41,0-3.41,5.28,0,5.28S275.7,141.59,272.29,141.59Z"/><path class="cls-3" d="M104.63,277c6-11.63,24.66-27.12,38.75-27.48,12.33-.35,23.24,9.51,32.75,16.21-5.63,4.93-18.31,10.92-28.17,13.38-10.92,2.82-30.65,3.17-42.27-1.76"/><path class="cls-2" d="M123.36,257.79a16.37,16.37,0,0,0,.23,6.35,9.19,9.19,0,0,0,1.6,3.76,1.76,1.76,0,0,0,1.38.8,1.81,1.81,0,0,0,1.44-1.05,9.25,9.25,0,0,0,.82-5.37c-.17-2.15-.66-4.28-.68-6.44a.63.63,0,0,0-1.25,0c0,3.17,1.2,6.42.59,9.58a3.81,3.81,0,0,1-.79,1.92c-.11.11-.16.11-.17.11a1,1,0,0,1-.33-.28,8,8,0,0,1-1.32-3,14.2,14.2,0,0,1-.32-6.08c.15-.79-1-1.12-1.2-.33Z"/><path class="cls-2" d="M135.88,251.75a26,26,0,0,0,1.51,8.17,28.88,28.88,0,0,0,1.9,5.38c.34.62.86,1.38,1.63,1.46a1.67,1.67,0,0,0,1.6-1.21c.69-1.68.5-4,.39-5.74a34,34,0,0,0-1.84-9.15c-.26-.76-1.47-.43-1.2.33a31.13,31.13,0,0,1,1.78,12.62c0,.41-.07,1.61-.5,1.84s-.83-.87-1-1.16a33.3,33.3,0,0,1-1.54-4.58,25,25,0,0,1-1.51-8c0-.81-1.22-.81-1.25,0Z"/><path class="cls-2" d="M149.62,251.22a23.73,23.73,0,0,0,1.66,7.55,17.29,17.29,0,0,0,1.94,4.34,2,2,0,0,0,1.6,1c.77-.05,1.25-.79,1.51-1.44.68-1.72.4-3.82.1-5.59a19.16,19.16,0,0,0-1.68-5.66c-.38-.71-1.45-.08-1.08.63a16.35,16.35,0,0,1,1.31,4.1,14.76,14.76,0,0,1,.42,5.12,2.65,2.65,0,0,1-.64,1.58c0,.05,0,0-.13,0a2.37,2.37,0,0,1-.48-.56,18.15,18.15,0,0,1-1.64-3.75c-.4-1.07-.7-2.19-1-3.29a16,16,0,0,1-.65-4,.63.63,0,0,0-1.25,0Z"/></g></g></svg>