<svg xmlns="http://www.w3.org/2000/svg" viewBox="0 0 565.69 499.63"><defs><style>.cls-1,.cls-22{fill:#68c1de;}.cls-1{opacity:0.2;}.cls-2,.cls-3,.cls-4,.cls-5,.cls-6,.cls-8,.cls-9{fill:none;stroke-miterlimit:10;}.cls-2,.cls-9{stroke:#f9c929;}.cls-2,.cls-3,.cls-4,.cls-5,.cls-6{stroke-width:7px;}.cls-3{stroke:#68c1de;}.cls-4{stroke:#fe609c;}.cls-5,.cls-8{stroke:#fea0c4;}.cls-6{stroke:#cc1588;}.cls-21,.cls-7{fill:#fff;}.cls-8,.cls-9{stroke-width:5px;}.cls-10{fill:#fe609c;}.cls-11{fill:#282a60;}.cls-12,.cls-18{fill:#cc1588;}.cls-13{fill:#353880;}.cls-14{fill:#fea0c4;}.cls-15{fill:#474baa;}.cls-16{fill:#f9c929;}.cls-17{opacity:0.7;}.cls-18,.cls-21{font-size:91.27px;}.cls-18,.cls-21,.cls-22{font-family:RifficFree-Bold, Riffic Free;font-weight:700;}.cls-19{letter-spacing:-0.01em;}.cls-20{letter-spacing:0em;}.cls-22{font-size:56px;}.cls-23{letter-spacing:0.01em;}</style></defs><g id="Layer_2" data-name="Layer 2"><g id="OBJECTS"><circle class="cls-1" cx="276.95" cy="249.81" r="249.81"/><path class="cls-2" d="M169.82,68.38a62,62,0,0,0,10,15.48"/><path class="cls-3" d="M103.28,183.22c-5,5.7-8.32,13-11.65,19.54"/><path class="cls-4" d="M498.41,137.61a87,87,0,0,1,12.48,12.22"/><path class="cls-3" d="M503.4,272c-2.49,6.51-5.82,13.84-10.82,19.55"/><path class="cls-2" d="M367.81,338.77c4.15,5.7,8.32,12.22,11.64,17.92"/><path class="cls-4" d="M16.41,381.83c.83,8.15,8.32,13,12.48,19.55"/><path class="cls-4" d="M245.9,324.7c.83,8.15,8.32,13,12.48,19.55"/><path class="cls-5" d="M560,367.28c-4.16,7.33-10,14.66-15,21.17"/><path class="cls-5" d="M45.87,81.41c-4.15,8.15-10,16.29-15,23.62"/><path class="cls-3" d="M412.72,419.4c-5,4.89-10.81,9-16.63,13.84"/><path class="cls-3" d="M2.45,249.81c5,4.89,13,10.78,18,14.85"/><path class="cls-3" d="M391.1,43.14c-2.49,7.33-5.82,14.66-10.81,20.36"/><path class="cls-6" d="M521.7,74.08a167.09,167.09,0,0,0-10.81,14.66"/><path class="cls-6" d="M184,453.6c5.82,3.26,12.48,4.89,16.63,9.78"/><path class="cls-6" d="M297.93,26c-6.65,1.63-12.48,4.89-18.3,8.15"/><path class="cls-6" d="M456.4,437.61c5.82,2.44,11.65,6.52,17.46,10.59"/><path class="cls-6" d="M272.86,366.87c5.81,2.44,11.64,6.51,17.46,10.59"/><path class="cls-2" d="M312.08,452c8.31,2.45,14.13,6.52,21.62,10.59"/><path class="cls-4" d="M105.77,33.36c4.16,4.89,8.32,9.78,13.31,13"/><path class="cls-3" d="M111.6,451.16c-2.5,5.7-6.66,11.4-12.49,13.85"/><path class="cls-3" d="M551.14,163.9c5,7.33,8,10.84,11.31,19"/><path class="cls-3" d="M294.71,332.77c5,7.33,8,10.85,11.31,19"/><path class="cls-7" d="M17.34,140.92c3.21,0,3.22-5,0-5s-3.23,5,0,5Z"/><path class="cls-7" d="M540.88,315.21c3.22,0,3.23-5,0-5s-3.22,5,0,5Z"/><path class="cls-7" d="M251.83,464.25c3.22,0,3.23-5,0-5s-3.22,5,0,5Z"/><path class="cls-7" d="M211.94,28.15a3.75,3.75,0,1,0-3.75-3.75,3.79,3.79,0,0,0,3.75,3.75Z"/><path class="cls-7" d="M331.64,333.56a3.75,3.75,0,1,0-3.75-3.75,3.79,3.79,0,0,0,3.75,3.75Z"/><path class="cls-7" d="M8.38,333.56a3.75,3.75,0,0,0,0-7.5,3.75,3.75,0,1,0,0,7.5Z"/><path class="cls-7" d="M477.37,44c3.22,0,3.23-5,0-5s-3.22,5,0,5Z"/><path class="cls-7" d="M237.51,359.19c3.22,0,3.22-5,0-5s-3.22,5,0,5Z"/><path class="cls-7" d="M488,430.07a3.75,3.75,0,1,0-3.75-3.75,3.79,3.79,0,0,0,3.75,3.75Z"/><path class="cls-8" d="M519.06,180.77c-36.47,2-35.17,48.22-2.6,46.91,15.63-1.3,30-23.45,9.12-19.54-11.73,2.6-21.83,13.66-18.24,30,2.39,10.87,12.3,18.75,24.75,15.64,26.06-6.52,18.43-25.72,2.6-16.95-27,15-14,57.34,24.76,39.1"/><path class="cls-9" d="M46.16,163.83c-7.82,0-16.94,2.93-23,8.15s-9,12.7-4.4,21.82c3.91,7.82,16.29,8.31,26.38,5.46s17.92-9,12.7-14.58c-4.56-3.74-12.77,0-19,6.77S28.43,207.87,31.83,216c4.32,10.27,14.06,10.23,23,8.9s16.19-2.94,13.44-9.81c-5.74-10.53-20.21,1.15-25.73,6.29-10.53,9.8,0,34.08,32.24,20.07"/><polyline class="cls-10" points="109.94 206.83 444.94 198.2 458.18 305.55 106.72 304.89 109.94 206.83"/><path class="cls-11" d="M113.8,112.45c-16.75,3.77-25.74-23.29-43.41-13.22-18.64,10.62-7,33.29,10.38,43.42,19.46,11.33,48.13,15.11,60.4-1.88,11.33-16.05-3.54-34-27.37-28.32"/><path class="cls-10" d="M119.21,134.37c-5.66-2.15-15.75-4.86-19.81,1.32a.37.37,0,0,1-.67-.09c-1.45-7-8-10.14-14.55-11.14s-13.29.06-18.38,4.19a45.85,45.85,0,0,0,15,14c15.37,8.95,36.48,13.17,50.72,6.19C129.3,142.62,125.69,136.84,119.21,134.37Z"/><path class="cls-7" d="M90.46,121.45c1.31,1.36,3.33,2.74,5.32,2.21,3.62-1,5.68-5.25,7.06-8.39.55-1.25,1-2.53,1.49-3.81-4-1.67-7.59-4.65-11.23-7.48a31,31,0,0,0-3.75,9.73C88.89,116.14,88.56,119.49,90.46,121.45Z"/><path class="cls-7" d="M111.47,128.49c7.9-.81,8-10.13,7.39-16.9a38.53,38.53,0,0,0-5.06.86,14.53,14.53,0,0,1-6.73-.08C105,119,101.53,129.5,111.47,128.49Z"/><path class="cls-7" d="M124.26,122.34c.68,4.19,3.46,9.52,8.7,7.78,3.76-1.24,4.15-6.38,4.25-9.7,0-1.66,0-3.32-.08-5a25.46,25.46,0,0,0-12.66-4A33.44,33.44,0,0,0,124.26,122.34Z"/><path class="cls-7" d="M75.76,110.61c3.14,3.24,7.76,2.74,10.52-.63a21.23,21.23,0,0,0,4-8.13c-3.69-2.66-7.5-4.78-11.77-4.87-.65,1-1.27,2-1.82,3.13C75.23,102.94,73,107.83,75.76,110.61Z"/><path class="cls-7" d="M74.93,129.32c1.56-2.58,3.55-6.58,1.9-9.58-3.49-6.38-10.88-3.2-14.86,1.08a36.73,36.73,0,0,0,8.63,13.8A23.34,23.34,0,0,0,74.93,129.32Z"/><path class="cls-7" d="M87.69,126.25c-7.42-3.29-10.21,6.47-13,12.13a46.2,46.2,0,0,0,6.08,4.27q2.12,1.23,4.37,2.33C88.75,140.25,95.07,129.52,87.69,126.25Z"/><path class="cls-7" d="M106.41,135a6,6,0,0,0-5.44-3.62c-4.1.27-6.4,5.38-7.72,8.67a72,72,0,0,0-2.46,7.44A74.07,74.07,0,0,0,102.5,151a64.88,64.88,0,0,0,3.75-9.48C106.78,139.47,107.27,137,106.41,135Z"/><path class="cls-7" d="M135.53,135.51c-8.5-1.9-7.93,8.85-7.25,14.66a26.69,26.69,0,0,0,11.64-7.83C139.55,139,138.42,136.16,135.53,135.51Z"/><path class="cls-7" d="M122.55,143.59c-.23-3.38-1.56-10-6.5-8.73-3.68.95-4.88,5.86-5.56,9.08-.57,2.68-.85,5.4-1.23,8.1a49.11,49.11,0,0,0,13-.31A55.33,55.33,0,0,0,122.55,143.59Z"/><path class="cls-12" d="M112.47,107.62c-.48.11-1.91.15-.2.09-.33,0-.67.07-1,.08-.77,0-1.68-.2-2.42-.09,1-.15,1.1.19.51.06l-.59-.12c-.3-.06-.61-.14-.91-.22s-.76-.23-1.13-.36l-.45-.17c-.71-.25-.22-.39.31.14a9.56,9.56,0,0,0-2-1c-.72-.4-1.43-.83-2.12-1.28-1.34-.87-2.63-1.82-3.91-2.8-1-.73.6.47,0,0l-1-.79c-.95-.73-1.89-1.47-2.84-2.19-1.23-1-2.48-1.87-3.78-2.72a25.05,25.05,0,0,0-9.07-3.93C73,90.77,63.92,95.57,59.08,103s-3.56,16.55.1,24.11C63.09,135.22,70,142,77.66,146.62a75.75,75.75,0,0,0,25.18,9.53c8.74,1.61,18.14,1.89,26.64-1.08s15.66-9,19-17.58A21.62,21.62,0,0,0,144.29,115c-5.82-6.48-15.12-9.06-23.59-8.6a48.74,48.74,0,0,0-8.23,1.19,5,5,0,0,0-3.49,6.15,5.11,5.11,0,0,0,6.15,3.5,17.76,17.76,0,0,1,3.53-.68c-.15,0-1.13.12-.19,0l.75-.08c.61-.06,1.23-.1,1.85-.13,1,0,2,0,3,0,.51,0,1,.06,1.53.11a5.31,5.31,0,0,0,.67.08c-.47,0-1-.16-.18,0A28.27,28.27,0,0,1,131.4,118c1.33.51-.71-.37.3.13.39.2.78.38,1.17.59A20.73,20.73,0,0,1,135,120c1,.74-.54-.48.08,0,.31.26.62.52.91.79a22.72,22.72,0,0,1,1.72,1.82c.53.61-.72-1,0,0,.19.27.38.56.56.85s.39.66.57,1,.72,1.56.34.67.14.39.2.58.2.64.29,1,.16.65.22,1l.09.51c.18.94-.11-1.22,0-.32a18.13,18.13,0,0,1,.06,2.33c0,.35-.05.7-.08,1.06s-.27.6.07-.54c-.07.25-.09.55-.15.81a20.39,20.39,0,0,1-.62,2.29c-.06.17-.59,1.43-.22.62s-.05.09-.11.21-.22.46-.33.68a22.05,22.05,0,0,1-1.36,2.3c-.17.27-.69.75-.74,1,.12-.64.57-.7.11-.16-.17.2-.33.4-.5.59a27.19,27.19,0,0,1-1.92,2l-.91.79a3.4,3.4,0,0,0-.47.38c.64-.81.51-.39.05-.06a27,27,0,0,1-4.67,2.68,4.75,4.75,0,0,0-.56.25c.08,0,1.14-.45.35-.16l-1.14.42c-.92.33-1.86.61-2.81.85s-1.73.41-2.6.57l-1.26.2c-.87.14.3-.06.38,0a4,4,0,0,0-1,.11,55.52,55.52,0,0,1-11.81-.21c-.76-.09,1.28.19.13,0l-.68-.1-1.37-.23c-1-.18-2-.39-3.07-.62-2-.46-4.09-1-6.09-1.66a35.17,35.17,0,0,1-5.94-2.18c.12.06,1.05.45.23.09l-.64-.28c-.42-.18-.84-.38-1.26-.57-1-.46-2-.95-2.94-1.45a56.44,56.44,0,0,1-5.16-3c-.81-.54-1.59-1.11-2.37-1.69-.59-.45,1,.77.07,0l-.54-.43-1.3-1.12a45.81,45.81,0,0,1-4.16-4.2c-.33-.38-.65-.76-1-1.15a3.14,3.14,0,0,1-.42-.51c0,.07.71,1,.18.22s-1.13-1.57-1.66-2.4-1-1.62-1.44-2.45c-.19-.37-.38-.74-.56-1.11-.09-.18-.18-.37-.26-.56-.2-.43-.25-1.08,0,.08-.18-.79-.62-1.59-.86-2.37a22.1,22.1,0,0,1-.63-2.52c-.1-.53-.06-1.73-.06-.2,0-.37-.08-.74-.1-1.11a18.2,18.2,0,0,1,0-2.45c0-.23,0-.45.07-.68,0-.63-.23,1.15-.07.53.1-.39.14-.79.24-1.18s.18-.7.29-1c.17-.51.85-1.59.07-.32.41-.67.69-1.41,1.11-2.08a10.51,10.51,0,0,0,.74-1c0,.09-.79.93-.24.32l.59-.67c.57-.61,1.19-1.16,1.81-1.71s-.21.13-.24.18c.1-.18.51-.37.68-.5.48-.33,1-.64,1.47-.94.73-.44,1.66-.73,2.34-1.22-.06.05-1.16.44-.4.18l.51-.19c.42-.14.85-.27,1.28-.38s.75-.14,1.12-.23c.6-.15-1.21.11-.6.08l.49,0a15.38,15.38,0,0,1,2.25,0c1.18.06-.93-.21-.18,0l.9.19a19,19,0,0,1,2.1.66c1,.36-1.13-.54,0,0,.28.14.57.27.85.42.65.32,1.28.68,1.89,1.06,1.28.78,2.5,1.65,3.7,2.54l.81.62.41.31-.31-.24,1.93,1.5c5.42,4.21,11,8.28,18.15,8.72a19.93,19.93,0,0,0,5.44-.51,5,5,0,0,0,3.49-6.15,5.12,5.12,0,0,0-6.15-3.5Z"/><path class="cls-13" d="M237.46,54.52c-34.72,8.36-18.42,60.29,16,47.32,33.16-12.5,14.76-56.73-16-47.32"/><path class="cls-14" d="M236.8,52.11c-5.85,1.43-11.51,4.36-15.36,9.09A25.85,25.85,0,0,0,215.72,76c-.66,10.46,4.68,21.28,13.7,26.71,11.11,6.7,26,3.49,35.41-4.73,9.13-7.94,10.95-20.88,5.79-31.56a28.44,28.44,0,0,0-11.17-12.1,27.63,27.63,0,0,0-17.9-3.3,32.23,32.23,0,0,0-4.75,1c-3.07.93-1.76,5.76,1.33,4.82a23.74,23.74,0,0,1,15.89.32l.43.17c-.1,0-.41-.18,0,0l.83.38c.58.28,1.15.59,1.71.92s1,.63,1.52,1c.25.17.49.35.73.53s-.27-.22,0,0l.44.35a26.29,26.29,0,0,1,2.75,2.63c.39.44.78.9,1.14,1.36-.3-.39.22.3.28.39.2.27.39.54.57.82A27.78,27.78,0,0,1,266.31,69c.12.26.25.53.37.8.2.44.05.11,0,0,.05.14.11.28.16.41.24.62.47,1.24.66,1.88a25.13,25.13,0,0,1,.83,3.53c0,.15.05.29.07.43.06.39-.05-.4,0,0s.06.59.08.88c.05.62.08,1.24.08,1.86s0,1.17-.05,1.76c0,.29,0,.58-.08.87s0,.29-.05.44c.07-.59,0,.14,0,.21a25.6,25.6,0,0,1-.89,3.55c-.1.28-.2.56-.31.84l-.16.42c-.15.36.15-.33,0,0-.27.59-.55,1.17-.86,1.74s-.63,1.07-1,1.59c-.17.26-.35.52-.54.77a4.26,4.26,0,0,1-.49.63,28.37,28.37,0,0,1-15,9c-.69.18-1.39.33-2.09.46a15.14,15.14,0,0,1-1.74.25,26.72,26.72,0,0,1-4,.07c-.31,0-.62,0-.93-.07l-.46-.05c-.4,0,.38.06,0,0-.63-.09-1.26-.21-1.88-.35a23.26,23.26,0,0,1-3.55-1.13c.49.2-.27-.12-.38-.18l-.77-.37c-.53-.28-1.06-.57-1.57-.89s-.94-.6-1.4-.93l-.34-.25c-.3-.22.3.24,0,0s-.49-.39-.73-.6a23.79,23.79,0,0,1-2.53-2.49c-.19-.2-.37-.42-.54-.63s-.58-.73-.26-.31c-.36-.47-.7-1-1-1.45a26.69,26.69,0,0,1-1.71-3c-.13-.25-.25-.51-.36-.76s-.38-.86-.17-.36c-.24-.58-.46-1.17-.66-1.76a27.12,27.12,0,0,1-.9-3.32c-.11-.54-.2-1.09-.29-1.64,0-.37.06.43,0,.05,0-.14,0-.27,0-.41,0-.31-.06-.62-.09-.93a25.84,25.84,0,0,1,0-3.52c0-.54.08-1.09.16-1.64-.08.57,0-.18.06-.35s.11-.61.17-.91a23,23,0,0,1,.95-3.26c.09-.26.19-.51.3-.77-.21.51.09-.21.16-.35.27-.56.55-1.12.87-1.66s.57-1,.89-1.42c.16-.24.33-.46.49-.69h0l.34-.42A22,22,0,0,1,227.64,62a17.92,17.92,0,0,1,2.88-2c.55-.34,1.13-.65,1.71-.94s1.24-.59,1.61-.73a35.58,35.58,0,0,1,4.29-1.35c3.12-.76,1.8-5.58-1.33-4.82Z"/><path class="cls-13" d="M314,68.05c-34.72,8.36-18.43,60.29,16,47.32,33.16-12.5,14.75-56.73-16-47.32"/><path class="cls-14" d="M313.34,65.64C307.5,67.07,301.84,70,298,74.73a25.92,25.92,0,0,0-5.72,14.85c-.66,10.45,4.68,21.27,13.7,26.7,11.11,6.7,26,3.49,35.42-4.73,9.13-7.94,10.95-20.88,5.79-31.56A28.62,28.62,0,0,0,336,67.89a27.65,27.65,0,0,0-17.9-3.3,32.35,32.35,0,0,0-4.76,1c-3.07.93-1.76,5.76,1.33,4.82a23.74,23.74,0,0,1,15.89.32L331,71c-.09,0-.41-.18,0,0l.83.38c.58.28,1.15.59,1.71.92s1,.63,1.53,1l.73.53c.31.23-.28-.22,0,0l.43.35A26.29,26.29,0,0,1,339,76.77c.4.44.78.9,1.15,1.36-.31-.39.21.3.28.39l.57.82a27.71,27.71,0,0,1,1.81,3.18c.13.26.25.53.37.8.2.44,0,.11,0,0,.06.14.11.28.17.41.24.62.46,1.25.66,1.88a28.28,28.28,0,0,1,.83,3.53l.06.44c.06.38,0-.41,0,0l.09.88c0,.62.07,1.24.08,1.86s0,1.17-.06,1.76c0,.29-.05.58-.08.87s0,.29-.05.44c.08-.59,0,.14,0,.21a23,23,0,0,1-.89,3.55c-.09.28-.2.56-.3.84l-.17.42c-.15.36.15-.33,0,0q-.4.88-.87,1.74c-.3.54-.63,1.07-1,1.59l-.54.77a4.32,4.32,0,0,1-.5.63,28.4,28.4,0,0,1-14.95,9c-.69.18-1.39.33-2.09.46a15,15,0,0,1-1.75.25,26.58,26.58,0,0,1-4,.07c-.31,0-.62,0-.93-.07l-.46,0c-.4,0,.38.06,0,0-.63-.09-1.26-.21-1.88-.35a22.79,22.79,0,0,1-3.54-1.13c.49.2-.27-.12-.39-.18l-.77-.37c-.53-.28-1.05-.57-1.57-.89s-.94-.6-1.4-.93l-.34-.25c-.3-.22.3.24,0,0s-.49-.39-.73-.6a24.77,24.77,0,0,1-2.53-2.49c-.18-.2-.36-.42-.54-.63s-.58-.73-.26-.31c-.36-.47-.7-1-1-1.45a28.35,28.35,0,0,1-1.71-3l-.36-.76c-.06-.13-.37-.86-.17-.36-.24-.58-.46-1.16-.66-1.76a28.46,28.46,0,0,1-.89-3.32c-.12-.54-.21-1.09-.29-1.64-.06-.37.05.43,0,.05,0-.14,0-.27-.05-.41,0-.31-.06-.62-.08-.93a25.7,25.7,0,0,1,0-3.51c0-.55.09-1.1.16-1.65-.07.57,0-.18.06-.35s.11-.61.18-.91a22.93,22.93,0,0,1,.94-3.26l.3-.77c-.21.51.1-.21.17-.35.26-.56.55-1.12.86-1.66s.58-1,.9-1.42l.49-.69c.05-.08.29-.37,0,0l.34-.42a22,22,0,0,1,2.53-2.58,17.79,17.79,0,0,1,2.87-2c.56-.34,1.13-.65,1.71-.94s1.24-.58,1.61-.73a36.15,36.15,0,0,1,4.29-1.35c3.13-.76,1.8-5.58-1.33-4.82Z"/><path class="cls-14" d="M271.16,84.83l18.46,3.42,2.67.49A2.56,2.56,0,0,0,295.36,87a2.52,2.52,0,0,0-1.74-3.08L275.16,80.5,272.49,80a2.56,2.56,0,0,0-3.07,1.75,2.52,2.52,0,0,0,1.74,3.07Z"/><path class="cls-15" d="M230.56,90.3a49.79,49.79,0,0,1,5.63-6.65,83.88,83.88,0,0,1,6.33-5.76,82.12,82.12,0,0,1,6.88-5.1A49.13,49.13,0,0,1,257,68.57a48.82,48.82,0,0,1-5.61,6.65A84.36,84.36,0,0,1,245.05,81q-3.31,2.72-6.89,5.11A48.62,48.62,0,0,1,230.56,90.3Z"/><path class="cls-15" d="M228.4,78.49A24.44,24.44,0,0,1,232,73.61a39.47,39.47,0,0,1,4.29-4,38.55,38.55,0,0,1,4.82-3.33,24.1,24.1,0,0,1,5.54-2.43,24.06,24.06,0,0,1-3.57,4.88,38.57,38.57,0,0,1-4.29,4,39.22,39.22,0,0,1-4.82,3.32A24.32,24.32,0,0,1,228.4,78.49Z"/><path class="cls-15" d="M243.79,94.19A21.36,21.36,0,0,1,247,89.55a34.49,34.49,0,0,1,3.9-3.75,33,33,0,0,1,4.45-3.09,20.86,20.86,0,0,1,5.17-2.2,20.84,20.84,0,0,1-3.18,4.63,32.08,32.08,0,0,1-3.9,3.75A34.28,34.28,0,0,1,249,92,21.27,21.27,0,0,1,243.79,94.19Z"/><path class="cls-15" d="M307.56,103.3a49.79,49.79,0,0,1,5.63-6.65,83.88,83.88,0,0,1,6.33-5.76,82.12,82.12,0,0,1,6.88-5.1A49.13,49.13,0,0,1,334,81.57a48.82,48.82,0,0,1-5.61,6.65A84.36,84.36,0,0,1,322.05,94c-2.21,1.81-4.5,3.52-6.89,5.11A48.62,48.62,0,0,1,307.56,103.3Z"/><path class="cls-15" d="M305.4,91.49A24.44,24.44,0,0,1,309,86.61a39.47,39.47,0,0,1,4.29-4,38.55,38.55,0,0,1,4.82-3.33,24.1,24.1,0,0,1,5.54-2.43,24.06,24.06,0,0,1-3.57,4.88,38.57,38.57,0,0,1-4.29,4,39.22,39.22,0,0,1-4.82,3.32A24.32,24.32,0,0,1,305.4,91.49Z"/><path class="cls-15" d="M320.79,107.19a21.36,21.36,0,0,1,3.18-4.64,34.49,34.49,0,0,1,3.9-3.75,33,33,0,0,1,4.45-3.09,20.86,20.86,0,0,1,5.17-2.2,20.84,20.84,0,0,1-3.18,4.63,32.08,32.08,0,0,1-3.9,3.75A34.28,34.28,0,0,1,326,105,21.27,21.27,0,0,1,320.79,107.19Z"/><path class="cls-13" d="M324.61,388.47c-3.9,49.71,65.15,37.94,45.35-7.73-15.67,1.39-31.6,5.39-45.35,7.73"/><path class="cls-10" d="M322.11,388.47c-.61,8.1.53,16.85,5.28,23.66a25.61,25.61,0,0,0,15.8,10.52,28.7,28.7,0,0,0,18.43-2.43,25.94,25.94,0,0,0,12.67-14c2.84-7.37,1.93-15.74-.67-23-.45-1.27-1-2.51-1.5-3.75a2.4,2.4,0,0,0-2.16-1.24c-15.53,1.4-30.67,5.19-46,7.82a2.52,2.52,0,0,0-1.75,3.07,2.56,2.56,0,0,0,3.08,1.75c14.9-2.55,29.6-6.28,44.68-7.64L367.8,382a46,46,0,0,1,2.1,6.11c.24.88.44,1.77.62,2.67.09.47.16.94.24,1.41a1.26,1.26,0,0,1,0,.27c0,.3.07.61.1.91a30.1,30.1,0,0,1,.05,5.2c0,.41-.08.81-.13,1.22.08-.65-.08.53-.12.72-.14.77-.31,1.52-.52,2.27s-.44,1.44-.71,2.15l-.21.51c.25-.61,0,0,0,.08-.18.38-.36.77-.55,1.14-.3.58-.63,1.15-1,1.71l-.59.88c-.1.14-.21.28-.31.43-.41.57.13-.15-.14.18a23.94,23.94,0,0,1-2.88,3c-.26.23-.52.45-.79.66-.46.38.45-.32,0,0l-.42.31c-.55.39-1.13.77-1.71,1.12s-1.19.67-1.8,1l-.93.43c-.54.24.52-.21,0,0l-.47.19a25.53,25.53,0,0,1-4.09,1.2c-.3.07-.61.13-.92.18s-1.21.16-.43.07c-.73.08-1.46.16-2.2.19a32.67,32.67,0,0,1-4.08-.16c-.6-.05.58.1,0,0l-.5-.08-1-.19q-1-.21-2-.51c-.65-.2-1.29-.43-1.93-.68-.13,0-.67-.29,0,0l-.47-.21c-.36-.17-.72-.34-1.08-.53q-.84-.45-1.65-1c-.29-.19-.58-.38-.87-.59l-.42-.31c-.35-.25.35.31-.19-.14a23.92,23.92,0,0,1-3.09-3l-.36-.43c-.26-.32.23.33-.18-.24-.26-.36-.52-.72-.76-1.09a24.31,24.31,0,0,1-1.29-2.2c-.21-.42-.41-.85-.62-1.28l-.07-.16c-.11-.25-.21-.51-.31-.77-.34-.88-.63-1.78-.88-2.68a30.28,30.28,0,0,1-1.06-5.88,48.46,48.46,0,0,1,0-7.62,2.51,2.51,0,0,0-2.5-2.5,2.56,2.56,0,0,0-2.5,2.5Z"/><path class="cls-13" d="M249,401.35c-3.91,49.71,65.14,37.94,45.34-7.73C278.71,395,262.78,399,249,401.35"/><path class="cls-10" d="M246.54,401.35c-.62,8.11.52,16.85,5.27,23.67a25.64,25.64,0,0,0,15.8,10.51A28.69,28.69,0,0,0,286,433.11a26,26,0,0,0,12.67-14c2.84-7.37,1.93-15.73-.67-23-.45-1.27-1-2.52-1.5-3.76a2.4,2.4,0,0,0-2.16-1.24c-15.53,1.41-30.67,5.19-46,7.82a2.5,2.5,0,1,0,1.33,4.82c14.9-2.55,29.6-6.28,44.68-7.64l-2.16-1.24a48,48,0,0,1,2.11,6.11c.23.88.43,1.78.61,2.67.09.47.17.95.24,1.42.12.77-.06-.5,0,.26,0,.31.07.61.1.92a30,30,0,0,1,.05,5.19c0,.41-.07.82-.12,1.22.07-.64-.09.54-.13.72-.14.77-.31,1.53-.52,2.28s-.44,1.44-.71,2.14l-.21.51c.25-.61,0,0,0,.08-.18.38-.35.77-.55,1.14-.3.59-.63,1.16-1,1.71-.19.3-.39.59-.59.88l-.31.43c-.41.57.13-.14-.14.19a24.65,24.65,0,0,1-2.88,3c-.25.22-.52.44-.79.66-.46.37.45-.33,0,0l-.42.31c-.55.4-1.12.77-1.71,1.12s-1.19.68-1.8,1l-.93.43c-.54.25.53-.21,0,0l-.47.19a25.46,25.46,0,0,1-4.08,1.21l-.92.17c-.19,0-1.22.16-.43.07-.74.09-1.47.16-2.21.19a29.31,29.31,0,0,1-4.08-.16c-.59-.05.58.1,0,0l-.5-.08c-.34-.05-.67-.12-1-.19-.67-.14-1.33-.31-2-.51s-1.29-.43-1.93-.67c-.13-.05-.67-.3,0,0l-.47-.21c-.36-.16-.72-.34-1.08-.53-.56-.3-1.11-.62-1.64-1-.3-.19-.59-.38-.87-.58l-.43-.31c-.34-.25.35.3-.19-.15a23.92,23.92,0,0,1-3.09-3l-.36-.43c-.26-.32.23.33-.18-.24-.26-.36-.52-.72-.76-1.09-.47-.71-.89-1.45-1.29-2.2-.21-.42-.41-.85-.61-1.27,0-.08-.31-.72-.08-.16-.11-.26-.21-.52-.31-.78a28,28,0,0,1-.88-2.68,31.05,31.05,0,0,1-1.06-5.88,47.29,47.29,0,0,1,0-7.62,2.5,2.5,0,0,0-5,0Z"/><path class="cls-10" d="M324.77,398.12l-27.83,4.74a2.5,2.5,0,1,0,1.33,4.82l27.83-4.74a2.5,2.5,0,0,0-1.33-4.82Z"/><path class="cls-15" d="M281.59,405.55a26.9,26.9,0,0,1-3.11,5.52A43.59,43.59,0,0,1,270,420a25.83,25.83,0,0,1-5.38,3.35,26.44,26.44,0,0,1,3.11-5.52,41.69,41.69,0,0,1,3.94-4.73,42.58,42.58,0,0,1,4.55-4.14A26.56,26.56,0,0,1,281.59,405.55Z"/><path class="cls-15" d="M267.75,407.18a7.79,7.79,0,0,1-.83,3.09,9.3,9.3,0,0,1-1.65,2.29,9.09,9.09,0,0,1-2.25,1.69,7.49,7.49,0,0,1-3.07.88,7.38,7.38,0,0,1,.82-3.08,9.11,9.11,0,0,1,1.65-2.29,9.34,9.34,0,0,1,2.26-1.69A7.65,7.65,0,0,1,267.75,407.18Z"/><path class="cls-15" d="M286.66,412.88a10.68,10.68,0,0,1-1.28,3.68,15.73,15.73,0,0,1-2.11,2.9,14.65,14.65,0,0,1-2.75,2.31A10.54,10.54,0,0,1,277,423.3a10.74,10.74,0,0,1,1.27-3.68,15.25,15.25,0,0,1,2.12-2.89,14.65,14.65,0,0,1,2.75-2.31A10.75,10.75,0,0,1,286.66,412.88Z"/><path class="cls-15" d="M358.59,391.55a26.9,26.9,0,0,1-3.11,5.52A43.59,43.59,0,0,1,347,406a25.83,25.83,0,0,1-5.38,3.35,26.44,26.44,0,0,1,3.11-5.52,41.69,41.69,0,0,1,3.94-4.73,42.58,42.58,0,0,1,4.55-4.14A26.56,26.56,0,0,1,358.59,391.55Z"/><path class="cls-15" d="M344.75,393.18a7.79,7.79,0,0,1-.83,3.09,9.3,9.3,0,0,1-1.65,2.29,9.09,9.09,0,0,1-2.25,1.69,7.49,7.49,0,0,1-3.07.88,7.38,7.38,0,0,1,.82-3.08,9.11,9.11,0,0,1,1.65-2.29,9.34,9.34,0,0,1,2.26-1.69A7.65,7.65,0,0,1,344.75,393.18Z"/><path class="cls-15" d="M363.66,398.88a10.68,10.68,0,0,1-1.28,3.68,15.73,15.73,0,0,1-2.11,2.9,14.65,14.65,0,0,1-2.75,2.31A10.54,10.54,0,0,1,354,409.3a10.74,10.74,0,0,1,1.27-3.68,15.25,15.25,0,0,1,2.12-2.89,14.65,14.65,0,0,1,2.75-2.31A10.75,10.75,0,0,1,363.66,398.88Z"/><path class="cls-13" d="M76.67,387.42c.11,4.95-.27,10.25-2.68,14.68a16.14,16.14,0,0,1-7.21,6.73c-5.72,2.84-12.42,3-18,6.13a12.64,12.64,0,0,0-5.86,6.71,20.28,20.28,0,0,0-.52,12.11c2.17,7.36,9.69,10.36,16,13.27,3.34,1.53,6.77,3.14,9.55,5.59a16.18,16.18,0,0,1,5.4,10.08,25.22,25.22,0,0,1,.2,3.68,1.25,1.25,0,0,0,2.5,0,20.34,20.34,0,0,0-3.59-12.53,25.21,25.21,0,0,0-8.77-7c-3.32-1.74-6.82-3.1-10.14-4.83-3-1.53-5.91-3.41-7.65-6.32-2-3.35-1.94-7.48-1.21-11.2a10.25,10.25,0,0,1,4.58-6.94,29.36,29.36,0,0,1,8.3-3.1,60.16,60.16,0,0,0,9.57-3,19.24,19.24,0,0,0,8-6.39c2.66-3.78,3.66-8.49,4-13,.1-1.53.11-3.05.08-4.58a1.25,1.25,0,0,0-2.5,0Z"/><path class="cls-12" d="M66,269.49C3.84,277.86,29.66,373.86,76.39,369.67,132.22,364.93,127,258.84,66,269.49"/><path class="cls-12" d="M74.55,361.08c-1.14,9.65-3.32,20.21-7.85,27.9,7.1,2.18,16.63,1.59,22.59-.52-4.05-9.32-5.56-19.67-7.07-30"/><path class="cls-7" d="M70.46,282.85a25.58,25.58,0,0,1,18.88,4.5,34.21,34.21,0,0,1,11.08,14.53,41.29,41.29,0,0,1,2.7,9.83,2.58,2.58,0,0,0,2.5,2.5,2.51,2.51,0,0,0,2.5-2.5c-1.83-14.23-10.7-28.73-25.08-33A32,32,0,0,0,69.13,278a2.53,2.53,0,0,0-1.75,3.08,2.58,2.58,0,0,0,3.08,1.75Z"/><path class="cls-7" d="M105.72,327.8a5,5,0,1,0-5-5,5.05,5.05,0,0,0,5,5Z"/><path class="cls-13" d="M73.82,371.07a12.75,12.75,0,0,1,6.34-1.42,25.89,25.89,0,0,1,2.64.1l.81.09c.24,0-.39-.06-.08,0h.09a1.28,1.28,0,0,0,1.53-.87,1.25,1.25,0,0,0-.87-1.54,24.16,24.16,0,0,0-4.25-.28,15.35,15.35,0,0,0-7.47,1.76,1.25,1.25,0,0,0,1.26,2.16Z"/><path class="cls-13" d="M71.74,374.81a30,30,0,0,0,6.68.68,39.92,39.92,0,0,0,6.62-.9,1.25,1.25,0,0,0-.66-2.41,35.3,35.3,0,0,1-6,.81,26.94,26.94,0,0,1-6-.59,1.29,1.29,0,0,0-1.54.87,1.26,1.26,0,0,0,.87,1.54Z"/><path class="cls-13" d="M439.92,162.53c1.85,4.3,3.17,8.87,2.78,13.59a37.1,37.1,0,0,1-3.88,12.58c-3.37,7-10,14.19-6.26,22.41a15.21,15.21,0,0,0,8.63,8c3.3,1.23,6.89,1.51,10.37,1.87s7.28.78,10.52,2.42a16.62,16.62,0,0,1,7.4,7.93c1.83,4.05,2.14,8.73,2,13.12a60.09,60.09,0,0,1-1.85,12.64,1.26,1.26,0,0,0,2.42.66c1.88-7.5,2.87-15.8,1.06-23.41a21.11,21.11,0,0,0-5.4-9.87,18.64,18.64,0,0,0-9.76-5.08c-3.62-.78-7.34-.89-11-1.45-3.43-.53-7.06-1.49-9.55-4.07a11.24,11.24,0,0,1-2.73-11.95c1.41-4,4.08-7.49,6-11.27a40.93,40.93,0,0,0,4.51-14.17c.52-5.29-1-10.38-3.08-15.19-.64-1.47-2.79-.2-2.16,1.26Z"/><path class="cls-16" d="M416.28,53.62c-60.11,8.29-33.09,110.85,20,98.9,43.55-9.81,48.71-109.21-20-98.9"/><path class="cls-16" d="M433,148.44a166.83,166.83,0,0,1-.22,20.86c7.81.41,12.47-1.31,19.4-5.08-3.15-6.25-10.74-11-13.93-16.38"/><path class="cls-7" d="M426.62,65.42A32.51,32.51,0,0,1,437.06,67a24.48,24.48,0,0,1,7.72,4.32c5,4.26,7.86,10.11,9.52,16.45a62.24,62.24,0,0,1,1.87,13.09c.15,3.2,5.15,3.22,5,0-.38-8.23-1.82-16.63-5.71-24a30.25,30.25,0,0,0-15.73-14.21,36.37,36.37,0,0,0-13.11-2.26c-3.22,0-3.23,5,0,5Z"/><path class="cls-7" d="M457.67,116.54a5,5,0,1,0-5-5,5.05,5.05,0,0,0,5,5Z"/><path class="cls-13" d="M433.67,154.78l.67-.57,0,0,.19-.14.39-.27a8,8,0,0,1,.85-.52l.51-.27.19-.09s.36-.15.11,0a12.71,12.71,0,0,1,2.35-.7,16,16,0,0,1,3-.25,1.25,1.25,0,0,0,0-2.5,16.21,16.21,0,0,0-6.13,1.08,14.42,14.42,0,0,0-4,2.54,1.25,1.25,0,1,0,1.77,1.77Z"/><path class="cls-13" d="M433.41,158.22A17.05,17.05,0,0,0,444,155a1.29,1.29,0,0,0,.45-1.71,1.26,1.26,0,0,0-1.71-.45,14.78,14.78,0,0,1-9.35,2.9,1.25,1.25,0,0,0,0,2.5Z"/><g class="cls-17"><path class="cls-13" d="M147,316.15a10,10,0,0,1-1,6.23,20.93,20.93,0,0,1-4,4.94,16.51,16.51,0,0,0-1.84,2.13,4.3,4.3,0,0,0-.79,2.18,6.5,6.5,0,0,0,.4,2.42,15.37,15.37,0,0,0,1.17,2.46A5.82,5.82,0,0,0,142.7,338c.79.47,1.69.88,2.59,1.31a31,31,0,0,1,5.63,3,7.84,7.84,0,0,1,1.3,1.28,3.9,3.9,0,0,1,.83,1.83,4.58,4.58,0,0,1-1.09,3.51,16.47,16.47,0,0,1-5,3.88,23.91,23.91,0,0,0,3.75-4.69,2.92,2.92,0,0,0,.4-2.28,3.46,3.46,0,0,0-1.56-1.61,41.13,41.13,0,0,0-5.4-2.33,27.28,27.28,0,0,1-2.94-1.35,8.15,8.15,0,0,1-2.87-2.46A18.81,18.81,0,0,1,137,335a8.79,8.79,0,0,1-.44-3.62A7.15,7.15,0,0,1,138,327.9a14,14,0,0,1,2.39-2.31,25,25,0,0,0,4.35-4A11.43,11.43,0,0,0,147,316.15Z"/></g><g class="cls-17"><path class="cls-13" d="M201.54,325.11c-1.66,1.15-3.3,2.25-4.79,3.49a19.51,19.51,0,0,0-2.12,1.93,10.06,10.06,0,0,0-.93,1,7.69,7.69,0,0,0-.81,1.09,8.06,8.06,0,0,0-1.47,4.75,11.05,11.05,0,0,0,1.63,4.86l0,.06,0,0a3.93,3.93,0,0,0,1.28,1.31,17.23,17.23,0,0,0,2.11,1.15,25.47,25.47,0,0,1,4.82,2.65,6,6,0,0,1,2,2.42,5,5,0,0,1,.2,3.08,8.21,8.21,0,0,1-1.12,2.58,14.74,14.74,0,0,1-1.63,2.14,14.71,14.71,0,0,0,1.37-4.9,3.61,3.61,0,0,0-.51-2.06,4.46,4.46,0,0,0-1.56-1.41,36.37,36.37,0,0,0-4.65-1.95,15.93,15.93,0,0,1-2.57-1.25,6.41,6.41,0,0,1-2.37-2.42l.06.1a12.51,12.51,0,0,1-2-6.36,9.78,9.78,0,0,1,2.43-6.25,12.34,12.34,0,0,1,1.11-1.17,12.93,12.93,0,0,1,1.21-1,21.44,21.44,0,0,1,2.62-1.67A26.63,26.63,0,0,1,201.54,325.11Z"/></g><g class="cls-17"><path class="cls-13" d="M174.85,314.78c-1.25,1.07-2.53,2.06-3.73,3.11a24,24,0,0,0-3.24,3.31,8.74,8.74,0,0,0-1.77,3.77,8.23,8.23,0,0,0,.39,4l0,.11a.21.21,0,0,0-.07-.17s0,0,0,0,.13.1.28.18a7.25,7.25,0,0,0,1,.44c.77.28,1.62.54,2.48.79a23.37,23.37,0,0,1,5.32,2.06,5.68,5.68,0,0,1,1.34,1.09,2.78,2.78,0,0,1,.7,2,3.33,3.33,0,0,1-.74,1.72,7.35,7.35,0,0,1-1.1,1.07,18,18,0,0,1-5,2.57,34.26,34.26,0,0,0,3.89-3.67c.55-.6,1-1.4.86-1.75a.66.66,0,0,0-.29-.43,4.07,4.07,0,0,0-.85-.49,35.9,35.9,0,0,0-4.93-1.39c-.88-.22-1.78-.44-2.72-.77a9.7,9.7,0,0,1-1.48-.65,4.43,4.43,0,0,1-.83-.59,4.32,4.32,0,0,1-.44-.52,3.25,3.25,0,0,1-.35-.78l0,.11a10,10,0,0,1-.27-5.55,9.79,9.79,0,0,1,2.8-4.66,18,18,0,0,1,4.13-3A32.15,32.15,0,0,1,174.85,314.78Z"/></g><path class="cls-14" d="M175.62,343.66c-7.81,20.85-50.81,9.12-31.26,36.48-15-10.42-33.88,6.52-20.85,20.85-18.24-4.56-28,15.64-13,27.37,8.69,6.8,30,7.82,44.3,7.82a484.61,484.61,0,0,0,53.41,1.3c21.5-1,23.78-29.65-5.21-28.67,21.3-4.4,11.72-26.15-2.61-24.76,14.33-18.24-18.23-19.87-24.75-40.39"/><path class="cls-11" d="M151.31,395a8.7,8.7,0,0,1,1.41-4.25,1.09,1.09,0,0,1,.13-.17c-.15.19,0,0,0-.05s.21-.23.32-.35a3.26,3.26,0,0,1,.33-.31l.19-.17c.2-.17-.18.12.05,0a7,7,0,0,1,.74-.45l.16-.08c.28-.14-.17.06,0,0l.48-.16.35-.09c.09,0,.57-.07.2,0a6,6,0,0,1,.85,0c.13,0,.46.06.16,0l.44.09.34.1.22.07c.27.09-.05,0,0,0a7.58,7.58,0,0,1,.74.4c.06.05.41.3.17.11l.37.32.35.36c.06.06.31.36.24.27a2.62,2.62,0,0,0,.21.31c.1.15.19.31.28.47a7.13,7.13,0,0,1,.77,2.23,12.34,12.34,0,0,1,.14,3.08,1.26,1.26,0,0,0,1.25,1.25,1.28,1.28,0,0,0,1.25-1.25c.23-3.56-.79-7.78-4.22-9.56a6.66,6.66,0,0,0-8.22,1.74,10.9,10.9,0,0,0-2.27,6.19,1.25,1.25,0,0,0,1.25,1.25,1.28,1.28,0,0,0,1.25-1.25Z"/><path class="cls-11" d="M176.42,397.81a12.65,12.65,0,0,1,0-1.63,7.13,7.13,0,0,1,.15-1.23,8.88,8.88,0,0,1,.32-1.15l.11-.27c.08-.2-.13.26,0,0s.19-.39.3-.57l.27-.44s.24-.3.05-.06l.12-.16a7.37,7.37,0,0,1,.75-.73c.24-.21-.22.14,0,0l.15-.1c.14-.09.28-.18.43-.26l.44-.22c-.29.13.15,0,.25-.08a7.06,7.06,0,0,1,.91-.21c-.37.06.1,0,.19,0a4.87,4.87,0,0,1,.54,0l.44,0c.3,0-.21,0,0,0l.22,0a6.41,6.41,0,0,1,.95.27c.32.11-.09-.06.21.09.13.07.27.13.4.21s.3.18.44.27l.19.14c.2.14-.15-.15.08.07a8,8,0,0,1,.72.71l.13.15c.21.26-.14-.21.05.07l.34.51c.11.18.2.37.3.56l.09.2c-.12-.26.06.16.08.21a10.18,10.18,0,0,1,.36,1.34,8,8,0,0,1,.11,1.25,14.86,14.86,0,0,1-.08,1.58,1.3,1.3,0,0,0,.87,1.54,1.26,1.26,0,0,0,1.54-.87,11.26,11.26,0,0,0-.82-6.51,7.7,7.7,0,0,0-3.54-3.59,7.15,7.15,0,0,0-9,2.18,10.3,10.3,0,0,0-1.61,6.76,1.25,1.25,0,0,0,2.5,0Z"/><path class="cls-11" d="M183.15,410.82c-1-8.36-10.71-3.64-16.38-4.19-5.46-.16-11.59-8.66-16-.41-3.5,9.45,6.29,11,13.59,12C172.85,419.46,184.32,422.42,183.15,410.82Z"/><path class="cls-12" d="M176.36,412.76c-2.45-2.29-7.11-2.19-9.15.63a.5.5,0,0,1-.93-.26c-.36-3.48-5.07-4.3-7.91-3.26-2.58.95-3.86,3.21-4.63,5.66,2.92,1.61,7.07,2.25,10.63,2.74,4.51.63,9.85,1.76,13.7,1C178.21,416.86,178,414.27,176.36,412.76Z"/><path class="cls-10" d="M140.28,410.63a5,5,0,1,0-5-5,5.06,5.06,0,0,0,5,5Z"/><path class="cls-10" d="M194.78,416.3a5,5,0,1,0-5-5,5.06,5.06,0,0,0,5,5Z"/><path class="cls-7" d="M172.79,358.76c1.41,4.1,4.56,6.86,8.06,9.22,1.58,1.06,3.21,2,4.77,3.13l1.15.83c-.34-.25,0,.05.17.15l.57.48c.34.3.68.61,1,.94l.42.46c.08.09.49.58.34.39s.22.31.29.41.3.46.43.7.22.44.33.65,0-.08,0-.12l.15.4a10.78,10.78,0,0,1,.4,1.48c0,.15.06.3.08.45,0-.26,0-.18,0,0s0,.65,0,1c0,3.21,5,3.22,5,0a14,14,0,0,0-5.56-10.87,57,57,0,0,0-5.14-3.59c-.81-.53-1.63-1.06-2.43-1.61l-1.07-.77a1.86,1.86,0,0,1-.28-.21l-.58-.49a15.21,15.21,0,0,1-1.17-1.1l-.5-.54c-.11-.12-.57-.73-.28-.32a12.47,12.47,0,0,1-.8-1.24c-.14-.25-.26-.5-.38-.76.21.45-.11-.29-.15-.42a2.57,2.57,0,0,0-3.08-1.75,2.53,2.53,0,0,0-1.74,3.08Z"/><path class="cls-11" d="M471.35,332.58c-23.78,26.53-48.27-7.21-64.83,16.45-15.62,22.32,11.63,43.61,37.78,46.91,32.26,4.08,75.56-15.64,74.26-50.82,0-22.15-31.58-34.69-47.21-12.54"/><path class="cls-7" d="M438.33,355.93a11,11,0,0,0,14.38,7c8-2.75,6.27-12.85,4.15-20.7-6.28,1.83-12.48,1.11-18.45,0C437.27,346.75,436.91,351.64,438.33,355.93Z"/><path class="cls-7" d="M459.17,341.46c2.6,9.06,6.77,21.28,17.8,14,10.29-6.76,2.76-17.19-4.74-24.08-.29.39-.59.75-.88,1.16A32.31,32.31,0,0,1,459.17,341.46Z"/><path class="cls-10" d="M464.05,374.74c-6.95-5.76-19.17-4.76-27.22-2A27.08,27.08,0,0,0,420.63,388a64.53,64.53,0,0,0,23.67,7.95c23.86,3,53.73-7,67.16-26.64-4.25-3.62-9.31-7.14-15.28-8A41.71,41.71,0,0,0,478,363.12c-3.56,1.18-11.94,6.69-13.94,11.62"/><g class="cls-17"><path class="cls-14" d="M447.88,378.55c3.21,0,3.22-5,0-5s-3.23,5,0,5Z"/><path class="cls-14" d="M477.37,375.91a3.75,3.75,0,1,0-3.75-3.75,3.82,3.82,0,0,0,3.75,3.75Z"/><path class="cls-14" d="M497.28,373.43c4,0,4-6.25,0-6.25s-4,6.25,0,6.25Z"/><path class="cls-14" d="M469.78,388.1c4,0,4-6.25,0-6.25s-4,6.25,0,6.25Z"/><path class="cls-14" d="M436.45,386.1c4,0,4-6.25,0-6.25s-4,6.25,0,6.25Z"/><path class="cls-14" d="M485.78,382c3.22,0,3.23-5,0-5s-3.22,5,0,5Z"/><path class="cls-14" d="M452.28,388.85a1.88,1.88,0,0,0,0-3.75,1.88,1.88,0,0,0,0,3.75Z"/><path class="cls-14" d="M488,367.68a1.88,1.88,0,0,0,0-3.75,1.88,1.88,0,0,0,0,3.75Z"/><path class="cls-14" d="M461.45,379.68a1.88,1.88,0,0,0,0-3.75,1.88,1.88,0,0,0,0,3.75Z"/></g><path class="cls-12" d="M467.81,329.05a42.51,42.51,0,0,1-3.7,3.65c-.28.24-.56.48-.85.71-.74.62.63-.45-.13.11s-1.31.93-2,1.36a37.91,37.91,0,0,1-3.56,1.89c-.48.23.49-.2.48-.2s-.31.12-.42.16c-.33.13-.66.25-1,.36-.6.21-1.22.4-1.84.56s-1.13.27-1.69.38c-.33.07-.66.12-1,.17-.82.15,1.18-.12.06,0s-2.33.19-3.5.19-2.41-.05-3.62-.16l-1.79-.18-.29,0-.43-.06c-9.13-1.39-19.12-4.95-28.19-1.44a28.68,28.68,0,0,0-17,30.42c2,12.28,13.08,21.61,23.59,26.93a71.27,71.27,0,0,0,36.18,7.49,88.82,88.82,0,0,0,33-8.36,64.33,64.33,0,0,0,25.22-20.5c6.12-8.62,9.36-19.88,8-30.45-1.44-11.21-9.08-19.9-19.45-24a30.74,30.74,0,0,0-30.78,5.22,35.21,35.21,0,0,0-6.09,6.8c-1.52,2.13-.44,5.66,1.8,6.84a5.14,5.14,0,0,0,6.84-1.8,5,5,0,0,1,.61-.84c-.92.81-.17.23.06-.05.42-.52.86-1,1.31-1.49s.9-.92,1.37-1.36a10.35,10.35,0,0,0,1.65-1.42l-.52.41.48-.36.74-.51c.5-.33,1-.64,1.51-.93s1-.56,1.54-.81a6.91,6.91,0,0,0,.78-.36c-1.18.74-.44.19,0,0a25.29,25.29,0,0,1,3.07-.94c.53-.12,1.07-.23,1.62-.32.4-.07,1.3-.05-.25,0,.36,0,.73-.08,1.09-.11A25.16,25.16,0,0,1,494,326c.54,0,1.07.08,1.61.13,1,.09-1.28-.21-.26,0l1.05.18a25.42,25.42,0,0,1,2.86.71c.51.16,1,.33,1.52.52.25.09.49.21.74.29-1.51-.48-.35-.15,0,0a30.37,30.37,0,0,1,2.81,1.51c.45.28.89.57,1.33.88l.64.46c.7.51-1-.81,0,0a26.56,26.56,0,0,1,2.13,2c.36.38.72.77,1.06,1.17.17.2.32.42.5.61-1.07-1.12-.24-.3,0,0a23.93,23.93,0,0,1,1.65,2.69c.24.47.43,1,.68,1.44-.7-1.29-.24-.59-.1-.22s.25.67.36,1a22.12,22.12,0,0,1,.74,2.88c0,.27.07.55.14.82-.36-1.46-.09-.66,0-.23.06.65.09,1.31.11,2,0,1.23,0,2.46,0,3.7,0,.61-.07,1.21-.12,1.82l-.09.9c-.17,1.43.13-.75,0,.15a43,43,0,0,1-1.69,6.8q-.28.82-.6,1.62c-.14.34-.62,1.17.06-.13-.13.25-.23.53-.35.79-.51,1.13-1.08,2.24-1.7,3.32-.52.91-1.08,1.81-1.66,2.69-.32.47-.66.95-1,1.41-.16.23-.37.46-.51.7.76-1.28.14-.18-.11.13a51.64,51.64,0,0,1-5,5.34c-.8.74-1.62,1.46-2.46,2.15-.31.26-1.95,1.41-.63.53-.58.38-1.13.84-1.7,1.25a65.62,65.62,0,0,1-6.46,4.08c-2.17,1.21-4.41,2.28-6.69,3.29-1,.46,1.09-.44,0,0l-.87.35-1.75.68c-1.28.48-2.57.92-3.87,1.33-2.4.77-4.83,1.42-7.29,2-1.23.27-2.46.51-3.69.73l-1.85.3-.93.14c-.91.13,1.23-.16-.21,0a75.43,75.43,0,0,1-14.87.38l-1.76-.16c-.34,0-2.28-.2-.86-.09a34.94,34.94,0,0,1-4.44-.78,66.65,66.65,0,0,1-9.09-2.66,21.49,21.49,0,0,1-2.11-.83c1.15.58,0,0-.19-.09l-1-.46q-2-.94-4-2t-3.75-2.26c-.6-.4-1.19-.8-1.77-1.22l-.86-.63.18.14-.55-.44a40.62,40.62,0,0,1-5.77-5.66l-.2-.25c-.34-.42-.27-.34.18.25a4.81,4.81,0,0,1-.57-.77c-.37-.52-.72-1-1.05-1.58s-.64-1.06-.93-1.61l-.42-.82c-.19-.4-.47-1.58-.12-.19-.29-1.15-.83-2.24-1.11-3.41-.11-.48-.19-1-.29-1.45-.2-1.07.11,1.23,0,.15,0-.4-.07-.79-.09-1.19q0-.9,0-1.8c0-.3,0-.61.07-.91l0-.3c.06-.55,0-.41-.06.41a10.71,10.71,0,0,0,.37-1.84,21.6,21.6,0,0,1,.66-2.17,3.74,3.74,0,0,1,.36-.93l-.24.57c.09-.21.19-.42.29-.63.3-.64.63-1.26,1-1.88s.7-1.17,1.08-1.73c.17-.26.35-.51.53-.76l.39-.54c-.44.57-.5.65-.17.24a27,27,0,0,1,2.48-2.65l.63-.56c.36-.29,1-.52-.15.11.53-.29,1-.71,1.53-1s.88-.48,1.33-.71c.71-.37.45.15-.29.11a2.75,2.75,0,0,0,.68-.27,17.92,17.92,0,0,1,2.79-.74,4.21,4.21,0,0,0,.71-.12c-1.07.44-1,.11-.38.06.48,0,1-.08,1.45-.1a28.51,28.51,0,0,1,3.2.05c.5,0,1,.08,1.5.14l.76.08c1,.12-1.3-.19-.31,0s2.06.32,3.09.51c2.22.4,4.42.86,6.63,1.26a54.91,54.91,0,0,0,14.57,1.19,32.7,32.7,0,0,0,15.85-5.51,43.36,43.36,0,0,0,7.55-6.64c1.76-1.94,2.06-5.19,0-7.07-1.91-1.76-5.19-2.08-7.07,0Z"/><text class="cls-18" transform="translate(139.43 295.37)"><tspan class="cls-19">J</tspan><tspan class="cls-20" x="52.39" y="0">O</tspan><tspan x="125.4" y="0">KES</tspan></text><text class="cls-21" transform="translate(134.22 292.76)"><tspan class="cls-19">J</tspan><tspan class="cls-20" x="52.39" y="0">O</tspan><tspan x="125.4" y="0">KES</tspan></text><text class="cls-22" transform="translate(143.32 192.23)">RAN<tspan class="cls-23" x="117.66" y="0">D</tspan><tspan x="155.85" y="0">OM</tspan></text></g></g></svg>