<svg xmlns="http://www.w3.org/2000/svg" viewBox="0 0 441.17 392"><defs><style>.cls-1{fill:#9ddcff;}.cls-2{fill:#e3f4fc;}.cls-3{fill:#fefefe;}.cls-4{fill:#414649;}.cls-5{fill:#19afdd;}.cls-6{fill:#f5edea;}.cls-7{fill:#41c2e0;}.cls-8{fill:#ffde13;}.cls-9{fill:#cecece;}.cls-10{fill:#9b8105;}.cls-11{fill:#ffb115;}</style></defs><g id="Layer_2" data-name="Layer 2"><g id="Ñëîé_1" data-name="Ñëîé 1"><path class="cls-1" d="M13.52,186.14a2,2,0,0,1-2-2v-23a2,2,0,0,1,4.06,0v23A2,2,0,0,1,13.52,186.14Z"/><path class="cls-1" d="M25,174.65H2a2,2,0,0,1,0-4.07H25a2,2,0,0,1,0,4.07Z"/><path class="cls-1" d="M224.87,361.4C139,361.4,69.11,291.52,69.11,205.63S139,49.87,224.87,49.87s155.77,69.88,155.77,155.76S310.76,361.4,224.87,361.4Zm0-281.87A126.11,126.11,0,1,0,351,205.63,126.25,126.25,0,0,0,224.87,79.53Z"/><path class="cls-1" d="M224.87,392C122.11,392,38.5,308.4,38.5,205.63S122.11,19.27,224.87,19.27v3.29C123.93,22.56,41.8,104.69,41.8,205.63s82.13,183.08,183.07,183.08a183.23,183.23,0,0,0,88-22.5l1.59,2.89A186.6,186.6,0,0,1,224.87,392Z"/><path class="cls-1" d="M389.72,292.65l-2.91-1.54A183.22,183.22,0,0,0,282.87,31.94l1.05-3.13a186.51,186.51,0,0,1,105.8,263.84Z"/><path class="cls-1" d="M74,53.09A16.91,16.91,0,1,1,90.86,36.18,16.94,16.94,0,0,1,74,53.09Zm0-30.53A13.62,13.62,0,1,0,87.56,36.18,13.64,13.64,0,0,0,74,22.56Z"/><circle class="cls-1" cx="73.95" cy="36.18" r="9.99" transform="translate(-8.25 31.62) rotate(-22.9)"/><path class="cls-2" d="M409.59,339.68a10.82,10.82,0,1,1,10.82-10.82A10.83,10.83,0,0,1,409.59,339.68Zm0-20a9.17,9.17,0,1,0,9.17,9.16A9.17,9.17,0,0,0,409.59,319.7Z"/><path class="cls-2" d="M416.13,328.86a6.54,6.54,0,1,1-6.54-6.53A6.54,6.54,0,0,1,416.13,328.86Z"/><path class="cls-2" d="M313.11,77.63A4.62,4.62,0,1,1,308.49,73,4.62,4.62,0,0,1,313.11,77.63Z"/><path class="cls-1" d="M123.93,11a.82.82,0,0,1-.82-.82V.82a.82.82,0,0,1,1.64,0v9.31A.82.82,0,0,1,123.93,11Z"/><path class="cls-1" d="M123.93,27.82a.82.82,0,0,1-.82-.82V17.69a.82.82,0,1,1,1.64,0V27A.82.82,0,0,1,123.93,27.82Z"/><path class="cls-1" d="M137.31,14.44H128a.83.83,0,0,1,0-1.65h9.31a.83.83,0,0,1,0,1.65Z"/><path class="cls-1" d="M119.86,14.44h-9.31a.83.83,0,0,1,0-1.65h9.31a.83.83,0,0,1,0,1.65Z"/><path class="cls-1" d="M127.15,11.22a.82.82,0,0,1-.58-1.4l6.58-6.58a.82.82,0,1,1,1.16,1.16L127.73,11A.82.82,0,0,1,127.15,11.22Z"/><path class="cls-1" d="M114.13,24.24a.82.82,0,0,1-.58-1.4l6.58-6.58a.82.82,0,1,1,1.16,1.16L114.71,24A.82.82,0,0,1,114.13,24.24Z"/><path class="cls-1" d="M133.73,24.24a.82.82,0,0,1-.58-.24l-6.58-6.58a.82.82,0,0,1,0-1.16.8.8,0,0,1,1.16,0l6.58,6.58a.82.82,0,0,1-.58,1.4Z"/><path class="cls-1" d="M120.71,11.22a.82.82,0,0,1-.58-.24L113.55,4.4a.82.82,0,0,1,1.16-1.16l6.58,6.58a.8.8,0,0,1,0,1.16A.82.82,0,0,1,120.71,11.22Z"/><path class="cls-1" d="M422.8,294.48a.82.82,0,0,1-.58-1.4l6.58-6.58a.82.82,0,0,1,1.16,1.16l-6.58,6.58A.82.82,0,0,1,422.8,294.48Z"/><path class="cls-1" d="M409.78,307.5a.82.82,0,0,1-.58-.24.83.83,0,0,1,0-1.17l6.58-6.58a.83.83,0,0,1,1.17,1.17l-6.58,6.58A.86.86,0,0,1,409.78,307.5Z"/><path class="cls-1" d="M429.38,307.5a.82.82,0,0,1-.58-.24l-6.58-6.58a.83.83,0,0,1,0-1.17.82.82,0,0,1,1.16,0l6.58,6.58a.83.83,0,0,1-.58,1.41Z"/><path class="cls-1" d="M416.36,294.48a.82.82,0,0,1-.58-.24l-6.58-6.58a.82.82,0,0,1,1.17-1.16l6.58,6.58a.82.82,0,0,1,0,1.16A.86.86,0,0,1,416.36,294.48Z"/><path class="cls-1" d="M421.54,85.19a1.14,1.14,0,0,1-1.14-1.13V71.2a1.14,1.14,0,0,1,2.28,0V84.06A1.14,1.14,0,0,1,421.54,85.19Z"/><path class="cls-1" d="M421.54,108.5a1.14,1.14,0,0,1-1.14-1.14V94.5a1.14,1.14,0,0,1,2.28,0v12.86A1.14,1.14,0,0,1,421.54,108.5Z"/><path class="cls-1" d="M440,90H427.17a1.14,1.14,0,0,1,0-2.28H440A1.14,1.14,0,1,1,440,90Z"/><path class="cls-1" d="M415.92,90H403.06a1.14,1.14,0,1,1,0-2.28h12.86a1.14,1.14,0,0,1,0,2.28Z"/><path class="cls-1" d="M426,85.57a1.1,1.1,0,0,1-.8-.34,1.13,1.13,0,0,1,0-1.61l9.09-9.09a1.14,1.14,0,0,1,1.61,1.61l-9.09,9.09A1.14,1.14,0,0,1,426,85.57Z"/><path class="cls-1" d="M408,103.56a1.17,1.17,0,0,1-.81-.33,1.15,1.15,0,0,1,0-1.61l9.1-9.1a1.14,1.14,0,1,1,1.61,1.61l-9.1,9.1A1.13,1.13,0,0,1,408,103.56Z"/><path class="cls-1" d="M435.08,103.56a1.13,1.13,0,0,1-.8-.33l-9.09-9.1a1.13,1.13,0,0,1,0-1.61,1.15,1.15,0,0,1,1.61,0l9.09,9.1a1.15,1.15,0,0,1,0,1.61A1.13,1.13,0,0,1,435.08,103.56Z"/><path class="cls-1" d="M417.09,85.57a1.1,1.1,0,0,1-.8-.34l-9.1-9.09a1.14,1.14,0,0,1,1.61-1.61l9.1,9.09a1.15,1.15,0,0,1,0,1.61A1.12,1.12,0,0,1,417.09,85.57Z"/><path class="cls-1" d="M58.68,373.51a1.18,1.18,0,0,1-1.18-1.19V359a1.19,1.19,0,0,1,2.37,0v13.37A1.19,1.19,0,0,1,58.68,373.51Z"/><path class="cls-1" d="M65.37,366.82H52a1.19,1.19,0,1,1,0-2.37H65.37a1.19,1.19,0,0,1,0,2.37Z"/><path class="cls-2" d="M263.53,353.2a1.37,1.37,0,0,1-1.37-1.37V336.36a1.37,1.37,0,1,1,2.74,0v15.47A1.37,1.37,0,0,1,263.53,353.2Z"/><path class="cls-2" d="M271.27,345.47H255.79a1.38,1.38,0,0,1,0-2.75h15.48a1.38,1.38,0,0,1,0,2.75Z"/><path class="cls-2" d="M19.24,250.84a1.37,1.37,0,0,1-1.37-1.37V234a1.38,1.38,0,1,1,2.75,0v15.47A1.37,1.37,0,0,1,19.24,250.84Z"/><path class="cls-2" d="M27,243.1H11.51a1.37,1.37,0,1,1,0-2.74H27a1.37,1.37,0,1,1,0,2.74Z"/><path class="cls-2" d="M415.92,145.26a1.19,1.19,0,0,1-1.2-1.19V130.62a1.2,1.2,0,0,1,2.39,0v13.45A1.19,1.19,0,0,1,415.92,145.26Z"/><path class="cls-2" d="M422.64,138.54H409.19a1.19,1.19,0,0,1,0-2.38h13.45a1.19,1.19,0,0,1,0,2.38Z"/><path class="cls-2" d="M38.35,137a9.44,9.44,0,0,1-2.87-.44,9.64,9.64,0,1,1,12.07-6.35h0a9.64,9.64,0,0,1-9.2,6.79Zm0-17.65A8,8,0,1,0,46,129.72h0a8,8,0,0,0-5.26-10A8.17,8.17,0,0,0,38.34,119.35Z"/><path class="cls-2" d="M35.72,135.78a9.25,9.25,0,0,1-1.51-.64.94.94,0,0,0-.06.15l-5.83,18.77a1.65,1.65,0,0,0,3.15,1l5.82-18.78a.83.83,0,0,0,0-.15A9,9,0,0,1,35.72,135.78Z"/><path class="cls-2" d="M43.85,127.71a2.69,2.69,0,1,1-1.77-3.36A2.69,2.69,0,0,1,43.85,127.71Z"/><path class="cls-2" d="M353.38,368.45H331.72a2.3,2.3,0,0,1-2.29-2.29V351.74a2.29,2.29,0,0,1,2.29-2.28h21.66a2.28,2.28,0,0,1,2.28,2.28v14.42A2.29,2.29,0,0,1,353.38,368.45ZM331.72,351.1a.64.64,0,0,0-.64.64v14.42a.64.64,0,0,0,.64.64h21.66a.64.64,0,0,0,.64-.64V351.74a.64.64,0,0,0-.64-.64Z"/><path class="cls-2" d="M342.55,360.52a.78.78,0,0,1-.54-.21l-10.84-9.41a.84.84,0,0,1-.23-.91.83.83,0,0,1,.78-.53h21.66a.82.82,0,0,1,.54,1.44l-10.83,9.41A.82.82,0,0,1,342.55,360.52Zm-8.63-9.42,8.63,7.5,8.62-7.5Z"/><path class="cls-3" d="M51.42,340.79A5.44,5.44,0,1,1,46,335.35,5.43,5.43,0,0,1,51.42,340.79Z"/><path class="cls-3" d="M71.42,340.79A5.44,5.44,0,1,1,66,335.35,5.43,5.43,0,0,1,71.42,340.79Z"/><path class="cls-3" d="M91.42,340.79A5.44,5.44,0,1,1,86,335.35,5.43,5.43,0,0,1,91.42,340.79Z"/><path class="cls-3" d="M340.3,40.83a5.44,5.44,0,1,1-5.43-5.43A5.44,5.44,0,0,1,340.3,40.83Z"/><path class="cls-3" d="M360.3,40.83a5.44,5.44,0,1,1-5.43-5.43A5.44,5.44,0,0,1,360.3,40.83Z"/><path class="cls-3" d="M380.3,40.83a5.44,5.44,0,1,1-5.43-5.43A5.44,5.44,0,0,1,380.3,40.83Z"/><circle class="cls-3" cx="363.54" cy="273.45" r="56.49" transform="translate(-79.23 169.08) rotate(-23.69)"/><path class="cls-3" d="M298.38,240.67h-157v-39h157Zm-154-3h151v-33h-151Z"/><path class="cls-4" d="M306.57,381.28l-180.49.13a9.93,9.93,0,0,1-9.92-9.9l-.26-346.8a9.93,9.93,0,0,1,9.9-9.92l180.5-.14a10,10,0,0,1,9.92,9.91l.26,346.8A10,10,0,0,1,306.57,381.28Z"/><path class="cls-5" d="M301.62,335.23,131,335.35a1.19,1.19,0,0,1-1.2-1.19l-.22-293.23a1.2,1.2,0,0,1,1.2-1.19l170.66-.13a1.2,1.2,0,0,1,1.2,1.19L302.82,334A1.2,1.2,0,0,1,301.62,335.23Z"/><rect class="cls-6" x="179.5" y="345.87" width="66.53" height="17.72" rx="0.61"/><path class="cls-6" d="M240.69,30.07l-57.79.66a3.32,3.32,0,0,1-3.34-3.27h0a3.33,3.33,0,0,1,3.27-3.35l57.78-.66A3.32,3.32,0,0,1,244,26.72h0A3.32,3.32,0,0,1,240.69,30.07Z"/><path class="cls-6" d="M250.17,30h0a3.32,3.32,0,0,1-3.34-3.27h0a3.31,3.31,0,0,1,3.27-3.34h0a3.32,3.32,0,0,1,3.35,3.27h0A3.33,3.33,0,0,1,250.17,30Z"/><circle class="cls-7" cx="216.2" cy="133.96" r="60.64"/><path class="cls-3" d="M216.19,153.17a29.75,29.75,0,1,1,29.75-29.75A29.78,29.78,0,0,1,216.19,153.17Zm0-56.5a26.75,26.75,0,1,0,26.75,26.75A26.78,26.78,0,0,0,216.19,96.67Z"/><path class="cls-3" d="M175,177.87l-2.64-1.42a49.77,49.77,0,0,1,87.75,0l-2.64,1.42a46.77,46.77,0,0,0-82.47,0Z"/><rect class="cls-3" x="141.38" y="211.17" width="149" height="31" rx="2.25"/><rect class="cls-3" x="141.38" y="251.17" width="149" height="31" rx="2.25"/><rect class="cls-8" x="157.52" y="291.17" width="115.35" height="24" rx="2.25"/><rect class="cls-9" x="155.04" y="224.04" width="121.68" height="5.25"/><path class="cls-9" d="M175.27,273.45,173,269.58l-2.31,3.87-1.95-1.13L171,268.5h-4.36v-2.21H171l-2.3-3.84,1.93-1.13L173,265.2l2.32-3.88,1.93,1.13-2.29,3.84h4.23v2.21h-4.22l2.28,3.82Z"/><path class="cls-9" d="M189.26,273.45,187,269.58l-2.31,3.87-2-1.13L185,268.5h-4.36v-2.21H185l-2.3-3.84,1.93-1.13,2.33,3.88,2.32-3.88,1.94,1.13-2.3,3.84h4.23v2.21h-4.22l2.29,3.82Z"/><path class="cls-9" d="M203.26,273.45l-2.32-3.87-2.31,3.87-2-1.13L199,268.5H194.6v-2.21H199l-2.3-3.84,1.94-1.13,2.32,3.88,2.33-3.88,1.93,1.13-2.29,3.84h4.22v2.21H202.9l2.29,3.82Z"/><path class="cls-9" d="M217.25,273.45l-2.32-3.87-2.31,3.87-2-1.13L213,268.5h-4.36v-2.21H213l-2.3-3.84,1.93-1.13,2.32,3.88,2.33-3.88,1.93,1.13-2.29,3.84h4.22v2.21h-4.22l2.29,3.82Z"/><path class="cls-9" d="M231.24,273.45l-2.32-3.87-2.31,3.87-2-1.13,2.28-3.82h-4.35v-2.21H227l-2.3-3.84,1.93-1.13,2.33,3.88,2.32-3.88,1.93,1.13-2.29,3.84h4.23v2.21h-4.22l2.28,3.82Z"/><path class="cls-9" d="M245.23,273.45l-2.31-3.87-2.31,3.87-2-1.13,2.29-3.82h-4.36v-2.21H241l-2.3-3.84,1.93-1.13,2.33,3.88,2.32-3.88,1.94,1.13-2.3,3.84h4.23v2.21h-4.22l2.29,3.82Z"/><path class="cls-9" d="M259.23,273.45l-2.32-3.87-2.31,3.87-2-1.13,2.29-3.82h-4.36v-2.21h4.37l-2.3-3.84,1.94-1.13,2.32,3.88,2.33-3.88,1.93,1.13-2.29,3.84h4.22v2.21h-4.22l2.29,3.82Z"/><path class="cls-10" d="M194.42,297.31h1.48v10.21h4.9v1.25h-6.38Z"/><path class="cls-10" d="M211.57,302.92c0,3.94-2.39,6-5.32,6s-5.15-2.34-5.15-5.81c0-3.64,2.26-6,5.32-6S211.57,299.52,211.57,302.92Zm-8.89.19c0,2.44,1.33,4.64,3.66,4.64S210,305.59,210,303c0-2.28-1.19-4.66-3.66-4.66S202.68,300.59,202.68,303.11Z"/><path class="cls-10" d="M222.22,308.26a11,11,0,0,1-3.52.62,5.38,5.38,0,0,1-5.89-5.77c0-3.42,2.37-5.92,6.21-5.92a7.07,7.07,0,0,1,2.86.53l-.36,1.2a6,6,0,0,0-2.54-.49,4.28,4.28,0,0,0-4.6,4.61c0,2.9,1.75,4.62,4.42,4.62a4.79,4.79,0,0,0,2-.31v-3.41h-2.33v-1.19h3.78Z"/><path class="cls-10" d="M226,297.31v11.46h-1.48V297.31Z"/><path class="cls-10" d="M228.54,308.77V297.31h1.61l3.68,5.8a31.69,31.69,0,0,1,2,3.72l0,0c-.14-1.53-.17-2.92-.17-4.71v-4.79h1.39v11.46h-1.5L232,303a34.37,34.37,0,0,1-2.14-3.82h-.06c.09,1.45.12,2.83.12,4.73v4.9Z"/><path class="cls-8" d="M135,192.65,54.13,220.77a6.93,6.93,0,0,1-9.05-8l17.41-80.29a6.93,6.93,0,0,1,11.17-3.88l63.47,52.16A6.93,6.93,0,0,1,135,192.65Z"/><polygon class="cls-3" points="92.59 187.56 84.24 190.46 68.89 148.95 78.87 145.48 92.59 187.56"/><rect class="cls-3" x="86.91" y="193.34" width="9.23" height="9.23" transform="translate(-59.94 41.05) rotate(-19.18)"/><path class="cls-8" d="M381.43,311.73l-44.79-5.62a5.75,5.75,0,0,1-5-6.62L339,254.4a5.76,5.76,0,0,1,6.39-4.8l40.82,5.12a5.75,5.75,0,0,1,5,6.13l-3.3,45.59A5.75,5.75,0,0,1,381.43,311.73Z"/><path class="cls-8" d="M369.09,229.17a22.31,22.31,0,1,0,19.36,24.92A22.32,22.32,0,0,0,369.09,229.17Zm-4.54,36.23a14.2,14.2,0,1,1,15.86-12.32A14.19,14.19,0,0,1,364.55,265.4Z"/><path class="cls-11" d="M368.83,272a5.07,5.07,0,1,1-4.47-5.61A5.07,5.07,0,0,1,368.83,272Z"/><polygon class="cls-11" points="365.18 273.87 365.48 286.82 358.69 286.05 362.2 273.53 365.18 273.87"/><polygon class="cls-8" points="345.68 116.49 308.37 155.02 315.18 161.99 325.43 151.74 329.8 147.76 329.56 144.12 332.22 140.95 351.18 121.99 345.68 116.49"/><path class="cls-8" d="M373.77,95.76a19.51,19.51,0,1,0,0,27.59A19.51,19.51,0,0,0,373.77,95.76Zm-10,10.31a4.24,4.24,0,1,1,6,0A4.24,4.24,0,0,1,363.78,106.07Z"/></g></g></svg>