<?xml version="1.0" encoding="utf-8"?>
<!-- Generator: Adobe Illustrator 24.1.1, SVG Export Plug-In . SVG Version: 6.00 Build 0)  -->
<svg version="1.1" id="Layer_1" xmlns="http://www.w3.org/2000/svg" xmlns:xlink="http://www.w3.org/1999/xlink" x="0px" y="0px"
	 viewBox="0 0 124.6 115.2" style="enable-background:new 0 0 124.6 115.2;" xml:space="preserve">
<style type="text/css">
	.st0{fill:#FF9A00;}
	.st1{fill:#444444;}
	.st2{fill:none;stroke:#FFCF06;stroke-width:11.11;stroke-linecap:round;stroke-linejoin:round;}
	.st3{enable-background:new    ;}
	.st4{fill:#FFFFFF;}
	.st5{fill:none;stroke:#FFFFFF;stroke-width:2.22;stroke-linecap:round;stroke-miterlimit:10;}
</style>
<g id="Layer_2_1_">
	<g id="DESIGNED_BY_FREEPIK">
		<circle class="st0" cx="57.7" cy="55.3" r="55.3"/>
		<circle class="st1" cx="57.7" cy="55.3" r="50.7"/>
		<polygon class="st0" points="0,85.7 123.8,72.9 124.6,108.3 0.3,115.2 		"/>
		<polyline class="st2" points="33.6,49.2 57.9,69 101.7,12.5 		"/>
		<g class="st3">
			<path class="st4" d="M54.3,93.6l0.2,3.4l-4.9,0.3l0.7,10l-3.8,0.3l-1.6-24.1l10-0.7l0.2,3.4l-6.2,0.4l0.5,7.3L54.3,93.6z"/>
			<path class="st4" d="M58,83.9c0.9-1.1,2.3-1.7,4.2-1.9c1.9-0.1,3.3,0.3,4.4,1.3c1.1,1,1.7,2.5,1.8,4.4l0.9,12.6
				c0.1,1.9-0.3,3.5-1.2,4.6c-0.9,1.1-2.3,1.8-4.2,1.9c-1.9,0.1-3.3-0.3-4.4-1.3c-1.1-1-1.7-2.5-1.8-4.4l-0.9-12.6
				C56.7,86.6,57.1,85.1,58,83.9z M63.6,103.3c1.3-0.1,1.9-0.9,1.8-2.5l-0.9-13c-0.1-1.6-0.8-2.3-2.1-2.2s-1.9,0.9-1.8,2.5l0.9,13
				C61.6,102.6,62.3,103.4,63.6,103.3z"/>
			<path class="st4" d="M79.6,104.3c-0.1-0.3-0.1-1-0.2-1.9l-0.3-3.8c-0.1-1.1-0.3-1.9-0.7-2.3c-0.4-0.4-1.1-0.6-1.9-0.6l-1.3,0.1
				l0.7,9.8l-3.8,0.3l-1.6-24.1l5.7-0.4c2-0.1,3.4,0.2,4.4,1.1c1,0.8,1.5,2.2,1.6,4.1l0.1,1.9c0.2,2.5-0.5,4.2-2.2,5.1
				c0.9,0.3,1.6,0.9,2.1,1.7c0.4,0.8,0.7,1.9,0.8,3.3l0.3,3.7c0,0.7,0.1,1.2,0.2,1.7c0.1,0.4,0.2,0.8,0.4,1.2l-3.9,0.3
				C79.8,105,79.7,104.6,79.6,104.3z M74.9,92.4l1.5-0.1c0.8-0.1,1.3-0.3,1.7-0.7c0.4-0.4,0.5-1.1,0.4-2l-0.2-2.4
				c-0.1-0.9-0.3-1.5-0.6-1.9c-0.3-0.4-0.8-0.5-1.5-0.5L74.4,85L74.9,92.4z"/>
			<path class="st4" d="M96,90.8l0.5,7.7c0.1,2-0.2,3.5-1.1,4.6c-0.9,1.1-2.3,1.7-4.1,1.9s-3.3-0.3-4.3-1.3c-1-1-1.6-2.4-1.8-4.4
				l-0.9-12.6c-0.1-2,0.2-3.5,1.1-4.6s2.3-1.7,4.1-1.9s3.3,0.3,4.3,1.3s1.6,2.4,1.8,4.4l0.2,2.3l-3.6,0.2l-0.2-2.6
				c-0.1-1.6-0.8-2.3-2.1-2.2s-1.9,0.9-1.8,2.5l0.9,13c0.1,1.6,0.8,2.3,2.1,2.2c1.3-0.1,1.9-0.9,1.8-2.5l-0.3-4.4l-1.7,0.1l-0.2-3.4
				L96,90.8z"/>
			<path class="st4" d="M107.4,89.5l0.2,3.4l-5.2,0.4l0.5,7.1l6.6-0.4l0.2,3.4l-10.3,0.7l-1.6-24.1l10.3-0.7l0.2,3.4l-6.6,0.4
				l0.5,6.7L107.4,89.5z"/>
			<path class="st4" d="M121,78.3l0.2,3.4l-4,0.3l1.4,20.7l-3.8,0.3l-1.4-20.7l-4,0.3l-0.2-3.4L121,78.3z"/>
		</g>
		<g class="st3">
			<path class="st1" d="M8.2,94.2c1.2-0.2,2.2,0,2.9,0.5c0.7,0.6,1.2,1.5,1.4,2.7l1.3,7.9c0.2,1.3,0,2.3-0.5,3
				c-0.5,0.8-1.4,1.2-2.6,1.4l-3.9,0.6L4.3,94.9L8.2,94.2z M8.9,107.8l1.4-0.2c0.4-0.1,0.7-0.2,0.9-0.5c0.2-0.3,0.2-0.7,0.1-1.2
				L10,97.8c-0.1-0.5-0.3-0.9-0.5-1.1c-0.3-0.2-0.6-0.3-1-0.2l-1.4,0.2L8.9,107.8z"/>
			<path class="st1" d="M14.3,94.1c0.5-0.8,1.4-1.3,2.6-1.5c1.2-0.2,2.2,0,2.9,0.6c0.7,0.6,1.2,1.5,1.4,2.7l1.3,8.1
				c0.2,1.2,0,2.3-0.5,3.1c-0.5,0.8-1.4,1.3-2.6,1.5c-1.2,0.2-2.2,0-2.9-0.6c-0.7-0.6-1.2-1.5-1.4-2.7l-1.3-8.1
				C13.6,95.9,13.8,94.9,14.3,94.1z M19.1,106.4c0.8-0.1,1.2-0.7,1-1.7l-1.3-8.4c-0.2-1-0.7-1.5-1.5-1.3c-0.8,0.1-1.2,0.7-1,1.7
				l1.3,8.4C17.8,106.1,18.3,106.5,19.1,106.4z"/>
			<path class="st1" d="M26.9,107.3l-2.2,0.4L22.2,92l3.1-0.5l4,8.9l-1.5-9.3l2.2-0.3l2.5,15.6l-2.5,0.4L25.1,96L26.9,107.3z"/>
			<path class="st1" d="M31.8,90.5l2.4-0.4l0.3,2.1l-0.7,2.6l-1,0.2l0.3-2.3l-0.9,0.1L31.8,90.5z"/>
			<path class="st1" d="M42.8,88.7l0.4,2.2l-2.6,0.4l2.1,13.4l-2.5,0.4l-2.1-13.4l-2.6,0.4l-0.4-2.2L42.8,88.7z"/>
		</g>
		<line class="st5" x1="92.3" y1="53.3" x2="104.3" y2="51.4"/>
		<line class="st5" x1="53.7" y1="24.6" x2="52.4" y2="12.6"/>
		<line class="st5" x1="22.7" y1="63.4" x2="10.7" y2="64.6"/>
	</g>
</g>
</svg>
