<svg xmlns="http://www.w3.org/2000/svg" xmlns:xlink="http://www.w3.org/1999/xlink" viewBox="0 0 471.27 471.27"><defs><style>.cls-1{fill:aqua;stroke:aqua;stroke-miterlimit:10;opacity:0.2;}.cls-2{font-size:72px;font-family:RifficFree-Bold, Riffic Free;font-weight:700;}.cls-13,.cls-2{fill:#fff;}.cls-3{font-size:47px;}.cls-4{letter-spacing:-0.16em;}.cls-5{letter-spacing:0em;}.cls-6{fill:url(#Degradado_sin_nombre_48);}.cls-7{fill:url(#Degradado_sin_nombre_48-2);}.cls-8{fill:url(#Degradado_sin_nombre_48-3);}.cls-9{fill:url(#Degradado_sin_nombre_48-4);}.cls-10{fill:url(#Degradado_sin_nombre_48-5);}.cls-11{fill:url(#Degradado_sin_nombre_48-6);}.cls-12{fill:url(#Degradado_sin_nombre_48-7);}.cls-14{fill:url(#Degradado_sin_nombre_48-8);}.cls-15{fill:url(#Degradado_sin_nombre_48-9);}.cls-16{fill:url(#Degradado_sin_nombre_48-10);}.cls-17{fill:url(#Degradado_sin_nombre_48-11);}.cls-18{fill:url(#Degradado_sin_nombre_48-12);}.cls-19{fill:url(#Degradado_sin_nombre_48-13);}.cls-20{fill:url(#Degradado_sin_nombre_48-14);}.cls-21{fill:url(#Degradado_sin_nombre_48-15);}.cls-22{fill:url(#Degradado_sin_nombre_48-16);}.cls-23{fill:url(#Degradado_sin_nombre_48-17);}.cls-24{fill:url(#Degradado_sin_nombre_48-18);}.cls-25{fill:url(#Degradado_sin_nombre_48-19);}.cls-26{fill:url(#Degradado_sin_nombre_48-20);}.cls-27{fill:none;}.cls-28{fill:url(#Degradado_sin_nombre_48-21);}.cls-29{fill:url(#Degradado_sin_nombre_48-22);}.cls-30{fill:url(#Degradado_sin_nombre_48-23);}.cls-31{fill:url(#Degradado_sin_nombre_48-24);}.cls-32{fill:url(#Degradado_sin_nombre_48-25);}.cls-33{fill:url(#Degradado_sin_nombre_48-26);}.cls-34{fill:url(#Degradado_sin_nombre_48-27);}.cls-35{fill:url(#Degradado_sin_nombre_48-28);}.cls-36{fill:url(#Degradado_sin_nombre_48-29);}</style><linearGradient id="Degradado_sin_nombre_48" x1="102.23" y1="82.05" x2="113.31" y2="77.66" gradientTransform="translate(32.19 -31.06) rotate(19.17)" gradientUnits="userSpaceOnUse"><stop offset="0" stop-color="#ffd329"/><stop offset="1" stop-color="#ff9d29"/></linearGradient><linearGradient id="Degradado_sin_nombre_48-2" x1="91.28" y1="85.69" x2="101.9" y2="81.77" gradientTransform="translate(32.87 -27.02) rotate(19.17)" xlink:href="#Degradado_sin_nombre_48"/><linearGradient id="Degradado_sin_nombre_48-3" x1="79.61" y1="89.75" x2="90.23" y2="85.83" gradientTransform="translate(33.55 -22.98) rotate(19.17)" xlink:href="#Degradado_sin_nombre_48"/><linearGradient id="Degradado_sin_nombre_48-4" x1="67.78" y1="93.71" x2="78.63" y2="90.02" gradientTransform="translate(34.23 -18.93) rotate(19.17)" xlink:href="#Degradado_sin_nombre_48"/><linearGradient id="Degradado_sin_nombre_48-5" x1="114" y1="77.68" x2="118.62" y2="76.07" gradientTransform="translate(31.72 -33.83) rotate(19.17)" xlink:href="#Degradado_sin_nombre_48"/><linearGradient id="Degradado_sin_nombre_48-6" x1="144.73" y1="49.61" x2="185.24" y2="49.61" gradientTransform="matrix(1, 0, 0, 1, 0, 0)" xlink:href="#Degradado_sin_nombre_48"/><linearGradient id="Degradado_sin_nombre_48-7" x1="177.62" y1="33" x2="185.24" y2="33" gradientTransform="matrix(1, 0, 0, 1, 0, 0)" xlink:href="#Degradado_sin_nombre_48"/><linearGradient id="Degradado_sin_nombre_48-8" x1="234.38" y1="47.87" x2="239.9" y2="47.87" gradientTransform="matrix(1, 0, 0, 1, 0, 0)" xlink:href="#Degradado_sin_nombre_48"/><linearGradient id="Degradado_sin_nombre_48-9" x1="207.09" y1="47.61" x2="212.6" y2="47.61" gradientTransform="matrix(1, 0, 0, 1, 0, 0)" xlink:href="#Degradado_sin_nombre_48"/><linearGradient id="Degradado_sin_nombre_48-10" x1="214.76" y1="13.75" x2="220.27" y2="13.75" gradientTransform="matrix(1, 0, 0, 1, 0, 0)" xlink:href="#Degradado_sin_nombre_48"/><linearGradient id="Degradado_sin_nombre_48-11" x1="220.04" y1="33.43" x2="225.55" y2="33.43" gradientTransform="matrix(1, 0, 0, 1, 0, 0)" xlink:href="#Degradado_sin_nombre_48"/><linearGradient id="Degradado_sin_nombre_48-12" x1="187.02" y1="428.23" x2="192.53" y2="428.23" gradientTransform="matrix(1, 0, 0, 1, 0, 0)" xlink:href="#Degradado_sin_nombre_48"/><linearGradient id="Degradado_sin_nombre_48-13" x1="159.72" y1="427.97" x2="165.24" y2="427.97" gradientTransform="matrix(1, 0, 0, 1, 0, 0)" xlink:href="#Degradado_sin_nombre_48"/><linearGradient id="Degradado_sin_nombre_48-14" x1="167.39" y1="394.11" x2="172.91" y2="394.11" gradientTransform="matrix(1, 0, 0, 1, 0, 0)" xlink:href="#Degradado_sin_nombre_48"/><linearGradient id="Degradado_sin_nombre_48-15" x1="172.68" y1="413.8" x2="178.19" y2="413.8" gradientTransform="matrix(1, 0, 0, 1, 0, 0)" xlink:href="#Degradado_sin_nombre_48"/><linearGradient id="Degradado_sin_nombre_48-16" x1="301.61" y1="17.93" x2="273.97" y2="45.57" gradientTransform="matrix(1, 0, 0, 1, 0, 0)" xlink:href="#Degradado_sin_nombre_48"/><linearGradient id="Degradado_sin_nombre_48-17" x1="329.68" y1="40.68" x2="329.68" y2="71.89" gradientTransform="matrix(1, 0, 0, 1, 0, 0)" xlink:href="#Degradado_sin_nombre_48"/><linearGradient id="Degradado_sin_nombre_48-18" x1="367.6" y1="66.41" x2="412.86" y2="111.67" gradientTransform="matrix(1, 0, 0, 1, 0, 0)" xlink:href="#Degradado_sin_nombre_48"/><linearGradient id="Degradado_sin_nombre_48-19" x1="57.93" y1="146.37" x2="89.65" y2="178.08" gradientTransform="translate(-14.04 -0.85)" xlink:href="#Degradado_sin_nombre_48"/><linearGradient id="Degradado_sin_nombre_48-20" x1="105.1" y1="372.99" x2="155.87" y2="372.99" gradientTransform="translate(100.4 -22.11) rotate(15)" xlink:href="#Degradado_sin_nombre_48"/><linearGradient id="Degradado_sin_nombre_48-21" x1="110.96" y1="367.78" x2="130.48" y2="367.78" gradientTransform="translate(100.4 -22.11) rotate(15)" xlink:href="#Degradado_sin_nombre_48"/><linearGradient id="Degradado_sin_nombre_48-22" x1="130.48" y1="367.78" x2="150" y2="367.78" gradientTransform="translate(100.4 -22.11) rotate(15)" xlink:href="#Degradado_sin_nombre_48"/><linearGradient id="Degradado_sin_nombre_48-23" x1="113.25" y1="364.52" x2="130.48" y2="364.52" gradientTransform="translate(100.4 -22.11) rotate(15)" xlink:href="#Degradado_sin_nombre_48"/><linearGradient id="Degradado_sin_nombre_48-24" x1="130.48" y1="364.52" x2="147.72" y2="364.52" gradientTransform="translate(100.4 -22.11) rotate(15)" xlink:href="#Degradado_sin_nombre_48"/><linearGradient id="Degradado_sin_nombre_48-25" x1="45.14" y1="210.4" x2="74.57" y2="210.4" gradientTransform="matrix(1, 0, 0, 1, 0, 0)" xlink:href="#Degradado_sin_nombre_48"/><linearGradient id="Degradado_sin_nombre_48-26" x1="28.55" y1="276" x2="117.21" y2="276" gradientTransform="matrix(1, 0, 0, 1, 0.16, 0.28)" xlink:href="#Degradado_sin_nombre_48"/><linearGradient id="Degradado_sin_nombre_48-27" x1="92.3" y1="318.57" x2="92.3" y2="351.47" gradientTransform="matrix(1, 0, 0, 1, 0, 0)" xlink:href="#Degradado_sin_nombre_48"/><linearGradient id="Degradado_sin_nombre_48-28" x1="425.55" y1="148.55" x2="425.55" y2="172.88" gradientTransform="translate(234.14 -232.5) rotate(45)" xlink:href="#Degradado_sin_nombre_48"/><linearGradient id="Degradado_sin_nombre_48-29" x1="390.55" y1="202.86" x2="390.55" y2="227.19" gradientTransform="translate(-26.59 306.17) rotate(-45)" xlink:href="#Degradado_sin_nombre_48"/></defs><g id="Layer_2" data-name="Layer 2"><g id="BACKGROUND_1" data-name="BACKGROUND 1"><circle class="cls-1" cx="235.64" cy="235.64" r="235.14"/><text class="cls-2" transform="translate(169.24 214.61)">NEW<tspan class="cls-3"><tspan x="-25.21" y="56.4">FE</tspan><tspan class="cls-4" x="26.11" y="56.4">A</tspan><tspan class="cls-5" x="55.3" y="56.4">T</tspan><tspan x="86.51" y="56.4">URES</tspan></tspan></text><rect class="cls-6" x="101.88" y="70.7" width="12.31" height="18.11" transform="translate(-20.2 39.91) rotate(-19.17)"/><path d="M116.82,86.28a46.39,46.39,0,0,1-2-4.86c-1.17-3-2.76-7.14-4.51-12l.8.39-5.58,2-3,1-1.52.53-.77.27-.39.13-.19.07-.1,0,0,0h0c.19-.39-.43.87.42-.88,2.23,6.41,4.24,12.35,5.82,17.15l-.7-.34c3.43-1.12,6.31-2,8.39-2.61a27.91,27.91,0,0,1,3.41-.91,15.56,15.56,0,0,1-2.92,1.3c-2,.79-4.9,1.94-8.52,3.27l-.51.18-.19-.52c-1.75-4.75-3.85-10.66-6.08-17.07.85-1.75.24-.48.43-.87h.09l.1,0,.19-.07.39-.13.77-.27,1.52-.52,3-1,5.61-1.91.6-.2.2.59c1.74,5.18,3.13,9.59,4.06,12.63A29.93,29.93,0,0,1,116.82,86.28Z"/><rect class="cls-7" x="90.26" y="76.4" width="12.31" height="14.79" transform="translate(-22.17 36.32) rotate(-19.17)"/><path d="M104.65,88.76a32.58,32.58,0,0,1-1.7-4c-1-2.44-2.28-5.81-3.73-9.81l.78.37-5.54,2-3,1.05L90,78.93l-.78.27-.39.14-.2.07-.09,0,0,0h0c.19-.39-.42.87.42-.88,1.79,5.16,3.42,10,4.76,14l-.74-.35c3.4-1.12,6.28-2,8.36-2.6a26.56,26.56,0,0,1,3.45-.9,14.63,14.63,0,0,1-2.92,1.31c-2,.8-4.91,2-8.51,3.27l-.53.2-.2-.55c-1.47-4-3.17-8.78-5-13.94.85-1.75.24-.48.43-.87h0l0,0,.1,0,.2-.07.39-.13.77-.27L91,77.11l3-1,5.56-1.87.59-.2.19.57c1.44,4.3,2.55,7.91,3.29,10.39A19.91,19.91,0,0,1,104.65,88.76Z"/><rect class="cls-8" x="78.64" y="81.96" width="12.31" height="11.75" transform="translate(-24.14 32.72) rotate(-19.17)"/><path d="M92.53,91.36a22.15,22.15,0,0,1-1.4-3.14c-.78-1.92-1.85-4.58-3-7.76l.76.36c-3.38,1.24-7.35,2.66-11.6,4.13.85-1.74.24-.48.43-.87h0v0l0,0,0,.1.07.19.13.37.26.75.51,1.47,1,2.87c.63,1.86,1.22,3.63,1.78,5.29l-.77-.37c3.36-1.11,6.24-2,8.33-2.58a26.11,26.11,0,0,1,3.49-.9A13.6,13.6,0,0,1,89.6,92.7c-2,.8-4.92,2-8.49,3.27l-.56.21-.21-.58c-.59-1.64-1.22-3.4-1.89-5.25-.33-.93-.67-1.88-1-2.85L76.92,86l-.26-.75-.13-.37-.06-.19,0-.09v-.08h0l.42-.87c4.25-1.48,8.24-2.83,11.66-4l.57-.19.18.55c1.14,3.47,2,6.36,2.57,8.32A12.94,12.94,0,0,1,92.53,91.36Z"/><rect class="cls-9" x="67.02" y="87.52" width="12.31" height="8.71" transform="translate(-26.12 29.13) rotate(-19.17)"/><path d="M80.41,94a74.8,74.8,0,0,1-3.39-8l.71.35-5.38,2-3,1.08-1.58.55-.8.28-.4.14-.2.07-.11,0h-.09c.18-.39-.43.88.42-.87,1,2.93,2,5.73,2.8,8.24l-.8-.38c3.32-1.1,6.19-2,8.29-2.56A22.81,22.81,0,0,1,80.41,94a13.74,13.74,0,0,1-2.94,1.36c-2,.81-4.94,2-8.48,3.27l-.58.21-.21-.59c-.91-2.5-1.9-5.28-2.92-8.21.84-1.75.23-.49.42-.88h0l0,0,.1,0,.21-.07.4-.14.8-.27L68.89,88l3-1c1.94-.65,3.77-1.25,5.44-1.79l.54-.18.17.52C79.76,90.86,80.59,94.09,80.41,94Z"/><rect class="cls-10" x="113.72" y="66.27" width="4.56" height="21.43" transform="translate(-18.85 42.37) rotate(-19.17)"/><path d="M121.68,86.35a53.24,53.24,0,0,1-2.46-5.91c-1.39-3.59-3.24-8.5-5.22-14.11l.86.42-2.13.75-1.08.38-.55.19-.27.09-.14,0-.07,0h-.07c.19-.39-.42.87.43-.88,2.92,8.4,5.38,15.86,6.75,20.34l-.49-.24a35.26,35.26,0,0,1,4.44-1.13,23,23,0,0,1-4.19,1.87l-.34.14L117,88c-1.71-4.37-4.4-11.74-7.32-20.14.84-1.75.23-.49.42-.88h.07l.07,0,.14,0,.27-.09.55-.19,1.08-.38,2.13-.73.65-.22.22.64c2,5.89,3.68,11.11,4.81,14.76S121.83,86.43,121.68,86.35Z"/><path d="M91.06,97.44c-.38,0-.69-1.25-.69-2.78s.31-2.78.69-2.78.69,1.24.69,2.78S91.44,97.44,91.06,97.44Z"/><path d="M94.78,100.62a1.38,1.38,0,0,1-.14-.24,2,2,0,0,1-.2-.45,4,4,0,0,0-1-1.52,3.34,3.34,0,0,0-2.35-.88,3.16,3.16,0,0,0-3,3.09l-.67-.67c2,0,3.74.17,5.08.3a9.67,9.67,0,0,1,2.36.37c.11.11-.58.23-1.89.36s-3.28.28-5.55.31h-.67v-.68a4.34,4.34,0,0,1,.68-2.38,4.29,4.29,0,0,1,3.71-2,4.08,4.08,0,0,1,3.06,1.48A3.51,3.51,0,0,1,95,99.82a2.15,2.15,0,0,1-.06.65C94.84,100.62,94.81,100.65,94.78,100.62Z"/><path d="M95.59,104.21a18.39,18.39,0,0,1-.48-3.59l.48.48c-1.15.06-2.53.11-4.06.15l-2.41,0H86.53c.3-.31-.69.68.68-.69l0,3.59-.66-.66c2.48,0,4.64.19,6.27.31a14,14,0,0,1,2.79.35c.11.11-.74.22-2.34.35s-4,.27-6.72.31h-.66v-.67l0-3.59c1.37-1.38.38-.38.69-.69h1.31l1.28,0,2.41,0c1.53,0,2.91.08,4.06.15l.51,0,0,.45C95.92,103.09,95.7,104.35,95.59,104.21Z"/><path d="M94.78,107.66a17.15,17.15,0,0,1-.51-3.6l.51.51c-1,.06-2.13.1-3.38.13l-2,0h-2.1l.69-.69c0,1.26,0,2.47,0,3.6l-.65-.65c2,0,3.79.18,5.12.31a10,10,0,0,1,2.32.34c.1.1-.58.21-1.88.34s-3.26.26-5.56.31H86.7v-.66c0-1.13,0-2.34,0-3.6l.69-.68h2.1l2,0c1.25,0,2.4.08,3.38.13l.53,0,0,.47C95.13,106.53,94.89,107.81,94.78,107.66Z"/><path d="M89.16,108.44c.17.08-1.15,3.3-3.41,8.45s-5.48,12.23-9.1,20a8.53,8.53,0,0,0-.56,1.3,1.19,1.19,0,0,0,.23,1,1.25,1.25,0,0,0,1.77.19,1.4,1.4,0,0,0,.3-.38l.31-.66.63-1.33,1.23-2.58,4.31-8.89c2.49-5,4.11-8.12,4.29-8s-1.15,3.3-3.41,8.45c-1.16,2.6-2.53,5.65-4,9l-1.19,2.6-.61,1.34-.33.69a2.43,2.43,0,0,1-.62.8,2.58,2.58,0,0,1-4.22-2.4,3.27,3.27,0,0,1,.32-.92l.34-.72c3.63-7.78,7-14.79,9.47-19.84S89,108.36,89.16,108.44Z"/><path d="M93,117.48c.17-.08,1.8,3,4.29,8l4.3,8.88,1.22,2.58.64,1.33.31.65a1.13,1.13,0,0,0,.3.38,1.22,1.22,0,0,0,2-1.14,9.69,9.69,0,0,0-.56-1.3c-3.62-7.77-6.83-14.84-9.1-20s-3.57-8.37-3.4-8.45,1.8,3,4.29,8,5.83,12,9.45,19.81l.34.73a3.59,3.59,0,0,1,.33.92,2.58,2.58,0,0,1-2.29,3,2.62,2.62,0,0,1-1.93-.6,2.43,2.43,0,0,1-.62-.8l-.33-.7c-.21-.45-.41-.89-.61-1.34-.41-.88-.8-1.74-1.19-2.59l-4-9C94.1,120.78,92.79,117.56,93,117.48Z"/><path d="M93,108.46s0,0-.1-.08l0,0a33.76,33.76,0,0,1-3.72.25l.28-.18,0,.09,0-.13c.12,3,.21,7.72.28,13.44,0,2.87.05,6,.08,9.3,0,1.66,0,3.36,0,5.11v4.33c0,.07,0,.14,0,.22a1.38,1.38,0,0,0,.15.4,1.22,1.22,0,0,0,2,.09,1.3,1.3,0,0,0,.22-.55c0-.05,0-.1,0-.15v-.69c0-.61,0-1.22,0-1.82,0-2.4,0-4.73,0-6.94.06-4.41.11-8.39.15-11.77s.14-6.08.22-8a13.42,13.42,0,0,1,.26-3,11.72,11.72,0,0,1,.26,2.87c.09,1.86.16,4.58.22,7.94s.1,7.4.15,11.83c0,2.23,0,4.57,0,7v2.53a1.72,1.72,0,0,1,0,.32,2.55,2.55,0,0,1-.45,1.17,2.59,2.59,0,0,1-4.34-.18,2.47,2.47,0,0,1-.32-.87,2.28,2.28,0,0,1,0-.45v-1.68c0-.89,0-1.78,0-2.65,0-1.75,0-3.45,0-5.11,0-3.31,0-6.43.07-9.3.07-5.72.17-10.39.28-13.44v-.08l0,0,0-.08L89,108h.18a33.76,33.76,0,0,1,3.72.25h0v0C93,108.42,93,108.46,93,108.46Z"/><path d="M181.23,68.57a7,7,0,0,1-.79-.62c-.46-.39-1.17-1.06-2.05-1.89-1.79-1.68-4.35-4.14-7.53-7.25-6.37-6.2-15.23-14.94-25.31-25l1,0a24.37,24.37,0,0,0-5.68,11.1,25.08,25.08,0,0,0,.49,12.16,24.21,24.21,0,0,0,2.33,5.35A26.7,26.7,0,0,0,147,66.9a25.22,25.22,0,0,0,8.54,5.8,24.88,24.88,0,0,0,21.54-1.44,29.71,29.71,0,0,0,3-2,8.65,8.65,0,0,1,1.06-.72,5.08,5.08,0,0,1-.89.93,21.23,21.23,0,0,1-2.94,2.22,24.55,24.55,0,0,1-13,3.74,25.25,25.25,0,0,1-9.28-1.7,26.15,26.15,0,0,1-9-6,27,27,0,0,1-3.59-4.68,25.14,25.14,0,0,1-2.5-5.64,26.05,26.05,0,0,1-.54-12.84,25.45,25.45,0,0,1,6-11.71l.47-.53.5.5c10,10.08,18.77,18.94,25,25.32,3.1,3.18,5.57,5.75,7.25,7.53A24.77,24.77,0,0,1,181.23,68.57Z"/><polygon class="cls-11" points="185.24 67.17 182.53 69.87 181.22 68.57 180.38 67.72 146.88 34.21 146.03 33.36 144.72 32.05 147.41 29.36 148.78 30.73 150.18 32.12 182.47 64.41 183.85 65.79 185.24 67.17"/><path d="M185.24,67.17a6.67,6.67,0,0,1-.88-.7c-.51-.42-1.27-1.14-2.25-2.06-2-1.84-4.75-4.53-8.2-7.9-6.9-6.72-16.41-16.12-27-26.67h1l-2.69,2.69v-1h0c17.22,17.24,31.82,32.1,37.49,38.12h-.35a35.87,35.87,0,0,1,2.88-2.52A30.43,30.43,0,0,1,182.71,70l-.16.18-.19-.18c-6-5.66-20.89-20.25-38.12-37.5h0l-.49-.48.49-.49,2.69-2.69.49-.48.48.48c10.55,10.57,19.95,20.08,26.68,27,3.36,3.45,6.06,6.25,7.9,8.2.91,1,1.62,1.73,2.12,2.3A4.43,4.43,0,0,1,185.24,67.17Z"/><ellipse cx="181.43" cy="50.07" rx="0.69" ry="13.26"/><ellipse cx="164.36" cy="33" rx="13.26" ry="0.69"/><path d="M166.26,48.17c-.27-.27,2.3-3.28,5.75-6.72s6.46-6,6.73-5.75S176.43,39,173,42.42,166.52,48.44,166.26,48.17Z"/><path class="cls-12" d="M185.24,33a3.81,3.81,0,0,1-6.5,2.7h0A3.78,3.78,0,0,1,177.62,33a3.81,3.81,0,0,1,7.62,0Z"/><path d="M185.24,33c-.11,0-.17-.34-.38-.87a3.84,3.84,0,0,0-1.43-1.77,3.33,3.33,0,0,0-3.09-.34,3.25,3.25,0,0,0-2,3,3.19,3.19,0,0,0,.91,2.22l.19.2v.27h0l-.2-.48a3.27,3.27,0,0,0,2.73,1,3.52,3.52,0,0,0,2.15-1.09c1-1.08,1-2.13,1.16-2.1s.17.24.16.71a3.58,3.58,0,0,1-.66,1.92,4.18,4.18,0,0,1-2.64,1.7,4.38,4.38,0,0,1-3.83-1.16l-.2-.19V35.7h0l.19.47a4.41,4.41,0,0,1,1.65-7.33,4.25,4.25,0,0,1,4.11.75A3.85,3.85,0,0,1,185.37,32C185.45,32.66,185.32,33,185.24,33Z"/><path d="M159.58,74.48c.17,0,.33,2,.45,5.28s.21,7.85.23,13l-.68-.68h5.82l-.67.68c0-5,.1-9.49.22-12.69s.28-5.12.46-5.12.32,1.93.45,5.12.2,7.65.22,12.69v.68h-7.2v-.68c0-5.16.11-9.73.23-13S159.4,74.48,159.58,74.48Z"/><path d="M172.5,93.77a31.54,31.54,0,0,1,.42,5.51l0,.41-.45,0c-2.33.07-5.31.14-8.71.18l-5.4.06h-5.89l-.69-.69,0-5.51v-.68h.67c5.86,0,11,.18,14.53.31s5.59.25,5.48.37a50.88,50.88,0,0,1-5.95.36c-3.59.13-8.48.28-14.06.31l.67-.67,0,5.51-.69-.69h5.89l5.4,0c3.4,0,6.38.11,8.71.19l-.42.43A41.07,41.07,0,0,1,172.5,93.77Z"/><path d="M150.58,42.63c.18.14-.88,1.34-1.8,3.62a14.12,14.12,0,0,0-.94,4.14,13.4,13.4,0,0,0,6.39,12.35c2.08,1.32,3.65,1.62,3.59,1.86s-1.69.18-4.06-1a12.67,12.67,0,0,1-3.69-2.77,13,13,0,0,1-2.89-4.9,13.32,13.32,0,0,1-.6-5.65,12.79,12.79,0,0,1,1.32-4.43C149.13,43.49,150.49,42.51,150.58,42.63Z"/><path class="cls-13" d="M186.74,78.23c-.22,0-.25-1.07-1.39-1.81a2.29,2.29,0,0,0-2.09-.19,2.15,2.15,0,0,0,0,4,2.29,2.29,0,0,0,2.09-.19c1.14-.74,1.17-1.84,1.39-1.8s.2.24.17.73a2.75,2.75,0,0,1-1,1.84,3.19,3.19,0,0,1-3.11.61,3.36,3.36,0,0,1,0-6.37,3.19,3.19,0,0,1,3.11.61,2.77,2.77,0,0,1,1,1.84C186.94,78,186.82,78.23,186.74,78.23Z"/><path class="cls-13" d="M193.37,82.44c-.2,0-.3-.74-1.07-1.19a1.53,1.53,0,0,0-1.36-.07,1.37,1.37,0,0,0,0,2.52,1.53,1.53,0,0,0,1.36-.08c.77-.44.87-1.2,1.07-1.18s.2.18.2.55a2,2,0,0,1-.68,1.4,2.43,2.43,0,0,1-2.38.5,2.58,2.58,0,0,1,0-4.9,2.42,2.42,0,0,1,2.38.49,2,2,0,0,1,.68,1.41C193.57,82.26,193.46,82.44,193.37,82.44Z"/><circle class="cls-13" cx="183.98" cy="88.96" r="1.4"/><path class="cls-13" d="M452.71,161.3c-.22,0-.26-1.07-1.39-1.8a2.3,2.3,0,0,0-2.09-.19,2.14,2.14,0,0,0,0,4,2.3,2.3,0,0,0,2.09-.19c1.13-.73,1.17-1.84,1.39-1.8s.2.25.17.74a2.77,2.77,0,0,1-1,1.84,3.2,3.2,0,0,1-3.12.6,3.36,3.36,0,0,1,0-6.36,3.2,3.2,0,0,1,3.12.6,2.77,2.77,0,0,1,1,1.84C452.91,161.05,452.79,161.3,452.71,161.3Z"/><path class="cls-13" d="M459.34,165.51c-.2,0-.3-.74-1.07-1.18a1.53,1.53,0,0,0-1.36-.08,1.37,1.37,0,0,0,0,2.52,1.53,1.53,0,0,0,1.36-.07c.77-.45.87-1.21,1.07-1.19s.2.18.2.55a2,2,0,0,1-.68,1.41,2.43,2.43,0,0,1-2.38.49,2.58,2.58,0,0,1,0-4.9,2.43,2.43,0,0,1,2.38.5,2,2,0,0,1,.68,1.41C459.54,165.33,459.43,165.51,459.34,165.51Z"/><path class="cls-13" d="M451.35,172a1.4,1.4,0,1,1-1.4-1.39A1.4,1.4,0,0,1,451.35,172Z"/><path class="cls-13" d="M67.23,119.69c-.21,0-.25-1.07-1.38-1.81a2.3,2.3,0,0,0-2.09-.19,2.15,2.15,0,0,0,0,4,2.3,2.3,0,0,0,2.09-.19c1.13-.74,1.17-1.84,1.38-1.8s.21.24.18.73a2.75,2.75,0,0,1-1,1.84,3.2,3.2,0,0,1-3.12.61,3.36,3.36,0,0,1,0-6.37,3.2,3.2,0,0,1,3.12.61,2.77,2.77,0,0,1,1,1.84C67.44,119.44,67.32,119.69,67.23,119.69Z"/><path class="cls-13" d="M73.87,123.9c-.2,0-.3-.74-1.07-1.18a1.5,1.5,0,0,0-1.36-.08,1.37,1.37,0,0,0,0,2.52,1.54,1.54,0,0,0,1.36-.08c.77-.44.87-1.2,1.07-1.18s.2.18.2.55a2,2,0,0,1-.68,1.4,2.43,2.43,0,0,1-2.38.5,2.58,2.58,0,0,1,0-4.9,2.43,2.43,0,0,1,2.38.49,2,2,0,0,1,.68,1.41C74.07,123.72,74,123.9,73.87,123.9Z"/><circle class="cls-13" cx="64.48" cy="130.42" r="1.4"/><path class="cls-13" d="M114.18,294.4c-.12.18-.93-.58-2.25-.3a2.32,2.32,0,0,0-1.62,1.35,2.15,2.15,0,0,0,2.82,2.82,2.32,2.32,0,0,0,1.35-1.62c.28-1.32-.48-2.13-.3-2.25s.32,0,.65.4a2.78,2.78,0,0,1,.61,2,3.2,3.2,0,0,1-1.77,2.64,3.37,3.37,0,0,1-4.51-4.51,3.2,3.2,0,0,1,2.64-1.77,2.78,2.78,0,0,1,2,.61C114.15,294.08,114.24,294.34,114.18,294.4Z"/><path class="cls-13" d="M121.85,292.69c-.13.15-.74-.32-1.59-.08a1.54,1.54,0,0,0-1,.9,1.37,1.37,0,0,0,1.78,1.78,1.51,1.51,0,0,0,.91-1c.23-.86-.23-1.47-.08-1.59s.27,0,.53.24a2,2,0,0,1,.51,1.48,2.4,2.4,0,0,1-1.33,2,2.58,2.58,0,0,1-3.47-3.46,2.43,2.43,0,0,1,2-1.33,2,2,0,0,1,1.47.51C121.87,292.42,121.91,292.62,121.85,292.69Z"/><circle class="cls-13" cx="119.82" cy="303.94" r="1.4"/><path class="cls-13" d="M365.19,35.53c-.21,0-.25-1.07-1.38-1.81a2.31,2.31,0,0,0-2.1-.19,2.15,2.15,0,0,0,0,4,2.31,2.31,0,0,0,2.1-.19c1.13-.73,1.17-1.84,1.38-1.8s.2.25.17.74a2.73,2.73,0,0,1-1,1.83,3.21,3.21,0,0,1-3.12.61,3.36,3.36,0,0,1,0-6.37,3.21,3.21,0,0,1,3.12.61,2.75,2.75,0,0,1,1,1.84C365.39,35.28,365.27,35.53,365.19,35.53Z"/><path class="cls-13" d="M371.83,39.74c-.21,0-.31-.74-1.08-1.18a1.5,1.5,0,0,0-1.36-.08,1.37,1.37,0,0,0,0,2.52,1.53,1.53,0,0,0,1.36-.08c.77-.44.87-1.2,1.08-1.18s.2.18.19.55a2,2,0,0,1-.68,1.41,2.45,2.45,0,0,1-2.38.49,2.58,2.58,0,0,1,0-4.9,2.42,2.42,0,0,1,2.38.49,2,2,0,0,1,.68,1.41C372,39.56,371.91,39.74,371.83,39.74Z"/><path class="cls-13" d="M363.83,46.26a1.4,1.4,0,1,1-1.4-1.4A1.4,1.4,0,0,1,363.83,46.26Z"/><path class="cls-13" d="M412.51,130.08c-.21,0-.25-1.06-1.38-1.8a2.31,2.31,0,0,0-2.1-.19,2.16,2.16,0,0,0,0,4,2.31,2.31,0,0,0,2.1-.19c1.13-.74,1.17-1.84,1.38-1.81s.2.25.17.74a2.73,2.73,0,0,1-1,1.84,3.21,3.21,0,0,1-3.12.61,3.36,3.36,0,0,1,0-6.37,3.21,3.21,0,0,1,3.12.61,2.73,2.73,0,0,1,1,1.84C412.71,129.84,412.6,130.09,412.51,130.08Z"/><path class="cls-13" d="M419.15,134.3c-.2,0-.3-.75-1.08-1.19a1.51,1.51,0,0,0-1.35-.07,1.38,1.38,0,0,0-.84,1.26,1.4,1.4,0,0,0,.84,1.26,1.55,1.55,0,0,0,1.35-.08c.78-.44.88-1.2,1.08-1.18s.2.18.19.54a2,2,0,0,1-.68,1.41,2.43,2.43,0,0,1-2.38.5,2.58,2.58,0,0,1,0-4.9,2.42,2.42,0,0,1,2.38.49,2,2,0,0,1,.68,1.41C419.35,134.12,419.23,134.3,419.15,134.3Z"/><path class="cls-13" d="M411.15,140.82a1.4,1.4,0,1,1-1.4-1.4A1.4,1.4,0,0,1,411.15,140.82Z"/><ellipse cx="135.89" cy="79.75" rx="0.69" ry="4.8"/><path d="M133.18,82.46c-.27-.27.72-1.7,2.22-3.19s2.93-2.5,3.2-2.23-.73,1.7-2.23,3.2S133.44,82.73,133.18,82.46Z"/><path d="M138.6,82.46c-.27.27-1.7-.72-3.2-2.22s-2.49-2.93-2.22-3.2,1.7.73,3.19,2.23S138.87,82.19,138.6,82.46Z"/><ellipse cx="135.89" cy="79.75" rx="4.8" ry="0.69"/><ellipse cx="34.91" cy="182.47" rx="0.69" ry="4.8"/><path d="M32.2,185.18c-.27-.27.73-1.7,2.22-3.2s2.93-2.5,3.2-2.23-.73,1.7-2.22,3.2S32.47,185.45,32.2,185.18Z"/><path d="M37.62,185.18c-.27.27-1.7-.73-3.2-2.23s-2.49-2.93-2.22-3.2,1.7.73,3.2,2.23S37.89,184.91,37.62,185.18Z"/><ellipse cx="34.91" cy="182.47" rx="4.8" ry="0.69"/><ellipse cx="170.15" cy="372.33" rx="0.69" ry="4.8"/><path d="M167.44,375c-.27-.27.73-1.7,2.22-3.2s2.93-2.49,3.2-2.22-.73,1.7-2.22,3.2S167.71,375.31,167.44,375Z"/><path d="M172.86,375c-.27.27-1.7-.73-3.2-2.22s-2.49-2.93-2.22-3.2,1.7.73,3.2,2.22S173.13,374.77,172.86,375Z"/><ellipse cx="170.15" cy="372.33" rx="4.8" ry="0.69"/><ellipse cx="55.94" cy="250.87" rx="0.69" ry="4.8"/><path d="M53.23,253.58c-.27-.27.73-1.7,2.22-3.2s2.93-2.49,3.2-2.23-.73,1.7-2.22,3.2S53.5,253.85,53.23,253.58Z"/><path d="M58.65,253.58c-.27.27-1.7-.73-3.2-2.23s-2.49-2.93-2.22-3.2,1.7.73,3.2,2.23S58.92,253.31,58.65,253.58Z"/><ellipse cx="55.94" cy="250.87" rx="4.8" ry="0.69"/><ellipse cx="411.5" cy="210.15" rx="0.69" ry="4.8"/><path d="M408.79,212.86c-.27-.27.73-1.7,2.22-3.2s2.93-2.49,3.2-2.23-.73,1.7-2.22,3.2S409.06,213.13,408.79,212.86Z"/><path d="M414.21,212.86c-.27.27-1.7-.73-3.2-2.23s-2.49-2.93-2.22-3.2,1.7.73,3.2,2.23S414.48,212.59,414.21,212.86Z"/><ellipse cx="411.5" cy="210.15" rx="4.8" ry="0.69"/><ellipse cx="76.83" cy="72.67" rx="0.69" ry="4.8"/><ellipse cx="76.83" cy="72.67" rx="3.84" ry="0.69" transform="translate(-28.88 75.61) rotate(-45)"/><ellipse cx="76.83" cy="72.67" rx="0.69" ry="3.84" transform="translate(-28.88 75.61) rotate(-45)"/><ellipse cx="76.83" cy="72.67" rx="4.8" ry="0.69"/><ellipse class="cls-13" cx="428.23" cy="104.21" rx="0.69" ry="4.8"/><path class="cls-13" d="M425.52,106.93c-.27-.27.72-1.71,2.22-3.2s2.93-2.5,3.2-2.23-.73,1.7-2.23,3.2S425.78,107.19,425.52,106.93Z"/><path class="cls-13" d="M430.94,106.93c-.27.26-1.7-.73-3.2-2.23s-2.49-2.93-2.22-3.2,1.7.73,3.19,2.23S431.21,106.66,430.94,106.93Z"/><ellipse class="cls-13" cx="428.23" cy="104.21" rx="4.8" ry="0.69"/><ellipse cx="295.48" cy="64.6" rx="0.69" ry="4.8"/><path d="M292.77,67.31c-.27-.27.73-1.7,2.23-3.2s2.93-2.49,3.19-2.22-.72,1.7-2.22,3.19S293,67.58,292.77,67.31Z"/><path d="M298.19,67.31c-.26.27-1.7-.73-3.19-2.23s-2.5-2.93-2.23-3.19,1.7.72,3.2,2.22S298.46,67,298.19,67.31Z"/><ellipse cx="295.48" cy="64.6" rx="4.8" ry="0.69"/><ellipse cx="116" cy="130.08" rx="0.69" ry="4.8"/><ellipse cx="116" cy="130.08" rx="4.8" ry="0.69"/><ellipse cx="54.84" cy="311.79" rx="0.69" ry="4.8"/><ellipse cx="54.84" cy="311.79" rx="4.8" ry="0.69"/><ellipse cx="70.46" cy="248.15" rx="0.69" ry="4.8"/><ellipse cx="70.46" cy="248.15" rx="4.8" ry="0.69"/><ellipse cx="80.18" cy="191.89" rx="0.69" ry="4.8"/><ellipse cx="80.18" cy="191.89" rx="4.8" ry="0.69"/><ellipse cx="449.63" cy="187.27" rx="0.69" ry="4.8"/><ellipse cx="449.63" cy="187.27" rx="4.8" ry="0.69"/><path class="cls-14" d="M239.9,47.87a2.76,2.76,0,1,1-2.76-2.76A2.76,2.76,0,0,1,239.9,47.87Z"/><path d="M239.9,47.87c-.22,0-.25-1.07-1.39-1.81a2.3,2.3,0,0,0-2.09-.19,2.15,2.15,0,0,0,0,4,2.3,2.3,0,0,0,2.09-.19c1.14-.73,1.17-1.84,1.39-1.8s.2.25.17.73a2.75,2.75,0,0,1-1,1.84,3.2,3.2,0,0,1-3.12.61,3.36,3.36,0,0,1,0-6.37,3.2,3.2,0,0,1,3.12.61,2.77,2.77,0,0,1,1,1.84C240.1,47.62,240,47.87,239.9,47.87Z"/><path class="cls-15" d="M212.6,47.61a2.76,2.76,0,1,1-2.76-2.76A2.75,2.75,0,0,1,212.6,47.61Z"/><path d="M212.6,47.61c-.21,0-.25-1.07-1.38-1.81a2.31,2.31,0,0,0-2.1-.19,2.16,2.16,0,0,0,0,4,2.31,2.31,0,0,0,2.1-.19c1.13-.73,1.17-1.84,1.38-1.8s.2.25.17.74a2.73,2.73,0,0,1-1,1.83,3.21,3.21,0,0,1-3.12.61,3.36,3.36,0,0,1,0-6.37,3.21,3.21,0,0,1,3.12.61,2.75,2.75,0,0,1,1,1.84C212.8,47.36,212.69,47.61,212.6,47.61Z"/><path class="cls-16" d="M220.27,13.75A2.76,2.76,0,1,1,217.51,11,2.76,2.76,0,0,1,220.27,13.75Z"/><path d="M220.27,13.75c-.21,0-.25-1.07-1.38-1.8a2.31,2.31,0,0,0-2.1-.19,2.14,2.14,0,0,0,0,4,2.31,2.31,0,0,0,2.1-.19c1.13-.73,1.17-1.84,1.38-1.8s.2.25.17.74a2.75,2.75,0,0,1-1,1.84,3.21,3.21,0,0,1-3.12.6,3.35,3.35,0,0,1,0-6.36,3.21,3.21,0,0,1,3.12.6,2.75,2.75,0,0,1,1,1.84C220.47,13.5,220.35,13.75,220.27,13.75Z"/><path class="cls-17" d="M220,33.43a2.76,2.76,0,1,1,2.76,2.76A2.75,2.75,0,0,1,220,33.43Z"/><path d="M220,33.43c.21,0,.25,1.07,1.38,1.81a2.31,2.31,0,0,0,2.1.18,2.15,2.15,0,0,0,0-4,2.31,2.31,0,0,0-2.1.19c-1.13.73-1.17,1.84-1.38,1.8s-.2-.25-.17-.74a2.77,2.77,0,0,1,1-1.84,3.21,3.21,0,0,1,3.12-.6,3.36,3.36,0,0,1,0,6.37,3.23,3.23,0,0,1-3.12-.61,2.75,2.75,0,0,1-1-1.84C219.84,33.68,220,33.43,220,33.43Z"/><circle class="cls-13" cx="239.17" cy="19" r="1.4"/><path d="M215.83,17.6c.11,0-.3,1.42-.76,4a62.14,62.14,0,0,0-.92,10.92,55.93,55.93,0,0,0,2.15,16A26.63,26.63,0,0,0,218,52.77a10.05,10.05,0,0,0,2.85,3.57,3.41,3.41,0,0,0,2,.64,3.45,3.45,0,0,0,2-.76,11,11,0,0,0,2.92-3.93,36.14,36.14,0,0,0,2.81-9.75A60.73,60.73,0,0,0,231.3,33a52.08,52.08,0,0,0-2.25-16,18.44,18.44,0,0,0-2.71-5.48,4.84,4.84,0,0,0-3.67-2.23,4.5,4.5,0,0,0-2.62,1c-.54.41-.79.67-.83.63s.15-.35.65-.84a4.46,4.46,0,0,1,2.77-1.35,4.12,4.12,0,0,1,2.25.52,7.59,7.59,0,0,1,2.05,1.75,18.67,18.67,0,0,1,3,5.65A50.87,50.87,0,0,1,232.57,33a61.06,61.06,0,0,1-.66,9.75A36.63,36.63,0,0,1,229,52.89a11.9,11.9,0,0,1-3.34,4.43,4.81,4.81,0,0,1-2.77,1,4.74,4.74,0,0,1-2.77-.89,11,11,0,0,1-3.25-4.07,26.65,26.65,0,0,1-1.78-4.52,54.32,54.32,0,0,1-1.92-16.38,53.65,53.65,0,0,1,1.38-11,27.75,27.75,0,0,1,.85-2.9A3,3,0,0,1,215.83,17.6Z"/><path d="M240.56,47.61c0-.06.34-.15,1-.43a4.27,4.27,0,0,0,2.12-1.85,5.14,5.14,0,0,0-.25-4.33,19.79,19.79,0,0,0-3.47-5.07A53,53,0,0,0,227.11,26a61.34,61.34,0,0,0-8.66-4.12,34.77,34.77,0,0,0-9.89-2.34,9.78,9.78,0,0,0-4.82.71A3.2,3.2,0,0,0,202,23.85a10.78,10.78,0,0,0,1.83,4.24,26.34,26.34,0,0,0,2.9,3.61,56.66,56.66,0,0,0,12.9,9.8,61.4,61.4,0,0,0,10,4.59c2.46.86,3.87,1.17,3.85,1.28a3.16,3.16,0,0,1-1.06-.09,29.43,29.43,0,0,1-2.95-.68,51.94,51.94,0,0,1-10.3-4.25,54.55,54.55,0,0,1-13.34-9.78,27.3,27.3,0,0,1-3.09-3.75A12,12,0,0,1,200.65,24a4.88,4.88,0,0,1,.36-2.87,4.5,4.5,0,0,1,2.1-2.1,11.17,11.17,0,0,1,5.52-.88,35.47,35.47,0,0,1,10.3,2.47,60.11,60.11,0,0,1,8.82,4.27,51.85,51.85,0,0,1,12.9,10.36,19.79,19.79,0,0,1,3.45,5.42,5.63,5.63,0,0,1,0,4.89,4.29,4.29,0,0,1-2.48,1.84A2.27,2.27,0,0,1,240.56,47.61Z"/><path d="M235.64,19c0,.21-2.89.6-7.28,2.27a66.7,66.7,0,0,0-16,8.84,44,44,0,0,0-7.34,6.79,19.26,19.26,0,0,0-2.4,3.57,7,7,0,0,0-.89,3.44A3.2,3.2,0,0,0,203,46.34a6,6,0,0,0,2,1,14.46,14.46,0,0,1,2,.52,4,4,0,0,1-2.1,0,6.07,6.07,0,0,1-2.37-.9,4.26,4.26,0,0,1-1.16-1.19,4.32,4.32,0,0,1-.6-1.78,7.78,7.78,0,0,1,.83-4,19.44,19.44,0,0,1,2.44-3.86,41.57,41.57,0,0,1,7.5-7.1A57.74,57.74,0,0,1,228,20.35C232.61,18.88,235.63,18.83,235.64,19Z"/><path d="M212.6,47.27c0-.2,2.48-.82,6.33-2.45A69.73,69.73,0,0,0,233,36.75a48.25,48.25,0,0,0,6.65-5.91,18.21,18.21,0,0,0,3.9-5.95,5.18,5.18,0,0,0,.29-2.57,3.24,3.24,0,0,0-.84-1.73c-.77-.8-1.42-1-1.36-1.15s.73,0,1.73.76a3.69,3.69,0,0,1,1.22,1.95,5.69,5.69,0,0,1-.11,3,17.88,17.88,0,0,1-3.88,6.51,43,43,0,0,1-6.78,6.17,57.75,57.75,0,0,1-14.56,7.88C215.27,47.16,212.63,47.44,212.6,47.27Z"/><path class="cls-18" d="M192.53,428.23a2.76,2.76,0,1,1-2.75-2.76A2.76,2.76,0,0,1,192.53,428.23Z"/><path d="M192.53,428.23c-.21,0-.25-1.07-1.38-1.8a2.31,2.31,0,0,0-2.1-.19,2.15,2.15,0,0,0,0,4,2.31,2.31,0,0,0,2.1-.19c1.13-.73,1.17-1.84,1.38-1.8s.21.25.18.74a2.82,2.82,0,0,1-1,1.84,3.21,3.21,0,0,1-3.12.6,3.35,3.35,0,0,1,0-6.36,3.21,3.21,0,0,1,3.12.6,2.84,2.84,0,0,1,1,1.84C192.74,428,192.62,428.23,192.53,428.23Z"/><path class="cls-19" d="M165.24,428a2.76,2.76,0,1,1-2.76-2.75A2.77,2.77,0,0,1,165.24,428Z"/><path d="M165.24,428c-.22,0-.25-1.07-1.39-1.8a2.3,2.3,0,0,0-2.09-.19,2.14,2.14,0,0,0,0,4,2.3,2.3,0,0,0,2.09-.18c1.14-.74,1.17-1.84,1.39-1.81s.2.25.17.74a2.77,2.77,0,0,1-1,1.84,3.22,3.22,0,0,1-3.11.61,3.36,3.36,0,0,1,0-6.37,3.19,3.19,0,0,1,3.11.6,2.79,2.79,0,0,1,1,1.84C165.44,427.72,165.32,428,165.24,428Z"/><path class="cls-20" d="M172.91,394.11a2.76,2.76,0,1,1-2.76-2.75A2.76,2.76,0,0,1,172.91,394.11Z"/><path d="M172.91,394.11c-.22,0-.25-1.07-1.39-1.8a2.3,2.3,0,0,0-2.09-.19,2.15,2.15,0,0,0,0,4,2.3,2.3,0,0,0,2.09-.19c1.14-.74,1.17-1.84,1.39-1.81s.2.25.17.74a2.77,2.77,0,0,1-1,1.84,3.2,3.2,0,0,1-3.12.61,3.36,3.36,0,0,1,0-6.37,3.2,3.2,0,0,1,3.12.61,2.75,2.75,0,0,1,1,1.84C173.11,393.87,173,394.12,172.91,394.11Z"/><path class="cls-21" d="M172.68,413.8a2.76,2.76,0,1,1,2.75,2.75A2.75,2.75,0,0,1,172.68,413.8Z"/><path d="M172.68,413.8c.21,0,.25,1.06,1.38,1.8a2.31,2.31,0,0,0,2.1.19,2.16,2.16,0,0,0,0-4,2.31,2.31,0,0,0-2.1.19c-1.13.74-1.17,1.84-1.38,1.81s-.21-.25-.18-.74a2.75,2.75,0,0,1,1-1.84,3.2,3.2,0,0,1,3.12-.61,3.36,3.36,0,0,1,0,6.37,3.2,3.2,0,0,1-3.12-.61,2.75,2.75,0,0,1-1-1.84C172.47,414,172.59,413.79,172.68,413.8Z"/><circle class="cls-13" cx="191.8" cy="399.36" r="1.4"/><path d="M168.47,398c.1,0-.3,1.42-.76,4a61.87,61.87,0,0,0-.93,10.92,56,56,0,0,0,2.16,16,25.14,25.14,0,0,0,1.73,4.27,9.84,9.84,0,0,0,2.85,3.57,3.42,3.42,0,0,0,2,.65,3.56,3.56,0,0,0,2-.76,10.85,10.85,0,0,0,2.92-3.93,35.9,35.9,0,0,0,2.82-9.75,62.08,62.08,0,0,0,.72-9.54,52.32,52.32,0,0,0-2.25-16,18.51,18.51,0,0,0-2.71-5.49,4.79,4.79,0,0,0-3.68-2.22,4.49,4.49,0,0,0-2.61,1,6.58,6.58,0,0,1-.83.64s.15-.35.65-.85a4.48,4.48,0,0,1,2.77-1.35,4.13,4.13,0,0,1,2.25.53,7.25,7.25,0,0,1,2.05,1.75,18.65,18.65,0,0,1,3,5.65,51.06,51.06,0,0,1,2.6,16.29,60.94,60.94,0,0,1-.66,9.74,36.6,36.6,0,0,1-2.91,10.15,12.2,12.2,0,0,1-3.34,4.43,4.82,4.82,0,0,1-2.77,1,4.72,4.72,0,0,1-2.77-.89,11.14,11.14,0,0,1-3.26-4.07,26.82,26.82,0,0,1-1.77-4.51,54.07,54.07,0,0,1-1.92-16.39,52.08,52.08,0,0,1,1.38-11,30.14,30.14,0,0,1,.84-2.9A3.24,3.24,0,0,1,168.47,398Z"/><path d="M193.2,428a6,6,0,0,1,1-.43,4.23,4.23,0,0,0,2.11-1.84,5.1,5.1,0,0,0-.25-4.33,19.37,19.37,0,0,0-3.47-5.07,52.93,52.93,0,0,0-12.8-9.91,60.23,60.23,0,0,0-8.66-4.11,34.93,34.93,0,0,0-9.9-2.35,9.85,9.85,0,0,0-4.81.72,3.17,3.17,0,0,0-1.76,3.57,11,11,0,0,0,1.82,4.24,27.74,27.74,0,0,0,2.91,3.6,56.51,56.51,0,0,0,12.9,9.81,62.07,62.07,0,0,0,10,4.58c2.46.86,3.87,1.18,3.85,1.28a2.86,2.86,0,0,1-1.06-.09,26.85,26.85,0,0,1-2.95-.68,52.41,52.41,0,0,1-10.3-4.24,55.11,55.11,0,0,1-13.35-9.78,28.63,28.63,0,0,1-3.08-3.75,12.21,12.21,0,0,1-2.07-4.79,5.06,5.06,0,0,1,.36-2.87,4.57,4.57,0,0,1,2.11-2.1,11,11,0,0,1,5.52-.87,35.46,35.46,0,0,1,10.3,2.46,61.13,61.13,0,0,1,8.82,4.27,51.6,51.6,0,0,1,12.89,10.36,19.73,19.73,0,0,1,3.46,5.43,5.61,5.61,0,0,1,0,4.88,4.29,4.29,0,0,1-2.48,1.84A2.27,2.27,0,0,1,193.2,428Z"/><path d="M188.27,399.36c0,.21-2.88.6-7.27,2.28a67,67,0,0,0-16,8.83,43.58,43.58,0,0,0-7.33,6.8,19.27,19.27,0,0,0-2.41,3.56,7.14,7.14,0,0,0-.89,3.44,3.24,3.24,0,0,0,1.26,2.43,5.79,5.79,0,0,0,2,1,12.84,12.84,0,0,1,2,.52,4.11,4.11,0,0,1-2.1,0,5.92,5.92,0,0,1-2.37-.9,4.08,4.08,0,0,1-1.16-1.18,4.23,4.23,0,0,1-.6-1.78,7.77,7.77,0,0,1,.82-4,19.86,19.86,0,0,1,2.45-3.87,41.24,41.24,0,0,1,7.5-7.1,57.68,57.68,0,0,1,16.48-8.65C185.25,399.24,188.27,399.19,188.27,399.36Z"/><path d="M165.24,427.64c-.05-.21,2.48-.82,6.32-2.46a69.5,69.5,0,0,0,14.1-8.07,47.6,47.6,0,0,0,6.65-5.91,18.45,18.45,0,0,0,3.9-5.94,5.34,5.34,0,0,0,.29-2.58,3.43,3.43,0,0,0-.84-1.73c-.77-.8-1.42-1-1.37-1.14s.73,0,1.73.75a3.64,3.64,0,0,1,1.23,1.95,5.83,5.83,0,0,1-.11,3,17.85,17.85,0,0,1-3.88,6.5,44,44,0,0,1-6.78,6.18,58,58,0,0,1-14.56,7.87C167.91,427.52,165.26,427.81,165.24,427.64Z"/><path class="cls-13" d="M243.6,72.42a1.39,1.39,0,1,1,0-2A1.38,1.38,0,0,1,243.6,72.42Z"/><circle class="cls-13" cx="248.1" cy="76.92" r="1.4"/><circle class="cls-13" cx="242.22" cy="77.32" r="1.4"/><circle class="cls-13" cx="238.03" cy="81.52" r="1.4"/><path d="M272.13,44.82c-.23.23-2.43-1.6-5.23-4.28l1-.09-1.32,1.94L265,44.57l-.07-.84c2.55,2.67,4.27,4.76,4.05,5s-2.3-1.5-5-4.05l-.39-.38.32-.46c.48-.72,1-1.46,1.51-2.22l1.36-1.91.47-.66.54.57C270.52,42.39,272.35,44.6,272.13,44.82Z"/><path d="M270.84,50.54c.22-.22,2.3,1.49,5,4l-.84-.07L277.15,53l1.93-1.33-.08,1c-2.68-2.79-4.5-5-4.28-5.21s2.43,1.6,5.21,4.27l.57.55-.65.47-1.91,1.36-2.21,1.52-.47.32-.37-.4C272.33,52.84,270.62,50.76,270.84,50.54Z"/><path class="cls-22" d="M272.13,44.82l-4.76-4.75c2.53-3.62,6.57-9.42,11.48-16.57a16.28,16.28,0,0,1,11.83-7,27,27,0,0,1,11.24,1.12A27.21,27.21,0,0,1,303,28.86a16.32,16.32,0,0,1-7,11.83c-7.14,4.9-12.94,8.94-16.56,11.47l-4.75-4.74"/><path d="M274.72,47.42a6.5,6.5,0,0,1,1.36,1.11c.85.77,2.08,1.92,3.62,3.4l-.43,0c3.63-2.65,9-6.43,15.37-11A27.81,27.81,0,0,0,297,39.17a15.07,15.07,0,0,0,4.86-7.76,24.89,24.89,0,0,0-.59-13.56l.41.42h0a24.85,24.85,0,0,0-13.55-.59,15.7,15.7,0,0,0-5.61,2.78,14.61,14.61,0,0,0-2.15,2.08,27.91,27.91,0,0,0-1.77,2.36c-4.52,6.42-8.31,11.73-11,15.36l0-.43c1.48,1.55,2.63,2.78,3.4,3.63a7.2,7.2,0,0,1,1.12,1.36c-.05,0-.52-.34-1.37-1.11s-2.08-1.92-3.62-3.4l-.2-.19.16-.24c2.47-3.75,6.11-9.17,10.53-15.65.55-.8,1.11-1.67,1.8-2.49a16.21,16.21,0,0,1,8.35-5.33,25.75,25.75,0,0,1,14.36.56h0l.41.42a28.42,28.42,0,0,1,1.31,7.3,22.49,22.49,0,0,1-.74,7.07,16.82,16.82,0,0,1-3.06,6,16.61,16.61,0,0,1-2.28,2.31c-.81.69-1.68,1.24-2.48,1.8-6.49,4.42-11.9,8.06-15.65,10.53l-.24.16-.19-.2c-1.48-1.54-2.63-2.77-3.4-3.62A7.34,7.34,0,0,1,274.72,47.42Z"/><path d="M267.37,40.08c-.13.14-1-.74-2.86-1.54a11.68,11.68,0,0,0-3.43-.76,12.61,12.61,0,0,0-4.34.54l-2.45.78L256,37.26l1.48-1.57c.51-.52,1.09-1,1.65-1.51a22.64,22.64,0,0,1,5.43-3.35,17,17,0,0,1,5-1.31c3-.3,4.79.34,4.73.52s-1.81-.08-4.59.44A21.46,21.46,0,0,0,260,35.24c-.53.49-1.09.93-1.58,1.43L257,38.13l-.72-1.06a11.53,11.53,0,0,1,8.57.72C266.76,38.88,267.46,40,267.37,40.08Z"/><path d="M279.6,52.3c.06-.09,1.19.61,2.29,2.51a11.46,11.46,0,0,1,.71,8.56l-1.06-.71L283,61.23c.49-.5.94-1.06,1.43-1.59a21.52,21.52,0,0,0,4.76-9.73c.51-2.77.25-4.55.44-4.58s.81,1.74.52,4.72a16.92,16.92,0,0,1-1.32,5,22.44,22.44,0,0,1-3.35,5.43c-.51.56-1,1.15-1.51,1.66l-1.56,1.47-1.85,1.74.78-2.45a12.43,12.43,0,0,0,.54-4.35,10.94,10.94,0,0,0-.76-3.42C280.33,53.34,279.45,52.44,279.6,52.3Z"/><path d="M274.72,47.42c-.1-.1.62-.89,1.74-2.34a28.27,28.27,0,0,0,1.87-2.69,18.73,18.73,0,0,0,1.8-3.73l.75.75a23.61,23.61,0,0,0-8,5.6,36.16,36.16,0,0,0-6,8.4l-.79-.79c5.43-2.57,8.41-5.42,8.59-5.2s-2.57,3.38-8.07,6.26l-1.56.81.77-1.61a33.16,33.16,0,0,1,6.06-8.83,22.83,22.83,0,0,1,8.61-5.79l1.17-.4L281.28,39a17.68,17.68,0,0,1-2.13,3.92A22.2,22.2,0,0,1,277,45.54C275.69,46.89,274.8,47.5,274.72,47.42Z"/><path d="M246.4,62.17c-.27-.27,3.07-4.05,7.46-8.44S262,46,262.3,46.27s-3.07,4-7.46,8.43S246.67,62.44,246.4,62.17Z"/><ellipse cx="254.32" cy="59.73" rx="11.24" ry="0.69" transform="translate(32.26 197.33) rotate(-45)"/><ellipse cx="265.32" cy="65.19" rx="11.24" ry="0.69" transform="translate(31.62 206.7) rotate(-45)"/><path d="M251.86,73.16c-.27-.27,3.07-4,7.46-8.43s8.17-7.73,8.44-7.47-3.08,4.05-7.47,8.44S252.13,73.43,251.86,73.16Z"/><path d="M246.35,73.19c-.27-.27,3.07-4,7.46-8.44S262,57,262.25,57.29s-3.08,4.05-7.47,8.44S246.62,73.46,246.35,73.19Z"/><path d="M292.91,33.23c-.08-.08.18-.41.47-1a4.67,4.67,0,0,0,.37-2.81,4.24,4.24,0,0,0-2.43-3.09A4.06,4.06,0,0,0,286,31.63a4.21,4.21,0,0,0,3.09,2.43,4.68,4.68,0,0,0,2.81-.36c.64-.3,1-.55,1.05-.47s-.15.44-.77.93a4.68,4.68,0,0,1-3.22.87,5.18,5.18,0,0,1-4.58-5.91,5.25,5.25,0,0,1,4.46-4.46,5.16,5.16,0,0,1,5.91,4.58,4.68,4.68,0,0,1-.87,3.22C293.36,33.08,293,33.28,292.91,33.23Z"/><path d="M303,28.86a6.34,6.34,0,0,1-.1-.88c0-.46,0-1.3-.09-2.27a31.19,31.19,0,0,0-1.51-7.88l.37.37A28.72,28.72,0,0,0,292.9,17c-.73,0-1.44.09-2.13.16l.57-.84a17.07,17.07,0,0,0,3,6.2,17.74,17.74,0,0,0,4.09,3.86,20.19,20.19,0,0,0,3.34,1.82c.41.19.75.32.91.42a1.69,1.69,0,0,1,.36.23s-.07,0-.34,0a6.68,6.68,0,0,1-1.1-.2,14.55,14.55,0,0,1-3.66-1.52,16.76,16.76,0,0,1-4.55-3.88A17,17,0,0,1,290,16.66l-.2-.75.77-.09c.75-.09,1.5-.15,2.27-.18a26.93,26.93,0,0,1,9.26,1.4l.29.1.09.27a25.7,25.7,0,0,1,1.09,8.29,16.06,16.06,0,0,1-.28,2.39C303.16,28.69,303.07,28.91,303,28.86Z"/><path class="cls-23" d="M334.1,71.49s-.19-.48.74-4.6c.85-3.78,7.36-8,7.36-14.25S338,40.21,329.68,40.21s-12.52,6.23-12.52,12.43,6.46,10.49,7.36,14.25.74,4.6.74,4.6"/><path d="M325.26,71.49a4.92,4.92,0,0,1-.15-.81c-.1-.53-.27-1.31-.52-2.3-.13-.49-.26-1.07-.46-1.63a7.07,7.07,0,0,0-.88-1.73c-.78-1.18-1.89-2.43-3-3.9a18.54,18.54,0,0,1-3.1-5.34,9.79,9.79,0,0,1-.55-3.49,13,13,0,0,1,.55-3.67,12.45,12.45,0,0,1,4.45-6.56,13,13,0,0,1,3.8-1.92,15.53,15.53,0,0,1,8.62,0,13.07,13.07,0,0,1,3.8,1.92,12.45,12.45,0,0,1,4.45,6.56,13.38,13.38,0,0,1,.55,3.67,9.79,9.79,0,0,1-.55,3.49,18.74,18.74,0,0,1-3.12,5.33c-1.15,1.46-2.25,2.71-3,3.9a7.38,7.38,0,0,0-.87,1.73c-.18.57-.3,1.15-.43,1.64-.25,1-.42,1.77-.53,2.3a5.49,5.49,0,0,1-.16.81c-.15,0-.19-1.18.16-3.22.1-.51.17-1.07.33-1.7a7.42,7.42,0,0,1,.85-2c.76-1.3,1.83-2.61,2.9-4.08a18.44,18.44,0,0,0,2.82-5.1,8.71,8.71,0,0,0,.42-3.11A12.54,12.54,0,0,0,341,49a11.38,11.38,0,0,0-4-5.84,11.63,11.63,0,0,0-3.4-1.69,14.17,14.17,0,0,0-7.82,0,11.89,11.89,0,0,0-3.4,1.69,11.36,11.36,0,0,0-4,5.84,12.15,12.15,0,0,0-.55,3.34,8.68,8.68,0,0,0,.42,3.11,18.07,18.07,0,0,0,2.8,5.11c1.07,1.48,2.13,2.78,2.9,4.08a7.41,7.41,0,0,1,.86,1.95c.18.63.25,1.18.35,1.7C325.48,70.31,325.4,71.51,325.26,71.49Z"/><path d="M325.54,73.85c0,.1-.24.19-.69.27a1.29,1.29,0,0,1-1-.3,1.61,1.61,0,0,1-.58-1.28,1.69,1.69,0,0,1,1-1.49,1.34,1.34,0,0,1,.53-.14l.4,0,.76,0c1,0,2.19-.06,3.39-.06s2.34,0,3.38.06l.77,0,.4,0a1.34,1.34,0,0,1,.52.14,1.65,1.65,0,0,1,1,1.49,1.63,1.63,0,0,1-.57,1.28,1.29,1.29,0,0,1-1,.3q-.69-.12-.69-.27c0-.09.25-.18.67-.27a.83.83,0,0,0,.6-1,.66.66,0,0,0-.43-.51.44.44,0,0,0-.16,0h-.32l-.77,0c-1,0-2.18.06-3.38.06s-2.35,0-3.39-.06l-.76,0h-.32a.41.41,0,0,0-.16,0,.68.68,0,0,0-.44.51.84.84,0,0,0,.6,1C325.29,73.67,325.54,73.76,325.54,73.85Z"/><path d="M333.12,73.85c0-.17.29-.42.85-.22a1.59,1.59,0,0,1,.88,1.91,1.7,1.7,0,0,1-.77,1,1.36,1.36,0,0,1-1,.15c-.39-.12-.63-.29-.63-.48s.24-.36.63-.49a.83.83,0,0,0,.43-.55,1,1,0,0,0-.08-.74C333.33,74.21,333.12,74.05,333.12,73.85Z"/><path d="M326.19,76.22c0,.19-.23.36-.62.48a1.39,1.39,0,0,1-1-.15,1.65,1.65,0,0,1-.76-1,1.59,1.59,0,0,1,.87-1.91c.56-.2.88.05.86.22s-.22.36-.32.59a1,1,0,0,0-.08.74.8.8,0,0,0,.43.55C326,75.86,326.19,76,326.19,76.22Z"/><path d="M332.46,76.22c0-.08.21-.23.64-.11a1.48,1.48,0,0,1,.94,1.53,1.63,1.63,0,0,1-1.46,1.54l-.63,0c-.81,0-1.69.06-2.62.06s-1.82,0-2.62-.06l-.64,0a1.63,1.63,0,0,1-.79-.31,1.69,1.69,0,0,1-.67-1.23,1.49,1.49,0,0,1,.95-1.53c.42-.12.64,0,.63.11s-.19.17-.37.36a.93.93,0,0,0-.24.92.66.66,0,0,0,.34.42.42.42,0,0,0,.24,0l.55,0c.8,0,1.69-.06,2.62-.06s1.81,0,2.62.06l.55,0a.42.42,0,0,0,.24,0,.66.66,0,0,0,.34-.42.93.93,0,0,0-.24-.92C332.65,76.39,332.46,76.32,332.46,76.22Z"/><path d="M327.79,71.33c-.11,0,0-1,0-2.69,0-.86-.15-1.9-.32-3.12s-.34-2.63-.64-4.12A12,12,0,0,0,325,56.91c-.44-.62-1.27-1.13-1.68-.88a.73.73,0,0,0-.36.68,1.15,1.15,0,0,0,.4.9c1.2,1.11,3.58,1,5.29,0a2.92,2.92,0,0,0,1.66-2.1,3.6,3.6,0,0,0-.11-1.43,1.29,1.29,0,0,0-.26-.5.37.37,0,0,0-.58,0,1.29,1.29,0,0,0-.26.5,3.27,3.27,0,0,0-.11,1.43,2.92,2.92,0,0,0,1.66,2.1c1.71,1,4.09,1.11,5.29,0a1.15,1.15,0,0,0,.4-.9A.74.74,0,0,0,336,56c-.4-.25-1.23.26-1.67.88a12,12,0,0,0-1.77,4.49c-.31,1.49-.47,2.89-.64,4.12s-.28,2.26-.32,3.12c-.08,1.72.08,2.67,0,2.69a5.9,5.9,0,0,1-.5-2.69,25.92,25.92,0,0,1,.08-3.2c.11-1.24.2-2.65.45-4.22a12.5,12.5,0,0,1,1.81-5,4.09,4.09,0,0,1,1.18-1.12,2.06,2.06,0,0,1,1.92-.18,2.2,2.2,0,0,1,.36,3.56,4.72,4.72,0,0,1-3.37,1.21,7.34,7.34,0,0,1-3.48-.93,5.62,5.62,0,0,1-1.5-1.19,4.28,4.28,0,0,1-.57-.86,3.41,3.41,0,0,1-.29-1,4.86,4.86,0,0,1,.16-2,2.59,2.59,0,0,1,.57-1,1.8,1.8,0,0,1,1.29-.57,1.76,1.76,0,0,1,1.28.57,2.51,2.51,0,0,1,.58,1,4.86,4.86,0,0,1,.16,2,3.41,3.41,0,0,1-.29,1,4.28,4.28,0,0,1-.57.86,5.62,5.62,0,0,1-1.5,1.19,7.34,7.34,0,0,1-3.48.93,4.7,4.7,0,0,1-3.37-1.21,2.2,2.2,0,0,1,.36-3.56,2.06,2.06,0,0,1,1.92.18A4.09,4.09,0,0,1,326,56.24a12.32,12.32,0,0,1,1.8,5c.26,1.57.35,3,.46,4.22a28.05,28.05,0,0,1,.08,3.2A5.9,5.9,0,0,1,327.79,71.33Z"/><path d="M337.4,78.63a7.71,7.71,0,0,1,.31-1.42l1.12-4,.06-.23.23.08,5.36,1.76-.42.3c-.05-1.71-.11-3.59-.18-5.63v-.4h.4l5.64.06-.41.57-1.89-5.32-.17-.46.48-.15,5.39-1.67-.26.8-3.43-4.48-.35-.45.47-.33q2.25-1.58,4.61-3.25v.94l-4.64-3.2-.51-.36.38-.49q1.65-2.22,3.38-4.51l.32,1-5.41-1.62-.63-.19.22-.63L349.29,40l.63.86-5.64.12h-.69v-.68c0-1.86.07-3.74.1-5.65l.89.65-5.32,1.86-.67.23-.21-.68-1.64-5.39,1.07.34L333.32,35l-.57.43-.41-.59-1.61-2.3-.8-1.16-.41-.58-.2-.29-.1-.15-.05-.07,0,0v0h1.11L327,34.87l-.41.59L326,35l-4.5-3.41,1.07-.34c-.56,1.81-1.1,3.61-1.65,5.39l-.2.68-.67-.23-5.32-1.86.89-.65c0,1.91.06,3.79.1,5.65v.68h-.69l-5.64-.12.63-.86,1.83,5.33.22.63-.63.19-5.41,1.62.31-1,3.39,4.51.38.49-.51.36L305,55.32v-.94l4.61,3.25.46.33-.34.45-3.43,4.48-.26-.8,5.39,1.67.48.15-.17.46-1.89,5.32-.41-.57,5.64-.06h.4l0,.4c-.06,2-.12,3.92-.17,5.63l-.42-.3L320.24,73l.23-.08.06.23c.48,1.73.85,3.08,1.11,4a6,6,0,0,1,.31,1.42,7.42,7.42,0,0,1-.53-1.35l-1.32-4,.29.14-5.3,1.94-.42.15v-.46c0-1.71,0-3.59,0-5.64l.39.39-5.64.16-.61,0,.2-.59,1.8-5.35.31.61-5.41-1.6-.7-.21.44-.59c1.1-1.46,2.22-3,3.38-4.52l.13.78-4.65-3.21-.67-.46.67-.48L309,51.14l-.14.85-3.42-4.49-.53-.7.84-.26,5.4-1.66-.42.82-1.86-5.33-.31-.88.94,0,5.64.1-.68.67q-.06-2.79-.12-5.64l0-1,.91.31,5.34,1.85-.87.44,1.63-5.4.28-.94.79.59c1.48,1.13,3,2.26,4.5,3.4l-1,.16C327,32.56,328,31,329.12,29.46h1.14v0l0,0,0,.08.11.14.2.29.4.58.81,1.16,1.61,2.31-1-.16,4.5-3.4.78-.59.29.94c.55,1.81,1.09,3.62,1.63,5.4l-.87-.44L344.15,34l.91-.31,0,1q-.06,2.85-.12,5.64l-.67-.67,5.64-.1.93,0-.3.88-1.86,5.33-.42-.82,5.39,1.66.85.26-.53.7c-1.16,1.52-2.31,3-3.42,4.49l-.14-.85L355,54.38l.67.48-.67.46-4.65,3.21.13-.78,3.37,4.52.45.59-.71.21-5.4,1.6.31-.61,1.8,5.35.2.59-.61,0-5.64-.16.38-.39c0,2,0,3.93.05,5.64v.46l-.42-.15L339,73.45l.29-.15c-.57,1.7-1,3-1.32,4A6.89,6.89,0,0,1,337.4,78.63Z"/><path d="M415.71,109.7a6.94,6.94,0,0,0,1.92-.59,4.45,4.45,0,0,0,1.7-1.64,4.08,4.08,0,0,0,.52-1.41,9.88,9.88,0,0,0,0-1.75c0-5.15-.13-12.53-.22-21.63,0-2.28,0-4.68,0-7.17,0-1.24,0-2.51,0-3.81a5.91,5.91,0,0,0-.18-1.78,3.9,3.9,0,0,0-.88-1.49,3.73,3.73,0,0,0-1.45-1,4.42,4.42,0,0,0-1.82-.25h-4.22l-8.82,0L363,67.3a3.78,3.78,0,0,0-3.47,2.28,4.27,4.27,0,0,0-.27,1,11.27,11.27,0,0,0,0,1.2v2.56q0,5.08,0,10c0,6.57,0,12.9,0,18.94,0,.73,0,1.55,0,2.2a3.67,3.67,0,0,0,.6,1.79,3.85,3.85,0,0,0,3.15,1.75l8.31,0,14.94.08,21.62.22,5.88.13a10.5,10.5,0,0,1,2,.14,11.63,11.63,0,0,1-2,.14l-5.88.13-21.62.21-14.94.09-8.33,0a5.07,5.07,0,0,1-4.17-2.28,5,5,0,0,1-.81-2.37c-.05-.84,0-1.52,0-2.3,0-6,0-12.37,0-18.94,0-3.29,0-6.63,0-10V71.83a12.88,12.88,0,0,1,0-1.36,5.5,5.5,0,0,1,.38-1.43A5.16,5.16,0,0,1,363,65.92l39.28,0,8.82,0,4.22,0a5.68,5.68,0,0,1,2.24.35,5,5,0,0,1,1.87,1.29,5.13,5.13,0,0,1,1.11,1.93,6.87,6.87,0,0,1,.21,2.11c0,1.3,0,2.57,0,3.81,0,2.49,0,4.89-.05,7.17-.09,9.1-.16,16.48-.22,21.63a9.33,9.33,0,0,1-.12,1.84,4.4,4.4,0,0,1-.63,1.53,4.47,4.47,0,0,1-1.93,1.67,4.38,4.38,0,0,1-1.51.39A1.56,1.56,0,0,1,415.71,109.7Z"/><rect class="cls-24" x="361.14" y="70.15" width="56.39" height="36"/><path d="M417.54,106.15a24.62,24.62,0,0,1-.12-2.65c0-1.72-.08-4.18-.14-7.3-.1-6.29-.23-15.22-.29-26l.55.55-26.09.1-14.73,0H361.16c.3-.31-.7.69.67-.69,0,12.77,0,24.93-.05,36l-.64-.63c16.44,0,30.44.19,40.42.31l11.69.17,3.15.08a8.19,8.19,0,0,1,1.14.07,4.34,4.34,0,0,1-1,.08l-3,.07-11.54.17c-9.94.13-24.13.26-40.84.32h-.63v-.64c0-11.07,0-23.23-.05-36,1.37-1.37.39-.38.7-.68h15.56l14.73,0,26.09.11h.54v.54c-.06,11.07-.19,20.14-.29,26.38-.05,3.08-.1,5.49-.13,7.18A20.17,20.17,0,0,1,417.54,106.15Z"/><path d="M406.86,121c-.06,0-.06-.22-.39-.43a5.21,5.21,0,0,0-1.61-.62,41.75,41.75,0,0,0-6.57-.92l-.37,0v-.38c0-2.56-.08-5.55-.13-8.9l.55.55-18,.12.67-.67c0,2.88,0,5.85,0,8.9v.62l-.62.06-.22,0c-1.53.15-3.05.34-4.5.63a16.37,16.37,0,0,0-2.09.55,4.23,4.23,0,0,0-.88.38,1,1,0,0,0-.22.18s0,0,0,0a.13.13,0,0,1,0-.06.06.06,0,0,0,0,0,1.79,1.79,0,0,0,.52.34,6.27,6.27,0,0,0,.92.35,19,19,0,0,0,2,.5c1.35.26,2.71.45,4,.59a107.37,107.37,0,0,0,14.24.47,63.18,63.18,0,0,0,9.56-.88,10.56,10.56,0,0,0,2.46-.73,1.36,1.36,0,0,0,.62-.57s.06.09,0,.25a1.25,1.25,0,0,1-.48.56,8.46,8.46,0,0,1-2.48,1,51.64,51.64,0,0,1-9.64,1.33,96.72,96.72,0,0,1-14.41-.18c-1.36-.13-2.74-.3-4.16-.56a19.88,19.88,0,0,1-2.16-.52,7.41,7.41,0,0,1-1.1-.41,3.86,3.86,0,0,1-.58-.33,1.73,1.73,0,0,1-.59-.67,1.21,1.21,0,0,1,.13-1.18,2,2,0,0,1,.61-.55,5.6,5.6,0,0,1,1.15-.53,18.54,18.54,0,0,1,2.27-.6c1.52-.3,3.07-.5,4.63-.66l.23,0-.62.68c0-3,0-6,0-8.9V109h.68l18,.12h.55v.55c-.06,3.35-.1,6.34-.14,8.9l-.37-.41a31.76,31.76,0,0,1,6.62,1.32,4.33,4.33,0,0,1,1.63.87C407,120.7,406.89,121,406.86,121Z"/><ellipse cx="388.82" cy="101.14" rx="26.36" ry="0.69"/><path d="M387.1,94c-.27-.27,3.94-4.91,9.39-10.37s10.1-9.66,10.37-9.39-3.94,4.91-9.4,10.36S387.37,94.22,387.1,94Z"/><path d="M387.1,100.16c-.27-.27,5.33-6.3,12.5-13.47s13.2-12.77,13.47-12.5-5.33,6.3-12.5,13.47S387.37,100.43,387.1,100.16Z"/><path d="M432.22,160.19c0-.13.77-.13,2-.59a6.76,6.76,0,0,0,3.82-3.7,6.3,6.3,0,0,0,.44-1.72,7.39,7.39,0,0,0,0-1c0-.35,0-.7,0-1.06,0-1.44-.05-3-.07-4.57a6.23,6.23,0,0,0-12.44,0c0,1.6-.05,3.13-.08,4.57,0,.36,0,.71,0,1.06a7.31,7.31,0,0,0,0,1,6,6,0,0,0,.44,1.72,6.76,6.76,0,0,0,3.82,3.7c1.24.46,2,.46,2,.59a3.67,3.67,0,0,1-2.18-.08,7,7,0,0,1-4.54-3.82,6.86,6.86,0,0,1-.6-2,9.81,9.81,0,0,1-.1-1.09c0-.35,0-.7,0-1.06,0-1.45,0-2.95,0-4.62a7.45,7.45,0,0,1,2.11-5,7.51,7.51,0,0,1,10.76,0,7.43,7.43,0,0,1,2.1,5c0,1.67,0,3.17-.05,4.62,0,.36,0,.71,0,1.06a7.88,7.88,0,0,1-.09,1.09,6.86,6.86,0,0,1-.6,2,7,7,0,0,1-4.55,3.82A3.64,3.64,0,0,1,432.22,160.19Z"/><path d="M432.22,150.57c0-.18.9-.33.63-1.42-.06-.63-.11-1.39-.15-2.23l0-.65v-.33a.28.28,0,0,0,0-.13.44.44,0,0,0-.84,0,.28.28,0,0,0,0,.13v.33l0,.65c0,.84-.09,1.6-.15,2.23-.27,1.09.66,1.24.63,1.42s-.22.23-.66.1a1.28,1.28,0,0,1-.66-.5,1.88,1.88,0,0,1-.28-1c-.07-.63-.12-1.39-.15-2.23l0-.65v-.33a2,2,0,0,1,.07-.54,1.79,1.79,0,0,1,3.42,0,2,2,0,0,1,.07.54v.33l0,.65c0,.84-.09,1.6-.15,2.23a2,2,0,0,1-.28,1,1.28,1.28,0,0,1-.66.5C432.44,150.8,432.21,150.65,432.22,150.57Z"/><ellipse cx="428.23" cy="147.82" rx="2.87" ry="0.69"/><ellipse cx="436.21" cy="147.82" rx="2.87" ry="0.69"/><path d="M432.5,141a2.89,2.89,0,0,1-.13-1,8.46,8.46,0,0,0-.42-2.64,4.8,4.8,0,0,0-2.86-2.75,4.57,4.57,0,0,0-1.19-.24c-.4,0-.87,0-1.41,0a5.46,5.46,0,0,1-3.05-1.24,5.59,5.59,0,0,1-1.88-3.13,5.78,5.78,0,0,1,.58-3.92,5.62,5.62,0,0,1,3.33-2.66,7,7,0,0,1,2.19-.24h2.11l8.92,0a8.67,8.67,0,0,0,1.06,0,4.56,4.56,0,0,0,1-.26,4.35,4.35,0,0,0-1-8.36c-.17,0-.34,0-.51,0h-2.92l-8.92,0-15.1-.14c-4.3-.07-7.78-.14-10.18-.22a20.62,20.62,0,0,1-3.73-.27,18.52,18.52,0,0,1,3.73-.27c2.4-.08,5.88-.15,10.18-.22l15.1-.14,8.92,0h2.93c.22,0,.45,0,.67,0a5.34,5.34,0,0,1,1.31.32,5.7,5.7,0,0,1,2.25,9.12,5.48,5.48,0,0,1-2.19,1.53,5.85,5.85,0,0,1-1.29.34,9.18,9.18,0,0,1-1.25.05l-8.92,0h-2.11a6.09,6.09,0,0,0-1.86.16,4.49,4.49,0,0,0-2.67,2.06,4.81,4.81,0,0,0-.53,3.16,4.56,4.56,0,0,0,4,3.7c.43,0,.9,0,1.41.08a5.17,5.17,0,0,1,1.38.34,5.3,5.3,0,0,1,3.1,3.29,7.06,7.06,0,0,1,.18,2.82C432.6,140.63,432.55,141,432.5,141Z"/><path d="M376.39,49.08a15,15,0,0,1-3,.29,5.33,5.33,0,0,0-2.93,1.36,5.21,5.21,0,0,0-1.69,3.79,5.09,5.09,0,0,0,2.3,4.29,5,5,0,0,0,2.64.8l3.3,0,14.76-.05h9.61a4.17,4.17,0,0,0,.71-.07,3.91,3.91,0,0,0,.21-7.6,4.64,4.64,0,0,0-1.2-.15l-1.29-.08-.5,0v-.48a5,5,0,0,0-2.1-4.13,5.17,5.17,0,0,0-1.84-.82,9.74,9.74,0,0,0-1.75-.16,15.76,15.76,0,0,1-3.43-.27,14.39,14.39,0,0,1,3.43-.3,8.73,8.73,0,0,1,1.89,0,5.8,5.8,0,0,1,4.83,5.64l-.49-.52,1.27,0a5.69,5.69,0,0,1,1.44.15,5,5,0,0,1,2.64,1.61,5.12,5.12,0,0,1-2.86,8.35,5.88,5.88,0,0,1-.95.11h-9.63l-14.76,0-3.33,0a6.08,6.08,0,0,1-5.88-6.32A6,6,0,0,1,370,50.15a5.83,5.83,0,0,1,3.39-1.32A10.56,10.56,0,0,1,376.39,49.08Z"/><path d="M390.24,45.77c-.11,0-.18-.36-.35-1a7.44,7.44,0,0,0-1-2.31,6.71,6.71,0,0,0-2.73-2.37,6.49,6.49,0,0,0-7.91,1.93,6.65,6.65,0,0,0-1.33,3.36c-.16,2.22-.31,3.66-.5,3.65s-.38-1.38-.47-3.7a6.94,6.94,0,0,1,1.28-4.05A7.38,7.38,0,0,1,386.7,39a7.1,7.1,0,0,1,3,3,5.94,5.94,0,0,1,.72,2.73C390.43,45.41,390.32,45.77,390.24,45.77Z"/><path d="M383.31,44.39c0,.22-.95.26-2.05,1a4.27,4.27,0,0,0-1.42,1.77,4.1,4.1,0,0,0-.33,1.27c0,.42,0,1.05,0,1.6,0,.32,0,.64,0,1v.7h-.68l-1.5,0a3.46,3.46,0,0,0-1.14.14,3.32,3.32,0,0,0-1.62,1.08c-.72.91-.77,1.75-1,1.74s-.18-.2-.2-.6a3.34,3.34,0,0,1,.42-1.64,3.85,3.85,0,0,1,2-1.73,4.13,4.13,0,0,1,1.56-.3l1.5,0-.69.68v-1c0-.59,0-1.08,0-1.73a5.07,5.07,0,0,1,.53-1.69,4.61,4.61,0,0,1,2.06-2,3.76,3.76,0,0,1,1.87-.43C383.08,44.19,383.31,44.3,383.31,44.39Z"/><path d="M116.84,107.2a13.89,13.89,0,0,1-3,.29,5.45,5.45,0,0,0-2.94,1.37,5.24,5.24,0,0,0-1.68,3.79,5.09,5.09,0,0,0,2.3,4.29,5,5,0,0,0,2.64.8l3.3,0,14.75,0h9.62a5.51,5.51,0,0,0,.71-.06,3.9,3.9,0,0,0,.2-7.6,4.5,4.5,0,0,0-1.19-.16l-1.29-.07-.5,0v-.49a5,5,0,0,0-2.1-4.12,5.17,5.17,0,0,0-1.84-.82,9.07,9.07,0,0,0-1.76-.16,15.38,15.38,0,0,1-3.43-.28,15.67,15.67,0,0,1,3.43-.29,8.72,8.72,0,0,1,1.89,0,5.91,5.91,0,0,1,2.16.83,5.82,5.82,0,0,1,2.68,4.8l-.5-.51,1.27,0a5.62,5.62,0,0,1,1.44.14,5.12,5.12,0,0,1-.21,10,5,5,0,0,1-.95.1h-9.64L117.51,119l-3.34,0a6.22,6.22,0,0,1-3.24-1.06,6.08,6.08,0,0,1-2.63-5.27,5.9,5.9,0,0,1,2.15-4.34,5.74,5.74,0,0,1,3.39-1.32A11.33,11.33,0,0,1,116.84,107.2Z"/><path d="M130.69,103.89c-.1,0-.17-.35-.34-.94a7.69,7.69,0,0,0-1-2.31,6.71,6.71,0,0,0-2.73-2.37,6.52,6.52,0,0,0-9.24,5.29c-.16,2.21-.31,3.65-.51,3.64s-.38-1.38-.47-3.69a7.07,7.07,0,0,1,1.28-4.05,7.39,7.39,0,0,1,9.51-2.32,7.15,7.15,0,0,1,3,3,6,6,0,0,1,.72,2.72C130.89,103.54,130.77,103.89,130.69,103.89Z"/><path d="M123.77,102.52c0,.22-1,.26-2,1a4.18,4.18,0,0,0-1.75,3c0,.42,0,1,0,1.6v1.64h-.68l-1.49,0a3.25,3.25,0,0,0-1.15.13A3.42,3.42,0,0,0,115,111c-.73.91-.78,1.75-1,1.74s-.18-.2-.2-.6a3.18,3.18,0,0,1,.42-1.65,3.88,3.88,0,0,1,2-1.72,4.29,4.29,0,0,1,1.56-.31l1.49,0-.68.68v-1c0-.59,0-1.08,0-1.74a4.85,4.85,0,0,1,.52-1.68,4.68,4.68,0,0,1,2.07-2.05,3.78,3.78,0,0,1,1.86-.44C123.53,102.32,123.77,102.43,123.77,102.52Z"/><path d="M84.45,171.33a10.8,10.8,0,0,0,.71-1.27,4.12,4.12,0,0,0,.3-1.69,4,4,0,0,0-.75-2.15,7.52,7.52,0,0,0-1-1l-1.15-1.12L80,161.54l-6.36-6.22L57.11,139A13,13,0,0,0,56,138a3.48,3.48,0,0,0-4-.07,4.81,4.81,0,0,0-.56.47l-.6.61-1.23,1.23-2.49,2.5-10.37,10.4a3.41,3.41,0,0,0-1,2.85,3.33,3.33,0,0,0,.52,1.44,4,4,0,0,0,.49.61l.65.65,5.11,5.12,9.64,9.7,8.71,8.8,2,2a24.24,24.24,0,0,0,1.9,1.83A3.68,3.68,0,0,0,69,186l11.18-10.83c1.33-1.28,2.37-2.26,3.09-2.92a5.93,5.93,0,0,1,1.14-.94,5.93,5.93,0,0,1-.94,1.14c-.66.72-1.64,1.76-2.92,3.09l-4.66,4.84-2.93,3L71.39,185l-.83.85a11.32,11.32,0,0,1-.92.89,4.64,4.64,0,0,1-5.43.27,7.1,7.1,0,0,1-1.11-1l-1-1-2-2c-2.76-2.73-5.71-5.64-8.8-8.71l-9.7-9.65-5.13-5.1L35.8,159a5.41,5.41,0,0,1-.67-.83,4.81,4.81,0,0,1,.63-6l10.4-10.37,2.5-2.49,1.23-1.23.61-.6a5.78,5.78,0,0,1,.76-.63,4.74,4.74,0,0,1,5.48.13A11.46,11.46,0,0,1,58,138.15l16.28,16.48L80.51,161l2.54,2.62,1.12,1.16a7.11,7.11,0,0,1,1,1.14,4.21,4.21,0,0,1,.27,4.25,3.58,3.58,0,0,1-.66.92C84.57,171.26,84.47,171.34,84.45,171.33Z"/><rect class="cls-25" x="47.32" y="141.99" width="24.92" height="38.83" transform="translate(-96.62 89.54) rotate(-45)"/><path d="M82.31,166.32a23.9,23.9,0,0,1-2.22-2l-5.83-5.58c-5-4.78-11.84-11.48-19.85-19.41h.89l-8.46,8.52-4.49,4.5-2.3,2.3-1.16,1.16-.58.59-.29.29-.15.15-.07.07,0,0h0c0-.43,0,1,0-1,10.34,10.33,19.82,19.89,27.36,27.55h-.77c5.31-5.22,9.76-9.49,12.91-12.5l3.68-3.49a12.71,12.71,0,0,1,1.41-1.24,8.08,8.08,0,0,1-1.08,1.26l-3.41,3.6c-3,3.12-7.34,7.66-12.74,13.15l-.38.38-.39-.38c-7.67-7.54-17.22-17-27.56-27.36,0-1.94,0-.54,0-1h0l0,0,0,0,.07-.08.15-.14.29-.3.58-.58,1.16-1.16c.78-.77,1.54-1.54,2.3-2.3l4.51-4.48,8.52-8.47.45-.45.44.45c8.13,8.2,15,15.23,19.71,20.15l5.48,5.72A19.2,19.2,0,0,1,82.31,166.32Z"/><path d="M76.41,176c-.13.14-.6-.13-1.15.07a1,1,0,0,0-.59.6.85.85,0,0,0,.19.87.84.84,0,0,0,.87.2,1,1,0,0,0,.6-.6c.21-.54-.06-1,.08-1.14s.23,0,.44.14a1.46,1.46,0,0,1,.45,1.13,1.92,1.92,0,0,1-1,1.62,2,2,0,0,1-2.75-2.75,1.87,1.87,0,0,1,1.61-1,1.5,1.5,0,0,1,1.14.44C76.46,175.77,76.47,175.94,76.41,176Z"/><path d="M58.88,175.52c-.37.08-2-6-3.61-13.51s-2.64-13.72-2.27-13.8,2,6,3.61,13.51S59.25,175.44,58.88,175.52Z"/><path d="M64.1,178.9c-.37.08-2.4-7.9-4.53-17.81s-3.57-18-3.2-18.1,2.4,7.89,4.54,17.81S64.48,178.82,64.1,178.9Z"/><path class="cls-26" d="M159,345.45l-41.07-11a4.13,4.13,0,0,0-5,2.92l-15,56a4.12,4.12,0,0,0,2.92,5l41.06,11a4.13,4.13,0,0,0,5.06-2.92l15-56A4.14,4.14,0,0,0,159,345.45Zm-14.17,57.43L101.5,391.26l14.06-52.49,43.35,11.61Z"/><path class="cls-27" d="M159,345.45l-41.07-11a4.13,4.13,0,0,0-5,2.92l-15,56a4.12,4.12,0,0,0,2.92,5l41.06,11a4.13,4.13,0,0,0,5.06-2.92l15-56A4.14,4.14,0,0,0,159,345.45Zm-14.17,57.43L101.5,391.26l14.06-52.49,43.35,11.61Z"/><path d="M144.84,402.88a8.49,8.49,0,0,1,.22-1.06c.17-.7.4-1.68.7-2.92.65-2.56,1.57-6.22,2.74-10.86,2.37-9.28,5.73-22.35,9.82-37.81l.43.75L138,345.48l-11.12-3L121.19,341l-2.89-.78-1.45-.39-.73-.19-.37-.1-.18,0-.09,0h-.08c.37-.22-.85.48.83-.49-5.23,19.36-10.1,37.38-14.18,52.46l-.4-.7c12.91,3.52,23.64,6.53,31.21,8.67l8.8,2.51,2.35.7a4.74,4.74,0,0,1,.83.29,2.67,2.67,0,0,1-.74-.14l-2.28-.54L133.06,400c-7.58-1.92-18.52-4.72-31.71-8.19l-.56-.15.15-.55c4-15.1,8.81-33.14,14-52.53,1.69-1,.47-.27.85-.48h.08l.09,0,.19.05.36.1.73.2,1.46.39,2.89.77,5.71,1.54,11.12,3,20.69,5.6.59.16-.16.59c-4.26,15.69-7.93,28.86-10.51,38l-3,10.64c-.35,1.18-.62,2.1-.81,2.77A3.85,3.85,0,0,1,144.84,402.88Z"/><path d="M159,345.45a1.53,1.53,0,0,1,.58.14,3.77,3.77,0,0,1,1.47.94,4.23,4.23,0,0,1,1.2,2.6,5.06,5.06,0,0,1-.21,1.83l-.49,2c-1.45,5.59-3.52,13.62-6.08,23.54-1.31,5-2.74,10.4-4.27,16.23l-2.38,9.05-1.26,4.73a4.78,4.78,0,0,1-1.4,2.42,4.73,4.73,0,0,1-2.59,1.24,5.18,5.18,0,0,1-1.47,0c-.51-.1-.86-.22-1.29-.32l-2.51-.67-5.09-1.35L122.71,405l-22.08-5.9a4.89,4.89,0,0,1-2.73-1.94,4.78,4.78,0,0,1-.81-3.22,5.18,5.18,0,0,1,.16-.82l.18-.7.38-1.39c.25-.93.49-1.85.74-2.77l2.93-10.88c1.92-7.13,3.78-14,5.55-20.55s3.46-12.77,5-18.6l.31-1.1a5.19,5.19,0,0,1,.52-1.15,4.73,4.73,0,0,1,1.83-1.67,4.66,4.66,0,0,1,2.37-.5,5.3,5.3,0,0,1,1.16.2l1,.28,7.77,2.13,23.43,6.5,6.35,1.83a16.42,16.42,0,0,1,2.19.73,13.38,13.38,0,0,1-2.26-.46l-6.42-1.58-23.54-6.08L119,335.28l-1-.26a4,4,0,0,0-.94-.16,3.6,3.6,0,0,0-1.81.4,3.68,3.68,0,0,0-1.38,1.28,4.07,4.07,0,0,0-.39.88l-.28,1.08c-1.55,5.83-3.2,12.06-4.93,18.62s-3.58,13.45-5.47,20.58q-1.43,5.35-2.91,10.88c-.24.92-.49,1.85-.74,2.78l-.37,1.39-.19.7a3.5,3.5,0,0,0,2.41,4.29l22.08,5.93,10.5,2.83,5.09,1.37,2.5.68c.4.1.86.25,1.19.31a3.84,3.84,0,0,0,1.07,0,3.52,3.52,0,0,0,3-2.72c.43-1.6.86-3.17,1.28-4.73l2.45-9c1.59-5.82,3.07-11.24,4.43-16.19l6.5-23.43c.2-.69.38-1.34.56-2a4.73,4.73,0,0,0,.25-1.68,4,4,0,0,0-1-2.44,4.32,4.32,0,0,0-1.33-1C159.19,345.55,159,345.48,159,345.45Z"/><path d="M124.15,401.21c-.2,0-.1-.81-.74-1.46a1.57,1.57,0,0,0-1.33-.43,1.43,1.43,0,0,0-1.16,1,1.46,1.46,0,0,0,.49,1.48,1.58,1.58,0,0,0,1.37.28c.88-.24,1.18-1,1.37-.89s.14.23,0,.59a2.05,2.05,0,0,1-1,1.2,2.46,2.46,0,0,1-2.46-.15,2.61,2.61,0,0,1,1.28-4.8,2.48,2.48,0,0,1,2.21,1.11,2.07,2.07,0,0,1,.3,1.56C124.39,401.08,124.23,401.23,124.15,401.21Z"/><path class="cls-28" d="M134.35,355.36l-6.25,23.3-19.17-3.86,5.9-22s6.18,1.34,10.19-.3S134.35,355.36,134.35,355.36Z"/><path d="M134.35,355.36a6.41,6.41,0,0,1-1.28-.73,17.6,17.6,0,0,0-3.7-1.73,7.36,7.36,0,0,0-2.78-.36c-.25,0-.5.07-.75.13l-.75.25a10.68,10.68,0,0,1-1.82.55,23.14,23.14,0,0,1-8.56-.12l.69-.42c-1.65,6.41-3.64,14-5.8,22.05l-.53-.85.18,0,19,3.9-.72.44c1.88-6.79,3.53-12.54,4.74-16.62.61-2,1.1-3.66,1.46-4.77a8,8,0,0,1,.64-1.75,50.32,50.32,0,0,1-1.37,6.41c-1,4.12-2.46,10-4.28,17.05l-.15.56-.57-.12-19-3.75-.18,0-.72-.14.19-.71c2.17-8.08,4.22-15.62,6-22l.15-.52.54.1a22.71,22.71,0,0,0,8.13.33,9.5,9.5,0,0,0,1.67-.44l.89-.26c.3-.05.59-.08.88-.11a7.88,7.88,0,0,1,3.05.54,14.46,14.46,0,0,1,3.69,2.07C134,354.93,134.39,355.31,134.35,355.36Z"/><path class="cls-29" d="M134.35,355.36l-6.25,23.3,18.54,6.24,5.9-22s-6-1.93-8.67-5.36S134.35,355.36,134.35,355.36Z"/><path d="M134.35,355.36a3.54,3.54,0,0,1,1.45-.35,14.22,14.22,0,0,1,4.22.05,8,8,0,0,1,2.92,1.05c.23.18.47.35.71.55l.63.67a10.07,10.07,0,0,0,1.23,1.21,22.71,22.71,0,0,0,7.21,3.78l.52.18-.14.53c-1.65,6.41-3.63,14-5.8,22.05l-.19.71-.69-.24-.18-.06-18.33-6.25-.55-.18.15-.56c1.93-7,3.61-12.84,4.82-16.9a48.36,48.36,0,0,1,2-6.24,9.36,9.36,0,0,1-.32,1.83c-.25,1.15-.63,2.8-1.13,4.87-1,4.14-2.43,9.94-4.2,16.76l-.4-.74,18.38,6.11.18.06-.89.47c2.17-8.08,4.23-15.62,6-22l.38.7a23,23,0,0,1-7.48-4.17,11.11,11.11,0,0,1-1.29-1.38l-.52-.6-.59-.48a7.46,7.46,0,0,0-2.59-1.08,17.51,17.51,0,0,0-4.07-.36A7,7,0,0,1,134.35,355.36Z"/><path class="cls-30" d="M135.48,351.12l-6.83,25.49s-4.65-2.69-8-3.36-9,.2-9,.2l6.46-24.09s5.47,1.11,9.15-.86S135.48,351.12,135.48,351.12Z"/><path d="M135.48,351.12a6.59,6.59,0,0,1-1.09-.74,12.65,12.65,0,0,0-3.23-1.7,5.43,5.43,0,0,0-2.47-.25c-.21.07-.44.1-.65.18l-.65.29a9.49,9.49,0,0,1-1.59.67,17.18,17.18,0,0,1-7.8.34l.65-.41c-1.75,6.84-3.93,15.16-6.33,24.13l-.77-.86.33,0a40.74,40.74,0,0,1,4.64-.4,17.74,17.74,0,0,1,4.59.34,33.19,33.19,0,0,1,7.86,3.4l-.93.38c2-7.4,3.84-13.69,5.16-18.17.66-2.23,1.19-4,1.58-5.24a10.56,10.56,0,0,1,.7-1.92,6.71,6.71,0,0,1-.3,1.83c-.26,1.21-.68,3-1.22,5.25-1.1,4.51-2.71,11-4.7,18.58l-.2.77-.72-.39a32.84,32.84,0,0,0-7.53-3.18,17.38,17.38,0,0,0-4.25-.28,40.84,40.84,0,0,0-4.49.39l-.31,0-1,.15.27-1c2.41-9,4.68-17.27,6.58-24.07l.14-.5.51.1a16.72,16.72,0,0,0,7.32-.11,8.17,8.17,0,0,0,1.46-.55l.78-.31c.27-.08.54-.12.8-.18a5.71,5.71,0,0,1,2.79.42,10.65,10.65,0,0,1,3.23,2C135.24,350.7,135.52,351.08,135.48,351.12Z"/><path class="cls-31" d="M135.48,351.12l-6.83,25.49s5.37,0,8.63,1.1,7.67,4.67,7.67,4.67l6.46-24.1s-5.3-1.77-7.5-5.32S135.48,351.12,135.48,351.12Z"/><path d="M135.48,351.12c0-.06.42-.24,1.27-.43a10.78,10.78,0,0,1,3.81-.15,5.71,5.71,0,0,1,2.63,1c.2.18.42.35.61.55l.52.66a8.38,8.38,0,0,0,1,1.21,17,17,0,0,0,6.29,3.75l.49.17-.13.51c-1.75,6.83-3.93,15.15-6.33,24.12l-.27,1-.83-.65-.24-.19a42.59,42.59,0,0,0-3.7-2.59,17.13,17.13,0,0,0-3.82-1.88,33.48,33.48,0,0,0-8.11-1l-.82,0,.21-.77c2.09-7.58,3.92-14,5.23-18.44.66-2.23,1.19-4,1.56-5.16a7,7,0,0,1,.65-1.73,9.35,9.35,0,0,1-.35,2c-.27,1.26-.7,3.07-1.25,5.34-1.09,4.53-2.68,10.88-4.62,18.31l-.61-.8a33.18,33.18,0,0,1,8.5,1,17.86,17.86,0,0,1,4.15,2,44.31,44.31,0,0,1,3.82,2.66l.27.21-1.1.36c2.4-9,4.68-17.27,6.58-24.07l.36.68a17.35,17.35,0,0,1-6.59-4.19,10.1,10.1,0,0,1-1-1.37l-.41-.58c-.15-.17-.33-.32-.48-.48a5.33,5.33,0,0,0-2.26-1,12.39,12.39,0,0,0-3.65-.14A7.17,7.17,0,0,1,135.48,351.12Z"/><path class="cls-13" d="M148.13,360.52c-.31.26-2.23-2-5.41-3.67s-6.09-2-6.07-2.37c0-.17.78-.33,2-.2a13.2,13.2,0,0,1,4.64,1.46,12.69,12.69,0,0,1,3.81,3C147.92,359.71,148.25,360.42,148.13,360.52Z"/><path class="cls-13" d="M147.62,362.48c-.31.26-2.26-2-5.45-3.59s-6.12-1.95-6.11-2.28c0-.17.78-.34,2-.22a13,13,0,0,1,4.66,1.39,12.83,12.83,0,0,1,3.85,3C147.4,361.68,147.74,362.39,147.62,362.48Z"/><path class="cls-13" d="M147.11,364.45c-.3.26-2.28-2-5.5-3.51s-6.14-1.87-6.13-2.2c0-.17.77-.35,2-.25a13,13,0,0,1,4.67,1.33,12.44,12.44,0,0,1,3.89,2.9C146.88,363.65,147.23,364.35,147.11,364.45Z"/><path class="cls-13" d="M146.6,366.41c-.3.27-2.31-1.94-5.54-3.43s-6.17-1.77-6.16-2.11c0-.17.76-.36,2-.28a13.09,13.09,0,0,1,4.68,1.26,12.59,12.59,0,0,1,3.93,2.85C146.36,365.62,146.72,366.31,146.6,366.41Z"/><path class="cls-13" d="M146.09,368.37c-.29.28-2.34-1.9-5.59-3.35s-6.19-1.68-6.19-2c0-.17.76-.37,2-.3a12.94,12.94,0,0,1,4.7,1.19,12.61,12.61,0,0,1,4,2.79C145.84,367.59,146.21,368.28,146.09,368.37Z"/><path class="cls-13" d="M145.58,370.34c-.29.28-2.36-1.87-5.63-3.27s-6.22-1.6-6.22-1.94c0-.17.75-.38,2-.33a12.84,12.84,0,0,1,4.72,1.13,12.58,12.58,0,0,1,4,2.73C145.32,369.55,145.7,370.24,145.58,370.34Z"/><path class="cls-13" d="M145.08,372.3c-.29.29-2.4-1.84-5.69-3.19s-6.23-1.51-6.25-1.85c0-.16.75-.39,2-.36a13.15,13.15,0,0,1,4.74,1.06,12.74,12.74,0,0,1,4,2.68C144.8,371.52,145.19,372.2,145.08,372.3Z"/><path class="cls-13" d="M144.57,374.27c-.29.29-2.42-1.81-5.74-3.11s-6.25-1.43-6.27-1.76c0-.17.74-.41,2-.39a12.88,12.88,0,0,1,4.75,1,12.66,12.66,0,0,1,4.09,2.62C144.28,373.49,144.68,374.16,144.57,374.27Z"/><path class="cls-13" d="M144.06,376.23c-.28.3-2.45-1.77-5.78-3s-6.28-1.34-6.3-1.67c0-.17.74-.42,2-.42a12.78,12.78,0,0,1,4.77.93,12.32,12.32,0,0,1,4.12,2.57C143.76,375.46,144.17,376.13,144.06,376.23Z"/><path class="cls-13" d="M143.55,378.2c-.28.3-2.48-1.74-5.83-3s-6.3-1.25-6.33-1.58c0-.17.74-.43,2-.45a13.26,13.26,0,0,1,4.78.86,12.69,12.69,0,0,1,4.16,2.52C143.24,377.43,143.66,378.09,143.55,378.2Z"/><path class="cls-13" d="M119.83,352.93c.14.38,2.91-.66,6.41-.5s6.19,1.26,6.34,1c.09-.15-.5-.68-1.62-1.17a12.56,12.56,0,0,0-4.67-1,12.4,12.4,0,0,0-4.73.73C120.4,352.34,119.77,352.79,119.83,352.93Z"/><path class="cls-13" d="M119.29,354.89c.13.38,2.92-.62,6.41-.41s6.17,1.34,6.32,1c.09-.14-.49-.67-1.61-1.19a12.65,12.65,0,0,0-4.64-1.1,12.39,12.39,0,0,0-4.74.66C119.87,354.3,119.24,354.75,119.29,354.89Z"/><path class="cls-13" d="M118.75,356.85c.12.38,2.92-.58,6.41-.32s6.14,1.43,6.3,1.13c.09-.14-.48-.68-1.59-1.21a12.63,12.63,0,0,0-4.62-1.17,12.2,12.2,0,0,0-4.75.6C119.34,356.27,118.7,356.7,118.75,356.85Z"/><path class="cls-13" d="M118.21,358.8c.12.39,2.93-.53,6.41-.22s6.12,1.51,6.28,1.22-.47-.69-1.57-1.24a12.63,12.63,0,0,0-4.61-1.23,12.39,12.39,0,0,0-4.75.53C118.8,358.23,118.16,358.66,118.21,358.8Z"/><path class="cls-13" d="M117.67,360.76c.11.38,2.93-.5,6.41-.14s6.09,1.61,6.26,1.32c.09-.14-.46-.7-1.55-1.26a12.56,12.56,0,0,0-4.59-1.3,12.31,12.31,0,0,0-4.75.46C118.27,360.2,117.62,360.61,117.67,360.76Z"/><path class="cls-13" d="M117.12,362.71c.11.39,2.95-.45,6.42,0s6.07,1.69,6.24,1.41-.45-.71-1.54-1.29a12.71,12.71,0,0,0-4.56-1.36,12.35,12.35,0,0,0-4.76.39C117.74,362.16,117.08,362.57,117.12,362.71Z"/><path class="cls-13" d="M116.58,364.67c.11.39,3-.41,6.42.05s6,1.78,6.22,1.49c.1-.13-.44-.71-1.52-1.3a12.51,12.51,0,0,0-4.55-1.43,12.12,12.12,0,0,0-4.76.32C117.2,364.13,116.54,364.53,116.58,364.67Z"/><path class="cls-13" d="M116,366.63c.1.39,3-.37,6.42.14s6,1.86,6.2,1.58-.43-.72-1.5-1.32a12.51,12.51,0,0,0-4.53-1.5,12.35,12.35,0,0,0-4.77.25C116.67,366.09,116,366.48,116,366.63Z"/><path class="cls-13" d="M115.5,368.58c.1.4,3-.32,6.42.24s6,1.95,6.18,1.67-.42-.73-1.48-1.35a12.73,12.73,0,0,0-4.51-1.56,12.17,12.17,0,0,0-4.78.19C116.14,368.06,115.46,368.44,115.5,368.58Z"/><path class="cls-13" d="M115,370.54c.09.39,3-.29,6.42.32s6,2,6.16,1.77-.41-.74-1.47-1.37a12.48,12.48,0,0,0-4.49-1.63,12.15,12.15,0,0,0-4.78.12C115.6,370,114.92,370.39,115,370.54Z"/><path d="M119.91,394.52c-.21-.32,6-4.87,14-10.18s14.54-9.34,14.75-9-6.05,4.87-14,10.18S120.12,394.83,119.91,394.52Z"/><path d="M121.75,389.59c-.21-.32,5.08-4.23,11.83-8.73s12.38-7.9,12.59-7.58-5.09,4.22-11.83,8.72S122,389.9,121.75,389.59Z"/><path d="M41.13,211.25c.08,0,1.17-.06,3.09-.11l8-.18c6.76-.16,15.92-.38,26.34-.39l-.48,1.16-4.81-4.8L67,200.61l-3-3-1.44-1.46a3.91,3.91,0,0,0-1.44-.91,3.81,3.81,0,0,0-3.22.28,6,6,0,0,0-1.28,1.08l-1.26,1.22-4.61,4.42-6.91,6.5c-1.67,1.57-2.63,2.48-2.72,2.52s.7-.8,2.2-2.4l6.5-6.92,4.65-4.83c.42-.44.85-.87,1.29-1.32a6.88,6.88,0,0,1,1.53-1.31,5.06,5.06,0,0,1,4.24-.44,5,5,0,0,1,1.94,1.2l1.46,1.44,3,3,6.32,6.3,4.8,4.81a.67.67,0,0,1,0,1,.69.69,0,0,1-.48.2c-10.8,0-20.36-.23-27-.39l-7.78-.18C42,211.31,41.05,211.28,41.13,211.25Z"/><path d="M78.59,235.64a12.36,12.36,0,0,1-.12-1.84c0-1.2-.08-2.87-.14-5-.1-4.26-.22-10.29-.29-17.58l.55.55-17.35.1-9.78,0H41.14c.3-.31-.69.68.68-.69,0,8.66,0,16.9-.06,24.39l-.63-.64c10.88.06,20.15.19,26.78.32l7.79.17a23.86,23.86,0,0,1,2.89.15,16.46,16.46,0,0,1-2.62.15l-7.64.17c-6.59.12-16,.26-27.2.31a.63.63,0,0,1-.63-.63h0c0-7.49,0-15.73-.06-24.39l.7-.69H51.46l9.78,0,17.35.1h0a.55.55,0,0,1,.54.55h0c-.06,7.53-.19,13.7-.29,17.92L78.71,234A7.59,7.59,0,0,1,78.59,235.64Z"/><path class="cls-32" d="M74.57,199.69v14.18l-11.13,7.24-.49-.47a4.45,4.45,0,0,0-6.19,0l-.49.47-11.13-7.25V199.69Z"/><path d="M74.57,199.69a15.68,15.68,0,0,1-2.31.15l-6.15.18c-5.23.12-12.49.26-21,.31l.64-.64c0,4.44,0,9.2,0,14.17l-.31-.58,2.24,1.46,8.88,5.81-.83.08a6.48,6.48,0,0,1,1.84-1.4,5,5,0,0,1,2.31-.49,5.19,5.19,0,0,1,2.23.57,7,7,0,0,1,1.69,1.35l-.78-.08,11.2-7.13-.22.42c.06-4.26.18-7.75.27-10.22s.16-3.89.22-4a24.09,24.09,0,0,1,.23,3.66c.09,2.43.21,6,.27,10.52v.26l-.23.15-11.05,7.36-.42.27-.36-.35a5.82,5.82,0,0,0-1.41-1.11,3.81,3.81,0,0,0-1.67-.41,4,4,0,0,0-1.71.38,5.46,5.46,0,0,0-1.48,1.17l-.38.37-.45-.29L47,215.89l-2.24-1.46-.31-.2v-.37c0-5,0-9.73,0-14.17V199h.63c8.76,0,16.21.19,21.39.31l6,.17A9.81,9.81,0,0,1,74.57,199.69Z"/><path d="M45.14,213.86c-.07.11-1.6-.74-4.2-2.31l.56-.3c.18,5.18.3,14.09.32,24.39l-1.16-.5,1.84-1.76c5-4.76,9.58-9.14,13.39-12.67l.08.87c-3.34-2.25-6.07-4.13-8-5.47a15.73,15.73,0,0,1-2.87-2.25,15.31,15.31,0,0,1,3.22,1.71c2,1.18,4.82,2.93,8.22,5.07a.54.54,0,0,1,.17.76.86.86,0,0,1-.07.1h0c-3.69,3.66-8.25,8.1-13.21,12.86l-1.84,1.76a.67.67,0,0,1-1,0,.66.66,0,0,1-.19-.47c0-10.3.14-19.21.32-24.39v0a.36.36,0,0,1,.37-.34.39.39,0,0,1,.19.06C43.82,212.69,45.22,213.75,45.14,213.86Z"/><path d="M78.59,211.25c0,.06-.45.37-1.15.91s-1.62,1.28-2.86,2.15c-2.61,1.82-6.35,4.36-10.8,7.32l.09-1,9.9,9.4,5.29,5.1-1.13.48c0-6.82.22-12.75.36-17.14s.23-7.11.3-7.25.16,2.32.31,6.64.34,10.58.36,17.75a.66.66,0,0,1-1.13.48c-1.7-1.63-3.48-3.32-5.31-5.06-3.5-3.4-6.82-6.62-9.81-9.5h0a.62.62,0,0,1,0-.87.47.47,0,0,1,.12-.09c4.51-2.87,8.34-5.26,11.07-6.91,1.43-.87,2.62-1.51,3.35-1.9A5.06,5.06,0,0,1,78.59,211.25Z"/><path d="M78.59,235.64c-.08,0-1-.92-2.74-2.44l-7-6.27-4.65-4.28L63,221.46a5.48,5.48,0,0,0-1.31-1,3.85,3.85,0,0,0-3.19-.15,4,4,0,0,0-1.42,1l-1.46,1.42-3,2.92-6.36,6.12c-1.56,1.5-3.1,3-4.59,4.4L41.13,235c10.41,0,19.57.23,26.33.39l8,.18c1.92.05,3,.08,3.09.11s-.86.06-2.65.11l-7.78.18c-6.67.16-16.24.38-27,.39a.68.68,0,0,1-.68-.68.71.71,0,0,1,.21-.49l4.59-4.41,6.38-6.1,3-2.9,1.47-1.4A5.45,5.45,0,0,1,58,219.11a5.1,5.1,0,0,1,4.23.26,6.66,6.66,0,0,1,1.56,1.24l1.3,1.28,4.71,4.69,6.58,6.73C77.88,234.86,78.68,235.67,78.59,235.64Z"/><path class="cls-13" d="M62.63,206.35c0-1.56-.6-2.51-2.64-2.51a6.06,6.06,0,0,0-6.07,6.27,6.14,6.14,0,0,0,6.17,6.34,6.35,6.35,0,0,0,6.32-6,3.06,3.06,0,0,1,1.39.27,7.72,7.72,0,0,1-15.41-.62,7.55,7.55,0,0,1,7.72-7.67c2.71,0,4.08,1.26,4.08,3.72v4.52a2.17,2.17,0,0,1-1.51,2.21,7.62,7.62,0,0,1-2.83.52c-2,0-3.9-.84-3.9-3.1S58,207,60.51,207a14.93,14.93,0,0,1,2.12.19Zm0,2.13a12.46,12.46,0,0,0-2-.18c-2.31,0-3.13.82-3.13,1.94s.91,1.81,2.29,1.81a5,5,0,0,0,1.93-.37,1.44,1.44,0,0,0,.94-1.46Z"/><ellipse cx="36.42" cy="227.32" rx="11.24" ry="0.69"/><ellipse cx="32.51" cy="223.44" rx="11.24" ry="0.69"/><ellipse cx="28.59" cy="219.57" rx="11.24" ry="0.69"/><rect class="cls-33" x="28.7" y="259.96" width="88.67" height="32.61" transform="translate(-69.02 28.32) rotate(-15)"/><path d="M120.08,280.55a3.47,3.47,0,0,1-.21-.59l-.49-1.65c-.42-1.46-1-3.56-1.8-6.27-1.54-5.42-3.75-13.22-6.4-22.87l.58.33C90.42,255.36,60,263.6,26.17,272.66c1-1.68.27-.46.49-.84h0v.05l0,.06,0,.13.07.26.14.51.27,1,.55,2c.36,1.36.72,2.7,1.08,4,.72,2.69,1.43,5.34,2.13,8q2.1,7.89,4.11,15.42l-.81-.46c24.57-6.55,45.92-12.12,61.21-16.09l18-4.62,4.87-1.22a15.26,15.26,0,0,1,1.76-.38,11.63,11.63,0,0,1-1.56.5l-4.69,1.34-17.74,4.95c-15.19,4.2-36.66,10.1-61.49,16.79l-.64.18-.17-.64c-1.35-5-2.73-10.16-4.15-15.41-.7-2.63-1.42-5.29-2.14-8l-1.08-4-.55-2-.27-1-.14-.51-.06-.25,0-.13,0-.06v0h0c.22-.38-.49.84.48-.85,33.81-9.06,64.29-17.14,85.7-22.74l.46-.12.12.45c2.59,9.9,4.6,17.85,6,23.29l1.55,6.22A18.92,18.92,0,0,1,120.08,280.55Z"/><path d="M35.63,269.41c-.05,0-.16-.24-.35-.75a12.72,12.72,0,0,0-.82-2.11,4.88,4.88,0,0,0-2.61-2.13,4.49,4.49,0,0,0-2.08-.2,6.2,6.2,0,0,0-1.16.27A5.54,5.54,0,0,1,22,261.31a5.82,5.82,0,0,1-.32-3.59,5.7,5.7,0,0,1,2.12-3.2,5.56,5.56,0,0,1,1.82-.91l1.8-.49,3.69-1,3.83-1,2-.53.49-.14.42-.13a6,6,0,0,0,.8-.4,4.38,4.38,0,0,0-3-8c-.49.09-1.14.28-1.7.42l-12.3,3.15c-3.51.87-6.35,1.56-8.32,2a13.45,13.45,0,0,1-3.1.55,14.36,14.36,0,0,1,3-1.07c1.93-.6,4.73-1.43,8.21-2.42l12.23-3.43c.59-.16,1.1-.33,1.81-.47a5.88,5.88,0,0,1,2.09,0,5.7,5.7,0,0,1,.86,10.9l-.55.18-.5.13-2,.53-3.83,1-3.7,1-1.79.47a4.06,4.06,0,0,0-1.42.68A4.44,4.44,0,0,0,22.89,258a4.61,4.61,0,0,0,.2,2.87,4.54,4.54,0,0,0,4.1,2.84,4.64,4.64,0,0,0,1.18-.13,7.67,7.67,0,0,1,1.3-.24,5.32,5.32,0,0,1,5.26,2.95,9.35,9.35,0,0,1,.62,2.29C35.65,269.12,35.67,269.4,35.63,269.41Z"/><rect class="cls-13" x="54.11" y="286.31" width="37.29" height="3.89" transform="translate(-72.13 28.65) rotate(-15)"/><rect class="cls-13" x="48.62" y="292.25" width="3.89" height="3.89" transform="matrix(0.97, -0.26, 0.26, 0.97, -74.43, 23.11)"/><rect class="cls-13" x="43.33" y="293.67" width="3.89" height="3.89" transform="matrix(0.97, -0.26, 0.26, 0.97, -74.96, 21.79)"/><rect class="cls-13" x="101.24" y="278.15" width="3.89" height="3.89" transform="translate(-68.98 36.25) rotate(-15)"/><rect class="cls-13" x="106.44" y="276.76" width="3.89" height="3.89" transform="translate(-68.45 37.55) rotate(-15)"/><rect class="cls-13" x="105.03" y="271.51" width="3.89" height="3.89" transform="translate(-67.13 37) rotate(-15)"/><rect class="cls-13" x="111.64" y="275.37" width="3.89" height="3.89" transform="translate(-67.9 38.85) rotate(-15)"/><rect class="cls-13" x="92.18" y="280.58" width="3.89" height="3.89" transform="translate(-69.91 33.99) rotate(-15)"/><rect class="cls-13" x="84.12" y="271.48" width="3.89" height="3.89" transform="translate(-67.83 31.59) rotate(-15)"/><rect class="cls-13" x="79.39" y="267.11" width="3.89" height="3.89" transform="translate(-66.86 30.22) rotate(-15)"/><rect class="cls-13" x="78.92" y="272.87" width="3.89" height="3.89" transform="translate(-68.37 30.29) rotate(-15)"/><rect class="cls-13" x="74.09" y="268.53" width="3.89" height="3.89" transform="matrix(0.97, -0.26, 0.26, 0.97, -67.41, 28.89)"/><rect class="cls-13" x="73.72" y="274.26" width="3.89" height="3.89" transform="matrix(0.97, -0.26, 0.26, 0.97, -68.91, 29)"/><rect class="cls-13" x="68.79" y="269.95" width="3.89" height="3.89" transform="matrix(0.97, -0.26, 0.26, 0.97, -67.97, 27.58)"/><rect class="cls-13" x="68.51" y="275.66" width="3.89" height="3.89" transform="matrix(0.97, -0.26, 0.26, 0.97, -69.44, 27.69)"/><rect class="cls-13" x="63.49" y="271.37" width="3.89" height="3.89" transform="matrix(0.97, -0.26, 0.26, 0.97, -68.51, 26.25)"/><rect class="cls-13" x="63.31" y="277.05" width="3.89" height="3.89" transform="translate(-69.98 26.39) rotate(-15)"/><rect class="cls-13" x="58.2" y="272.79" width="3.89" height="3.89" transform="translate(-69.06 24.93) rotate(-15)"/><rect class="cls-13" x="58.11" y="278.45" width="3.89" height="3.89" transform="translate(-70.53 25.1) rotate(-15)"/><rect class="cls-13" x="52.9" y="274.21" width="3.89" height="3.89" transform="translate(-69.6 23.6) rotate(-15)"/><rect class="cls-13" x="52.91" y="279.84" width="3.89" height="3.89" transform="matrix(0.97, -0.26, 0.26, 0.97, -71.06, 23.8)"/><rect class="cls-13" x="47.6" y="275.63" width="3.89" height="3.89" transform="translate(-70.16 22.28) rotate(-15)"/><rect class="cls-13" x="47.7" y="281.24" width="3.89" height="3.89" transform="translate(-71.6 22.5) rotate(-15)"/><rect class="cls-13" x="42.3" y="277.05" width="3.89" height="3.89" transform="translate(-70.7 20.96) rotate(-15)"/><rect class="cls-13" x="42.5" y="282.63" width="3.89" height="3.89" transform="translate(-72.14 21.2) rotate(-15)"/><rect class="cls-13" x="37" y="278.47" width="3.89" height="3.89" transform="matrix(0.97, -0.26, 0.26, 0.97, -71.25, 19.64)"/><rect class="cls-13" x="33.04" y="284.58" width="8.22" height="3.89" transform="matrix(0.97, -0.26, 0.26, 0.97, -72.89, 19.38)"/><rect class="cls-13" x="31.7" y="279.89" width="3.89" height="3.89" transform="matrix(0.97, -0.26, 0.26, 0.97, -71.79, 18.31)"/><rect class="cls-13" x="34.52" y="290.4" width="3.89" height="3.89" transform="translate(-74.42 19.4) rotate(-15)"/><rect class="cls-13" x="39.72" y="289.01" width="3.89" height="3.89" transform="matrix(0.97, -0.26, 0.26, 0.97, -73.88, 20.7)"/><rect class="cls-13" x="44.93" y="287.61" width="3.89" height="3.89" transform="translate(-73.34 22) rotate(-15)"/><rect class="cls-13" x="50.13" y="286.22" width="3.89" height="3.89" transform="translate(-72.81 23.3) rotate(-15)"/><rect class="cls-13" x="55.34" y="284.82" width="3.89" height="3.89" transform="translate(-72.27 24.6) rotate(-15)"/><rect class="cls-13" x="60.54" y="283.43" width="3.89" height="3.89" transform="matrix(0.97, -0.26, 0.26, 0.97, -71.73, 25.89)"/><rect class="cls-13" x="65.74" y="282.03" width="3.89" height="3.89" transform="translate(-71.2 27.2) rotate(-15)"/><rect class="cls-13" x="70.95" y="280.64" width="3.89" height="3.89" transform="translate(-70.66 28.5) rotate(-15)"/><rect class="cls-13" x="76.15" y="279.24" width="3.89" height="3.89" transform="translate(-70.11 29.79) rotate(-15)"/><rect class="cls-13" x="81.36" y="277.85" width="3.89" height="3.89" transform="translate(-69.58 31.09) rotate(-15)"/><rect class="cls-13" x="30.35" y="274.83" width="3.89" height="3.89" transform="translate(-70.53 17.79) rotate(-15)"/><rect class="cls-13" x="29.39" y="272.62" width="3.07" height="1.25" transform="translate(-69.66 17.31) rotate(-15)"/><rect class="cls-13" x="33.61" y="271.49" width="3.07" height="1.25" transform="translate(-69.23 18.37) rotate(-15)"/><rect class="cls-13" x="37.84" y="270.36" width="3.07" height="1.25" transform="translate(-68.8 19.43) rotate(-15)"/><rect class="cls-13" x="42.07" y="269.22" width="3.07" height="1.25" transform="translate(-68.36 20.48) rotate(-15)"/><rect class="cls-13" x="48.44" y="267.52" width="3.07" height="1.25" transform="translate(-67.69 22.07) rotate(-15)"/><rect class="cls-13" x="52.67" y="266.38" width="3.07" height="1.25" transform="translate(-67.26 23.13) rotate(-15)"/><rect class="cls-13" x="56.89" y="265.25" width="3.07" height="1.25" transform="translate(-66.83 24.18) rotate(-15)"/><rect class="cls-13" x="61.12" y="264.12" width="3.07" height="1.25" transform="translate(-66.38 25.24) rotate(-15)"/><rect class="cls-13" x="67.49" y="262.41" width="3.07" height="1.25" transform="translate(-65.72 26.83) rotate(-15)"/><rect class="cls-13" x="71.72" y="261.28" width="3.07" height="1.25" transform="translate(-65.29 27.89) rotate(-15)"/><rect class="cls-13" x="75.94" y="260.15" width="3.07" height="1.25" transform="translate(-64.86 28.94) rotate(-15)"/><rect class="cls-13" x="80.17" y="259.02" width="3.07" height="1.25" transform="translate(-64.41 29.99) rotate(-15)"/><rect class="cls-13" x="86.54" y="257.31" width="3.07" height="1.25" transform="translate(-63.75 31.58) rotate(-15)"/><rect class="cls-13" x="90.77" y="256.18" width="3.07" height="1.25" transform="translate(-63.32 32.64) rotate(-15)"/><rect class="cls-13" x="94.99" y="255.04" width="3.07" height="1.25" transform="translate(-62.89 33.7) rotate(-15)"/><rect class="cls-13" x="99.22" y="253.91" width="3.07" height="1.25" transform="translate(-62.44 34.75) rotate(-15)"/><rect class="cls-13" x="35.55" y="273.43" width="3.89" height="3.89" transform="translate(-70 19.09) rotate(-15)"/><rect class="cls-13" x="40.75" y="272.04" width="3.89" height="3.89" transform="matrix(0.97, -0.26, 0.26, 0.97, -69.46, 20.39)"/><rect class="cls-13" x="45.96" y="270.64" width="3.89" height="3.89" transform="matrix(0.97, -0.26, 0.26, 0.97, -68.91, 21.68)"/><rect class="cls-13" x="51.16" y="269.25" width="3.89" height="3.89" transform="matrix(0.97, -0.26, 0.26, 0.97, -68.38, 22.98)"/><rect class="cls-13" x="56.37" y="267.85" width="3.89" height="3.89" transform="translate(-67.84 24.29) rotate(-15)"/><rect class="cls-13" x="61.57" y="266.46" width="3.89" height="3.89" transform="translate(-67.3 25.58) rotate(-15)"/><rect class="cls-13" x="66.77" y="265.07" width="3.89" height="3.89" transform="translate(-66.76 26.88) rotate(-15)"/><rect class="cls-13" x="71.98" y="263.67" width="3.89" height="3.89" transform="matrix(0.97, -0.26, 0.26, 0.97, -66.23, 28.19)"/><rect class="cls-13" x="77.18" y="262.28" width="3.89" height="3.89" transform="matrix(0.97, -0.26, 0.26, 0.97, -65.69, 29.48)"/><rect class="cls-13" x="95.65" y="257.33" width="3.89" height="3.89" transform="translate(-63.78 34.09) rotate(-15)"/><rect class="cls-13" x="100.86" y="255.93" width="3.89" height="3.89" transform="translate(-63.24 35.4) rotate(-15)"/><rect class="cls-13" x="106.06" y="254.54" width="3.89" height="3.89" transform="translate(-62.71 36.7) rotate(-15)"/><rect class="cls-13" x="97.01" y="262.39" width="3.89" height="3.89" transform="translate(-65.04 34.62) rotate(-15)"/><rect class="cls-13" x="102.21" y="261" width="3.89" height="3.89" transform="translate(-64.51 35.92) rotate(-15)"/><rect class="cls-13" x="107.42" y="259.6" width="3.89" height="3.89" transform="translate(-63.97 37.22) rotate(-15)"/><rect class="cls-13" x="82.31" y="260.32" width="8.25" height="3.89" transform="translate(-64.93 31.31) rotate(-15)"/><rect class="cls-13" x="86.49" y="275.89" width="8.25" height="3.89" transform="translate(-68.82 32.92) rotate(-15)"/><polygon class="cls-13" points="84.16 266.29 85.16 270.04 88.53 269.14 89.94 274.4 93.69 273.39 92.28 268.13 91.85 266.51 91.28 264.38 84.16 266.29"/><rect class="cls-13" x="35.89" y="295.37" width="6.06" height="3.89" transform="translate(-75.62 20.2) rotate(-15)"/><path d="M76,313.79a34.82,34.82,0,0,1-4.51.3,8.32,8.32,0,0,0-4.59,2.07,8,8,0,0,0,.9,12.7A7.93,7.93,0,0,0,72,330.15l5,0,22.47-.05h14.65a7.35,7.35,0,0,0,1.14-.12,6.26,6.26,0,0,0,.31-12.19,7.47,7.47,0,0,0-.92-.18l-1-.05-2-.1-.49,0v-.49a7.93,7.93,0,0,0-1-3.82,8.05,8.05,0,0,0-2.39-2.64,8.23,8.23,0,0,0-2.88-1.25,14.36,14.36,0,0,0-2.71-.21c-1.68,0-3-.08-3.87-.13a4.62,4.62,0,0,1-1.35-.14,4.79,4.79,0,0,1,1.35-.15c.89-.05,2.19-.1,3.87-.15a12.7,12.7,0,0,1,2.84.1,8.46,8.46,0,0,1,3.2,1.25,8.61,8.61,0,0,1,3.93,7.14l-.5-.51,1.94.06,1,0a10.36,10.36,0,0,1,1.09.19,7.45,7.45,0,0,1,4.16,11.7,7.57,7.57,0,0,1-4.48,2.86,9.24,9.24,0,0,1-1.38.15H99.48L77,331.4c-1.74,0-3.4,0-5.06,0a9,9,0,0,1-8.71-9.31,8.9,8.9,0,0,1,3.15-6.47,8.69,8.69,0,0,1,5-2c1.51,0,2.61.06,3.39.09A3.52,3.52,0,0,1,76,313.79Z"/><path d="M97.09,308.75c-.12,0-.18-.54-.39-1.46a10.8,10.8,0,0,0-1.49-3.62A10.35,10.35,0,0,0,91,299.89a10.09,10.09,0,0,0-12.47,3,10.3,10.3,0,0,0-2,5.29c-.18,3.41-.31,5.58-.51,5.57s-.39-2.11-.46-5.62a10.57,10.57,0,0,1,2-6,11,11,0,0,1,14.06-3.43,10.77,10.77,0,0,1,4.49,4.41,9.36,9.36,0,0,1,1.18,4.05C97.29,308.21,97.16,308.75,97.09,308.75Z"/><path d="M86.54,306.65c0,.25-1.47.2-3.25,1.39a6.6,6.6,0,0,0-2.88,4.81c0,.7,0,1.62,0,2.46v2.15H79.7l-2.27,0a5.31,5.31,0,0,0-1.86.25A5.15,5.15,0,0,0,73,319.5c-1.1,1.5-1.08,2.8-1.3,2.78s-.19-.31-.17-.89a5.1,5.1,0,0,1,.7-2.4,5.77,5.77,0,0,1,2.9-2.46,6.31,6.31,0,0,1,2.27-.42l2.27,0-.68.68v-1.46c0-.88,0-1.66.06-2.6a7.27,7.27,0,0,1,.74-2.46,7.1,7.1,0,0,1,3-3,5.89,5.89,0,0,1,2.73-.74C86.19,306.45,86.54,306.57,86.54,306.65Z"/><polygon class="cls-34" points="105.1 335.07 92.31 315.85 79.51 335.07 87.52 335.07 87.52 351.69 97.09 351.69 97.09 335.07 105.1 335.07"/><path d="M105.1,335.07a13,13,0,0,1-2,.14c-1.34.06-3.41.18-6,.23l.36-.37c.09,4.22.16,9.91.22,16.62v.58h-.58l-9.57.06h-.64v-.65c0-5.2,0-10.79,0-16.62l.68.69H78.23l.71-1.06,12.89-19.17.48-.71.47.71c3.9,6,7,11,9.14,14.35q1.53,2.46,2.43,3.89a9.45,9.45,0,0,1,.75,1.3,17.43,17.43,0,0,1-1.07-1.44l-2.75-3.89c-2.35-3.32-5.63-7.94-9.45-13.58h1L80.07,335.45l-.56-1.06h8.7v.68c0,5.83,0,11.42,0,16.62l-.65-.64,9.57.06-.59.58c.06-6.71.13-12.4.22-16.62v-.37h.36c2.43.05,4.37.17,5.77.23S105,335,105.1,335.07Z"/><path d="M411.5,174.15a19,19,0,0,1,.27,3.57c.08,2.29.15,5.62.22,9.73a17.15,17.15,0,0,0,.19,3.12,9.86,9.86,0,0,0,6.61,7.61,9.69,9.69,0,0,0,1.88.42,16.48,16.48,0,0,0,2,.08l4.36,0h4.5a11.2,11.2,0,0,1,4.8,1,11,11,0,0,1-1.45,20.68c-2.49.75-4.89.15-6.74.51a9.14,9.14,0,0,0-4.7,2.26,9.46,9.46,0,0,0-2.34,3.26,19.88,19.88,0,0,0-.91,3.39s-.08-.32-.09-.93a8.79,8.79,0,0,1,.5-2.65,9.46,9.46,0,0,1,2.31-3.62,9.78,9.78,0,0,1,5.05-2.67c2.19-.44,4.42.09,6.6-.65a9.82,9.82,0,0,0,6.62-12.06,9.77,9.77,0,0,0-9.65-7.11h-4.5l-4.36,0a16.24,16.24,0,0,1-2.18-.11,11.59,11.59,0,0,1-2.13-.5,11,11,0,0,1-6.08-5.16A10.82,10.82,0,0,1,411,189v-1.58c.07-4.11.14-7.44.22-9.73A17.06,17.06,0,0,1,411.5,174.15Z"/><path d="M404,159.15c.11.14.32,3.24.5,7.82a6.95,6.95,0,0,0,8.89,6.23,6.86,6.86,0,0,0,4.84-5.51,22.85,22.85,0,0,0,.1-2.91c0-2,0-3.85.05-5.63l.62.62c-4.31-.06-8-.2-10.63-.31a34.25,34.25,0,0,1-4.37-.31,20.29,20.29,0,0,1,4-.31c2.62-.12,6.45-.26,11-.31h.61v.63c0,1.78,0,3.67.05,5.63a22.3,22.3,0,0,1-.09,3.12,8.1,8.1,0,0,1-5.82,6.6,8,8,0,0,1-9-3.47,7.81,7.81,0,0,1-1.2-4c0-2.55.16-4.56.24-5.9A6.85,6.85,0,0,1,404,159.15Z"/><path d="M415.85,159.15c-.19,0-.36-1-.48-2.61-.06-.81-.11-1.77-.15-2.84l0-.81v-.64a.41.41,0,0,0,0-.11.61.61,0,0,0-.59-.49.62.62,0,0,0-.6.49.41.41,0,0,1,0,.11v.64l0,.81c0,1.07-.08,2-.14,2.84-.13,1.61-.3,2.61-.49,2.61s-.36-1-.49-2.61c-.06-.81-.11-1.77-.14-2.84l0-.81v-.64c0-.1,0-.22,0-.33a1.95,1.95,0,0,1,3.85,0,1.88,1.88,0,0,1,0,.33v.64l0,.81c0,1.07-.09,2-.15,2.84C416.22,158.15,416,159.15,415.85,159.15Z"/><path d="M409.6,159.15c-.19,0-.36-1-.48-2.61-.06-.81-.11-1.77-.15-2.84l0-.81v-.64a.41.41,0,0,0,0-.11.61.61,0,0,0-.59-.49.62.62,0,0,0-.6.49s0,.07,0,.11v.64l0,.81c0,1.07-.08,2-.14,2.84-.13,1.61-.3,2.61-.49,2.61s-.36-1-.49-2.61c-.06-.81-.11-1.77-.14-2.84l0-.81v-.64c0-.1,0-.22,0-.33a1.95,1.95,0,0,1,3.85,0,1.88,1.88,0,0,1,0,.33v.64l0,.81c0,1.07-.09,2-.15,2.84C410,158.15,409.79,159.15,409.6,159.15Z"/><path class="cls-35" d="M430.48,173s-7-2.48-13.43,4-4.32,13.74-4.32,13.74,7.26,2.17,13.74-4.32S430.48,173,430.48,173Z"/><path d="M430.48,173a4.46,4.46,0,0,1,.69,2.27,13,13,0,0,1-.86,6.45,16.21,16.21,0,0,1-2.33,3.9,19,19,0,0,1-3.84,3.53,14.82,14.82,0,0,1-11.61,2.26c-.93-.93-.26-.27-.47-.48h0v-.09l0-.1-.05-.21-.07-.4c0-.27-.09-.54-.11-.8a12.1,12.1,0,0,1-.08-1.59,15.06,15.06,0,0,1,2.63-8.39,19.05,19.05,0,0,1,3.53-3.85,16.49,16.49,0,0,1,3.9-2.32,13,13,0,0,1,6.45-.86,4.46,4.46,0,0,1,2.27.69c0,.1-.84-.12-2.32-.15a13.77,13.77,0,0,0-6,1.21,16.77,16.77,0,0,0-3.55,2.31,18.16,18.16,0,0,0-3.2,3.66,14.12,14.12,0,0,0-2,4.91,13,13,0,0,0-.29,2.8,11.51,11.51,0,0,0,.07,1.43c0,.24.07.48.1.71l.07.35,0,.17,0,.09v.05h0c-.2-.21.47.46-.46-.46a13.15,13.15,0,0,0,5.62,0,14.07,14.07,0,0,0,4.9-2,18.54,18.54,0,0,0,3.67-3.2,16.57,16.57,0,0,0,2.3-3.55,13.83,13.83,0,0,0,1.22-6C430.6,173.82,430.38,173,430.48,173Z"/><path d="M412.73,190.73c-.27-.27,1.9-2.88,4.85-5.83s5.56-5.12,5.83-4.85-1.91,2.88-4.86,5.83S413,191,412.73,190.73Z"/><path class="cls-36" d="M392.53,173s-2.47,7,4,13.43,13.75,4.32,13.75,4.32,2.16-7.26-4.32-13.74S392.53,173,392.53,173Z"/><path d="M392.53,173a4.53,4.53,0,0,1,2.28-.69,12.93,12.93,0,0,1,6.44.86,16.74,16.74,0,0,1,3.91,2.32,19.35,19.35,0,0,1,3.53,3.85A14.85,14.85,0,0,1,411,190.93c-.93.92-.27.26-.48.46h-.1l-.11,0-.2,0-.41.08c-.26,0-.53.09-.8.11a12,12,0,0,1-1.58.08,14.81,14.81,0,0,1-3.07-.34,15.33,15.33,0,0,1-5.33-2.29A19,19,0,0,1,395,185.6a16.16,16.16,0,0,1-2.32-3.9,13,13,0,0,1-.86-6.45,4.41,4.41,0,0,1,.68-2.27c.1,0-.11.84-.15,2.32a13.83,13.83,0,0,0,1.22,6,16.57,16.57,0,0,0,2.3,3.55,18.83,18.83,0,0,0,3.67,3.2,14.12,14.12,0,0,0,4.91,2,12.89,12.89,0,0,0,2.79.29,9.93,9.93,0,0,0,1.44-.08c.24,0,.47-.06.71-.09l.35-.07.17,0,.08,0h.06c-.2.2.47-.47-.45.46a13,13,0,0,0,0-5.62,14.3,14.3,0,0,0-2-4.91,18.8,18.8,0,0,0-3.2-3.66,16.82,16.82,0,0,0-3.56-2.31,13.75,13.75,0,0,0-6-1.21C393.37,172.86,392.56,173.08,392.53,173Z"/><path d="M410.29,190.73c-.27.27-2.88-1.9-5.83-4.85s-5.12-5.56-4.86-5.83,2.88,1.91,5.83,4.85S410.56,190.46,410.29,190.73Z"/><ellipse cx="77.17" cy="365.15" rx="11.24" ry="0.69"/><ellipse cx="73.25" cy="360.71" rx="11.24" ry="0.69"/><ellipse cx="69.34" cy="357.39" rx="11.24" ry="0.69"/><path d="M244.34,435.17a4.47,4.47,0,0,1,.83-.09l2.45-.13,4-.16c1.57-.07,3.38-.1,5.41-.31l6.75-.57c1.24-.08,2.52-.26,3.85-.44l4.15-.56c1.43-.2,2.92-.36,4.45-.62l4.69-.87,5-.92,5.19-1.23c1.76-.43,3.6-.79,5.42-1.32l5.61-1.62,2.89-.83c1-.3,1.93-.65,2.91-1l6-2a206.1,206.1,0,0,0,24.95-11.05,205.39,205.39,0,0,0,87.11-87.11,205.31,205.31,0,0,0,11.05-24.94c.69-2,1.37-4,2-6,.33-1,.68-1.94,1-2.9l.83-2.89,1.62-5.61c.53-1.83.88-3.66,1.32-5.43s.83-3.5,1.22-5.18.63-3.36.93-5,.58-3.18.86-4.7.42-3,.63-4.44.38-2.82.55-4.15.36-2.62.44-3.85c.21-2.47.4-4.73.58-6.76s.24-3.84.3-5.4.12-2.89.17-4,.1-1.87.13-2.44a4.47,4.47,0,0,1,.09-.83,4.06,4.06,0,0,1,.05.83c0,.57,0,1.39,0,2.44s0,2.41,0,4,0,3.39-.18,5.42-.29,4.31-.45,6.79c-.06,1.24-.22,2.53-.39,3.87l-.5,4.17c-.19,1.44-.32,2.94-.57,4.47s-.54,3.1-.82,4.72-.58,3.29-.88,5-.78,3.44-1.18,5.22-.77,3.62-1.29,5.47-1,3.72-1.58,5.64c-.27,1-.54,1.94-.82,2.92s-.64,1.94-1,2.92c-.66,2-1.33,4-2,6a203.78,203.78,0,0,1-11,25.15,205.52,205.52,0,0,1-112.79,98.65l-6,2c-1,.32-1.95.67-2.93,1l-2.91.81-5.65,1.58c-1.84.52-3.68.87-5.46,1.29L286,431.4l-5,.88-4.73.82c-1.53.25-3,.38-4.46.57l-4.18.51c-1.33.16-2.62.32-3.86.38L257,435c-2,.18-3.85.16-5.42.18l-4,0h-2.44A3.35,3.35,0,0,1,244.34,435.17Z"/><path d="M270.84,418.39a2.51,2.51,0,0,1,.68-.18l2-.4,3.3-.61c1.3-.23,2.81-.48,4.48-.88l5.6-1.24c2-.46,4.22-1.11,6.59-1.72s4.85-1.4,7.49-2.23c1.32-.43,2.69-.8,4.07-1.31l4.22-1.54c5.79-2.07,11.95-4.8,18.47-7.91l4.89-2.55,2.5-1.3,2.48-1.44,5.06-2.94,5.06-3.24c1.74-1.06,3.39-2.28,5.1-3.47s3.45-2.37,5.11-3.7l5.1-3.93,5-4.23a200,200,0,0,0,19.37-19.28,191.91,191.91,0,0,0,16.4-21.85c1.17-1.88,2.42-3.68,3.48-5.57l3.23-5.58c1-1.86,2-3.74,2.93-5.58.48-.92,1-1.83,1.42-2.76l1.29-2.77a190,190,0,0,0,8.56-21.4c1-3.46,2.19-6.76,3-10q.63-2.43,1.25-4.77c.39-1.56.69-3.11,1-4.6s.65-3,1-4.4.49-2.85.72-4.21.45-2.69.67-4,.33-2.55.49-3.76.29-2.38.43-3.51.28-2.21.34-3.25q.25-3.14.46-5.71c.17-1.72.19-3.25.25-4.57s.1-2.43.14-3.35.09-1.57.12-2.06a2.11,2.11,0,0,1,.09-.7,2.85,2.85,0,0,1,.05.7c0,.49,0,1.18,0,2.06s0,2,0,3.36,0,2.87-.12,4.59-.22,3.64-.34,5.73c0,1-.16,2.14-.29,3.27s-.25,2.32-.38,3.53-.25,2.49-.43,3.78-.41,2.63-.63,4-.44,2.79-.67,4.24-.59,2.91-.9,4.43-.61,3.07-1,4.64-.8,3.17-1.22,4.8c-.76,3.29-1.89,6.61-2.92,10.1a187.55,187.55,0,0,1-8.49,21.58l-1.29,2.8c-.44.94-.94,1.85-1.42,2.79-1,1.85-1.9,3.75-2.93,5.63s-2.14,3.73-3.23,5.62-2.33,3.72-3.5,5.62a192.22,192.22,0,0,1-16.49,22A200.6,200.6,0,0,1,369,374.6l-5.07,4.24-5.14,3.94c-1.68,1.34-3.45,2.5-5.16,3.71s-3.39,2.41-5.14,3.47l-5.12,3.24-5.11,2.93-2.5,1.43-2.52,1.3c-1.67.86-3.32,1.7-4.93,2.54a197.3,197.3,0,0,1-18.64,7.79l-4.27,1.5c-1.38.5-2.77.86-4.1,1.28-2.66.8-5.16,1.59-7.56,2.14s-4.58,1.19-6.64,1.61l-5.63,1.12c-1.69.37-3.21.58-4.52.77l-3.33.47-2,.27A2.85,2.85,0,0,1,270.84,418.39Z"/><path d="M244.34,402.7a3.27,3.27,0,0,1,.7-.09l2.06-.12,3.34-.15c1.31-.06,2.84-.08,4.55-.27l5.68-.49c1-.07,2.12-.22,3.24-.37l3.49-.47c1.21-.18,2.46-.31,3.74-.53l3.95-.74,4.18-.78,4.37-1c1.48-.37,3-.67,4.56-1.12l4.72-1.36,2.43-.7c.81-.26,1.62-.55,2.44-.83l5-1.72a173.41,173.41,0,0,0,94.27-82.59,172.85,172.85,0,0,0,9.31-21c.58-1.7,1.16-3.37,1.72-5,.28-.83.57-1.64.82-2.45l.71-2.43q.69-2.41,1.36-4.72c.45-1.54.75-3.08,1.12-4.56s.69-2.95,1-4.36.53-2.83.78-4.19.5-2.67.73-3.95.36-2.53.53-3.74.32-2.37.47-3.49.31-2.2.38-3.24c.18-2.07.34-4,.49-5.68s.21-3.23.27-4.55.11-2.43.15-3.34l.12-2a2.11,2.11,0,0,1,.09-.7,2.85,2.85,0,0,1,0,.7c0,.49,0,1.17,0,2s0,2,0,3.35,0,2.86-.15,4.57-.23,3.63-.37,5.71c-.05,1-.18,2.14-.32,3.26s-.27,2.3-.42,3.52-.26,2.47-.47,3.76-.45,2.61-.69,4l-.74,4.21c-.32,1.43-.65,2.9-1,4.4s-.64,3.05-1.08,4.6-.87,3.14-1.33,4.76c-.22.81-.45,1.63-.68,2.45s-.54,1.64-.81,2.47l-1.7,5.06a171.84,171.84,0,0,1-9.25,21.18,173.08,173.08,0,0,1-95,83.09l-5.07,1.69c-.83.27-1.64.56-2.46.81l-2.45.69-4.76,1.33c-1.55.43-3.11.72-4.6,1.08l-4.4,1-4.21.73-4,.69c-1.29.21-2.56.32-3.77.48l-3.51.42c-1.13.14-2.21.27-3.26.31l-5.71.38c-1.72.14-3.25.12-4.57.14l-3.35,0-2.06,0A2.93,2.93,0,0,1,244.34,402.7Z"/></g></g></svg>