<svg xmlns="http://www.w3.org/2000/svg" viewBox="0 0 311.11 311.11"><defs><style>.cls-1{fill:aqua;opacity:0.2;}.cls-2{fill:#ececec;}.cls-3{fill:#fbc39d;}.cls-4{fill:#f9ac7f;}.cls-5{fill:#1d1d1b;}.cls-6{fill:#e6e6e6;}.cls-7{fill:#111110;}.cls-8{fill:#262626;}.cls-9{fill:#323232;}.cls-10{fill:#dbdbdb;}.cls-11{fill:#141414;}.cls-12{fill:#40bcdf;}.cls-13{fill:#ebf6fe;}.cls-14{fill:#fff;}.cls-15{fill:#1898ce;}</style></defs><g id="Layer_2" data-name="Layer 2"><g id="OBJECTS"><circle class="cls-1" cx="155.56" cy="155.56" r="155.56"/><path class="cls-2" d="M90.55,219.28,57,258.57a12.71,12.71,0,0,0,1.07,17.61h0a12.72,12.72,0,0,0,14.12,2.09c17.07-8.25,56.28-27.35,55.5-28.65-.59-1-9.4-16.19-16.5-28.46A12.7,12.7,0,0,0,90.55,219.28Z"/><path class="cls-3" d="M151,256.44l-76.34,24.9a13.32,13.32,0,0,1-16.79-8.53h0A13.3,13.3,0,0,1,66.35,256l76.34-24.91a13.32,13.32,0,0,1,16.79,8.53h0A13.33,13.33,0,0,1,151,256.44Z"/><path class="cls-2" d="M229.64,219.28l33.53,39.29a12.71,12.71,0,0,1-1.07,17.61h0A12.72,12.72,0,0,1,248,278.27c-17.07-8.25-56.28-27.35-55.5-28.65.59-1,9.4-16.19,16.5-28.46A12.7,12.7,0,0,1,229.64,219.28Z"/><path class="cls-3" d="M169.24,256.44l76.34,24.9a13.32,13.32,0,0,0,16.79-8.53h0A13.3,13.3,0,0,0,253.84,256L177.5,231.11a13.32,13.32,0,0,0-16.79,8.53h0A13.33,13.33,0,0,0,169.24,256.44Z"/><path class="cls-2" d="M211.41,225.44l-97.16-2V211c0-20.4,20.75-39.42,41.14-39.42h15.32c18.12,0,40.7,19.16,40.7,37.27Z"/><path class="cls-3" d="M169.68,148.55H155.4a5.22,5.22,0,0,0-5.22,5.22v22.38a12.36,12.36,0,0,0,24.72,0V153.77A5.22,5.22,0,0,0,169.68,148.55Z"/><path class="cls-4" d="M150.18,171.55s1,7.28,12.36,7.28,12.36-7.28,12.36-7.28Z"/><path class="cls-4" d="M127.71,113A9.62,9.62,0,1,0,137,122.6,9.43,9.43,0,0,0,127.71,113Z"/><path class="cls-4" d="M197.5,113a9.62,9.62,0,1,0,9.24,9.61A9.43,9.43,0,0,0,197.5,113Z"/><path class="cls-3" d="M159.7,174l-.06.06c1,.09,1.92.14,2.9.14h0a33.86,33.86,0,0,0,8.53-1.1l0-.07c15.1-4,26.28-18.18,26.28-35.11V95.47c0-20-15.6-16.81-34.84-16.81h0c-19.24,0-34.83-3.19-34.83,16.81v42.44C127.71,156.91,141.79,172.49,159.7,174Z"/><path class="cls-5" d="M190.35,124v11.46H178s-3.07-8.27-15.46-8.27-15.45,8.27-15.45,8.27H134.73V124c0-4.51-4.23-6-7-6.49v20.45c0,19,14.08,34.58,32,36.08l-.06.06c1,.09,1.92.14,2.9.14s2-.05,2.9-.14l-.06-.06c17.91-1.5,32-17.08,32-36.08V117.46C194.58,118,190.35,119.44,190.35,124Z"/><path d="M178.62,113a2.45,2.45,0,1,1-2.45-2.54A2.5,2.5,0,0,1,178.62,113Z"/><rect x="171.36" y="104.9" width="10.37" height="4.07" rx="0.93"/><path class="cls-6" d="M149.77,141.37h24.11s-2.13,8.23-12.06,8.23S149.77,141.37,149.77,141.37Z"/><path class="cls-7" d="M165.38,167.33l.06.07c-.95.08-1.92.13-2.9.13s-1.94-.05-2.9-.13l.06-.07c-17.91-1.5-32-17.08-32-36.08v6.66c0,19,14.08,34.58,32,36.08l-.06.06c1,.09,1.92.14,2.9.14s2-.05,2.9-.14l-.06-.06c17.91-1.5,32-17.08,32-36.08v-6.66C197.38,150.25,183.29,165.83,165.38,167.33Z"/><path d="M150,113a2.45,2.45,0,1,1-2.44-2.54A2.5,2.5,0,0,1,150,113Z"/><rect x="142.71" y="104.9" width="10.37" height="4.07" rx="0.93"/><path class="cls-5" d="M188.17,64.72c-9.52-1.34-24.37-1.49-35.2,7.41a6.28,6.28,0,0,0-.69.66h-8.57c-8.84,0-16,6.26-16,14v48a3,3,0,0,0,3-3.07V100.75s.55-9.82,9.45-9.82h43.58c9.48,0,10.64,8.6,10.75,9.7v31.06a3,3,0,0,0,2.95,3.07V87.65l.1-12.08A10.85,10.85,0,0,0,188.17,64.72Z"/><path class="cls-4" d="M165.92,121h-8.19a3.07,3.07,0,0,0,0,6.14h8.19a3.07,3.07,0,0,0,0-6.14Z"/><rect class="cls-8" x="76.78" y="270.7" width="169.72" height="11.63" rx="5.81"/><rect class="cls-9" x="92.4" y="195.55" width="140.33" height="86.77" rx="9.17"/><path class="cls-10" d="M161.63,249.59a10.65,10.65,0,1,1,10.66-10.65A10.67,10.67,0,0,1,161.63,249.59Zm0-19.44a8.8,8.8,0,1,0,8.8,8.79A8.8,8.8,0,0,0,161.63,230.15Z"/><path class="cls-11" d="M56.19,281H239.38a1.29,1.29,0,1,1,0,2.58H56.19a1.29,1.29,0,1,1,0-2.58Z"/><path class="cls-11" d="M245.82,281h20.52a1.29,1.29,0,1,1,0,2.58H245.82a1.29,1.29,0,1,1,0-2.58Z"/><path class="cls-12" d="M28.64,281H49.17a1.29,1.29,0,1,1,0,2.58H28.64a1.29,1.29,0,1,1,0-2.58Z"/><path class="cls-12" d="M17.18,281h4.4a1.29,1.29,0,0,1,0,2.58h-4.4a1.29,1.29,0,0,1,0-2.58Z"/><path class="cls-12" d="M273.74,281h7a1.29,1.29,0,0,1,0,2.58h-7a1.29,1.29,0,1,1,0-2.58Z"/><path class="cls-12" d="M292.12,281h1.81a1.29,1.29,0,1,1,0,2.58h-1.81a1.29,1.29,0,1,1,0-2.58Z"/><path class="cls-2" d="M68.16,60.45H53.8A27.62,27.62,0,0,0,26.19,88.07h0a27.6,27.6,0,0,0,27.53,27.61h0c3.08,2.89,7.26,6.91,7.26,6.91h0l7.18-6.9h0A27.62,27.62,0,0,0,95.78,88.07h0A27.62,27.62,0,0,0,68.16,60.45Z"/><circle class="cls-2" cx="65.73" cy="181.7" r="23.51" transform="translate(-126.26 203.46) rotate(-76.58)"/><circle class="cls-12" cx="37.84" cy="225.44" r="6.03"/><circle class="cls-12" cx="192.47" cy="45.63" r="6.23"/><path class="cls-13" d="M269,72.21a1,1,0,0,1-.67-.28L265,68.46H239.35a20.78,20.78,0,0,1,0-41.56h35.79a20.78,20.78,0,1,1,0,41.56h-2.69l-2.76,3.41a.92.92,0,0,1-.68.34ZM239.35,28.74a18.94,18.94,0,1,0,0,37.88h26a1,1,0,0,1,.67.28l2.85,3L271.29,67a.92.92,0,0,1,.72-.34h3.13a18.94,18.94,0,0,0,0-37.88Z"/><path class="cls-12" d="M140.51,34.77h-25.6a11.37,11.37,0,1,0,0,22.74h25.6a11.37,11.37,0,1,0,0-22.74Z"/><polygon class="cls-12" points="121.52 56.84 118.44 61.01 115.83 56.84 121.52 56.84"/><path class="cls-2" d="M267.43,107.22h-24a20.4,20.4,0,1,0,0,40.8h2.5l5.17,7.26,4.73-7.26h11.64a20.4,20.4,0,0,0,0-40.8Z"/><path class="cls-12" d="M94.74,142.82a1.39,1.39,0,0,1-1-.42L86,134.63a1.41,1.41,0,0,1,2-2l7.78,7.77a1.42,1.42,0,0,1-1,2.42Z"/><path class="cls-12" d="M87,142.82a1.42,1.42,0,0,1-1-2.42l7.78-7.77a1.41,1.41,0,0,1,2,2L88,142.4A1.39,1.39,0,0,1,87,142.82Z"/><path class="cls-14" d="M138.13,48.05H124.86a1.91,1.91,0,1,1,0-3.82h13.27a1.91,1.91,0,1,1,0,3.82Z"/><path class="cls-12" d="M278.27,42.69H237.41a2.07,2.07,0,1,1,0-4.14h40.86a2.07,2.07,0,1,1,0,4.14Z"/><path class="cls-12" d="M258.63,49.77H237.41a2.07,2.07,0,1,1,0-4.14h21.22a2.07,2.07,0,0,1,0,4.14Z"/><path class="cls-12" d="M270.39,56.85h-33a2.07,2.07,0,1,1,0-4.14h33a2.07,2.07,0,0,1,0,4.14Z"/><path class="cls-14" d="M118.7,48.05h-2.32a1.91,1.91,0,1,1,0-3.82h2.32a1.91,1.91,0,0,1,0,3.82Z"/><path class="cls-15" d="M72.36,85.3v-.07a2.9,2.9,0,0,0-2.57-2.85,5.3,5.3,0,0,0-.69,0h-.5V78.67a13.18,13.18,0,0,0-.16-2.51,7.41,7.41,0,0,0-2.63-4.36,7.93,7.93,0,0,0-2.56-1.41A7.4,7.4,0,0,0,60.61,70a7.65,7.65,0,0,0-4.26,1.51,8.31,8.31,0,0,0-1.77,1.83,7.62,7.62,0,0,0-1,2,9.12,9.12,0,0,0-.35,2.8v4.17h-.84a2.9,2.9,0,0,0-2.48,1.35,5.2,5.2,0,0,0-.44,2.92v12a3.06,3.06,0,0,0,.78,2.12,2.94,2.94,0,0,0,2.18.92H69.2a3.8,3.8,0,0,0,1.16-.14,2.92,2.92,0,0,0,2-2.75V85.3ZM63.24,92A2.39,2.39,0,0,1,62,94v2a1.09,1.09,0,1,1-2.17,0V94a2.3,2.3,0,0,1-.92-.86,2.39,2.39,0,0,1,.25-2.72,2.33,2.33,0,0,1,2.51-.67,2.36,2.36,0,0,1,1.57,2.16h0V92Zm2.48-12.69v3.1H56.11V78.09a9.21,9.21,0,0,1,0-1,6.18,6.18,0,0,1,.33-1.21,7.05,7.05,0,0,1,.63-1.06L57,74.9l.23-.29-.12.16A6.43,6.43,0,0,1,58,73.9l-.16.13.29-.23-.13.1A6.76,6.76,0,0,1,59,73.28a7.47,7.47,0,0,1,1.23-.34,7,7,0,0,1,1.29,0,7.87,7.87,0,0,1,1.24.34,6.67,6.67,0,0,1,1.06.62l-.13-.1L64,74l-.17-.12a6,6,0,0,1,.87.87l-.12-.17.23.3a.69.69,0,0,0-.11-.13,5.7,5.7,0,0,1,.63,1.06A7.26,7.26,0,0,1,65.69,77C65.76,77.76,65.72,78.52,65.72,79.26Z"/><path class="cls-15" d="M75.09,189.88a8,8,0,0,0-8-8H64.82a8,8,0,0,0-8,8v2.28H75.09Z"/><path class="cls-15" d="M66,170.48A4.57,4.57,0,1,1,61.39,175,4.57,4.57,0,0,1,66,170.48Z"/><path class="cls-15" d="M246.62,119.18a8.2,8.2,0,0,1,7.2,4.29H270.4l3.9,3.51-5.07,4.28-2.34-2.33-2.34,2.33-2.34-2.33-2.34,2.33h-6.05a8.19,8.19,0,1,1-7.2-12.08ZM243.89,125a2.34,2.34,0,1,0,2.34,2.34A2.34,2.34,0,0,0,243.89,125Z"/><path class="cls-12" d="M273.64,197.22a15.52,15.52,0,0,0-15.53-15.52h-1.19A15.52,15.52,0,0,0,254,212.47l3.17,5.05,3.72-5A15.53,15.53,0,0,0,273.64,197.22Z"/><path class="cls-2" d="M256.77,199.8h1.49a.45.45,0,0,0,.45-.45l.92-10.27a.46.46,0,0,0-.46-.45h-3.31a.45.45,0,0,0-.45.45l.91,10.27A.45.45,0,0,0,256.77,199.8Z"/><path class="cls-2" d="M257.52,201.37a2.23,2.23,0,1,0,2.22,2.22A2.23,2.23,0,0,0,257.52,201.37Z"/><path class="cls-2" d="M276.35,244.24a1.44,1.44,0,0,1-1-.41l-7.77-7.78a1.41,1.41,0,0,1,2-2l7.77,7.78a1.41,1.41,0,0,1-1,2.41Z"/><path class="cls-2" d="M268.58,244.24a1.41,1.41,0,0,1-1-2.41l7.77-7.78a1.41,1.41,0,0,1,2,2l-7.77,7.78A1.44,1.44,0,0,1,268.58,244.24Z"/></g></g></svg>