<svg xmlns="http://www.w3.org/2000/svg" viewBox="0 0 399.88 407.47"><defs><style>.cls-1{isolation:isolate;}.cls-2,.cls-34,.cls-44{fill:#00b4ff;}.cls-2{opacity:0.2;}.cls-3{fill:#57321d;}.cls-4{fill:#9a5734;}.cls-5{fill:#a55c3c;}.cls-6{fill:#8e4c2f;}.cls-10,.cls-26,.cls-27,.cls-33,.cls-7{fill:none;}.cls-10,.cls-7{stroke:#b78842;}.cls-10,.cls-26,.cls-27,.cls-29,.cls-30,.cls-7{stroke-linecap:round;stroke-linejoin:round;}.cls-7{stroke-dasharray:3.01 3.01;}.cls-8{fill:#b96a42;}.cls-9{fill:#ad5f3d;}.cls-10{stroke-dasharray:3;}.cls-11{fill:#ccc;}.cls-12{fill:#e5e5e5;}.cls-13{fill:#b2b2b2;}.cls-14,.cls-42{opacity:0.3;}.cls-15,.cls-16,.cls-29,.cls-30{fill:#151515;}.cls-16,.cls-20{opacity:0.61;}.cls-17{fill:#ff6784;}.cls-18{opacity:0.32;}.cls-18,.cls-22{mix-blend-mode:screen;}.cls-19{fill:#ffb42b;}.cls-20{fill:#c93f60;}.cls-21{fill:#f4567b;}.cls-22{fill:#ff8aa6;}.cls-22,.cls-48{opacity:0.4;}.cls-23{opacity:0.26;}.cls-24{fill:#ededed;}.cls-25{fill:#bbebff;}.cls-26,.cls-27,.cls-29,.cls-30{stroke:#bbebff;}.cls-27,.cls-30{stroke-width:1.5px;}.cls-28{opacity:0.13;}.cls-31,.cls-47{fill:#fff;}.cls-32{fill:#f7f7f7;}.cls-33{stroke:#00b4ff;stroke-miterlimit:10;}.cls-35{fill:#ffc4a4;}.cls-36{fill:#ffb08d;}.cls-37{fill:#ffa5a1;}.cls-38,.cls-40{fill:#ffd0bb;}.cls-38,.cls-39{opacity:0.35;}.cls-41{fill:#f99595;}.cls-42{fill:#ffdfd2;}.cls-43{fill:#d38262;}.cls-44{font-size:18px;font-family:Quicksand-Bold, Quicksand;font-weight:700;}.cls-45{letter-spacing:-0.03em;}.cls-46{letter-spacing:0.02em;}.cls-47{opacity:0.38;}.cls-49{fill:#4dceff;}.cls-50{fill:#ffe2d7;opacity:0.59;}</style></defs><g class="cls-1"><g id="Layer_2" data-name="Layer 2"><g id="OBJECTS"><circle class="cls-2" cx="194.23" cy="184.5" r="184.5"/><rect class="cls-3" x="262.64" y="86.97" width="128.82" height="129.68" rx="12.64" transform="translate(-14.57 36.46) rotate(-6.24)"/><rect class="cls-4" x="252.05" y="84.89" width="134.64" height="135.53" rx="12.64" transform="translate(-14.71 35.63) rotate(-6.24)"/><rect class="cls-5" x="265.45" y="108.91" width="97.93" height="88.57" rx="12.64" transform="translate(-14.79 35.1) rotate(-6.24)"/><path class="cls-6" d="M381.09,214.06,272.37,226A12.64,12.64,0,0,1,258.47,215L259,215l108.71-11.89a12.64,12.64,0,0,0,11.19-13.93L367,79.53l0-.24a12.64,12.64,0,0,1,13.37,11.24l12,109.6A12.63,12.63,0,0,1,381.09,214.06Z"/><rect class="cls-7" x="256.66" y="89.54" width="125.4" height="126.23" rx="12.64" transform="translate(-14.71 35.63) rotate(-6.24)"/><rect class="cls-8" x="303.72" y="131.91" width="88.6" height="35.21" rx="5.28" transform="translate(-14.19 38.73) rotate(-6.24)"/><path class="cls-9" d="M388.71,162.77l-77.57,8.48a5.27,5.27,0,0,1-5.82-4.67v-.08L382,158.1a5.27,5.27,0,0,0,4.68-5.82l-2.67-24.42.83-.09a5.29,5.29,0,0,1,5.83,4.68l2.68,24.49A5.29,5.29,0,0,1,388.71,162.77Z"/><rect class="cls-10" x="306.54" y="134.95" width="82.95" height="29.14" rx="5.28" transform="translate(-14.19 38.73) rotate(-6.24)"/><circle class="cls-11" cx="323.18" cy="152.46" r="10.32" transform="translate(-10.06 23.45) rotate(-4.09)"/><path class="cls-12" d="M323,145.69c2.13,1.35,2.41,4.5.63,7s-4.94,3.51-7.07,2.16-2.41-4.5-.63-7S320.86,144.35,323,145.69Z"/><path class="cls-13" d="M324.3,162.71a10.28,10.28,0,0,1-7.86-2.45,10.08,10.08,0,0,0,3.77.29,10.31,10.31,0,0,0,5.64-18.05,10.31,10.31,0,0,1-1.55,20.21Z"/><g class="cls-14"><rect class="cls-15" x="14.04" y="184.29" width="146.85" height="101.8" rx="4.45" transform="translate(-32.62 14.86) rotate(-8.19)"/><rect class="cls-16" x="22.75" y="203.99" width="53.37" height="12.51" rx="1.06" transform="translate(-29.45 9.19) rotate(-8.19)"/><path class="cls-16" d="M43.18,274a4,4,0,1,1-4.54-3.39A4,4,0,0,1,43.18,274Z"/><circle class="cls-16" cx="51.12" cy="272.84" r="4.01" transform="translate(-205.95 168.1) rotate(-57.22)"/><circle class="cls-16" cx="63.03" cy="271.13" r="4.01" transform="translate(-192.23 160.11) rotate(-53.41)"/><circle class="cls-16" cx="74.94" cy="269.41" r="4.01"/><circle class="cls-16" cx="86.84" cy="267.7" r="4.01"/><path class="cls-15" d="M163,275.75,26.45,295.4a4.44,4.44,0,0,1-5-3.76l-1-7.16,113.24-16.31a4.44,4.44,0,0,0,3.76-5l-12.21-84.8L148.48,175a4.46,4.46,0,0,1,5,3.77l13.24,92A4.45,4.45,0,0,1,163,275.75Z"/></g><path class="cls-17" d="M154.86,270.74,42,287l-23.69,3.41a4.45,4.45,0,0,1-5-3.77L8,249.59.05,194.66a4.44,4.44,0,0,1,3.76-5l55.5-8,43.21-6.22L140.36,170a4.44,4.44,0,0,1,5,3.77l13.24,92A4.45,4.45,0,0,1,154.86,270.74Z"/><g class="cls-18"><path class="cls-17" d="M62.78,171.71c.09-.45.17-.9.25-1.36C62.79,172.24,62.71,172.69,62.78,171.71Z"/><path class="cls-17" d="M102.52,175.42c-1.65,15-9,28.83-18.7,40.51A115.66,115.66,0,0,1,68,231.21c-2.77,2.28-5.58,4.54-8.23,7-1.54,1.42-3,2.88-4.44,4.43-.37.39-.72.79-1.07,1.2-1.81,2.93-3.57,5.77-5.17,8.83-.14.26-.26.48-.35.67h0c0,.14-.1.3-.16.48-.53,1.53-1.09,3.05-1.58,4.6a108.16,108.16,0,0,0-2.79,11.08c-.31,1.6-.57,3.21-.86,4.82-.05.26-.09.48-.12.67s0,.44-.08.7c-.42,3.76-.77,7.54-1.1,11.31l-23.69,3.41a4.45,4.45,0,0,1-5-3.77L8,249.59a91,91,0,0,1,9.22-22.09c8.39-14.15,21.44-22.36,32.76-33.7q1.77-1.77,3.44-3.63c.48-.54,2.33-2.85,2.14-2.52a60.75,60.75,0,0,0,3.8-6Z"/></g><rect class="cls-19" x="13.48" y="200.52" width="31.1" height="12.51" rx="1.06" transform="matrix(0.99, -0.14, 0.14, 0.99, -29.17, 6.25)"/><circle class="cls-20" cx="24.39" cy="244.24" r="4.01"/><path class="cls-20" d="M40.27,242a4,4,0,1,1-4.55-3.4A4,4,0,0,1,40.27,242Z"/><path class="cls-20" d="M51.42,240.21a4,4,0,1,1-4.54-3.4A4,4,0,0,1,51.42,240.21Z"/><path class="cls-20" d="M63.33,238.49a4,4,0,1,1-4.54-3.4A4,4,0,0,1,63.33,238.49Z"/><path class="cls-20" d="M75.24,236.78a4,4,0,1,1-4.54-3.4A4,4,0,0,1,75.24,236.78Z"/><path class="cls-20" d="M87.58,234.92a4,4,0,1,1-4.54-3.4A4,4,0,0,1,87.58,234.92Z"/><path class="cls-21" d="M154.86,270.74,18.32,290.39a4.45,4.45,0,0,1-5-3.76l-1-7.16,113.24-16.31a4.45,4.45,0,0,0,3.76-5L117,173.33,140.35,170a4.45,4.45,0,0,1,5,3.77l13.24,92A4.46,4.46,0,0,1,154.86,270.74Z"/><rect class="cls-20" x="26.82" y="280.69" width="14.1" height="3.67" rx="1.06" transform="translate(-39.91 7.71) rotate(-8.19)"/><rect class="cls-20" x="42.51" y="278.43" width="14.1" height="3.67" rx="1.06" transform="translate(-39.43 9.92) rotate(-8.19)"/><path class="cls-22" d="M40.76,195,9.25,199.33A2.77,2.77,0,0,1,6.12,197h0a2.79,2.79,0,0,1,2.38-3.13l31.5-4.3a2.79,2.79,0,0,1,3.13,2.38h0A2.78,2.78,0,0,1,40.76,195Z"/><g class="cls-23"><path class="cls-15" d="M283.37,59.87c1-1.35,3.39-.68,3.39,1V323.17h0l-7.91-10.29a2,2,0,0,0-3.06,0l-6.41,8.3a2,2,0,0,1-3.06,0l-6.4-8.3a2,2,0,0,0-3.06,0l-6.38,8.3a2,2,0,0,1-3.06,0L241,312.87a2,2,0,0,0-3.06,0l-6.42,8.31a2,2,0,0,1-3.06,0l-6.38-8.3a2,2,0,0,0-3.07,0l-6.38,8.3a2,2,0,0,1-3.06,0l-6.42-8.31a2,2,0,0,0-3.06,0l-6.41,8.31a2,2,0,0,1-3.06,0l-6.38-8.3a2,2,0,0,0-3.06,0l-6.41,8.3a2,2,0,0,1-3.06,0l-6.4-8.3a2,2,0,0,0-3.06,0l-6.41,8.3a2,2,0,0,1-3.06,0l-6.4-8.3a2,2,0,0,0-3.06,0l-6.41,8.3a2,2,0,0,1-3.06,0l-6.39-8.3a2,2,0,0,0-3.06,0l-4.46,5.78c-1,1.35-3.39.69-3.39-1V57.51a.76.76,0,0,1,1.36-.38l6.58,8.52a2,2,0,0,0,3.06,0l6.38-8.29a2,2,0,0,1,3.06,0l6.42,8.31a2,2,0,0,0,3.06,0l6.39-8.3a2,2,0,0,1,3.06,0l6.41,8.3a2,2,0,0,0,3.06,0l6.39-8.3a2,2,0,0,1,3.06,0l6.41,8.31a2,2,0,0,0,3.06,0l6.41-8.31a2,2,0,0,1,3.06,0l6.4,8.3a2,2,0,0,0,3.06,0l6.41-8.3a2,2,0,0,1,3.06,0l6.38,8.3a2,2,0,0,0,3.06,0l6.41-8.31a2,2,0,0,1,3.06,0l6.4,8.3a2,2,0,0,0,3.06,0l6.41-8.31a2,2,0,0,1,3.06,0l6.4,8.3a2,2,0,0,0,3.05,0l6.41-8.31a2,2,0,0,1,3.06,0l6.4,8.3a2,2,0,0,0,3.06,0Z"/><rect class="cls-15" x="141.55" y="88.15" width="65" height="7.44"/><line class="cls-15" x1="141.81" y1="116.98" x2="232.86" y2="116.98"/><line class="cls-15" x1="141.55" y1="106.05" x2="266.32" y2="106.05"/><line class="cls-15" x1="141.55" y1="231.58" x2="266.32" y2="231.58"/><line class="cls-15" x1="141.81" y1="131.39" x2="232.86" y2="131.39"/><line class="cls-15" x1="141.81" y1="145.8" x2="184.88" y2="145.8"/><line class="cls-15" x1="141.81" y1="160.22" x2="215.84" y2="160.22"/><line class="cls-15" x1="141.81" y1="174.63" x2="216.61" y2="174.63"/><line class="cls-15" x1="141.81" y1="189.04" x2="205" y2="189.04"/><line class="cls-15" x1="141.81" y1="203.45" x2="182.56" y2="203.45"/><line class="cls-15" x1="141.81" y1="217.87" x2="204.23" y2="217.87"/><line class="cls-15" x1="141.81" y1="284.11" x2="232.64" y2="284.11"/><line class="cls-15" x1="141.81" y1="293.57" x2="188.14" y2="293.57"/><line class="cls-15" x1="247.17" y1="116.98" x2="266.9" y2="116.98"/><line class="cls-15" x1="247.17" y1="131.39" x2="266.9" y2="131.39"/><line class="cls-15" x1="249.11" y1="145.8" x2="266.9" y2="145.8"/><line class="cls-15" x1="249.11" y1="160.77" x2="266.9" y2="160.77"/><line class="cls-15" x1="250.69" y1="174.63" x2="266.9" y2="174.63"/><line class="cls-15" x1="253.21" y1="189.04" x2="266.9" y2="189.04"/><line class="cls-15" x1="258.07" y1="203.45" x2="266.9" y2="203.45"/><line class="cls-15" x1="253.38" y1="217.87" x2="266.9" y2="217.87"/><rect class="cls-15" x="212.5" y="250.29" width="53.83" height="11.23" rx="4.03"/></g><path class="cls-24" d="M277.7,58c1-1.27,3.39-.64,3.39.91V306.5h0l-7.91-9.71a2.06,2.06,0,0,0-3.06,0l-6.41,7.84a2.07,2.07,0,0,1-3.06,0l-6.39-7.84a2.08,2.08,0,0,0-3.07,0l-6.38,7.83a2.06,2.06,0,0,1-3.06,0l-6.41-7.84a2.06,2.06,0,0,0-3.06,0l-6.42,7.85a2.06,2.06,0,0,1-3.06,0l-6.38-7.83a2.06,2.06,0,0,0-3.06,0l-6.39,7.83a2.05,2.05,0,0,1-3.05,0l-6.43-7.85a2.06,2.06,0,0,0-3.06,0L188,304.63a2.06,2.06,0,0,1-3.06,0l-6.38-7.83a2.06,2.06,0,0,0-3.06,0l-6.41,7.84a2.07,2.07,0,0,1-3.06,0l-6.4-7.84a2.06,2.06,0,0,0-3.06,0l-6.41,7.84a2.07,2.07,0,0,1-3.06,0l-6.39-7.84a2.06,2.06,0,0,0-3.06,0l-6.41,7.84a2.07,2.07,0,0,1-3.06,0l-6.4-7.84a2.06,2.06,0,0,0-3.06,0l-4.45,5.46c-1,1.28-3.4.65-3.4-.9V55.8c0-.62.94-.88,1.36-.37l6.58,8a2.06,2.06,0,0,0,3.06,0l6.39-7.83a2.06,2.06,0,0,1,3.06,0l6.42,7.84a2.06,2.06,0,0,0,3.06,0l6.38-7.83a2.06,2.06,0,0,1,3.06,0l6.41,7.84a2.07,2.07,0,0,0,3.06,0l6.4-7.84a2.06,2.06,0,0,1,3.06,0l6.41,7.84a2.07,2.07,0,0,0,3.06,0L185,55.65a2.06,2.06,0,0,1,3.06,0l6.39,7.84a2.07,2.07,0,0,0,3.06,0L204,55.65a2.06,2.06,0,0,1,3.06,0l6.39,7.83a2.06,2.06,0,0,0,3.06,0l6.41-7.83a2,2,0,0,1,3.05,0l6.4,7.84a2.07,2.07,0,0,0,3.06,0l6.41-7.84a2.06,2.06,0,0,1,3.06,0l6.4,7.84a2.07,2.07,0,0,0,3.06,0l6.41-7.84a2.06,2.06,0,0,1,3.06,0l6.39,7.83a2.06,2.06,0,0,0,3.06,0Z"/><rect class="cls-25" x="135.89" y="84.71" width="65" height="7.02"/><line class="cls-26" x1="136.14" y1="111.91" x2="227.19" y2="111.91"/><line class="cls-27" x1="135.89" y1="101.6" x2="260.66" y2="101.6"/><line class="cls-27" x1="135.89" y1="220.07" x2="260.66" y2="220.07"/><line class="cls-26" x1="136.14" y1="125.52" x2="227.19" y2="125.52"/><line class="cls-26" x1="136.14" y1="139.12" x2="179.22" y2="139.12"/><line class="cls-26" x1="136.14" y1="152.72" x2="210.17" y2="152.72"/><line class="cls-26" x1="136.14" y1="166.32" x2="210.94" y2="166.32"/><line class="cls-26" x1="136.14" y1="179.92" x2="199.34" y2="179.92"/><line class="cls-26" x1="136.14" y1="193.52" x2="176.9" y2="193.52"/><line class="cls-26" x1="136.14" y1="207.13" x2="198.56" y2="207.13"/><line class="cls-26" x1="136.14" y1="269.64" x2="226.98" y2="269.64"/><line class="cls-26" x1="136.14" y1="278.57" x2="182.48" y2="278.57"/><line class="cls-26" x1="241.51" y1="111.91" x2="261.24" y2="111.91"/><line class="cls-26" x1="241.51" y1="125.52" x2="261.24" y2="125.52"/><line class="cls-26" x1="243.44" y1="139.12" x2="261.24" y2="139.12"/><line class="cls-26" x1="243.44" y1="153.24" x2="261.24" y2="153.24"/><line class="cls-26" x1="245.03" y1="166.32" x2="261.24" y2="166.32"/><line class="cls-26" x1="247.54" y1="179.92" x2="261.24" y2="179.92"/><line class="cls-26" x1="252.41" y1="193.52" x2="261.24" y2="193.52"/><line class="cls-26" x1="247.71" y1="207.13" x2="261.24" y2="207.13"/><rect class="cls-25" x="206.83" y="237.73" width="53.83" height="10.6" rx="4.03"/><g class="cls-28"><path class="cls-15" d="M253.22,38.11a1.86,1.86,0,0,1,3.49.65L291,327.8h0l-9.2-10.41a1.87,1.87,0,0,0-3,.36l-5.28,9.91a1.87,1.87,0,0,1-3,.36l-7.43-8.4a1.86,1.86,0,0,0-3,.37l-5.26,9.89a1.85,1.85,0,0,1-3,.36l-7.46-8.4a1.86,1.86,0,0,0-3,.36l-5.3,9.92a1.87,1.87,0,0,1-3,.36l-7.42-8.4a1.86,1.86,0,0,0-3,.37l-5.25,9.89a1.86,1.86,0,0,1-3,.36l-7.46-8.4a1.87,1.87,0,0,0-3,.36l-5.28,9.91a1.86,1.86,0,0,1-3,.36l-7.42-8.39a1.86,1.86,0,0,0-3,.36l-5.28,9.9a1.86,1.86,0,0,1-3,.36L169,330.78a1.86,1.86,0,0,0-3,.35L160.71,341a1.85,1.85,0,0,1-3,.36l-7.44-8.4a1.87,1.87,0,0,0-3,.36l-5.28,9.91a1.86,1.86,0,0,1-3,.36l-7.44-8.39a1.86,1.86,0,0,0-3,.36l-3.66,6.89a1.86,1.86,0,0,1-3.5-.65l-34-286.68a.75.75,0,0,1,1.3-.58l7.65,8.61a1.86,1.86,0,0,0,3-.36l5.26-9.89a1.85,1.85,0,0,1,3-.37L115,61a1.85,1.85,0,0,0,3-.36l5.26-9.9a1.86,1.86,0,0,1,3-.36l7.45,8.39a1.86,1.86,0,0,0,3-.36l5.26-9.9a1.86,1.86,0,0,1,3-.36l7.45,8.4a1.87,1.87,0,0,0,3-.36l5.28-9.91a1.86,1.86,0,0,1,3-.36l7.44,8.39a1.86,1.86,0,0,0,3-.36l5.27-9.9a1.86,1.86,0,0,1,3-.36l7.43,8.39a1.86,1.86,0,0,0,3-.36l5.27-9.9a1.86,1.86,0,0,1,3-.36l7.44,8.4a1.87,1.87,0,0,0,3-.36l5.28-9.91a1.86,1.86,0,0,1,3-.36l7.44,8.4a1.86,1.86,0,0,0,3-.36L236,37.33a1.86,1.86,0,0,1,3-.36l7.44,8.39a1.86,1.86,0,0,0,3-.36Z"/><text/><line class="cls-29" x1="120.11" y1="117.7" x2="210.52" y2="106.97"/><line class="cls-30" x1="118.43" y1="105.69" x2="242.33" y2="90.99"/><line class="cls-30" x1="134.83" y1="244" x2="258.74" y2="229.3"/><line class="cls-29" x1="122" y1="133.58" x2="212.41" y2="122.85"/><line class="cls-29" x1="123.88" y1="149.46" x2="166.65" y2="144.38"/><line class="cls-29" x1="125.76" y1="165.34" x2="199.27" y2="156.62"/><line class="cls-29" x1="127.65" y1="181.22" x2="201.92" y2="172.41"/><line class="cls-29" x1="129.53" y1="197.1" x2="192.28" y2="189.65"/><line class="cls-29" x1="131.41" y1="212.98" x2="171.88" y2="208.18"/><line class="cls-29" x1="133.3" y1="228.86" x2="195.28" y2="221.5"/><line class="cls-29" x1="141.96" y1="301.85" x2="232.16" y2="291.15"/><line class="cls-29" x1="143.19" y1="312.27" x2="189.2" y2="306.81"/><line class="cls-29" x1="224.74" y1="105.29" x2="244.33" y2="102.96"/><line class="cls-29" x1="226.62" y1="121.17" x2="246.22" y2="118.84"/><line class="cls-29" x1="230.43" y1="136.82" x2="248.1" y2="134.72"/><line class="cls-29" x1="232.38" y1="153.31" x2="250.06" y2="151.21"/><line class="cls-29" x1="235.77" y1="168.39" x2="251.87" y2="166.48"/><line class="cls-29" x1="240.15" y1="183.97" x2="253.75" y2="182.36"/><line class="cls-29" x1="246.87" y1="199.28" x2="255.64" y2="198.24"/><line class="cls-29" x1="244.09" y1="215.71" x2="257.52" y2="214.12"/><rect class="cls-15" x="208.28" y="253.05" width="53.83" height="12.46" rx="4.03" transform="translate(-28.91 29.51) rotate(-6.77)"/></g><path class="cls-31" d="M246.41,34.38a1.87,1.87,0,0,1,3.5.65l34.54,289h0l-9.21-10.4a1.86,1.86,0,0,0-3,.37l-5.26,9.91a1.87,1.87,0,0,1-3,.36l-7.45-8.39a1.86,1.86,0,0,0-3,.37l-5.24,9.89a1.86,1.86,0,0,1-3,.37l-7.46-8.39a1.85,1.85,0,0,0-3,.36l-5.29,9.92a1.86,1.86,0,0,1-3,.36l-7.43-8.38a1.86,1.86,0,0,0-3,.36l-5.24,9.9a1.86,1.86,0,0,1-3,.36l-7.47-8.39a1.87,1.87,0,0,0-3,.36l-5.27,9.92a1.87,1.87,0,0,1-3,.36l-7.43-8.39a1.87,1.87,0,0,0-3,.36L173,335.15a1.86,1.86,0,0,1-3,.37l-7.45-8.39a1.86,1.86,0,0,0-3,.36l-5.27,9.91a1.86,1.86,0,0,1-3,.36l-7.44-8.39a1.87,1.87,0,0,0-3,.36l-5.27,9.92a1.87,1.87,0,0,1-3,.36l-7.44-8.39a1.87,1.87,0,0,0-3,.36l-3.66,6.91a1.87,1.87,0,0,1-3.5-.66L80.45,51.58A.74.74,0,0,1,81.74,51l7.66,8.61a1.87,1.87,0,0,0,3-.36l5.25-9.9a1.85,1.85,0,0,1,3-.37l7.47,8.39a1.87,1.87,0,0,0,3-.36l5.25-9.91a1.86,1.86,0,0,1,3-.36L127,55.13a1.86,1.86,0,0,0,3-.37l5.26-9.91a1.87,1.87,0,0,1,3-.36l7.46,8.39a1.86,1.86,0,0,0,3-.36l5.28-9.92a1.86,1.86,0,0,1,3-.36l7.45,8.39a1.86,1.86,0,0,0,3-.36l5.27-9.91a1.86,1.86,0,0,1,3-.36l7.43,8.38a1.86,1.86,0,0,0,3-.36l5.27-9.91a1.86,1.86,0,0,1,3-.36l7.45,8.39a1.86,1.86,0,0,0,3-.36l5.27-9.91a1.86,1.86,0,0,1,3-.36l7.44,8.38a1.86,1.86,0,0,0,3-.36l5.27-9.91a1.86,1.86,0,0,1,3-.36l7.44,8.39a1.86,1.86,0,0,0,3-.37Z"/><path class="cls-32" d="M284.46,324h0l-9.21-10.4a1.86,1.86,0,0,0-3,.37l-5.27,9.91a1.87,1.87,0,0,1-3,.36l-7.44-8.39a1.86,1.86,0,0,0-3,.37l-5.25,9.89a1.85,1.85,0,0,1-3,.37l-7.46-8.39a1.86,1.86,0,0,0-3,.36l-5.28,9.92a1.86,1.86,0,0,1-3,.36l-7.43-8.38a1.86,1.86,0,0,0-3,.36l-5.25,9.9a1.85,1.85,0,0,1-3,.36l-7.48-8.39a1.86,1.86,0,0,0-3,.36l-5.27,9.92a1.87,1.87,0,0,1-3,.36l-7.43-8.39a1.87,1.87,0,0,0-3,.36L173,335.15a1.86,1.86,0,0,1-3,.37l-7.45-8.39a1.85,1.85,0,0,0-3,.36l-5.28,9.91a1.85,1.85,0,0,1-3,.36l-7.45-8.39a1.87,1.87,0,0,0-3,.36l-5.27,9.92a1.87,1.87,0,0,1-3,.36l-7.44-8.39a1.87,1.87,0,0,0-3,.36l-3.66,6.91a1.87,1.87,0,0,1-3.5-.66l-2.87-24,1.32-2.49a1.87,1.87,0,0,1,3-.36l7.45,8.39a1.85,1.85,0,0,0,3-.36l5.28-9.91a1.85,1.85,0,0,1,3-.36l7.45,8.39a1.86,1.86,0,0,0,3-.37l5.27-9.91a1.87,1.87,0,0,1,3-.36l7.43,8.39a1.87,1.87,0,0,0,3-.36l5.27-9.92a1.86,1.86,0,0,1,3-.36L180,313a1.85,1.85,0,0,0,3-.36l5.25-9.9a1.86,1.86,0,0,1,3-.36l7.43,8.38a1.86,1.86,0,0,0,3-.36l5.28-9.92a1.86,1.86,0,0,1,3-.36l7.46,8.39a1.85,1.85,0,0,0,3-.37l5.25-9.89a1.86,1.86,0,0,1,3-.37l7.44,8.39a1.87,1.87,0,0,0,3-.36l5.27-9.91a1.86,1.86,0,0,1,3-.37l9.21,10.4h0l-31.68-265,3.95-7.43a1.86,1.86,0,0,1,3-.36l7.45,8.39a1.86,1.86,0,0,0,3-.37l3.66-6.9a1.86,1.86,0,0,1,3.49.65Z"/><line class="cls-33" x1="113.38" y1="114.09" x2="203.78" y2="103.29"/><line class="cls-33" x1="111.68" y1="102.09" x2="235.57" y2="87.28"/><line class="cls-33" x1="128.22" y1="240.38" x2="252.1" y2="225.57"/><line class="cls-33" x1="115.28" y1="129.97" x2="205.68" y2="119.17"/><line class="cls-33" x1="117.18" y1="145.85" x2="159.94" y2="140.74"/><line class="cls-33" x1="119.07" y1="161.73" x2="192.57" y2="152.94"/><line class="cls-33" x1="120.97" y1="177.61" x2="195.24" y2="168.73"/><line class="cls-33" x1="122.87" y1="193.48" x2="185.61" y2="185.98"/><line class="cls-33" x1="124.77" y1="209.36" x2="165.23" y2="204.53"/><line class="cls-33" x1="126.67" y1="225.24" x2="188.64" y2="217.83"/><line class="cls-33" x1="135.39" y1="298.22" x2="225.58" y2="287.44"/><line class="cls-33" x1="136.64" y1="308.65" x2="182.64" y2="303.15"/><line class="cls-33" x1="218" y1="101.59" x2="237.59" y2="99.25"/><line class="cls-33" x1="219.89" y1="117.47" x2="239.49" y2="115.12"/><line class="cls-33" x1="223.71" y1="133.11" x2="241.38" y2="131"/><line class="cls-33" x1="225.68" y1="149.6" x2="243.35" y2="147.49"/><line class="cls-33" x1="229.08" y1="164.68" x2="245.18" y2="162.76"/><line class="cls-33" x1="233.48" y1="180.26" x2="247.08" y2="178.64"/><line class="cls-33" x1="240.21" y1="195.56" x2="248.98" y2="194.52"/><line class="cls-33" x1="237.44" y1="212" x2="250.87" y2="210.39"/><rect class="cls-34" x="201.67" y="249.34" width="53.83" height="12.46" rx="4.03" transform="translate(-28.72 28.94) rotate(-6.82)"/><g class="cls-14"><path class="cls-15" d="M288.07,310.82h0a13.59,13.59,0,0,1-17.15-8.68l-25.41-77.49c-4.68-13.87-.71-23.59,6.42-25.93h0c7.13-2.34,15.51,6.18,19.41,17.46l25.41,77.49A13.59,13.59,0,0,1,288.07,310.82Z"/><path class="cls-15" d="M285.41,266.76s14-21.89,34.56-6.22c0,0,17.27-15.44,31.33,3.22,0,0,18-13.36,25.8,12.67,0,0,19.73,71-38.63,91,0,0-41.46,15.05-80.17-39.32,0,0-11.59-15.13-24.56-24.33A7,7,0,0,1,236,291.25c8.79-2.4,22.26-1.55,40.11,12.6Z"/><path class="cls-15" d="M348.38,260.81s8.56,5.95,8,20.88"/><path class="cls-15" d="M318.2,259.19s8.56,6,8,20.89"/><path class="cls-15" d="M287.35,264.5s5.25,6.25,7,20.83"/><path class="cls-15" d="M318.51,346.85H375a0,0,0,0,1,0,0v46.33a9,9,0,0,1-9,9H327.46a9,9,0,0,1-9-9V346.85A0,0,0,0,1,318.51,346.85Z" transform="translate(-104.2 135.48) rotate(-19.28)"/><path class="cls-15" d="M280.1,308.19a41.85,41.85,0,0,0-12.62-9.94"/></g><path class="cls-35" d="M372.11,382.31a9,9,0,0,1-5.49,11.41l-36.44,12.74A8.94,8.94,0,0,1,318.77,401l-11.54-33a64.32,64.32,0,0,1-10.42-2.68c-13.75-4.76-30.11-15.38-46-37.7,0,0-11.6-15.13-24.57-24.33a7,7,0,0,1,2.28-12.53c8.78-2.4,22.26-1.55,40.1,12.6l9.29-37.09S292,244.37,312.47,260c0,0,9-8,19.26-5.51,4,1,8.15,3.52,12.07,8.73,0,0,18-13.36,25.8,12.67,0,0,11.8,42.5-9.86,71Z"/><path class="cls-36" d="M372.11,382.31a9,9,0,0,1-5.49,11.41l-36.44,12.74a8.94,8.94,0,0,1-11.06-4.64,8.61,8.61,0,0,0,1.39-.36L357,388.72a9,9,0,0,0,5.5-11.41l-12.38-35.39c21.66-28.49,9.87-71,9.87-71a30.83,30.83,0,0,0-5.51-11.09c5.32.18,11.42,3.6,15.17,16.09,0,0,11.8,42.5-9.86,71Z"/><path class="cls-37" d="M280.57,310.32h0a13.59,13.59,0,0,1-17.15-8.68L238,224.15c-4.68-13.87-.71-23.59,6.42-25.93h0c7.13-2.34,15.51,6.18,19.41,17.46l25.41,77.49A13.59,13.59,0,0,1,280.57,310.32Z"/><path class="cls-35" d="M280.57,310.32h0a13.59,13.59,0,0,1-17.15-8.68L238,224.15c-4.68-13.87-.71-23.59,6.42-25.93h0c7.13-2.34,15.51,6.18,19.41,17.46l25.41,77.49A13.59,13.59,0,0,1,280.57,310.32Z"/><path class="cls-36" d="M340.88,260.31a11.73,11.73,0,0,1,4.83,3.65,18.18,18.18,0,0,1,3,5.33,19.7,19.7,0,0,1,1.07,6,20.11,20.11,0,0,1-.18,3,20.75,20.75,0,0,1-.72,2.92,29.51,29.51,0,0,1-.75-2.86c-.28-.93-.42-1.86-.69-2.76-.45-1.82-1-3.56-1.56-5.29a48,48,0,0,0-2.13-5A41.28,41.28,0,0,0,340.88,260.31Z"/><path class="cls-36" d="M310.7,258.69a11.73,11.73,0,0,1,4.83,3.65,18.18,18.18,0,0,1,3,5.33,19.82,19.82,0,0,1,1.07,6,20.06,20.06,0,0,1-.18,3,19.28,19.28,0,0,1-.72,2.93c-.34-1-.52-1.93-.75-2.86s-.42-1.86-.69-2.76c-.44-1.82-1-3.56-1.56-5.29a47,47,0,0,0-2.12-5A41.5,41.5,0,0,0,310.7,258.69Z"/><path class="cls-38" d="M335.56,284.17c0,35.52-15.78,66.28-38.75,81.14-13.75-4.76-30.11-15.38-46-37.7A153,153,0,0,0,238,313.27a98.28,98.28,0,0,0-11.72-10,6.89,6.89,0,0,1-2.71-7.55,7,7,0,0,1,5-5c7.75-2.12,19.16-1.7,34,8.16L238,224.14c-2.82-8.36-2.5-15.21-.23-19.85.07-.17.16-.34.25-.51a11.32,11.32,0,0,1,6.4-5.56,8.92,8.92,0,0,1,6.9.76,16.92,16.92,0,0,1,3.83,2.69,34.56,34.56,0,0,1,8.68,14L279.67,264c4.37-5.18,16.56-16.33,32.8-3.91,0,0,9-8,19.26-5.51A115,115,0,0,1,335.56,284.17Z"/><g class="cls-39"><path class="cls-40" d="M279.85,264s5.25,6.25,7,20.83"/><path class="cls-41" d="M279.85,264a13.77,13.77,0,0,1,3.84,4.31,23.93,23.93,0,0,1,2.31,5.23,25.87,25.87,0,0,1,1.09,5.58,27.12,27.12,0,0,1,.07,2.85,19.77,19.77,0,0,1-.35,2.86,24.59,24.59,0,0,1-1.11-2.63c-.35-.87-.62-1.75-.92-2.61-.59-1.73-1.1-3.45-1.64-5.16l-1.59-5.15C281,267.56,280.47,265.83,279.85,264Z"/></g><g class="cls-39"><path class="cls-40" d="M274.89,310.5s-7.23-8.94-14.91-12.75"/><path class="cls-41" d="M274.89,310.5a35.25,35.25,0,0,1-4.15-2.85c-1.28-1-2.51-2-3.71-3.11s-2.38-2.14-3.54-3.26-2.33-2.22-3.51-3.53a13.9,13.9,0,0,1,4.89,1.62A22.5,22.5,0,0,1,269,302.3a24.57,24.57,0,0,1,3.41,3.72A16.65,16.65,0,0,1,274.89,310.5Z"/></g><path class="cls-42" d="M277,299.79h0c-3,1-6.6-1.66-8-5.92L253.84,247.6c-2.77-8.29-1.53-13.73,1.49-14.71h0c3-1,7.14,4.38,9.43,11.12l15.18,46.28C281.34,294.55,280,298.8,277,299.79Z"/><rect class="cls-43" x="341.23" y="143.83" width="36.5" height="9.5" rx="3.49" transform="translate(-11.78 32.53) rotate(-5.1)"/><text class="cls-44" transform="translate(107.72 93.72) rotate(-6.43)">Shop<tspan class="cls-45" x="46.17" y="0">p</tspan><tspan x="57.49" y="0">ing li</tspan><tspan class="cls-46" x="100.4" y="0">s</tspan><tspan x="109.53" y="0">t</tspan></text><path class="cls-47" d="M322.32,66.81a5,5,0,1,1-5-5A5,5,0,0,1,322.32,66.81Z"/><g class="cls-48"><circle class="cls-49" cx="65.89" cy="135.13" r="8.3"/><circle class="cls-34" cx="18.64" cy="86.73" r="8.08"/><circle class="cls-49" cx="47.23" cy="164.17" r="5.49"/><circle class="cls-49" cx="130.48" cy="357.79" r="7.02"/><circle class="cls-49" cx="236.65" cy="362.34" r="14.3"/><path class="cls-49" d="M316.69,247.46a4,4,0,1,1-4-4A4,4,0,0,1,316.69,247.46Z"/><circle class="cls-49" cx="276.77" cy="19.12" r="12.04" transform="translate(67.54 201.31) rotate(-45)"/><circle class="cls-34" cx="50.17" cy="338.8" r="12.32"/><path class="cls-34" d="M90.59,351.14a5.75,5.75,0,1,1-5.75-5.75A5.76,5.76,0,0,1,90.59,351.14Z"/><circle class="cls-34" cx="237.23" cy="363.5" r="8.3"/><circle class="cls-34" cx="322.63" cy="23.01" r="5.77"/><circle class="cls-34" cx="352.73" cy="41.5" r="10.3"/><circle class="cls-34" cx="391.97" cy="246.49" r="7.91" transform="translate(-64.65 169.68) rotate(-22.61)"/></g><path class="cls-50" d="M238,313.27a98.28,98.28,0,0,0-11.72-10,6.89,6.89,0,0,1-2.71-7.55c5.44-1.71,16.16-3.33,23.24,7C246.77,302.73,248.86,309.43,238,313.27Z"/><path class="cls-50" d="M255.12,214.51a6.83,6.83,0,0,1-4,4.38,6.67,6.67,0,0,1-5.92-.6,11.88,11.88,0,0,1-3.77-4.9,59.43,59.43,0,0,1-3.61-9.1c.07-.17.16-.34.25-.51a11.32,11.32,0,0,1,6.4-5.56,8.92,8.92,0,0,1,6.9.76,18.25,18.25,0,0,1,1.58,1.29q1.05,3.76,1.91,7.58C255.31,210.05,255.76,212.36,255.12,214.51Z"/></g></g></g></svg>