<svg xmlns="http://www.w3.org/2000/svg" xmlns:xlink="http://www.w3.org/1999/xlink" viewBox="0 0 552.73 546"><defs><style>.cls-1{fill:none;}.cls-2{fill:#1a9afd;opacity:0.2;}.cls-3{fill:#0874f7;}.cls-4{fill:#fff;}.cls-5{fill:#0560f9;}.cls-6{fill:#0f7bf9;}.cls-7{fill:#b5cdf9;}.cls-8{fill:#d0e1fb;}.cls-9{fill:#b6cdf9;}.cls-10{fill:#f0f4ff;}.cls-11{fill:#b8c2d3;}.cls-12{fill:#fad719;}.cls-13{fill:url(#Áåçûìÿííûé_ãðàäèåíò_38);}.cls-14{fill:url(#Áåçûìÿííûé_ãðàäèåíò_28);}.cls-15{fill:url(#Áåçûìÿííûé_ãðàäèåíò_38-2);}.cls-16{fill:url(#Áåçûìÿííûé_ãðàäèåíò_7);}.cls-17{fill:url(#Áåçûìÿííûé_ãðàäèåíò_17);}.cls-18{fill:#3369e7;}.cls-19{fill:url(#Áåçûìÿííûé_ãðàäèåíò_38-3);}.cls-20{fill:url(#Áåçûìÿííûé_ãðàäèåíò_7-2);}.cls-21{fill:url(#Áåçûìÿííûé_ãðàäèåíò_38-4);}.cls-22{fill:url(#Áåçûìÿííûé_ãðàäèåíò_38-5);}.cls-23{clip-path:url(#clip-path);}.cls-24{fill:url(#Áåçûìÿííûé_ãðàäèåíò_7-3);}.cls-25{fill:url(#Áåçûìÿííûé_ãðàäèåíò_7-4);}</style><linearGradient id="Áåçûìÿííûé_ãðàäèåíò_38" x1="133.25" y1="374.29" x2="166.67" y2="320.47" gradientUnits="userSpaceOnUse"><stop offset="0" stop-color="#fad719"/><stop offset="0.93" stop-color="#fffd93"/></linearGradient><linearGradient id="Áåçûìÿííûé_ãðàäèåíò_28" x1="165.8" y1="380.65" x2="186.2" y2="318.15" gradientUnits="userSpaceOnUse"><stop offset="0.2" stop-color="#1a9afd"/><stop offset="1" stop-color="#77b8fd"/></linearGradient><linearGradient id="Áåçûìÿííûé_ãðàäèåíò_38-2" x1="195.93" y1="377.76" x2="228.04" y2="319.17" xlink:href="#Áåçûìÿííûé_ãðàäèåíò_38"/><linearGradient id="Áåçûìÿííûé_ãðàäèåíò_7" x1="250.32" y1="310.34" x2="226.45" y2="398.44" gradientUnits="userSpaceOnUse"><stop offset="0" stop-color="#6c6de0"/><stop offset="0.98" stop-color="#280c73"/></linearGradient><linearGradient id="Áåçûìÿííûé_ãðàäèåíò_17" x1="290.14" y1="305.98" x2="258.03" y2="374.55" gradientUnits="userSpaceOnUse"><stop offset="0" stop-color="#6c8de0"/><stop offset="0.84" stop-color="#3369e7"/></linearGradient><linearGradient id="Áåçûìÿííûé_ãðàäèåíò_38-3" x1="329.25" y1="336.92" x2="428.99" y2="336.92" xlink:href="#Áåçûìÿííûé_ãðàäèåíò_38"/><linearGradient id="Áåçûìÿííûé_ãðàäèåíò_7-2" x1="441.04" y1="318.01" x2="409.5" y2="343.48" xlink:href="#Áåçûìÿííûé_ãðàäèåíò_7"/><linearGradient id="Áåçûìÿííûé_ãðàäèåíò_38-4" x1="485.86" y1="167.9" x2="490.36" y2="190.9" xlink:href="#Áåçûìÿííûé_ãðàäèåíò_38"/><linearGradient id="Áåçûìÿííûé_ãðàäèåíò_38-5" x1="412.78" y1="141.52" x2="505.27" y2="141.52" xlink:href="#Áåçûìÿííûé_ãðàäèåíò_38"/><clipPath id="clip-path"><rect class="cls-1" x="56.15" y="124.53" width="89.07" height="53.21"/></clipPath><linearGradient id="Áåçûìÿííûé_ãðàäèåíò_7-3" x1="295.79" y1="164.93" x2="312.71" y2="164.93" xlink:href="#Áåçûìÿííûé_ãðàäèåíò_7"/><linearGradient id="Áåçûìÿííûé_ãðàäèåíò_7-4" x1="292.41" y1="141.76" x2="358.78" y2="141.76" xlink:href="#Áåçûìÿííûé_ãðàäèåíò_7"/></defs><g id="Layer_2" data-name="Layer 2"><g id="Ñëîé_2" data-name="Ñëîé 2"><rect class="cls-2" x="4.57" width="546" height="546" rx="273"/><path class="cls-3" d="M440.08,432.23c44.45-12.25,71.59-37.83,112.65-98.69a519.87,519.87,0,0,1-44.47,44.57c-43.25,38.36-58.08,38.5-66,36.56-9.61-2.34-16.57-9.5-18.26-7.71C421.87,409.18,431.17,421.43,440.08,432.23Z"/><path class="cls-3" d="M442.16,429.26a153.68,153.68,0,0,0,26.25-22.63c47-50.94,45.51-119.72,43.87-143.51-2.3,42.78-14.2,74.13-23.16,92.85-9.54,19.92-26.12,53.74-50.62,56-9.85.9-18.76-3.61-19.77-1.38C417.46,413.36,430.23,421.93,442.16,429.26Z"/><path class="cls-4" d="M445.11,424.14a140.58,140.58,0,0,0,24-10,169.35,169.35,0,0,0,22-13.94,177.45,177.45,0,0,0,19.68-17.07,213.26,213.26,0,0,0,17.19-19.58,214.54,214.54,0,0,1-17.1,19.67,177,177,0,0,1-19.62,17.18,168.08,168.08,0,0,1-22,14.08,140.92,140.92,0,0,1-24,10.16Z"/><path class="cls-4" d="M459,407.68a65,65,0,0,0,10.67-10.18l1.22-1.39,1.15-1.45,2.3-2.91c1.45-2,2.87-4,4.29-6a165.74,165.74,0,0,0,14-26.11c.95-2.28,2-4.52,2.87-6.83l2.57-7c.41-1.17.88-2.31,1.26-3.49l1.1-3.54,2.21-7.08c1.34-4.77,2.52-9.57,3.77-14.36l3-14.53-3,14.55c-1.23,4.79-2.39,9.6-3.71,14.37l-2.18,7.09-1.09,3.55c-.37,1.18-.83,2.33-1.25,3.5l-2.53,7c-.88,2.31-1.91,4.57-2.85,6.85A166.46,166.46,0,0,1,479,385.92c-1.41,2-2.82,4.07-4.28,6.08l-2.29,2.92-1.15,1.46L470,397.79A65.42,65.42,0,0,1,459.3,408.1Z"/><path class="cls-5" d="M491.31,384.19s6.89-8.28,0-22.27C491.31,361.92,480.41,376,491.31,384.19Z"/><path class="cls-4" d="M491.31,384.19l.11-11.14c.05-3.71,0-7.42-.11-11.13a82.87,82.87,0,0,1,.61,11.13C491.86,376.77,491.74,380.49,491.31,384.19Z"/><path class="cls-5" d="M491.64,384.19s7.69-7.53,22.19-1.79C513.83,382.4,500.64,394.41,491.64,384.19Z"/><path class="cls-4" d="M491.64,384.19c3.65-.72,7.35-1.14,11.05-1.5a82.87,82.87,0,0,1,11.14-.29c-3.71.21-7.41.44-11.1.79Z"/><path class="cls-5" d="M504.79,365s4.42-9.82-6-21.45C498.82,343.59,492.1,360.11,504.79,365Z"/><path class="cls-4" d="M504.79,365l-2.88-10.76c-1-3.59-2-7.14-3.09-10.69a84.58,84.58,0,0,1,3.57,10.56C503.33,357.75,504.21,361.36,504.79,365Z"/><path class="cls-5" d="M505.11,365s5.39-9.32,20.9-7.69C526,357.27,516.52,372.38,505.11,365Z"/><path class="cls-4" d="M505.11,365a108.89,108.89,0,0,1,10.24-4.41A82.55,82.55,0,0,1,526,357.27c-3.52,1.2-7,2.42-10.49,3.74Z"/><path class="cls-5" d="M516.23,342.84s3.16-10.29-8.59-20.55C507.64,322.29,503,339.52,516.23,342.84Z"/><path class="cls-4" d="M516.23,342.84,512,332.52c-1.39-3.44-2.87-6.84-4.39-10.23a82.83,82.83,0,0,1,4.85,10C513.87,335.78,515.19,339.26,516.23,342.84Z"/><path class="cls-5" d="M516.53,342.72s4.19-9.92,19.79-10.21C536.32,332.51,528.77,348.68,516.53,342.72Z"/><path class="cls-4" d="M516.53,342.72c3.09-2.07,6.34-3.89,9.61-5.65a84.32,84.32,0,0,1,10.18-4.56c-3.35,1.62-6.67,3.26-9.94,5Z"/><path class="cls-5" d="M524.23,321s2.43-10.49-10-19.89C514.22,301.14,510.82,318.66,524.23,321Z"/><path class="cls-4" d="M524.23,321l-4.91-10c-1.63-3.34-3.35-6.62-5.1-9.9a85,85,0,0,1,5.55,9.68C521.39,314.16,523,317.54,524.23,321Z"/><path class="cls-5" d="M524.52,320.89s3.49-10.18,19-11.58C543.54,309.31,537.16,326,524.52,320.89Z"/><path class="cls-4" d="M524.52,320.89c2.94-2.28,6.05-4.32,9.2-6.31a85,85,0,0,1,9.82-5.27c-3.22,1.86-6.42,3.73-9.56,5.7Z"/><path class="cls-5" d="M530.27,298.88s1.06-10.72-12.48-18.44C517.79,280.44,516.67,298.25,530.27,298.88Z"/><path class="cls-4" d="M530.27,298.88l-6.15-9.28c-2-3.1-4.18-6.13-6.33-9.16a84.29,84.29,0,0,1,6.74,8.88A111.44,111.44,0,0,1,530.27,298.88Z"/><path class="cls-5" d="M530.55,298.7s2.14-10.55,17.37-13.93C547.92,284.77,543.73,302.11,530.55,298.7Z"/><path class="cls-4" d="M530.55,298.7c2.61-2.64,5.44-5.07,8.3-7.44a84,84,0,0,1,9.07-6.49c-3,2.26-5.89,4.52-8.75,6.88Z"/><path class="cls-4" d="M456.62,420.2l-.63-.78A206.86,206.86,0,0,0,506.26,361a209.36,209.36,0,0,0,27.13-88.58l1,.07a210.39,210.39,0,0,1-27.26,89A207.63,207.63,0,0,1,456.62,420.2Z"/><path class="cls-5" d="M534,275.4s-.41-10.76-14.88-16.56C519.08,258.84,520.4,276.63,534,275.4Z"/><path class="cls-5" d="M533,275.13s2.48-10.48,17.8-13.38C550.78,261.75,546,279,533,275.13Z"/><path class="cls-5" d="M533.6,274.61s-1.79-10.62,11.19-19.25C544.79,255.36,547.13,273.05,533.6,274.61Z"/><path class="cls-5" d="M534.87,275.46s3.36-10.23-8.18-20.71C526.69,254.75,521.73,271.89,534.87,275.46Z"/><path class="cls-5" d="M533.21,274.34s8.8-6.2,5.8-21.5C539,252.84,524.8,263.63,533.21,274.34Z"/><path class="cls-6" d="M514.13,225.86a73.28,73.28,0,0,0-11.86,1c-1.34,4.47-3.09,9.71-3.51,8.23a57.85,57.85,0,0,1-.81-7.38,73.54,73.54,0,0,0-12,3.84c-1.3,5.4-2.55,9.12-2.55,9.12l-1.17-7.43A73.25,73.25,0,0,0,469.67,241c1.88,7.31-.67,22.66-.67,22.66s1.26-13.74-2-20.51c-1.72,1.45-3.17,2.81-4.38,4q-1.75,2.34-3.25,4.63a50.37,50.37,0,0,1,1.51,10.07l-5.36-3.6c-7.63,14.32-8.05,26.29-6.83,33.19.49,2.78,3.57,4.16,7.3,4.78a27.86,27.86,0,0,0,16.93-2.56c-3.86-5.88-13.61-9.38-13.61-9.38a26.65,26.65,0,0,1,15.92,8.11,29.56,29.56,0,0,0,4.5-3.33l1-.91.84-5.67s.82,1.35,1.85,3.12c2.66-2.58,5.36-5.42,8-8.53l-3.48-12.3s2.31,1.25,7.16,7.72a98.16,98.16,0,0,0,13.45-23.73L497,247a96.15,96.15,0,0,1,12.22,0,89.14,89.14,0,0,0,3.1-10.36A88.16,88.16,0,0,0,514.13,225.86Z"/><path class="cls-4" d="M449.6,293l-.86-.52c10-16.58,58.51-63.19,65.14-67.07l.51.86C507.79,230.15,459.58,276.52,449.6,293Z"/><path class="cls-5" d="M475.84,258.11a74.4,74.4,0,0,1-11.4,4.82s7-10.33,11.82-14.3c0-3.83-.05-8.28-.17-13.47C469.68,238,463,244.4,463,244.4a51,51,0,0,1,13-11.13c0-.89,0-1.79-.06-2.72-.1-3.76-.22-7.28-.24-11.89-2.87,1.7-5.19,3.26-5.19,3.26l5.19-6c0-.7,0-1.41,0-2.17.06-5.71.26-10.42.42-13.57a93.61,93.61,0,0,0-10.43,8.23,16.88,16.88,0,0,1,.31,3.21l-1.46-2.14a74.57,74.57,0,0,0-12.93,16c6.87,9.15,6.2,9.65,6.2,9.65s-4.21-4.5-7.44-7.46a57.72,57.72,0,0,0-6,17.07,84.62,84.62,0,0,0-1.16,15,29.29,29.29,0,0,1,7.93,4.85l-7.74-1.15c.59,7.05,2.64,14,8,16.7,3.83,1.93,8.33,1.17,12.07-.17a37,37,0,0,0,10.33-13.24A27.77,27.77,0,0,0,475.84,258.11Z"/><path class="cls-4" d="M456.18,281.35l-1-.14c0-.11,0-.41-.05-.9-.76-13.21-.28-47.48,20.61-80.4l.84.54c-20.73,32.67-21.21,66.69-20.45,79.8A5.22,5.22,0,0,1,456.18,281.35Z"/><path class="cls-5" d="M92,370.57s15.83-57,0-66-7.45,62.84-7.45,62.84Z"/><path class="cls-5" d="M92,370.53S62.89,422,45.33,417.19s39.17-49.7,39.17-49.7Z"/><path class="cls-5" d="M69,359.5s19.37-45.7,7.18-54.92-13,51.49-13,51.49Z"/><path class="cls-5" d="M69,359.46s-29.81,39.69-43.9,33.77,38-37.11,38-37.11Z"/><path class="cls-5" d="M45.49,341.23s21.74-34,13.2-43.09-17.43,39.54-17.43,39.54Z"/><path class="cls-5" d="M45.48,341.2S16.18,369,5.68,362.33,41.2,337.72,41.2,337.72Z"/><path class="cls-5" d="M31.4,324s21.53-18,17.76-25.78-19.82,22.55-19.82,22.55Z"/><path class="cls-5" d="M31.4,324S6.17,336.27.61,329.66s28.68-8.87,28.68-8.87Z"/><path class="cls-5" d="M24.36,307.74s13.45-8.09,12-12.72-12.9,10.76-12.9,10.76Z"/><path class="cls-5" d="M24.8,306.48s-1.63-25-9.22-26.37,5.81,26.15,5.81,26.15Z"/><path class="cls-5" d="M24.36,307.73s-15,4.62-17.51.48,16.62-2.43,16.62-2.43Z"/><path class="cls-4" d="M129,382.86c-61.86-15.69-94.63-39.67-106.26-77.74l1-.29c11.51,37.7,44.06,61.46,105.54,77.06Z"/><path class="cls-5" d="M73.51,295.05c-2.64-3.12-8.11-6.11-8.11-6.11l-2.92-5.61,4.17,1.88s-3-6.33-6.74-7.14l-3.09-4.5a7.78,7.78,0,0,1,7.92.74C68.57,277.2,73.51,295.05,73.51,295.05Z"/><path class="cls-5" d="M73.37,289.64C69.88,278,78,268.81,78,268.81l-2.91-9.4-4.22,4.34,2.33-10.42-.71-9.81s-5.26,2.58-7.06,5.56c1.74-8.7,3.14-16.3,4.22-22.52,1.92-11,2.65-16.29,0-18.1-2.38-1.61-5.45.94-12.05-.49a22.78,22.78,0,0,1-5.54-2s-13.6,28.24,23.44,92.59Z"/><path class="cls-5" d="M68.66,281C65.44,271,55.1,268.4,55.1,268.4l-2.52-8.14,5.14,1L50.94,255l-4.3-7.36s5-.74,7.77.51a49,49,0,0,1-14.06-14c-2.43-3.74-8.23-12.62-5.19-17.07a41.94,41.94,0,0,0,11.45-5.3,23.4,23.4,0,0,0,6-5.9q1,9.56,2.58,19.7a349.28,349.28,0,0,0,16.24,62.89Z"/><path class="cls-4" d="M168.52,396c-33.26-22.9-70.37-52.36-93.43-97.25-8.28-16.11-15.56-38.51-19.47-59.9-.59-3.21-.92-8.11-1.21-12.43-.16-2.34-.31-4.55-.48-6.25l1-.1c.18,1.72.33,3.93.49,6.28.29,4.3.62,9.16,1.19,12.32C60.5,260,67.74,282.3,76,298.34c23,44.69,60,74.05,93.11,96.88Z"/><path class="cls-5" d="M74.6,294.72s-1.87-9.73,2.72-12.51l-2-6.43s-3.8-2-4.35,1.35S72.58,293.37,74.6,294.72Z"/><path class="cls-3" d="M95.07,431.78c-41.38-19.79-51.83-9.12-51.83-9.12a40.34,40.34,0,0,1,13.84-6.21c14.35-3.37,26.23,2.34,30,4.33,0,0-5.39-13.28-25.13-17.33,0,0,24.6-.64,30.61,13.55,0,0,.6-17.15-6.83-22.39,8.66,4.06,14.45,12.12,14.89,21A24.3,24.3,0,0,1,95.07,431.78Z"/><path class="cls-4" d="M81.82,426.21a8.19,8.19,0,0,0-4-4.41A22.35,22.35,0,0,0,72,419.67a46.15,46.15,0,0,0-6.2-.94,57,57,0,0,0-6.27-.21,57.22,57.22,0,0,1,6.28.09,45.36,45.36,0,0,1,6.24.82,22.31,22.31,0,0,1,6,2,8.61,8.61,0,0,1,4.32,4.58Z"/><path class="cls-4" d="M90.33,422.29a12.87,12.87,0,0,0-2.91-8.2,22.25,22.25,0,0,0-7-5.6,22.32,22.32,0,0,1,7.14,5.44A14.24,14.24,0,0,1,90,417.82a12.66,12.66,0,0,1,.88,4.47Z"/><path class="cls-5" d="M88.9,428.92a34.38,34.38,0,0,0-25.66,4.42,32.52,32.52,0,0,1,18.08-10.26,2.64,2.64,0,0,0,.81-2c-.21-1.57-2.61-2.09-4.52-3.41-1.47-1-3.27-3-4.32-7a32.9,32.9,0,0,0,5.39,3.25c4.14,2,6.15,1.85,8.66,3.64A13.53,13.53,0,0,1,92,423.91c.08.2-.23-1.72-.8-1.76-.15,0-.4.09-.73.74a3.15,3.15,0,0,1,.08-.6c.36-1.3-1.39-3.1-1.52-3.23-1-1-1.87-4.76-1.89-15.85a58.63,58.63,0,0,0,5.82,11c1.86,2.75,3,4,3.1,5.92C96.19,423.73,92.33,426.82,88.9,428.92Z"/><path class="cls-4" d="M86,424.19a10.79,10.79,0,0,0-3.44-5.27c-1.67-1.35-3.51-2.51-5.32-3.7,1.86,1.12,3.73,2.2,5.48,3.5A11.27,11.27,0,0,1,86.43,424Z"/><path class="cls-4" d="M81.89,426.92a4.35,4.35,0,0,0-3-.53,18.75,18.75,0,0,0-3.21.62,46.52,46.52,0,0,0-6.23,2.19,46.64,46.64,0,0,1,6.16-2.43,18.81,18.81,0,0,1,3.24-.75,8,8,0,0,1,1.7-.06,3.12,3.12,0,0,1,1.67.58Z"/><path class="cls-4" d="M92.94,421.83a10.79,10.79,0,0,0-.11-2.72,10.08,10.08,0,0,0-.82-2.6c-.74-1.7-1.54-3.37-2.3-5.05.84,1.65,1.71,3.28,2.53,4.94a10.7,10.7,0,0,1,1,2.64,11.09,11.09,0,0,1,.24,2.82Z"/><path class="cls-4" d="M95.91,423.77A22,22,0,0,0,97.37,412,27.62,27.62,0,0,0,96,406.11a17.59,17.59,0,0,0-2.89-5.29,17.93,17.93,0,0,1,3,5.25A27.67,27.67,0,0,1,97.61,412a22.26,22.26,0,0,1-1.25,12Z"/><path class="cls-4" d="M456.18,423.87H101.69V195.59a9.55,9.55,0,0,1,9.52-9.51H446.66a9.54,9.54,0,0,1,9.52,9.51V423.87Z"/><path class="cls-5" d="M446.25,411.27H111.62V207.4a9.54,9.54,0,0,1,9.52-9.51h315.6a9.54,9.54,0,0,1,9.51,9.51Z"/><path class="cls-4" d="M81.38,421.67H473.75a0,0,0,0,1,0,0v7.92a10.21,10.21,0,0,1-10.21,10.21h-372a10.21,10.21,0,0,1-10.21-10.21v-7.92A0,0,0,0,1,81.38,421.67Z"/><path class="cls-7" d="M473.68,430.73a10.2,10.2,0,0,1-10.14,9.06h-372a10.2,10.2,0,0,1-10.14-9.06Z"/><path class="cls-8" d="M315.69,430.73H240.83a8.35,8.35,0,0,1-8.35-8.34v-.72H324v.72A8.35,8.35,0,0,1,315.69,430.73Z"/><rect class="cls-9" x="101.69" y="417.51" width="354.48" height="4.16"/><rect class="cls-10" x="111.62" y="217.4" width="334.63" height="193.87"/><path class="cls-5" d="M474.25,339.45a3.36,3.36,0,0,1-6.72,0c0-1.86,1.5-5.53,3.36-5.53S474.25,337.59,474.25,339.45Z"/><path class="cls-5" d="M467.53,327.93a3.36,3.36,0,1,1,6.72,0c0,1.85-1.5,5.52-3.36,5.52S467.53,329.78,467.53,327.93Z"/><path class="cls-5" d="M465,337.17a3.36,3.36,0,1,1,0-6.72c1.85,0,5.52,1.5,5.52,3.36S466.86,337.17,465,337.17Z"/><path class="cls-5" d="M476,330.45a3.36,3.36,0,1,1,0,6.72c-1.86,0-5.52-1.5-5.52-3.36S474.18,330.45,476,330.45Z"/><path class="cls-3" d="M469.28,339.61a3,3,0,0,1-4.18-4.18c1.16-1.15,4.37-2.49,5.53-1.34S470.44,338.46,469.28,339.61Z"/><path class="cls-3" d="M472.26,328.28a3,3,0,0,1,4.18,4.18c-1.15,1.15-4.37,2.49-5.52,1.34S471.11,329.43,472.26,328.28Z"/><path class="cls-3" d="M465,332.46a3,3,0,0,1,4.18-4.18c1.15,1.15,2.49,4.36,1.34,5.52S466.1,333.61,465,332.46Z"/><path class="cls-3" d="M476,335.13a3,3,0,1,1-4.17,4.18c-1.16-1.15-2.5-4.37-1.35-5.52S474.83,334,476,335.13Z"/><path class="cls-4" d="M470.67,333.49a7.68,7.68,0,0,0-1.06-1.79,3.56,3.56,0,0,0-1.66-1.23,3.62,3.62,0,0,1,1.84,1.06,7.93,7.93,0,0,1,1.32,1.73.25.25,0,1,1-.43.25Z"/><path class="cls-4" d="M470.33,334a7.56,7.56,0,0,0-3.21-1.29,7.62,7.62,0,0,1,3.47.87.25.25,0,0,1-.22.44Z"/><path class="cls-4" d="M471.17,332.85a3.76,3.76,0,0,0,.17-1.64,3,3,0,0,0-.65-1.56,3.19,3.19,0,0,1,.9,1.51,4.17,4.17,0,0,1,.06,1.83.24.24,0,0,1-.29.2.24.24,0,0,1-.2-.29,0,0,0,0,1,0,0Z"/><path class="cls-4" d="M471.41,333.71a.22.22,0,0,1-.43,0,.22.22,0,1,1,.43,0Z"/><path class="cls-4" d="M471.66,334.45a.22.22,0,1,1-.21-.21A.22.22,0,0,1,471.66,334.45Z"/><path class="cls-4" d="M470,332.71a.21.21,0,0,1-.21.21.22.22,0,1,1,0-.43A.21.21,0,0,1,470,332.71Z"/><circle class="cls-4" cx="470.46" cy="334.67" r="0.21"/><path class="cls-4" d="M472.36,333.92a.22.22,0,0,1-.22.22.21.21,0,0,1-.21-.22.21.21,0,0,1,.21-.21A.21.21,0,0,1,472.36,333.92Z"/><circle class="cls-4" cx="467.95" cy="330.47" r="0.21"/><path class="cls-4" d="M467.5,332.71a.22.22,0,0,1-.22.21.21.21,0,0,1-.21-.21.21.21,0,0,1,.21-.22A.22.22,0,0,1,467.5,332.71Z"/><path class="cls-4" d="M470.9,329.65a.21.21,0,0,1-.21.21.21.21,0,0,1-.22-.21.22.22,0,0,1,.22-.22A.21.21,0,0,1,470.9,329.65Z"/><circle class="cls-4" cx="469.81" cy="334.24" r="0.21"/><path class="cls-4" d="M472.14,333.13a.21.21,0,0,1-.21.22.22.22,0,0,1-.22-.22.21.21,0,0,1,.22-.21A.21.21,0,0,1,472.14,333.13Z"/><path class="cls-5" d="M401.45,176.77a4.88,4.88,0,1,1-9.76,0c0-2.69,2.18-8,4.88-8S401.45,174.08,401.45,176.77Z"/><path class="cls-5" d="M391.69,160.06a4.88,4.88,0,0,1,9.76,0c0,2.7-2.19,8-4.88,8S391.69,162.76,391.69,160.06Z"/><path class="cls-5" d="M388,173.48a4.88,4.88,0,0,1,0-9.76c2.7,0,8,2.18,8,4.88S390.73,173.48,388,173.48Z"/><path class="cls-5" d="M404,163.72a4.88,4.88,0,0,1,0,9.76c-2.69,0-8-2.19-8-4.88S401.35,163.72,404,163.72Z"/><path class="cls-3" d="M394.24,177a4.29,4.29,0,0,1-6.06-6.07c1.67-1.67,6.33-3.62,8-1.94S395.91,175.34,394.24,177Z"/><path class="cls-3" d="M398.56,160.57a4.29,4.29,0,1,1,6.06,6.07c-1.67,1.67-6.34,3.62-8,1.94S396.88,162.25,398.56,160.57Z"/><path class="cls-3" d="M388,166.64a4.29,4.29,0,0,1,6.07-6.07c1.67,1.68,3.62,6.34,1.94,8S389.63,168.31,388,166.64Z"/><path class="cls-3" d="M404,170.52a4.29,4.29,0,0,1-6.06,6.06c-1.68-1.67-3.62-6.33-1.95-8S402.29,168.84,404,170.52Z"/><path class="cls-4" d="M396.25,168.13a11.29,11.29,0,0,0-1.54-2.59,4.93,4.93,0,0,0-2.41-1.78,5.19,5.19,0,0,1,2.68,1.53,11.65,11.65,0,0,1,1.91,2.51.36.36,0,1,1-.62.37A.08.08,0,0,1,396.25,168.13Z"/><path class="cls-4" d="M395.76,168.88A10.93,10.93,0,0,0,391.1,167a11.39,11.39,0,0,1,5,1.26.36.36,0,0,1-.33.65Z"/><path class="cls-4" d="M397,167.21a5.75,5.75,0,0,0,.25-2.38,4.44,4.44,0,0,0-1-2.27,4.53,4.53,0,0,1,1.3,2.2,6.06,6.06,0,0,1,.09,2.65.36.36,0,1,1-.71-.13.09.09,0,0,1,0-.05Z"/><path class="cls-4" d="M397.33,168.45a.32.32,0,1,1-.32-.31A.31.31,0,0,1,397.33,168.45Z"/><path class="cls-4" d="M397.69,169.53a.31.31,0,0,1-.31.32.32.32,0,0,1,0-.63A.31.31,0,0,1,397.69,169.53Z"/><path class="cls-4" d="M395.31,167a.31.31,0,1,1-.31-.32A.31.31,0,0,1,395.31,167Z"/><path class="cls-4" d="M396.26,169.85a.31.31,0,1,1-.31-.32A.31.31,0,0,1,396.26,169.85Z"/><path class="cls-4" d="M398.7,168.76a.31.31,0,1,1-.31-.31A.31.31,0,0,1,398.7,168.76Z"/><path class="cls-4" d="M392.61,163.76a.31.31,0,1,1-.31-.32A.31.31,0,0,1,392.61,163.76Z"/><path class="cls-4" d="M391.65,167a.31.31,0,1,1-.31-.32A.31.31,0,0,1,391.65,167Z"/><path class="cls-4" d="M396.59,162.56a.31.31,0,1,1-.31-.31A.31.31,0,0,1,396.59,162.56Z"/><path class="cls-4" d="M395.31,169.22a.31.31,0,1,1-.62,0,.31.31,0,0,1,.62,0Z"/><path class="cls-4" d="M398.39,167.62a.32.32,0,1,1-.31-.31A.31.31,0,0,1,398.39,167.62Z"/><path class="cls-5" d="M89.36,217.18a2.65,2.65,0,1,1-5.29,0c0-1.46,1.19-4.34,2.65-4.34S89.36,215.72,89.36,217.18Z"/><path class="cls-5" d="M84.07,208.12a2.65,2.65,0,0,1,5.29,0c0,1.47-1.18,4.35-2.64,4.35S84.07,209.59,84.07,208.12Z"/><path class="cls-5" d="M82.09,215.4a2.65,2.65,0,1,1,0-5.29c1.46,0,4.34,1.18,4.34,2.64S83.55,215.4,82.09,215.4Z"/><path class="cls-5" d="M90.77,210.11a2.65,2.65,0,0,1,0,5.29c-1.46,0-4.35-1.19-4.35-2.65S89.31,210.11,90.77,210.11Z"/><path class="cls-3" d="M85.45,217.31A2.32,2.32,0,1,1,82.17,214c.9-.91,3.43-2,4.34-1.06S86.36,216.41,85.45,217.31Z"/><path class="cls-3" d="M87.79,208.4a2.33,2.33,0,0,1,3.29,3.29c-.91.9-3.43,2-4.34,1.05S86.89,209.31,87.79,208.4Z"/><path class="cls-3" d="M82.05,211.69a2.32,2.32,0,0,1,3.28-3.29c.91.91,2,3.43,1.06,4.34S83,212.59,82.05,211.69Z"/><path class="cls-3" d="M90.72,213.79a2.32,2.32,0,0,1-3.28,3.29c-.91-.91-2-3.44-1.06-4.34S89.81,212.88,90.72,213.79Z"/><path class="cls-4" d="M86.54,212.5a6.45,6.45,0,0,0-.83-1.41,2.68,2.68,0,0,0-1.31-1,2.8,2.8,0,0,1,1.45.83,6.54,6.54,0,0,1,1,1.36.19.19,0,0,1-.07.27.21.21,0,0,1-.27-.07Z"/><path class="cls-4" d="M86.28,212.9a6.12,6.12,0,0,0-2.53-1,6.1,6.1,0,0,1,2.73.69.19.19,0,0,1,.09.26.2.2,0,0,1-.27.09Z"/><path class="cls-4" d="M86.94,212a3.11,3.11,0,0,0,.13-1.29,2.31,2.31,0,0,0-.51-1.23,2.44,2.44,0,0,1,.7,1.19,3,3,0,0,1,0,1.44.19.19,0,1,1-.38-.07v0Z"/><path class="cls-4" d="M87.13,212.67a.18.18,0,0,1-.17.17.17.17,0,0,1,0-.34A.18.18,0,0,1,87.13,212.67Z"/><path class="cls-4" d="M87.32,213.26a.17.17,0,0,1-.17.17.18.18,0,0,1-.17-.17.17.17,0,0,1,.17-.17A.16.16,0,0,1,87.32,213.26Z"/><circle class="cls-4" cx="85.86" cy="211.88" r="0.17"/><path class="cls-4" d="M86.55,213.43a.17.17,0,1,1-.34,0,.17.17,0,1,1,.34,0Z"/><path class="cls-4" d="M87.87,212.84a.17.17,0,0,1-.17.17.18.18,0,0,1-.17-.17.17.17,0,0,1,.17-.17A.16.16,0,0,1,87.87,212.84Z"/><circle class="cls-4" cx="84.4" cy="210.13" r="0.17"/><path class="cls-4" d="M84.05,211.88a.17.17,0,0,1-.34,0,.17.17,0,0,1,.34,0Z"/><circle class="cls-4" cx="86.56" cy="209.48" r="0.17"/><circle class="cls-4" cx="85.86" cy="213.09" r="0.17"/><path class="cls-4" d="M87.7,212.22a.17.17,0,0,1-.17.17.17.17,0,0,1,0-.34A.17.17,0,0,1,87.7,212.22Z"/><path class="cls-5" d="M35.58,283.07a3.37,3.37,0,0,1-2.74-6.15c1.7-.75,5.66-.87,6.42.83S37.28,282.31,35.58,283.07Z"/><path class="cls-5" d="M43.36,272.24a3.36,3.36,0,1,1,2.74,6.14c-1.7.76-5.66.87-6.41-.82S41.67,273,43.36,272.24Z"/><path class="cls-5" d="M33.89,273.7A3.37,3.37,0,0,1,40,271c.75,1.7.87,5.66-.83,6.41S34.65,275.39,33.89,273.7Z"/><path class="cls-5" d="M44.53,281a3.37,3.37,0,0,1-6.15,2.74c-.75-1.7-.87-5.66.83-6.42S43.77,279.34,44.53,281Z"/><path class="cls-3" d="M33.4,278.6a3,3,0,0,1,2.12-5.52c1.52.58,4.06,3,3.47,4.5S34.93,279.18,33.4,278.6Z"/><path class="cls-3" d="M45,276.7a3,3,0,0,1-2.12,5.52c-1.52-.58-4.05-3-3.47-4.5S43.45,276.12,45,276.7Z"/><path class="cls-3" d="M38.18,271.73a3,3,0,1,1,5.52,2.11c-.59,1.53-3,4.06-4.5,3.48S37.59,273.25,38.18,271.73Z"/><path class="cls-3" d="M40.22,282.9a3,3,0,0,1-5.52-2.12c.59-1.53,3-4.06,4.5-3.47S40.81,281.37,40.22,282.9Z"/><path class="cls-4" d="M39.56,277.37a7.47,7.47,0,0,0,1.2-1.7,3.46,3.46,0,0,0,.45-2,3.6,3.6,0,0,1-.22,2.12,8,8,0,0,1-1,1.91.25.25,0,0,1-.41-.29Z"/><path class="cls-4" d="M39,277.27a7.51,7.51,0,0,0-.12-3.46,7.8,7.8,0,0,1,.62,3.53.25.25,0,0,1-.26.23.24.24,0,0,1-.24-.26Z"/><path class="cls-4" d="M40.35,277.57a4,4,0,0,0,1.57-.51,3.06,3.06,0,0,0,1.16-1.23,3.08,3.08,0,0,1-1,1.43,4.16,4.16,0,0,1-1.65.8.25.25,0,1,1-.11-.48h.05Z"/><path class="cls-4" d="M39.66,278.14a.22.22,0,0,1-.17-.4.21.21,0,0,1,.28.11A.22.22,0,0,1,39.66,278.14Z"/><path class="cls-4" d="M39.08,278.67a.21.21,0,1,1,.11-.28A.21.21,0,0,1,39.08,278.67Z"/><path class="cls-4" d="M40,276.46a.21.21,0,0,1-.28-.11.21.21,0,1,1,.39-.17A.21.21,0,0,1,40,276.46Z"/><path class="cls-4" d="M38.49,277.86a.22.22,0,0,1-.29-.11.21.21,0,0,1,.11-.28.21.21,0,0,1,.28.11A.22.22,0,0,1,38.49,277.86Z"/><path class="cls-4" d="M39.85,279.09a.21.21,0,0,1-.28-.11.21.21,0,0,1,.39-.17A.21.21,0,0,1,39.85,279.09Z"/><path class="cls-4" d="M41.3,273.85a.22.22,0,0,1-.29-.11.22.22,0,0,1,.11-.28.22.22,0,0,1,.29.11A.22.22,0,0,1,41.3,273.85Z"/><path class="cls-4" d="M39,274.16a.24.24,0,0,1-.29-.11.22.22,0,0,1,.4-.18A.23.23,0,0,1,39,274.16Z"/><path class="cls-4" d="M43.17,276a.22.22,0,0,1-.29-.11.21.21,0,0,1,.11-.28.21.21,0,0,1,.28.11A.21.21,0,0,1,43.17,276Z"/><path class="cls-4" d="M38.61,277.08a.21.21,0,0,1-.28-.1.22.22,0,0,1,.11-.29.21.21,0,0,1,.28.11A.21.21,0,0,1,38.61,277.08Z"/><path class="cls-4" d="M40.49,278.57a.22.22,0,0,1-.29-.11.21.21,0,0,1,.11-.28.21.21,0,0,1,.28.11A.21.21,0,0,1,40.49,278.57Z"/><path class="cls-5" d="M484.56,314a2.06,2.06,0,1,1-3.36-2.38c.66-.93,2.71-2.22,3.63-1.57S485.22,313,484.56,314Z"/><path class="cls-5" d="M485.27,305.84a2.06,2.06,0,0,1,3.36,2.38c-.66.93-2.7,2.22-3.63,1.57S484.61,306.77,485.27,305.84Z"/><path class="cls-5" d="M480.75,309.57a2.06,2.06,0,0,1,2.37-3.36c.93.66,2.23,2.7,1.57,3.63S481.67,310.22,480.75,309.57Z"/><path class="cls-5" d="M488.63,310.11a2.06,2.06,0,0,1-2.37,3.36c-.93-.66-2.23-2.71-1.57-3.63S487.7,309.45,488.63,310.11Z"/><path class="cls-3" d="M482,312.3a1.81,1.81,0,0,1-.61-3.57c1-.16,3.06.3,3.23,1.28S483,312.13,482,312.3Z"/><path class="cls-3" d="M487.51,307.69a1.81,1.81,0,1,1,.61,3.56c-1,.17-3.06-.3-3.23-1.28S486.53,307.86,487.51,307.69Z"/><path class="cls-3" d="M482.38,307.19a1.81,1.81,0,0,1,3.57-.61c.16,1-.3,3.06-1.28,3.23S482.55,308.18,482.38,307.19Z"/><path class="cls-3" d="M487,312.43a1.81,1.81,0,0,1-3.56.61c-.17-1,.29-3.06,1.28-3.23S486.78,311.44,487,312.43Z"/><path class="cls-4" d="M484.78,309.71a4.68,4.68,0,0,0,.15-1.24,2.09,2.09,0,0,0-.35-1.21,2.23,2.23,0,0,1,.6,1.18,4.64,4.64,0,0,1,.09,1.34.24.24,0,0,1-.26.24.25.25,0,0,1-.24-.26A.43.43,0,0,0,484.78,309.71Z"/><path class="cls-4" d="M484.44,309.91a4.55,4.55,0,0,0-1.06-1.82,4.62,4.62,0,0,1,1.51,1.62.25.25,0,0,1-.43.25Z"/><path class="cls-4" d="M485.29,309.51a2.28,2.28,0,0,0,.68-.7,1.78,1.78,0,0,0,.27-1,1.93,1.93,0,0,1,0,1.09,2.49,2.49,0,0,1-.6,1,.25.25,0,1,1-.36-.35l0,0Z"/><path class="cls-4" d="M485.17,310.1A.13.13,0,0,1,485,310a.13.13,0,0,1,.19,0A.13.13,0,0,1,485.17,310.1Z"/><path class="cls-4" d="M485,310.56a.13.13,0,0,1-.22-.15.14.14,0,0,1,.19,0A.13.13,0,0,1,485,310.56Z"/><path class="cls-4" d="M484.83,309.11a.13.13,0,0,1-.22-.15.13.13,0,0,1,.19,0A.13.13,0,0,1,484.83,309.11Z"/><path class="cls-4" d="M484.46,310.32a.13.13,0,1,1,0-.18A.13.13,0,0,1,484.46,310.32Z"/><path class="cls-4" d="M485.57,310.54a.14.14,0,0,1-.19,0,.13.13,0,0,1,.15-.21A.13.13,0,0,1,485.57,310.54Z"/><path class="cls-4" d="M484.69,307.34a.13.13,0,0,1-.18,0,.13.13,0,0,1,0-.18.14.14,0,0,1,.19,0A.14.14,0,0,1,484.69,307.34Z"/><path class="cls-4" d="M483.57,308.22a.13.13,0,0,1-.22-.15.13.13,0,0,1,.19,0A.13.13,0,0,1,483.57,308.22Z"/><path class="cls-4" d="M486.35,307.89a.13.13,0,0,1-.18,0,.14.14,0,0,1,0-.19.14.14,0,0,1,.19,0A.13.13,0,0,1,486.35,307.89Z"/><path class="cls-4" d="M484.29,309.88a.15.15,0,0,1-.19,0,.14.14,0,0,1,0-.19.13.13,0,0,1,.18,0A.14.14,0,0,1,484.29,309.88Z"/><path class="cls-4" d="M485.74,310.07a.13.13,0,0,1-.19,0,.13.13,0,0,1,0-.18.13.13,0,0,1,.22.15Z"/><rect class="cls-3" x="58.09" y="439.79" width="438.95" height="1.71"/><rect class="cls-4" x="122.84" y="205.6" width="236.79" height="23.61" rx="11.8"/><path class="cls-11" d="M347.83,229.45H134.64a12,12,0,1,1,0-24.1H347.83a12,12,0,1,1,0,24.1Zm-213.19-23.6a11.55,11.55,0,1,0,0,23.1H347.83a11.55,11.55,0,1,0,0-23.1Z"/><rect class="cls-4" x="342.45" y="217.27" width="1.52" height="7.96" transform="translate(-55.92 307.47) rotate(-45)"/><path class="cls-11" d="M345.49,225l-6-6,1.43-1.43,6,6Zm-5.27-6,5.27,5.27.72-.72-5.27-5.27Z"/><circle class="cls-4" cx="338.25" cy="216.28" r="6.08"/><path class="cls-11" d="M338.25,222.61a6.33,6.33,0,1,1,4.47-10.8h0a6.33,6.33,0,0,1-4.47,10.8Zm0-12.15a5.82,5.82,0,1,0,4.12,1.7h0A5.82,5.82,0,0,0,338.25,210.46Z"/><rect class="cls-12" x="119.6" y="235.6" width="243.27" height="12.77"/><rect class="cls-8" x="119.6" y="258.29" width="315.95" height="4.83"/><rect class="cls-8" x="119.6" y="270" width="315.95" height="4.83"/><rect class="cls-13" x="124.37" y="343.19" width="32.8" height="37.98"/><rect class="cls-14" x="157.17" y="332.47" width="32.8" height="48.69"/><rect class="cls-15" x="189.98" y="336.22" width="32.8" height="44.94"/><rect class="cls-16" x="222.78" y="321.75" width="32.8" height="59.42"/><rect class="cls-17" x="255.11" y="310.38" width="32.8" height="70.79"/><path class="cls-18" d="M379.12,386.79A49.87,49.87,0,1,1,429,336.92,49.92,49.92,0,0,1,379.12,386.79Zm0-94.53a44.66,44.66,0,1,0,44.65,44.66A44.71,44.71,0,0,0,379.12,292.26Z"/><path class="cls-19" d="M425.94,319.76l-4.89,1.8a44.66,44.66,0,1,1-41.93-29.29v-5.21a49.87,49.87,0,1,0,46.82,32.7Z"/><path class="cls-20" d="M425.94,319.76l-4.89,1.8a44.49,44.49,0,0,1,2.73,15.37c0,1.17,0,2.33-.14,3.48l5.23,0c.07-1.15.12-2.32.12-3.5A49.58,49.58,0,0,0,425.94,319.76Z"/><rect class="cls-18" x="156.92" y="307.47" width="0.5" height="73.69"/><rect class="cls-18" x="189.73" y="307.47" width="0.5" height="73.69"/><rect class="cls-18" x="222.53" y="307.47" width="0.5" height="73.69"/><rect class="cls-18" x="287.66" y="307.47" width="0.5" height="73.69"/><rect class="cls-18" x="124.12" y="307.47" width="0.5" height="73.69"/><rect class="cls-18" x="255.33" y="307.47" width="0.5" height="73.69"/><path class="cls-18" d="M371.58,330.74v.54L364.14,346h-.48l7.53-14.8h-9.9v2.44h-.44v-2.87Z"/><path class="cls-18" d="M384.17,341.38c0,2.72-2.17,4.59-5.7,4.59a9.86,9.86,0,0,1-4.81-1.28l.27-.35a9.26,9.26,0,0,0,4.57,1.19c3.28,0,5.24-1.69,5.24-4.06s-2-3.66-5.31-3.66h-1.7v-.39l6-6.25h-8.44v-.43h9v.39l-6,6.25h1.05C381.89,337.38,384.17,338.85,384.17,341.38Z"/><path class="cls-18" d="M394.68,335.18c0,2.91-1.33,4.52-3.68,4.52s-3.63-1.61-3.63-4.52,1.3-4.53,3.63-4.53S394.68,332.28,394.68,335.18Zm-6.86,0c0,2.67,1.14,4.13,3.18,4.13s3.2-1.46,3.2-4.13S393.07,331,391,331,387.82,332.5,387.82,335.18ZM402,330.76,390.24,346h-.57l11.71-15.21Zm2.65,10.79c0,2.92-1.33,4.53-3.68,4.53s-3.63-1.61-3.63-4.53,1.3-4.52,3.63-4.52S404.6,338.66,404.6,341.55Zm-6.85,0c0,2.68,1.13,4.14,3.17,4.14s3.2-1.46,3.2-4.14-1.13-4.13-3.2-4.13S397.75,338.88,397.75,341.55Z"/><path class="cls-10" d="M267.23,316.18a1.46,1.46,0,0,1-1.19,1.45,1.66,1.66,0,0,1,1.49,1.64c0,1.12-.84,1.76-2.22,1.76s-2.22-.64-2.22-1.76a1.66,1.66,0,0,1,1.49-1.64,1.45,1.45,0,0,1-1.19-1.45c0-.95.73-1.51,1.92-1.51S267.23,315.23,267.23,316.18Zm-4,3.07c0,1,.77,1.6,2,1.6s2-.59,2-1.59-.77-1.52-2.05-1.52S263.27,318.33,263.27,319.25Zm.3-3.05c0,.84.66,1.36,1.74,1.36s1.74-.52,1.74-1.36-.65-1.35-1.74-1.35S263.57,315.36,263.57,316.2Z"/><path class="cls-10" d="M271.14,314.67V321H271v-6.18h-1.7v-.18Z"/><path class="cls-10" d="M277.23,316.53c0,1.21-.56,1.89-1.54,1.89s-1.51-.68-1.51-1.89.54-1.89,1.51-1.89S277.23,315.32,277.23,316.53Zm-2.86,0c0,1.11.47,1.72,1.32,1.72s1.34-.61,1.34-1.72-.47-1.73-1.34-1.73S274.37,315.41,274.37,316.53Zm5.89-1.85L275.38,321h-.24l4.89-6.35Zm1.11,4.51c0,1.22-.55,1.89-1.53,1.89s-1.52-.67-1.52-1.89.54-1.89,1.52-1.89S281.37,318,281.37,319.19Zm-2.86,0c0,1.12.47,1.72,1.33,1.72s1.33-.6,1.33-1.72-.47-1.73-1.33-1.73S278.51,318.07,278.51,319.19Z"/><path class="cls-10" d="M235.43,324.47v.22l-3.1,6.14h-.2l3.14-6.18h-4.13v1H231v-1.19Z"/><path class="cls-10" d="M240.22,326c0-.81-.65-1.3-1.7-1.3a2.7,2.7,0,0,0-1.84.77l-.13-.13a2.87,2.87,0,0,1,2-.82c1.16,0,1.88.56,1.88,1.48a3.45,3.45,0,0,1-1.14,2l-2.54,2.67h4.18v.19h-4.36v-.27l2.59-2.72A3.27,3.27,0,0,0,240.22,326Z"/><path class="cls-10" d="M245.09,326.32c0,1.22-.56,1.89-1.54,1.89s-1.52-.67-1.52-1.89.55-1.89,1.52-1.89S245.09,325.11,245.09,326.32Zm-2.87,0c0,1.12.48,1.72,1.33,1.72s1.34-.6,1.34-1.72-.48-1.73-1.34-1.73S242.22,325.2,242.22,326.32Zm5.9-1.85-4.89,6.36H243l4.89-6.36Zm1.11,4.51c0,1.22-.55,1.89-1.54,1.89s-1.51-.67-1.51-1.89.54-1.89,1.51-1.89S249.23,327.77,249.23,329Zm-2.86,0c0,1.12.47,1.73,1.32,1.73S249,330.1,249,329s-.47-1.73-1.34-1.73S246.37,327.86,246.37,329Z"/><path class="cls-10" d="M200.36,340.52c1.34,0,2.21.7,2.21,1.76a2,2,0,0,1-2.23,2,4.37,4.37,0,0,1-2.11-.62l.09-.15a4.2,4.2,0,0,0,2,.59,1.82,1.82,0,0,0,2-1.84c0-.95-.8-1.58-2-1.58a5.28,5.28,0,0,0-1.7.33V338h3.66v.18h-3.48v2.63A5.67,5.67,0,0,1,200.36,340.52Z"/><path class="cls-10" d="M206.3,338v6.36h-.17v-6.18h-1.7V338Z"/><path class="cls-10" d="M212.39,339.81c0,1.22-.55,1.89-1.53,1.89s-1.52-.67-1.52-1.89.54-1.89,1.52-1.89S212.39,338.6,212.39,339.81Zm-2.86,0c0,1.12.47,1.73,1.33,1.73s1.33-.61,1.33-1.73-.47-1.73-1.33-1.73S209.53,338.69,209.53,339.81Zm5.9-1.84-4.89,6.35h-.24l4.89-6.35Zm1.1,4.5c0,1.22-.55,1.89-1.53,1.89s-1.52-.67-1.52-1.89.55-1.89,1.52-1.89S216.53,341.26,216.53,342.47Zm-2.86,0c0,1.12.47,1.73,1.33,1.73s1.33-.61,1.33-1.73-.47-1.72-1.33-1.72S213.67,341.35,213.67,342.47Z"/><path class="cls-10" d="M134.81,345.1l-2.68,4.28h3.15v-2h.18v2h1.1v.19h-1.1v1.89h-.18v-1.89H132v-.23l2.65-4.24Z"/><path class="cls-10" d="M142.19,348.27c0,2.05-.82,3.19-2.3,3.19s-2.29-1.14-2.29-3.19.81-3.17,2.29-3.17S142.19,346.23,142.19,348.27Zm-4.41,0c0,1.93.74,3,2.11,3s2.11-1.07,2.11-3-.75-3-2.11-3S137.78,346.34,137.78,348.27Z"/><path class="cls-10" d="M146.2,347c0,1.22-.55,1.89-1.53,1.89s-1.52-.67-1.52-1.89.55-1.89,1.52-1.89S146.2,345.74,146.2,347Zm-2.86,0c0,1.12.47,1.73,1.33,1.73S146,348.07,146,347s-.47-1.73-1.33-1.73S143.34,345.83,143.34,347Zm5.9-1.85-4.89,6.36h-.24L149,345.1Zm1.11,4.51c0,1.22-.56,1.89-1.54,1.89s-1.52-.67-1.52-1.89.55-1.89,1.52-1.89S150.35,348.4,150.35,349.61Zm-2.87,0c0,1.12.48,1.73,1.33,1.73s1.34-.61,1.34-1.73-.48-1.72-1.34-1.72S147.48,348.49,147.48,349.61Z"/><path class="cls-10" d="M166.87,337.44c1.34,0,2.2.7,2.2,1.76a2,2,0,0,1-2.22,2,4.37,4.37,0,0,1-2.11-.62l.09-.15a4.19,4.19,0,0,0,2,.58,1.82,1.82,0,0,0,2-1.83c0-1-.8-1.58-2-1.58a5.25,5.25,0,0,0-1.7.32v-3.07h3.66v.18h-3.48v2.64A5.3,5.3,0,0,1,166.87,337.44Z"/><path class="cls-10" d="M174.85,334.87v.23l-3.1,6.13h-.2l3.14-6.18h-4.13v1h-.19v-1.2Z"/><path class="cls-10" d="M178.9,336.73c0,1.21-.56,1.89-1.54,1.89s-1.51-.68-1.51-1.89.54-1.89,1.51-1.89S178.9,335.52,178.9,336.73Zm-2.86,0c0,1.11.47,1.72,1.32,1.72s1.34-.61,1.34-1.72-.47-1.73-1.34-1.73S176,335.61,176,336.73Zm5.89-1.85-4.88,6.35h-.24l4.89-6.35Zm1.11,4.51c0,1.22-.55,1.89-1.53,1.89s-1.52-.67-1.52-1.89.54-1.89,1.52-1.89S183,338.18,183,339.39Zm-2.86,0c0,1.12.47,1.73,1.33,1.73s1.33-.61,1.33-1.73-.47-1.73-1.33-1.73S180.18,338.27,180.18,339.39Z"/><polygon class="cls-21" points="503.69 166.5 471.32 186.08 480.02 169.71 503.69 166.5"/><rect class="cls-22" x="412.78" y="113.58" width="92.49" height="55.89"/><rect class="cls-10" x="423.32" y="121.68" width="72.84" height="4.68"/><rect class="cls-10" x="423.32" y="132.87" width="72.84" height="4.68"/><rect class="cls-10" x="423.32" y="144.05" width="72.84" height="4.68"/><rect class="cls-10" x="423.32" y="155.24" width="47.21" height="4.68"/><polygon class="cls-8" points="57.28 173.67 89.66 193.25 80.96 176.88 57.28 173.67"/><rect class="cls-10" x="54.41" y="124.53" width="92.39" height="53.21"/><rect class="cls-5" x="61.45" y="128.44" width="78.92" height="8.1"/><rect class="cls-3" x="61.45" y="143.11" width="78.92" height="4.05"/><rect class="cls-3" x="61.45" y="151.38" width="78.92" height="4.05"/><rect class="cls-3" x="61.45" y="160.57" width="78.92" height="4.05"/><g class="cls-23"><path class="cls-10" d="M50.71,149.14c-.13-.18-12.41-18.09-14.12-20.7l.46-.3c1.7,2.61,14,20.52,14.11,20.7Z"/><path class="cls-10" d="M54,148.94c-.12-.18-12.4-18.09-14.11-20.71l.45-.29c1.71,2.61,14,20.51,14.11,20.69Z"/><path class="cls-10" d="M57.34,148.74c-.13-.18-12.41-18.09-14.12-20.71l.45-.3c1.71,2.62,14,20.52,14.11,20.7Z"/><path class="cls-10" d="M60.65,148.53c-.13-.18-12.41-18.09-14.12-20.71l.46-.29c1.7,2.61,14,20.52,14.11,20.7Z"/><path class="cls-10" d="M64,148.33c-.12-.18-12.4-18.09-14.11-20.71l.45-.29c1.71,2.61,14,20.51,14.11,20.69Z"/><path class="cls-10" d="M67.27,148.13c-.12-.19-12.4-18.09-14.11-20.71l.45-.3c1.71,2.61,14,20.52,14.11,20.7Z"/><path class="cls-10" d="M70.59,147.92c-.13-.18-12.41-18.09-14.12-20.71l.46-.29c1.7,2.61,14,20.52,14.11,20.7Z"/><path class="cls-10" d="M73.9,147.72c-.12-.18-12.4-18.09-14.11-20.71l.45-.3c1.71,2.62,14,20.52,14.11,20.7Z"/><path class="cls-10" d="M77.21,147.51c-.12-.18-12.4-18.08-14.11-20.7l.45-.3c1.71,2.61,14,20.52,14.11,20.7Z"/><path class="cls-10" d="M80.53,147.31c-.13-.18-12.41-18.09-14.12-20.71l.46-.29c1.7,2.61,14,20.51,14.1,20.69Z"/><path class="cls-10" d="M88,149.14c-.12-.18-12.4-18.09-14.11-20.7l.45-.3c1.71,2.61,14,20.52,14.11,20.7Z"/><path class="cls-10" d="M91.33,148.94c-.13-.18-12.41-18.09-14.12-20.71l.46-.29c1.7,2.61,14,20.51,14.1,20.69Z"/><path class="cls-10" d="M94.64,148.74c-.12-.18-12.4-18.09-14.12-20.71l.46-.3c1.71,2.62,14,20.52,14.11,20.7Z"/><path class="cls-10" d="M98,148.53c-.12-.18-12.4-18.09-14.11-20.71l.45-.29c1.71,2.61,14,20.52,14.11,20.7Z"/><path class="cls-10" d="M101.27,148.33c-.13-.18-12.41-18.09-14.12-20.71l.45-.29c1.71,2.61,14,20.51,14.11,20.69Z"/><path class="cls-10" d="M104.58,148.13c-.12-.19-12.41-18.09-14.12-20.71l.46-.3c1.71,2.61,14,20.52,14.11,20.7Z"/><path class="cls-10" d="M107.89,147.92c-.12-.18-12.4-18.09-14.11-20.71l.45-.29c1.71,2.61,14,20.52,14.11,20.7Z"/><path class="cls-10" d="M111.21,147.72c-.13-.18-12.41-18.09-14.12-20.71l.45-.3c1.71,2.62,14,20.52,14.11,20.7Z"/><path class="cls-10" d="M114.52,147.51c-.12-.18-12.41-18.08-14.12-20.7l.46-.3c1.71,2.61,14,20.52,14.11,20.7Z"/><path class="cls-10" d="M117.83,147.31c-.12-.18-12.4-18.09-14.11-20.71l.45-.29c1.71,2.61,14,20.51,14.11,20.69Z"/><path class="cls-10" d="M84.06,148.33c-.12-.18-12.4-18.09-14.12-20.71l.46-.3c1.71,2.62,14,20.52,14.11,20.7Z"/><path class="cls-10" d="M125.32,149.14c-.13-.18-12.41-18.09-14.12-20.7l.46-.3c1.7,2.61,14,20.52,14.11,20.7Z"/><path class="cls-10" d="M128.63,148.94c-.12-.18-12.4-18.09-14.11-20.71l.45-.29c1.71,2.61,14,20.51,14.11,20.69Z"/><path class="cls-10" d="M131.94,148.74c-.12-.18-12.4-18.09-14.11-20.71l.45-.3c1.71,2.62,14,20.52,14.11,20.7Z"/><path class="cls-10" d="M135.26,148.53c-.13-.18-12.41-18.09-14.12-20.71l.46-.29c1.7,2.61,14,20.52,14.1,20.7Z"/><path class="cls-10" d="M138.57,148.33c-.12-.18-12.4-18.09-14.11-20.71l.45-.29c1.71,2.61,14,20.51,14.11,20.69Z"/><path class="cls-10" d="M141.88,148.13c-.12-.19-12.4-18.09-14.11-20.71l.45-.3c1.71,2.61,14,20.52,14.11,20.7Z"/><path class="cls-10" d="M145.2,147.92c-.13-.18-12.41-18.09-14.12-20.71l.46-.29c1.7,2.61,14,20.52,14.1,20.7Z"/><path class="cls-10" d="M148.51,147.72c-.12-.18-12.4-18.09-14.11-20.71l.45-.3c1.71,2.62,14,20.52,14.11,20.7Z"/><path class="cls-10" d="M151.82,147.51c-.12-.18-12.4-18.08-14.11-20.7l.45-.3c1.71,2.61,14,20.52,14.11,20.7Z"/><path class="cls-10" d="M155.14,147.31c-.13-.18-12.41-18.09-14.12-20.71l.46-.29c1.7,2.61,14,20.51,14.1,20.69Z"/><path class="cls-10" d="M121.35,148.33c-.12-.18-12.4-18.09-14.12-20.71l.46-.3c1.71,2.62,14,20.52,14.11,20.7Z"/><path class="cls-10" d="M50.71,170.8c-.13-.18-12.41-18.09-14.12-20.71l.46-.3c1.7,2.62,14,20.52,14.11,20.7Z"/><path class="cls-10" d="M54,170.59c-.12-.18-12.4-18.08-14.11-20.7l.45-.3c1.71,2.61,14,20.52,14.11,20.7Z"/><path class="cls-10" d="M57.34,170.39c-.13-.18-12.41-18.09-14.12-20.71l.45-.29c1.71,2.61,14,20.51,14.11,20.69Z"/><path class="cls-10" d="M60.65,170.19c-.13-.18-12.41-18.09-14.12-20.71l.46-.3c1.7,2.62,14,20.52,14.11,20.7Z"/><path class="cls-10" d="M64,170c-.12-.18-12.4-18.09-14.11-20.7l.45-.3c1.71,2.61,14,20.52,14.11,20.7Z"/><path class="cls-10" d="M67.27,169.78c-.12-.18-12.4-18.09-14.11-20.71l.45-.29c1.71,2.61,14,20.51,14.11,20.69Z"/><path class="cls-10" d="M70.59,169.58c-.13-.18-12.41-18.09-14.12-20.71l.46-.3c1.7,2.62,14,20.52,14.11,20.7Z"/><path class="cls-10" d="M73.9,169.37c-.12-.18-12.4-18.09-14.11-20.7l.45-.3c1.71,2.61,14,20.52,14.11,20.7Z"/><path class="cls-10" d="M77.21,169.17c-.12-.18-12.4-18.09-14.11-20.71l.45-.29c1.71,2.61,14,20.51,14.11,20.69Z"/><path class="cls-10" d="M80.53,169c-.13-.18-12.41-18.09-14.12-20.71l.46-.3c1.7,2.62,14,20.52,14.1,20.7Z"/><path class="cls-10" d="M88,170.8c-.12-.18-12.4-18.09-14.11-20.71l.45-.3c1.71,2.62,14,20.52,14.11,20.7Z"/><path class="cls-10" d="M91.33,170.59c-.13-.18-12.41-18.08-14.12-20.7l.46-.3c1.7,2.61,14,20.52,14.1,20.7Z"/><path class="cls-10" d="M94.64,170.39c-.12-.18-12.4-18.09-14.12-20.71l.46-.29c1.71,2.61,14,20.51,14.11,20.69Z"/><path class="cls-10" d="M98,170.19c-.12-.18-12.4-18.09-14.11-20.71l.45-.3c1.71,2.62,14,20.52,14.11,20.7Z"/><path class="cls-10" d="M101.27,170c-.13-.18-12.41-18.09-14.12-20.7l.45-.3c1.71,2.61,14,20.52,14.11,20.7Z"/><path class="cls-10" d="M104.58,169.78c-.12-.18-12.41-18.09-14.12-20.71l.46-.29c1.71,2.61,14,20.51,14.11,20.69Z"/><path class="cls-10" d="M107.89,169.58c-.12-.18-12.4-18.09-14.11-20.71l.45-.3c1.71,2.62,14,20.52,14.11,20.7Z"/><path class="cls-10" d="M111.21,169.37c-.13-.18-12.41-18.09-14.12-20.7l.45-.3c1.71,2.61,14,20.52,14.11,20.7Z"/><path class="cls-10" d="M114.52,169.17c-.12-.18-12.41-18.09-14.12-20.71l.46-.29c1.71,2.61,14,20.51,14.11,20.69Z"/><path class="cls-10" d="M117.83,169c-.12-.18-12.4-18.09-14.11-20.71l.45-.3c1.71,2.62,14,20.52,14.11,20.7Z"/><path class="cls-10" d="M84.06,170c-.12-.18-12.4-18.09-14.12-20.7l.46-.3c1.71,2.61,14,20.52,14.11,20.7Z"/><path class="cls-10" d="M125.32,170.8c-.13-.18-12.41-18.09-14.12-20.71l.46-.3c1.7,2.62,14,20.52,14.11,20.7Z"/><path class="cls-10" d="M128.63,170.59c-.12-.18-12.4-18.08-14.11-20.7l.45-.3c1.71,2.61,14,20.52,14.11,20.7Z"/><path class="cls-10" d="M131.94,170.39c-.12-.18-12.4-18.09-14.11-20.71l.45-.29c1.71,2.61,14,20.51,14.11,20.69Z"/><path class="cls-10" d="M135.26,170.19c-.13-.18-12.41-18.09-14.12-20.71l.46-.3c1.7,2.62,14,20.52,14.1,20.7Z"/><path class="cls-10" d="M138.57,170c-.12-.18-12.4-18.09-14.11-20.7l.45-.3c1.71,2.61,14,20.52,14.11,20.7Z"/><path class="cls-10" d="M141.88,169.78c-.12-.18-12.4-18.09-14.11-20.71l.45-.29c1.71,2.61,14,20.51,14.11,20.69Z"/><path class="cls-10" d="M145.2,169.58c-.13-.18-12.41-18.09-14.12-20.71l.46-.3c1.7,2.62,14,20.52,14.1,20.7Z"/><path class="cls-10" d="M148.51,169.37c-.12-.18-12.4-18.09-14.11-20.7l.45-.3c1.71,2.61,14,20.52,14.11,20.7Z"/><path class="cls-10" d="M151.82,169.17c-.12-.18-12.4-18.09-14.11-20.71l.45-.29c1.71,2.61,14,20.51,14.11,20.69Z"/><path class="cls-10" d="M155.14,169c-.13-.18-12.41-18.09-14.12-20.71l.46-.3c1.7,2.62,14,20.52,14.1,20.7Z"/><path class="cls-10" d="M121.35,170c-.12-.18-12.4-18.09-14.12-20.7l.46-.3c1.71,2.61,14,20.52,14.11,20.7Z"/></g><polygon class="cls-24" points="295.79 158.61 312.71 172.02 309.26 157.84 295.79 158.61"/><rect class="cls-25" x="292.41" y="122.3" width="66.37" height="38.92"/><rect class="cls-10" x="296.84" y="128.4" width="57.95" height="4.05"/><rect class="cls-10" x="296.84" y="136.71" width="57.95" height="2.02"/><rect class="cls-10" x="296.84" y="143" width="57.95" height="2.02"/><rect class="cls-10" x="296.84" y="149.29" width="57.95" height="2.02"/><polygon class="cls-6" points="243.78 146.61 214.49 146.61 214.49 163.78 217.44 163.78 223.45 168.55 222.29 163.78 243.78 163.78 243.78 146.61"/><polygon class="cls-6" points="27.25 186.29 3.74 186.29 3.74 200.07 6.1 200.07 10.93 203.9 10 200.07 27.25 200.07 27.25 186.29"/><polygon class="cls-6" points="518.33 196.65 547.62 196.65 547.62 213.82 544.67 213.82 538.66 218.58 539.82 213.82 518.33 213.82 518.33 196.65"/><path class="cls-10" d="M122.71,250.31c-.1-.14-9.94-14.48-11.31-16.58l.37-.23c1.36,2.09,11.19,16.42,11.29,16.57Z"/><path class="cls-10" d="M125.36,250.15c-.1-.15-9.93-14.48-11.3-16.58l.36-.24c1.37,2.09,11.2,16.43,11.3,16.57Z"/><path class="cls-10" d="M128,250c-.1-.15-9.93-14.49-11.3-16.58l.36-.24c1.37,2.09,11.2,16.43,11.3,16.57Z"/><path class="cls-10" d="M130.66,249.82c-.09-.14-9.93-14.48-11.3-16.58l.37-.23c1.36,2.09,11.19,16.42,11.29,16.57Z"/><path class="cls-10" d="M133.32,249.66c-.1-.14-9.93-14.48-11.3-16.58l.36-.24c1.37,2.1,11.2,16.43,11.29,16.57Z"/><path class="cls-10" d="M136,249.5c-.1-.15-9.93-14.49-11.3-16.58l.36-.24c1.37,2.09,11.2,16.43,11.3,16.57Z"/><path class="cls-10" d="M138.62,249.33c-.1-.14-9.93-14.48-11.3-16.58l.36-.23c1.37,2.09,11.2,16.42,11.3,16.57Z"/><path class="cls-10" d="M141.28,249.17c-.1-.14-9.94-14.48-11.31-16.58l.37-.24c1.36,2.1,11.19,16.43,11.29,16.58Z"/><path class="cls-10" d="M143.93,249c-.1-.15-9.93-14.48-11.3-16.58l.36-.24c1.37,2.09,11.2,16.43,11.3,16.57Z"/><path class="cls-10" d="M146.58,248.85c-.1-.15-9.93-14.49-11.3-16.58l.36-.24c1.37,2.09,11.2,16.43,11.3,16.57Z"/><path class="cls-10" d="M152.57,250.31c-.1-.14-9.93-14.48-11.3-16.58l.37-.23c1.36,2.09,11.19,16.42,11.29,16.57Z"/><path class="cls-10" d="M155.23,250.15c-.1-.15-9.94-14.48-11.3-16.58l.36-.24c1.37,2.09,11.2,16.43,11.29,16.57Z"/><path class="cls-10" d="M157.88,250c-.1-.15-9.93-14.49-11.3-16.58l.36-.24c1.37,2.09,11.2,16.43,11.3,16.57Z"/><path class="cls-10" d="M160.53,249.82c-.1-.14-9.93-14.48-11.3-16.58l.36-.23c1.37,2.09,11.2,16.42,11.3,16.57Z"/><path class="cls-10" d="M163.19,249.66c-.1-.14-9.94-14.48-11.31-16.58l.37-.24c1.36,2.1,11.19,16.43,11.29,16.57Z"/><path class="cls-10" d="M165.84,249.5c-.1-.15-9.93-14.49-11.3-16.58l.36-.24c1.37,2.09,11.2,16.43,11.3,16.57Z"/><path class="cls-10" d="M168.49,249.33c-.1-.14-9.93-14.48-11.3-16.58l.36-.23c1.37,2.09,11.2,16.42,11.3,16.57Z"/><path class="cls-10" d="M171.14,249.17c-.1-.14-9.93-14.48-11.3-16.58l.37-.24c1.36,2.1,11.19,16.43,11.29,16.58Z"/><path class="cls-10" d="M173.8,249c-.1-.15-9.94-14.48-11.31-16.58l.37-.24c1.36,2.09,11.19,16.43,11.29,16.57Z"/><path class="cls-10" d="M176.45,248.85c-.1-.15-9.93-14.49-11.3-16.58l.36-.24c1.37,2.09,11.2,16.43,11.3,16.57Z"/><path class="cls-10" d="M149.41,249.66c-.1-.14-9.93-14.48-11.3-16.58l.36-.24c1.37,2.1,11.2,16.43,11.3,16.57Z"/><path class="cls-10" d="M182.44,250.31c-.1-.14-9.93-14.48-11.3-16.58l.36-.23c1.37,2.09,11.2,16.42,11.3,16.57Z"/><path class="cls-10" d="M185.1,250.15c-.1-.15-9.94-14.48-11.31-16.58l.37-.24c1.36,2.09,11.19,16.43,11.29,16.57Z"/><path class="cls-10" d="M187.75,250c-.1-.15-9.93-14.49-11.3-16.58l.36-.24c1.37,2.09,11.2,16.43,11.3,16.57Z"/><path class="cls-10" d="M190.4,249.82c-.1-.14-9.93-14.48-11.3-16.58l.36-.23c1.37,2.09,11.2,16.42,11.3,16.57Z"/><path class="cls-10" d="M193.05,249.66c-.1-.14-9.93-14.48-11.3-16.58l.37-.24c1.36,2.1,11.19,16.43,11.29,16.57Z"/><path class="cls-10" d="M195.71,249.5c-.1-.15-9.94-14.49-11.31-16.58l.37-.24c1.36,2.09,11.19,16.43,11.29,16.57Z"/><path class="cls-10" d="M198.36,249.33c-.1-.14-9.93-14.48-11.3-16.58l.36-.23c1.37,2.09,11.2,16.42,11.3,16.57Z"/><path class="cls-10" d="M201,249.17c-.1-.14-9.93-14.48-11.3-16.58l.36-.24c1.37,2.1,11.2,16.43,11.3,16.58Z"/><path class="cls-10" d="M203.66,249c-.09-.15-9.93-14.48-11.3-16.58l.37-.24c1.36,2.09,11.19,16.43,11.29,16.57Z"/><path class="cls-10" d="M206.32,248.85c-.1-.15-9.93-14.49-11.3-16.58l.36-.24c1.37,2.09,11.2,16.43,11.3,16.57Z"/><path class="cls-10" d="M179.27,249.66c-.1-.14-9.94-14.48-11.31-16.58l.37-.24c1.36,2.1,11.19,16.43,11.29,16.57Z"/><path class="cls-10" d="M210.43,250.31c-.1-.14-9.93-14.48-11.3-16.58l.37-.23c1.36,2.09,11.19,16.42,11.29,16.57Z"/><path class="cls-10" d="M213.09,250.15c-.1-.15-9.94-14.48-11.31-16.58l.37-.24c1.37,2.09,11.2,16.43,11.29,16.57Z"/><path class="cls-10" d="M215.74,250c-.1-.15-9.93-14.49-11.3-16.58l.36-.24c1.37,2.09,11.2,16.43,11.3,16.57Z"/><path class="cls-10" d="M218.39,249.82c-.1-.14-9.93-14.48-11.3-16.58l.36-.23c1.37,2.09,11.2,16.42,11.3,16.57Z"/><path class="cls-10" d="M221.05,249.66c-.1-.14-9.94-14.48-11.31-16.58l.37-.24c1.36,2.1,11.19,16.43,11.29,16.57Z"/><path class="cls-10" d="M223.7,249.5c-.1-.15-9.93-14.49-11.3-16.58l.36-.24c1.37,2.09,11.2,16.43,11.3,16.57Z"/><path class="cls-10" d="M226.35,249.33c-.1-.14-9.93-14.48-11.3-16.58l.36-.23c1.37,2.09,11.2,16.42,11.3,16.57Z"/><path class="cls-10" d="M229,249.17c-.1-.14-9.93-14.48-11.3-16.58l.37-.24c1.36,2.1,11.19,16.43,11.29,16.58Z"/><path class="cls-10" d="M231.66,249c-.1-.15-9.94-14.48-11.31-16.58l.37-.24c1.37,2.09,11.19,16.43,11.29,16.57Z"/><path class="cls-10" d="M234.31,248.85c-.1-.15-9.93-14.49-11.3-16.58l.36-.24c1.37,2.09,11.2,16.43,11.3,16.57Z"/><path class="cls-10" d="M240.3,250.31c-.1-.14-9.93-14.48-11.3-16.58l.36-.23c1.37,2.09,11.2,16.42,11.3,16.57Z"/><path class="cls-10" d="M243,250.15c-.1-.15-9.94-14.48-11.31-16.58l.37-.24c1.36,2.09,11.19,16.43,11.29,16.57Z"/><path class="cls-10" d="M245.61,250c-.1-.15-9.93-14.49-11.3-16.58l.36-.24c1.37,2.09,11.2,16.43,11.3,16.57Z"/><path class="cls-10" d="M248.26,249.82c-.1-.14-9.93-14.48-11.3-16.58l.36-.23c1.37,2.09,11.2,16.42,11.3,16.57Z"/><path class="cls-10" d="M250.91,249.66c-.1-.14-9.93-14.48-11.3-16.58l.36-.24c1.37,2.1,11.2,16.43,11.3,16.57Z"/><path class="cls-10" d="M253.57,249.5c-.1-.15-9.94-14.49-11.31-16.58l.37-.24c1.36,2.09,11.19,16.43,11.29,16.57Z"/><path class="cls-10" d="M256.22,249.33c-.1-.14-9.93-14.48-11.3-16.58l.36-.23c1.37,2.09,11.2,16.42,11.3,16.57Z"/><path class="cls-10" d="M258.87,249.17c-.1-.14-9.93-14.48-11.3-16.58l.36-.24c1.37,2.1,11.2,16.43,11.3,16.58Z"/><path class="cls-10" d="M261.52,249c-.09-.15-9.93-14.48-11.3-16.58l.37-.24c1.36,2.09,11.19,16.43,11.29,16.57Z"/><path class="cls-10" d="M264.18,248.85c-.1-.15-9.93-14.49-11.3-16.58l.36-.24c1.37,2.09,11.2,16.43,11.29,16.57Z"/><path class="cls-10" d="M237.14,249.66c-.1-.14-9.93-14.48-11.3-16.58l.36-.24c1.37,2.1,11.2,16.43,11.29,16.57Z"/><path class="cls-10" d="M270.17,250.31c-.1-.14-9.93-14.48-11.3-16.58l.36-.23c1.37,2.09,11.2,16.42,11.3,16.57Z"/><path class="cls-10" d="M272.82,250.15c-.1-.15-9.93-14.48-11.3-16.58l.37-.24c1.36,2.09,11.19,16.43,11.29,16.57Z"/><path class="cls-10" d="M275.48,250c-.1-.15-9.94-14.49-11.31-16.58l.37-.24c1.36,2.09,11.19,16.43,11.29,16.57Z"/><path class="cls-10" d="M278.13,249.82c-.1-.14-9.93-14.48-11.3-16.58l.36-.23c1.37,2.09,11.2,16.42,11.3,16.57Z"/><path class="cls-10" d="M280.78,249.66c-.1-.14-9.93-14.48-11.3-16.58l.36-.24c1.37,2.1,11.2,16.43,11.3,16.57Z"/><path class="cls-10" d="M283.43,249.5c-.09-.15-9.93-14.49-11.3-16.58l.37-.24c1.36,2.09,11.19,16.43,11.29,16.57Z"/><path class="cls-10" d="M286.09,249.33c-.1-.14-9.93-14.48-11.3-16.58l.36-.23c1.37,2.09,11.2,16.42,11.29,16.57Z"/><path class="cls-10" d="M288.74,249.17c-.1-.14-9.93-14.48-11.3-16.58l.36-.24c1.37,2.1,11.2,16.43,11.3,16.58Z"/><path class="cls-10" d="M291.39,249c-.1-.15-9.93-14.48-11.3-16.58l.36-.24c1.37,2.09,11.2,16.43,11.3,16.57Z"/><path class="cls-10" d="M294.05,248.85c-.1-.15-9.94-14.49-11.31-16.58l.37-.24c1.36,2.09,11.19,16.43,11.29,16.57Z"/><path class="cls-10" d="M267,249.66c-.1-.14-9.93-14.48-11.3-16.58l.37-.24c1.36,2.1,11.19,16.43,11.29,16.57Z"/><path class="cls-10" d="M298.16,250.31c-.1-.14-9.93-14.48-11.3-16.58l.36-.23c1.37,2.09,11.2,16.42,11.3,16.57Z"/><path class="cls-10" d="M300.81,250.15c-.09-.15-9.93-14.48-11.3-16.58l.37-.24c1.36,2.09,11.19,16.43,11.29,16.57Z"/><path class="cls-10" d="M303.47,250c-.1-.15-9.93-14.49-11.3-16.58l.36-.24c1.37,2.09,11.2,16.43,11.3,16.57Z"/><path class="cls-10" d="M306.12,249.82c-.1-.14-9.93-14.48-11.3-16.58l.36-.23c1.37,2.09,11.2,16.42,11.3,16.57Z"/><path class="cls-10" d="M308.77,249.66c-.1-.14-9.93-14.48-11.3-16.58l.37-.24c1.36,2.1,11.19,16.43,11.29,16.57Z"/><path class="cls-10" d="M311.43,249.5c-.1-.15-9.94-14.49-11.31-16.58l.37-.24c1.36,2.09,11.19,16.43,11.29,16.57Z"/><path class="cls-10" d="M314.08,249.33c-.1-.14-9.93-14.48-11.3-16.58l.36-.23c1.37,2.09,11.2,16.42,11.3,16.57Z"/><path class="cls-10" d="M316.73,249.17c-.1-.14-9.93-14.48-11.3-16.58l.36-.24c1.37,2.1,11.2,16.43,11.3,16.58Z"/><path class="cls-10" d="M319.38,249c-.1-.15-9.93-14.48-11.3-16.58l.37-.24c1.36,2.09,11.19,16.43,11.29,16.57Z"/><path class="cls-10" d="M322,248.85c-.1-.15-9.94-14.49-11.3-16.58l.36-.24c1.37,2.09,11.2,16.43,11.29,16.57Z"/><path class="cls-10" d="M328,250.31c-.1-.14-9.93-14.48-11.3-16.58l.36-.23c1.37,2.09,11.2,16.42,11.3,16.57Z"/><path class="cls-10" d="M330.68,250.15c-.1-.15-9.93-14.48-11.3-16.58l.36-.24c1.37,2.09,11.2,16.43,11.3,16.57Z"/><path class="cls-10" d="M333.34,250c-.1-.15-9.94-14.49-11.31-16.58l.37-.24c1.36,2.09,11.19,16.43,11.29,16.57Z"/><path class="cls-10" d="M336,249.82c-.1-.14-9.93-14.48-11.3-16.58l.36-.23c1.37,2.09,11.2,16.42,11.3,16.57Z"/><path class="cls-10" d="M338.64,249.66c-.1-.14-9.93-14.48-11.3-16.58l.36-.24c1.37,2.1,11.2,16.43,11.3,16.57Z"/><path class="cls-10" d="M341.29,249.5c-.1-.15-9.93-14.49-11.3-16.58l.37-.24c1.36,2.09,11.19,16.43,11.29,16.57Z"/><path class="cls-10" d="M344,249.33c-.1-.14-9.94-14.48-11.3-16.58l.36-.23c1.37,2.09,11.2,16.42,11.29,16.57Z"/><path class="cls-10" d="M346.6,249.17c-.1-.14-9.93-14.48-11.3-16.58l.36-.24c1.37,2.1,11.2,16.43,11.3,16.58Z"/><path class="cls-10" d="M349.25,249c-.1-.15-9.93-14.48-11.3-16.58l.36-.24c1.37,2.09,11.2,16.43,11.3,16.57Z"/><path class="cls-10" d="M351.91,248.85c-.1-.15-9.94-14.49-11.31-16.58L341,232c1.36,2.09,11.19,16.43,11.29,16.57Z"/><path class="cls-10" d="M324.87,249.66c-.1-.14-9.94-14.48-11.31-16.58l.37-.24c1.36,2.1,11.19,16.43,11.29,16.57Z"/><path class="cls-10" d="M357.9,250.31c-.1-.14-9.93-14.48-11.3-16.58l.36-.23c1.37,2.09,11.2,16.42,11.3,16.57Z"/><path class="cls-10" d="M360.55,250.15c-.1-.15-9.93-14.48-11.3-16.58l.36-.24c1.37,2.09,11.2,16.43,11.3,16.57Z"/><path class="cls-10" d="M363.2,250c-.1-.15-9.93-14.49-11.3-16.58l.37-.24c1.36,2.09,11.19,16.43,11.29,16.57Z"/><path class="cls-10" d="M365.86,249.82c-.1-.14-9.94-14.48-11.31-16.58l.37-.23c1.37,2.09,11.2,16.42,11.29,16.57Z"/><path class="cls-10" d="M368.51,249.66c-.1-.14-9.93-14.48-11.3-16.58l.36-.24c1.37,2.1,11.2,16.43,11.3,16.57Z"/><path class="cls-10" d="M371.16,249.5c-.1-.15-9.93-14.49-11.3-16.58l.36-.24c1.37,2.09,11.2,16.43,11.3,16.57Z"/><path class="cls-10" d="M373.81,249.33c-.09-.14-9.93-14.48-11.3-16.58l.37-.23c1.36,2.09,11.19,16.42,11.29,16.57Z"/><path class="cls-10" d="M376.47,249.17c-.1-.14-9.93-14.48-11.3-16.58l.36-.24c1.37,2.1,11.2,16.43,11.3,16.58Z"/><path class="cls-10" d="M379.12,249c-.1-.15-9.93-14.48-11.3-16.58l.36-.24c1.37,2.09,11.2,16.43,11.3,16.57Z"/><path class="cls-10" d="M381.77,248.85c-.1-.15-9.93-14.49-11.3-16.58l.37-.24c1.36,2.09,11.19,16.43,11.29,16.57Z"/><path class="cls-10" d="M354.72,249.66c-.1-.14-9.93-14.48-11.3-16.58l.36-.24c1.37,2.1,11.2,16.43,11.3,16.57Z"/><path class="cls-10" d="M113.62,277.14c-.14-.2-13.51-19.7-15.37-22.55l.49-.32c1.86,2.84,15.23,22.34,15.36,22.53Z"/><path class="cls-10" d="M117.22,276.91c-.13-.19-13.5-19.69-15.36-22.54l.49-.32c1.86,2.84,15.22,22.33,15.36,22.53Z"/><path class="cls-10" d="M120.83,276.69c-.13-.19-13.5-19.69-15.37-22.54l.5-.32c1.86,2.84,15.22,22.33,15.36,22.53Z"/><path class="cls-10" d="M124.44,276.47c-.14-.2-13.51-19.69-15.37-22.54l.49-.33c1.86,2.85,15.23,22.34,15.36,22.54Z"/><path class="cls-10" d="M128,276.25c-.13-.2-13.5-19.69-15.36-22.54l.49-.33c1.86,2.85,15.23,22.34,15.36,22.53Z"/><path class="cls-10" d="M131.65,276c-.13-.2-13.5-19.69-15.37-22.54l.5-.33c1.86,2.85,15.22,22.34,15.36,22.53Z"/><path class="cls-10" d="M135.26,275.81c-.14-.2-13.51-19.7-15.37-22.55l.5-.32c1.85,2.85,15.22,22.34,15.35,22.53Z"/><path class="cls-10" d="M138.86,275.59c-.13-.2-13.5-19.7-15.36-22.55l.49-.32c1.86,2.84,15.23,22.33,15.36,22.53Z"/><path class="cls-10" d="M142.47,275.36c-.13-.19-13.5-19.69-15.37-22.54l.5-.32c1.86,2.84,15.22,22.33,15.36,22.53Z"/><path class="cls-10" d="M146.08,275.14c-.14-.2-13.51-19.69-15.37-22.54l.5-.32c1.85,2.84,15.22,22.33,15.36,22.53Z"/><path class="cls-10" d="M154.23,277.14c-.14-.2-13.51-19.7-15.37-22.55l.49-.32c1.86,2.84,15.23,22.34,15.36,22.53Z"/><path class="cls-10" d="M157.83,276.91c-.13-.19-13.5-19.69-15.36-22.54l.49-.32c1.86,2.84,15.23,22.33,15.36,22.53Z"/><path class="cls-10" d="M161.44,276.69c-.13-.19-13.5-19.69-15.37-22.54l.5-.32c1.86,2.84,15.22,22.33,15.36,22.53Z"/><path class="cls-10" d="M165.05,276.47c-.14-.2-13.51-19.69-15.37-22.54l.5-.33c1.85,2.85,15.22,22.34,15.35,22.54Z"/><path class="cls-10" d="M168.66,276.25c-.14-.2-13.51-19.69-15.37-22.54l.49-.33c1.86,2.85,15.23,22.34,15.36,22.53Z"/><path class="cls-10" d="M172.26,276c-.13-.2-13.5-19.69-15.36-22.54l.49-.33c1.86,2.85,15.22,22.34,15.36,22.53Z"/><path class="cls-10" d="M175.87,275.81c-.14-.2-13.5-19.7-15.37-22.55l.5-.32c1.86,2.85,15.22,22.34,15.36,22.53Z"/><path class="cls-10" d="M179.48,275.59c-.14-.2-13.51-19.7-15.37-22.55l.49-.32c1.86,2.84,15.23,22.33,15.36,22.53Z"/><path class="cls-10" d="M183.08,275.36c-.13-.19-13.5-19.69-15.36-22.54l.49-.32c1.86,2.84,15.22,22.33,15.36,22.53Z"/><path class="cls-10" d="M186.69,275.14c-.13-.2-13.5-19.69-15.37-22.54l.5-.32c1.86,2.84,15.22,22.33,15.36,22.53Z"/><path class="cls-10" d="M149.92,276.25c-.13-.2-13.5-19.69-15.36-22.54l.49-.33c1.86,2.85,15.23,22.34,15.36,22.54Z"/><path class="cls-10" d="M194.84,277.14c-.14-.2-13.51-19.7-15.37-22.55l.5-.32c1.86,2.84,15.22,22.34,15.36,22.53Z"/><path class="cls-10" d="M198.45,276.91c-.14-.19-13.51-19.69-15.37-22.54l.49-.32c1.86,2.84,15.23,22.33,15.36,22.53Z"/><path class="cls-10" d="M202.05,276.69c-.13-.19-13.5-19.69-15.36-22.54l.49-.32c1.86,2.84,15.22,22.33,15.36,22.53Z"/><path class="cls-10" d="M205.66,276.47c-.13-.2-13.5-19.69-15.37-22.54l.5-.33c1.86,2.85,15.22,22.34,15.36,22.54Z"/><path class="cls-10" d="M209.27,276.25c-.14-.2-13.51-19.69-15.37-22.54l.49-.33c1.86,2.85,15.23,22.34,15.36,22.53Z"/><path class="cls-10" d="M212.87,276c-.13-.2-13.5-19.69-15.36-22.54l.49-.33c1.86,2.85,15.23,22.34,15.36,22.53Z"/><path class="cls-10" d="M216.48,275.81c-.13-.2-13.5-19.7-15.37-22.55l.5-.32c1.86,2.85,15.22,22.34,15.36,22.53Z"/><path class="cls-10" d="M220.09,275.59c-.14-.2-13.51-19.7-15.37-22.55l.49-.32c1.86,2.84,15.23,22.33,15.36,22.53Z"/><path class="cls-10" d="M223.69,275.36c-.13-.19-13.5-19.69-15.36-22.54l.49-.32c1.86,2.84,15.23,22.33,15.36,22.53Z"/><path class="cls-10" d="M227.3,275.14c-.13-.2-13.5-19.69-15.37-22.54l.5-.32c1.86,2.84,15.22,22.33,15.36,22.53Z"/><path class="cls-10" d="M190.52,276.25c-.14-.2-13.51-19.69-15.37-22.54l.5-.33c1.86,2.85,15.22,22.34,15.36,22.54Z"/><path class="cls-10" d="M234.39,277.14c-.14-.2-13.5-19.7-15.37-22.55l.5-.32c1.86,2.84,15.22,22.34,15.36,22.53Z"/><path class="cls-10" d="M238,276.91c-.14-.19-13.51-19.69-15.37-22.54l.49-.32c1.86,2.84,15.23,22.33,15.36,22.53Z"/><path class="cls-10" d="M241.6,276.69c-.13-.19-13.5-19.69-15.36-22.54l.49-.32c1.86,2.84,15.22,22.33,15.36,22.53Z"/><path class="cls-10" d="M245.21,276.47c-.13-.2-13.5-19.69-15.37-22.54l.5-.33c1.86,2.85,15.22,22.34,15.36,22.54Z"/><path class="cls-10" d="M248.82,276.25c-.14-.2-13.51-19.69-15.37-22.54l.49-.33c1.86,2.85,15.23,22.34,15.36,22.53Z"/><path class="cls-10" d="M252.42,276c-.13-.2-13.5-19.69-15.36-22.54l.49-.33c1.86,2.85,15.23,22.34,15.36,22.53Z"/><path class="cls-10" d="M256,275.81c-.13-.2-13.5-19.7-15.37-22.55l.5-.32c1.86,2.85,15.22,22.34,15.36,22.53Z"/><path class="cls-10" d="M259.64,275.59c-.14-.2-13.51-19.7-15.37-22.55l.5-.32c1.85,2.84,15.22,22.33,15.35,22.53Z"/><path class="cls-10" d="M263.24,275.36c-.13-.19-13.5-19.69-15.36-22.54l.49-.32c1.86,2.84,15.23,22.33,15.36,22.53Z"/><path class="cls-10" d="M266.85,275.14c-.13-.2-13.5-19.69-15.37-22.54l.5-.32c1.86,2.84,15.22,22.33,15.36,22.53Z"/><path class="cls-10" d="M275,277.14c-.13-.2-13.5-19.7-15.37-22.55l.5-.32c1.86,2.84,15.22,22.34,15.36,22.53Z"/><path class="cls-10" d="M278.61,276.91c-.14-.19-13.51-19.69-15.37-22.54l.5-.32c1.85,2.84,15.22,22.33,15.35,22.53Z"/><path class="cls-10" d="M282.22,276.69c-.14-.19-13.51-19.69-15.37-22.54l.49-.32c1.86,2.84,15.23,22.33,15.36,22.53Z"/><path class="cls-10" d="M285.82,276.47c-.13-.2-13.5-19.69-15.37-22.54l.5-.33c1.86,2.85,15.22,22.34,15.36,22.54Z"/><path class="cls-10" d="M289.43,276.25c-.14-.2-13.51-19.69-15.37-22.54l.5-.33c1.85,2.85,15.22,22.34,15.36,22.53Z"/><path class="cls-10" d="M293,276c-.14-.2-13.51-19.69-15.37-22.54l.49-.33c1.86,2.85,15.23,22.34,15.36,22.53Z"/><path class="cls-10" d="M296.64,275.81c-.13-.2-13.5-19.7-15.36-22.55l.49-.32c1.86,2.85,15.22,22.34,15.36,22.53Z"/><path class="cls-10" d="M300.25,275.59c-.14-.2-13.5-19.7-15.37-22.55l.5-.32c1.86,2.84,15.22,22.33,15.36,22.53Z"/><path class="cls-10" d="M303.86,275.36c-.14-.19-13.51-19.69-15.37-22.54l.49-.32c1.86,2.84,15.23,22.33,15.36,22.53Z"/><path class="cls-10" d="M307.46,275.14c-.13-.2-13.5-19.69-15.36-22.54l.49-.32c1.86,2.84,15.23,22.33,15.36,22.53Z"/><path class="cls-10" d="M270.7,276.25c-.14-.2-13.51-19.69-15.37-22.54l.49-.33c1.86,2.85,15.23,22.34,15.36,22.54Z"/><path class="cls-10" d="M315.61,277.14c-.13-.2-13.5-19.7-15.36-22.55l.49-.32c1.86,2.84,15.22,22.34,15.36,22.53Z"/><path class="cls-10" d="M319.22,276.91c-.14-.19-13.51-19.69-15.37-22.54l.5-.32c1.86,2.84,15.22,22.33,15.36,22.53Z"/><path class="cls-10" d="M322.83,276.69c-.14-.19-13.51-19.69-15.37-22.54l.49-.32c1.86,2.84,15.23,22.33,15.36,22.53Z"/><path class="cls-10" d="M326.43,276.47c-.13-.2-13.5-19.69-15.36-22.54l.49-.33c1.86,2.85,15.22,22.34,15.36,22.54Z"/><path class="cls-10" d="M330,276.25c-.13-.2-13.5-19.69-15.37-22.54l.5-.33c1.86,2.85,15.22,22.34,15.36,22.53Z"/><path class="cls-10" d="M333.65,276c-.14-.2-13.51-19.69-15.37-22.54l.49-.33c1.86,2.85,15.23,22.34,15.36,22.53Z"/><path class="cls-10" d="M337.25,275.81c-.13-.2-13.5-19.7-15.36-22.55l.49-.32c1.86,2.85,15.23,22.34,15.36,22.53Z"/><path class="cls-10" d="M340.86,275.59c-.13-.2-13.5-19.7-15.37-22.55l.5-.32c1.86,2.84,15.22,22.33,15.36,22.53Z"/><path class="cls-10" d="M344.47,275.36c-.14-.19-13.51-19.69-15.37-22.54l.5-.32c1.85,2.84,15.22,22.33,15.35,22.53Z"/><path class="cls-10" d="M348.08,275.14c-.14-.2-13.51-19.69-15.37-22.54l.49-.32c1.86,2.84,15.23,22.33,15.36,22.53Z"/><path class="cls-10" d="M311.29,276.25c-.13-.2-13.5-19.69-15.36-22.54l.49-.33c1.86,2.85,15.22,22.34,15.36,22.54Z"/><path class="cls-10" d="M354.37,277.14c-.14-.2-13.51-19.7-15.37-22.55l.49-.32c1.86,2.84,15.23,22.34,15.36,22.53Z"/><path class="cls-10" d="M358,276.91c-.13-.19-13.5-19.69-15.36-22.54l.49-.32c1.86,2.84,15.22,22.33,15.36,22.53Z"/><path class="cls-10" d="M361.58,276.69c-.14-.19-13.5-19.69-15.37-22.54l.5-.32c1.86,2.84,15.22,22.33,15.36,22.53Z"/><path class="cls-10" d="M365.19,276.47c-.14-.2-13.51-19.69-15.37-22.54l.49-.33c1.86,2.85,15.23,22.34,15.36,22.54Z"/><path class="cls-10" d="M368.79,276.25c-.13-.2-13.5-19.69-15.36-22.54l.49-.33c1.86,2.85,15.22,22.34,15.36,22.53Z"/><path class="cls-10" d="M372.4,276c-.13-.2-13.5-19.69-15.37-22.54l.5-.33c1.86,2.85,15.22,22.34,15.36,22.53Z"/><path class="cls-10" d="M376,275.81c-.14-.2-13.51-19.7-15.37-22.55l.49-.32c1.86,2.85,15.23,22.34,15.36,22.53Z"/><path class="cls-10" d="M379.61,275.59c-.13-.2-13.5-19.7-15.36-22.55l.49-.32c1.86,2.84,15.23,22.33,15.36,22.53Z"/><path class="cls-10" d="M383.22,275.36c-.13-.19-13.5-19.69-15.37-22.54l.5-.32c1.86,2.84,15.22,22.33,15.36,22.53Z"/><path class="cls-10" d="M386.83,275.14c-.14-.2-13.51-19.69-15.37-22.54l.5-.32c1.85,2.84,15.22,22.33,15.35,22.53Z"/><path class="cls-10" d="M395,277.14c-.14-.2-13.51-19.7-15.37-22.55l.49-.32c1.86,2.84,15.23,22.34,15.36,22.53Z"/><path class="cls-10" d="M398.58,276.91c-.13-.19-13.5-19.69-15.36-22.54l.49-.32c1.86,2.84,15.23,22.33,15.36,22.53Z"/><path class="cls-10" d="M402.19,276.69c-.13-.19-13.5-19.69-15.37-22.54l.5-.32c1.86,2.84,15.22,22.33,15.36,22.53Z"/><path class="cls-10" d="M405.8,276.47c-.14-.2-13.51-19.69-15.37-22.54l.5-.33c1.85,2.85,15.22,22.34,15.35,22.54Z"/><path class="cls-10" d="M409.4,276.25c-.13-.2-13.5-19.69-15.36-22.54l.49-.33c1.86,2.85,15.23,22.34,15.36,22.53Z"/><path class="cls-10" d="M413,276c-.13-.2-13.5-19.69-15.37-22.54l.5-.33C400,256,413.36,275.5,413.5,275.69Z"/><path class="cls-10" d="M416.62,275.81c-.14-.2-13.51-19.7-15.37-22.55l.5-.32c1.86,2.85,15.22,22.34,15.36,22.53Z"/><path class="cls-10" d="M420.23,275.59c-.14-.2-13.51-19.7-15.37-22.55l.49-.32c1.86,2.84,15.23,22.33,15.36,22.53Z"/><path class="cls-10" d="M423.83,275.36c-.13-.19-13.5-19.69-15.36-22.54l.49-.32c1.86,2.84,15.22,22.33,15.36,22.53Z"/><path class="cls-10" d="M427.44,275.14c-.13-.2-13.5-19.69-15.37-22.54l.5-.32c1.86,2.84,15.22,22.33,15.36,22.53Z"/><path class="cls-10" d="M390.67,276.25c-.13-.2-13.5-19.69-15.36-22.54l.49-.33c1.86,2.85,15.23,22.34,15.36,22.54Z"/></g></g></svg>