<svg xmlns="http://www.w3.org/2000/svg" viewBox="0 0 469.64 461.98"><defs><style>.cls-1{fill:#36c0ea;opacity:0.15;}.cls-2{fill:#4fcfed;}.cls-3{fill:#fff;}.cls-4{fill:#4ea6f3;}.cls-5{fill:#d6d7d7;}.cls-6{fill:#f2b816;}.cls-7{fill:#f0f9fe;}.cls-8{fill:#3d9fe8;}.cls-9{fill:#ee9f03;}.cls-10{fill:#fcc00f;}.cls-11{fill:#ceaf99;}</style></defs><g id="Layer_2" data-name="Layer 2"><g id="Ñëîé_3" data-name="Ñëîé 3"><circle class="cls-1" cx="238.65" cy="230.99" r="230.99" transform="translate(-93.43 236.41) rotate(-45)"/><path class="cls-2" d="M453.91,238V226l-5.14-.51a18.77,18.77,0,0,0-.77-2.22l4.3-5.24-8.54-8.54-.82.67-.38-.37-4.11,3.37a19.17,19.17,0,0,0-1.86-.78l-.56-5.66H424l-.56,5.66c-.59.22-1.18.46-1.74.73l-4.9-4-8.54,8.54,4.07,4.95-.2.44-6.37.63v12.08l5.6.55c.08.27.17.54.26.81l-4.39,4.3,7.56,9.42,5.2-3.39a20,20,0,0,0,2.48,1.27l.57,5.72h12.07l.5-5a15.63,15.63,0,0,0,1.5-.52l4.91,4,8.54-8.54-3.46-4.22c.27-.48.51-1,.74-1.48Zm-9.8-7.34A14.12,14.12,0,1,1,430,216.56,14.14,14.14,0,0,1,444.11,230.68Z"/><path class="cls-2" d="M233.84,180.8V150.21l-13-1.29a49,49,0,0,0-1.94-5.62L229.76,130,208.13,108.4l-2.08,1.7-1-.95-10.42,8.55a47.92,47.92,0,0,0-4.72-2l-1.41-14.35H158l-1.41,14.35a45.42,45.42,0,0,0-4.43,1.85l-12.4-10.17L118.07,129l10.3,12.56c-.17.37-.34.74-.5,1.11l-16.15,1.6v30.59l14.19,1.4c.21.69.43,1.37.66,2.05l-11.12,10.9L134.6,213.1l13.17-8.6a48.5,48.5,0,0,0,6.3,3.22l1.43,14.5h30.6l1.25-12.69c1.29-.38,2.56-.82,3.81-1.31l12.43,10.19,21.63-21.63-8.76-10.68c.68-1.22,1.3-2.48,1.88-3.77ZM209,162.2a35.77,35.77,0,1,1-35.77-35.77A35.82,35.82,0,0,1,209,162.2Z"/><path class="cls-2" d="M138.88,206.92l-23.92-26L102.89,190a56.07,56.07,0,0,0-6-3.26L95.72,167l-35.3-1.47L60,168.56l-1.55-.07L56.26,183.9a55.92,55.92,0,0,0-5.56,2L38.28,174.82l-26,23.92,10,13.3c-.85,1.65-1.63,3.33-2.32,5l-18.49,1L0,253.43l18.58,2.62c.14.45.28.9.44,1.35l-12.48,14,23.92,26,13.16-9.9c.71.42,1.44.83,2.16,1.22l-.93,18L79.78,312l4.48-17.61a56.08,56.08,0,0,0,7.87-2.19l12.55,11.2,26-23.92-8.85-11.76q1.2-2,2.22-4.09l18.52-1.06,1.48-35.3L128.25,225c-.37-1.57-.83-3.13-1.34-4.67Zm-35.64,3.59a41.31,41.31,0,1,1-58.37-2.43A41.37,41.37,0,0,1,103.24,210.51Z"/><rect class="cls-3" x="273.82" y="70.91" width="155.99" height="121.87" rx="4.02"/><path class="cls-4" d="M429.81,96.26h-156v-21a4.39,4.39,0,0,1,4.38-4.39H425.42a4.4,4.4,0,0,1,4.39,4.39Z"/><rect class="cls-5" x="305.26" y="106.01" width="15.11" height="15.11"/><rect class="cls-5" x="324.76" y="106.01" width="15.11" height="15.11"/><rect class="cls-5" x="344.26" y="106.01" width="15.11" height="15.11"/><rect class="cls-5" x="363.76" y="106.01" width="15.11" height="15.11"/><rect class="cls-6" x="383.26" y="106.01" width="15.11" height="15.11"/><rect class="cls-6" x="402.76" y="106.01" width="15.11" height="15.11"/><rect class="cls-5" x="285.76" y="125.51" width="15.11" height="15.11"/><rect class="cls-5" x="305.26" y="125.51" width="15.11" height="15.11"/><rect class="cls-5" x="324.76" y="125.51" width="15.11" height="15.11"/><rect class="cls-5" x="344.26" y="125.51" width="15.11" height="15.11"/><rect class="cls-5" x="363.76" y="125.51" width="15.11" height="15.11"/><rect class="cls-6" x="383.26" y="125.51" width="15.11" height="15.11"/><rect class="cls-6" x="402.76" y="125.51" width="15.11" height="15.11"/><rect class="cls-5" x="285.76" y="145.01" width="15.11" height="15.11"/><rect class="cls-5" x="305.26" y="145.01" width="15.11" height="15.11"/><rect class="cls-5" x="324.76" y="145.01" width="15.11" height="15.11"/><rect class="cls-5" x="344.26" y="145.01" width="15.11" height="15.11"/><rect class="cls-5" x="363.76" y="145.01" width="15.11" height="15.11"/><rect class="cls-6" x="383.26" y="145.01" width="15.11" height="15.11"/><rect class="cls-6" x="402.76" y="145.01" width="15.11" height="15.11"/><rect class="cls-5" x="285.76" y="164.51" width="15.11" height="15.11"/><rect class="cls-5" x="305.26" y="164.51" width="15.11" height="15.11"/><rect class="cls-5" x="324.76" y="164.51" width="15.11" height="15.11"/><circle class="cls-7" cx="293.31" cy="83.59" r="7.8" transform="translate(38.48 251.16) rotate(-49.23)"/><circle class="cls-7" cx="409.66" cy="83.59" r="7.8" transform="translate(86.27 348.59) rotate(-50.87)"/><rect class="cls-7" x="197.39" y="318.81" width="82.5" height="45"/><rect class="cls-3" x="162.14" y="356.31" width="152.98" height="7.5"/><circle class="cls-4" cx="64.18" cy="109.57" r="52.74" transform="translate(-58.68 77.48) rotate(-45)"/><circle class="cls-7" cx="64.18" cy="109.57" r="40.92"/><circle class="cls-3" cx="62.37" cy="111.38" r="39.11" transform="translate(-37.88 32.35) rotate(-22.5)"/><circle class="cls-4" cx="64.18" cy="109.57" r="8.53" transform="translate(-58.68 77.48) rotate(-45)"/><rect class="cls-4" x="61.05" y="83.64" width="6.26" height="26.04"/><rect class="cls-4" x="69.59" y="105.08" width="6.26" height="26.04" transform="translate(207.64 150.19) rotate(135)"/><rect class="cls-3" x="86.39" y="169.76" width="304.48" height="175.49" rx="12.75"/><path class="cls-3" d="M76.68,249.54a2,2,0,0,1-2-2V247a2,2,0,0,1,4,0v.5A2,2,0,0,1,76.68,249.54Z"/><path class="cls-3" d="M76.68,238.89a2,2,0,0,1-2-2v-1a2,2,0,0,1,4,0v1A2,2,0,0,1,76.68,238.89Zm0-11.17a2,2,0,0,1-2-2v-1a2,2,0,1,1,4,0v1A2,2,0,0,1,76.68,227.72Zm0-11.17a2,2,0,0,1-2-2v-1a2,2,0,0,1,4,0v1A2,2,0,0,1,76.68,216.55Zm0-11.17a2,2,0,0,1-2-2v-1a2,2,0,0,1,4,0v1A2,2,0,0,1,76.68,205.38Zm0-11.16a2,2,0,0,1-2-2v-1a2,2,0,0,1,4,0v1A2,2,0,0,1,76.68,194.22Zm0-11.17a2,2,0,0,1-2-2v-1a2,2,0,0,1,4,0v1A2,2,0,0,1,76.68,183.05ZM77,171.9a2,2,0,0,1-2-2.41c.08-.39.18-.77.29-1.14a2,2,0,1,1,3.83,1.14c-.08.27-.15.54-.21.82A2,2,0,0,1,77,171.9Zm6.51-8.63a2,2,0,0,1-.94-3.77c.35-.18.7-.35,1.06-.5a2,2,0,0,1,1.59,3.67c-.27.11-.52.24-.78.37A1.91,1.91,0,0,1,83.47,163.27Zm134.79-1.47h-1a2,2,0,0,1,0-4h1a2,2,0,0,1,0,4Zm-11.17,0h-1a2,2,0,0,1,0-4h1a2,2,0,0,1,0,4Zm-11.17,0h-1a2,2,0,0,1,0-4h1a2,2,0,1,1,0,4Zm-11.17,0h-1a2,2,0,0,1,0-4h1a2,2,0,0,1,0,4Zm-11.17,0h-1a2,2,0,0,1,0-4h1a2,2,0,0,1,0,4Zm-11.16,0h-1a2,2,0,0,1,0-4h1a2,2,0,1,1,0,4Zm-11.17,0h-1a2,2,0,1,1,0-4h1a2,2,0,0,1,0,4Zm-11.17,0h-1a2,2,0,0,1,0-4h1a2,2,0,0,1,0,4Zm-11.17,0h-1a2,2,0,0,1,0-4h1a2,2,0,1,1,0,4Zm-11.17,0h-1a2,2,0,0,1,0-4h1a2,2,0,1,1,0,4Zm-11.16,0h-1a2,2,0,0,1,0-4h1a2,2,0,0,1,0,4Zm-11.17,0h-1a2,2,0,1,1,0-4h1a2,2,0,0,1,0,4Z"/><path class="cls-3" d="M228.92,161.8h-.5a2,2,0,0,1,0-4h.5a2,2,0,1,1,0,4Z"/><rect class="cls-4" x="97.12" y="175.95" width="283.03" height="163.12" rx="11.85"/><path class="cls-8" d="M368.3,339.07H109a11.86,11.86,0,0,1-11.85-11.85L368.3,176a11.85,11.85,0,0,1,11.85,11.85V327.22A11.86,11.86,0,0,1,368.3,339.07Z"/><polygon class="cls-9" points="423.22 343.91 428.48 363.81 419.79 363.81 413.42 349.61 423.22 343.91"/><polygon class="cls-9" points="359.88 343.91 354.63 363.81 363.31 363.81 369.68 349.61 359.88 343.91"/><rect class="cls-9" x="386.47" y="253.84" width="10.29" height="16.08"/><circle class="cls-10" cx="391.58" cy="312.72" r="47.55"/><circle class="cls-7" cx="391.58" cy="312.72" r="36.89"/><circle class="cls-3" cx="389.95" cy="314.36" r="35.26"/><circle class="cls-11" cx="391.58" cy="312.72" r="7.69"/><rect class="cls-11" x="388.76" y="289.35" width="5.64" height="23.48"/><rect class="cls-11" x="396.45" y="308.68" width="5.64" height="23.48" transform="translate(-109.62 376.17) rotate(-45)"/><rect class="cls-10" x="379.06" y="248.54" width="25.05" height="10.61"/><path class="cls-3" d="M84.75,312.65H66.14a58.88,58.88,0,0,1-16-49.61H99.75a63.13,63.13,0,0,1-3.67,31A62.22,62.22,0,0,1,84.75,312.65Z"/><path class="cls-3" d="M66.41,311.65H85a58.88,58.88,0,0,1,16,49.61H51.41a63.13,63.13,0,0,1,3.67-31A62.22,62.22,0,0,1,66.41,311.65Z"/><rect class="cls-4" x="43.72" y="259.29" width="64.03" height="7.78"/><rect class="cls-4" x="43.72" y="358.37" width="64.03" height="7.78"/><path class="cls-10" d="M55.68,285.32a39.64,39.64,0,0,0,2.69,11c3.88,9.25,10,12.45,12.79,15.33h7.32c2.66-3,9.27-6.08,12.73-14.3a43.11,43.11,0,0,0,2.94-12Z"/><rect class="cls-10" x="53.75" y="353.13" width="45" height="3.69"/><path class="cls-10" d="M78.33,328.28a1.71,1.71,0,1,1-1.71-1.71A1.71,1.71,0,0,1,78.33,328.28Z"/><circle class="cls-10" cx="74.24" cy="337.95" r="1.49"/><circle class="cls-10" cx="79.95" cy="343.27" r="0.95"/></g></g></svg>